<svg width="284" height="248" viewBox="0 0 284 248" fill="none" xmlns="http://www.w3.org/2000/svg">
<path d="M50.3961 8.88168L82.0627 50.0906" stroke="#191919" stroke-width="3.16667" stroke-linecap="round" stroke-linejoin="round"/>
<path d="M83.3821 20.4715L115.049 61.6804" stroke="#78C04C" stroke-width="3.16667" stroke-linecap="round" stroke-linejoin="round"/>
<path fill-rule="evenodd" clip-rule="evenodd" d="M231.82 17.8962L224.84 21.4777L226.173 13.892L220.526 8.51972L228.33 7.41298L231.82 0.51123L235.31 7.41298L243.113 8.51972L237.466 13.892L238.8 21.4777L231.82 17.8962Z" fill="#FCC202"/>
<path fill-rule="evenodd" clip-rule="evenodd" d="M274.042 91.9434L283.278 109.972H264.806L274.042 91.9434Z" fill="#78C04C"/>
<ellipse cx="217.306" cy="73.9142" rx="7.91667" ry="7.72667" fill="#767676"/>
<path fill-rule="evenodd" clip-rule="evenodd" d="M12.792 173.717L5.81204 177.299L7.14509 169.713L1.4982 164.341L9.30202 163.234L12.792 156.332L16.282 163.234L24.0858 164.341L18.4389 169.713L19.7719 177.299L12.792 173.717Z" fill="#E71D36"/>
<path fill-rule="evenodd" clip-rule="evenodd" d="M52.3753 229.736L61.6114 247.764H43.1392L52.3753 229.736Z" fill="#332DA1"/>
<ellipse cx="49.7363" cy="189.814" rx="5.27778" ry="5.15111" fill="#78C04C"/>
<ellipse cx="27.3058" cy="61.0367" rx="7.91667" ry="7.72667" fill="#FFB800"/>
<path d="M179.464 174.271H204.004V155.795H179.464V174.271Z" fill="#EBEBEB"/>
<path d="M181.217 172.656H184.175V169.395H181.217V172.656Z" fill="white"/>
<path d="M196.519 155.842H193.731V159.783H196.519V155.842Z" fill="#FAFAFA"/>
<path d="M196.519 170.273H193.731V174.214H196.519V170.273Z" fill="#FAFAFA"/>
<path d="M185.588 174.396C185.543 174.396 185.51 170.333 185.51 165.321C185.51 160.31 185.543 156.246 185.588 156.246C185.632 156.246 185.666 160.31 185.666 165.321C185.666 170.333 185.632 174.396 185.588 174.396Z" fill="#E0E0E0"/>
<path d="M169.456 206.083H211.798V174.208H169.456V206.083Z" fill="#EBEBEB"/>
<path d="M172.482 203.302H177.583V197.674H172.482V203.302Z" fill="white"/>
<path d="M198.879 174.29H194.07V181.092H198.879V174.29Z" fill="#FAFAFA"/>
<path d="M198.879 199.186H194.07V205.987H198.879V199.186Z" fill="#FAFAFA"/>
<path d="M180.025 206.302C179.95 206.302 179.889 199.292 179.889 190.644C179.889 181.997 179.95 174.987 180.025 174.987C180.099 174.987 180.157 181.997 180.157 190.644C180.157 199.292 180.099 206.302 180.025 206.302Z" fill="#E0E0E0"/>
<path d="M210.453 107.911L212.721 112.395L217.791 113.114L214.124 116.608L214.99 121.537L210.453 119.21L205.915 121.537L206.781 116.608L203.114 113.114L208.184 112.395L210.453 107.911Z" fill="#EBEBEB"/>
<path d="M75.3895 165.835L76.8193 168.662L80.0149 169.113L77.7022 171.314L78.249 174.423L75.3895 172.955L72.5301 174.423L73.0769 171.314L70.7642 169.113L73.9598 168.662L75.3895 165.835Z" fill="#EBEBEB"/>
<path d="M77.1626 141.205L80.3379 147.483L87.4356 148.49L82.3008 153.376L83.5132 160.277L77.1626 157.018L70.8154 160.277L72.0278 153.376L66.8896 148.49L73.9873 147.483L77.1626 141.205Z" fill="#EBEBEB"/>
<path d="M208.432 128.166L209.801 130.873L212.86 131.308L210.646 133.412L211.169 136.386L208.432 134.983L205.695 136.386L206.218 133.412L204.004 131.308L207.063 130.873L208.432 128.166Z" fill="#EBEBEB"/>
<path d="M163.53 84.3311L164.898 87.0357L167.958 87.4699L165.744 89.5779L166.267 92.5511L163.53 91.1457L160.793 92.5511L161.316 89.5779L159.101 87.4699L162.161 87.0357L163.53 84.3311Z" fill="#EBEBEB"/>
<path d="M194.831 113.28L195.728 115.05L197.732 115.335L196.281 116.714L196.624 118.66L194.831 117.742L193.042 118.66L193.385 116.714L191.935 115.335L193.938 115.05L194.831 113.28Z" fill="#EBEBEB"/>
<path d="M112.206 202.673L113.952 206.12L117.85 206.673L115.028 209.358L115.697 213.15L112.206 211.36L108.718 213.15L109.384 209.358L106.562 206.673L110.464 206.12L112.206 202.673Z" fill="#EBEBEB"/>
<path d="M116.811 199.242L117.531 200.667L119.144 200.896L117.976 202.006L118.251 203.574L116.811 202.832L115.371 203.574L115.646 202.006L114.478 200.896L116.091 200.667L116.811 199.242Z" fill="#EBEBEB"/>
<path d="M181.216 186.037L182.751 189.07L186.181 189.557L183.698 191.917L184.286 195.251L181.216 193.677L178.149 195.251L178.737 191.917L176.254 189.557L179.684 189.07L181.216 186.037Z" fill="#E71D36"/>
<path d="M188.535 183.349L189.258 184.778L190.871 185.006L189.703 186.12L189.978 187.691L188.535 186.949L187.088 187.691L187.366 186.12L186.195 185.006L187.811 184.778L188.535 183.349Z" fill="#E71D36"/>
<path d="M178.944 104.413L180.153 100.748C179.001 98.4829 178.651 95.9091 179.158 93.4296C179.666 90.95 181.001 88.7047 182.956 87.0454C184.911 85.3862 187.374 84.4067 189.961 84.2604C192.547 84.1141 195.11 84.8093 197.248 86.237C199.386 87.6648 200.979 89.7445 201.776 92.1502C202.573 94.556 202.53 97.1519 201.654 99.5313C200.778 101.911 199.117 103.939 196.933 105.299C194.749 106.659 192.164 107.273 189.584 107.045C187.067 106.878 184.684 105.871 182.836 104.195L178.944 104.413Z" fill="#FAFAFA"/>
<path d="M178.945 104.414L179.203 104.394L179.953 104.341L182.836 104.149C184.266 105.439 186.026 106.327 187.93 106.721C188.518 106.848 189.116 106.931 189.717 106.969L190.668 107.006C190.987 107.006 191.316 106.969 191.646 106.953C194.625 106.689 197.385 105.316 199.355 103.118C200.464 101.897 201.288 100.455 201.769 98.8918C202.262 97.2215 202.362 95.4642 202.061 93.751C201.987 93.3105 201.882 92.8754 201.749 92.4483C201.689 92.232 201.615 92.0195 201.528 91.812C201.443 91.5998 201.368 91.3877 201.277 91.1789C200.899 90.3359 200.42 89.5393 199.85 88.8057C199.567 88.44 199.259 88.0924 198.93 87.7649C198.77 87.598 198.6 87.4408 198.421 87.2943C198.248 87.1451 198.081 86.9827 197.898 86.8468L197.341 86.4424L197.062 86.2436L196.763 86.0712L196.176 85.7398C195.976 85.6304 195.765 85.5475 195.561 85.4481C194 84.7272 192.294 84.3571 190.567 84.3651C188.84 84.3732 187.137 84.7591 185.584 85.4945C182.892 86.7564 180.801 88.9821 179.746 91.7092C179.688 91.8617 179.634 92.0141 179.58 92.1633C179.518 92.3105 179.469 92.4623 179.434 92.6174C179.355 92.9223 179.281 93.2239 179.206 93.5189C179.103 94.097 179.033 94.6801 178.995 95.2657C178.919 97.16 179.328 99.0429 180.184 100.745L179.274 103.456L179.033 104.159C178.979 104.318 178.948 104.4 178.948 104.4C178.948 104.4 178.968 104.324 179.019 104.168L179.237 103.472L180.109 100.725V100.751C179.23 99.0464 178.805 97.1531 178.873 95.2458C178.905 94.6536 178.972 94.0638 179.074 93.4792C179.148 93.1809 179.226 92.8759 179.301 92.5677C179.337 92.4109 179.385 92.257 179.444 92.107C179.502 91.9545 179.556 91.802 179.614 91.6462C180.181 90.1594 181.058 88.8036 182.19 87.6648C183.322 86.526 184.683 85.629 186.189 85.0304C187.694 84.4319 189.311 84.145 190.936 84.1878C192.561 84.2306 194.159 84.6022 195.629 85.279C195.836 85.3752 196.05 85.4613 196.254 85.574L196.852 85.9221L197.151 86.0977L197.436 86.2999L198 86.7076C198.186 86.8501 198.356 87.0125 198.533 87.1617C198.714 87.3113 198.886 87.4707 199.049 87.639C199.383 87.9731 199.695 88.3273 199.983 88.6996C200.563 89.4375 201.052 90.2396 201.44 91.0894C201.531 91.3015 201.606 91.5203 201.691 91.7324C201.781 91.9485 201.857 92.1699 201.919 92.3953C202.053 92.83 202.157 93.2729 202.231 93.7211C202.538 95.4598 202.436 97.2437 201.932 98.9382C201.45 100.531 200.617 102.002 199.49 103.247C197.491 105.466 194.695 106.849 191.68 107.112C191.34 107.112 191 107.158 190.688 107.158L189.727 107.118C189.12 107.077 188.517 106.991 187.924 106.86C186.012 106.451 184.251 105.541 182.83 104.228H182.857L179.946 104.377L179.206 104.41C179.026 104.414 178.945 104.414 178.945 104.414Z" fill="#263238"/>
<path d="M183.994 95.2459L185.919 93.6152L189.163 96.8667L196.437 90.9536L197.975 92.8263L188.657 100.231L183.994 95.2459Z" fill="#E71D36"/>
<path d="M158.796 185.895L93.674 200.061C93.2971 200.145 92.9068 200.155 92.5257 200.092C92.1446 200.028 91.7802 199.891 91.4535 199.689C91.1268 199.488 90.8442 199.225 90.6221 198.916C90.3999 198.607 90.2426 198.258 90.1591 197.89L69.0392 105.332C68.9551 104.965 68.9459 104.586 69.0122 104.216C69.0785 103.845 69.219 103.492 69.4257 103.174C69.6323 102.857 69.901 102.583 70.2164 102.368C70.5318 102.152 70.8877 101.999 71.2636 101.918L136.386 87.7517C136.762 87.6696 137.151 87.6606 137.53 87.7252C137.91 87.7899 138.272 87.927 138.598 88.1287C138.923 88.3303 139.204 88.5925 139.425 88.9004C139.647 89.2082 139.803 89.5556 139.887 89.9227L161.02 182.481C161.105 182.847 161.114 183.227 161.047 183.597C160.981 183.967 160.841 184.321 160.634 184.638C160.427 184.955 160.159 185.229 159.843 185.445C159.528 185.661 159.172 185.813 158.796 185.895Z" fill="#E0E0E0"/>
<path d="M158.796 185.895L159.014 185.835C159.225 185.768 159.428 185.68 159.621 185.573C159.938 185.391 160.218 185.154 160.447 184.874C160.758 184.489 160.963 184.033 161.041 183.548C161.09 183.255 161.09 182.956 161.041 182.663C160.987 182.355 160.902 182.03 160.827 181.692C160.671 181.029 160.487 180.273 160.318 179.471C159.949 177.865 159.524 176.016 159.044 173.926C157.132 165.583 154.368 153.512 150.951 138.593C149.253 131.136 147.379 122.965 145.372 114.192C144.371 109.808 143.335 105.278 142.264 100.602C141.732 98.2644 141.191 95.8945 140.641 93.4926C140.363 92.2927 140.088 91.0829 139.806 89.8665C139.653 89.2602 139.295 88.7217 138.791 88.3376C138.286 87.9534 137.664 87.746 137.024 87.7485C136.705 87.7554 136.388 87.7999 136.08 87.8811L135.129 88.0866L133.217 88.5042L129.359 89.3428L121.508 91.0531L105.329 94.583L71.2875 101.981C70.5679 102.137 69.9375 102.557 69.527 103.154C69.1166 103.752 68.9577 104.481 69.0835 105.19C69.3925 106.598 69.7253 108.01 70.0412 109.416C70.6841 112.222 71.3215 115.012 71.9531 117.785L75.6888 134.162C78.1407 144.897 80.5043 155.239 82.7559 165.116C85.0074 174.993 87.1435 184.34 89.1472 193.127C89.3962 194.232 89.6441 195.319 89.8909 196.388C90.0166 196.925 90.1286 197.469 90.2611 197.996C90.4037 198.515 90.696 198.983 91.1033 199.345C91.5079 199.701 92.0067 199.94 92.5432 200.034C92.8093 200.077 93.0799 200.085 93.3481 200.058C93.613 200.024 93.8812 199.962 94.1461 199.902L97.3078 199.216L109.306 196.611L145.514 188.758L155.363 186.631L157.923 186.08L158.796 185.895L157.927 186.094L155.366 186.657L145.518 188.808L109.316 196.707L97.3316 199.322L94.1699 200.011C93.905 200.068 93.6401 200.134 93.3617 200.17C93.0832 200.198 92.8022 200.189 92.5262 200.144C91.9644 200.049 91.4421 199.799 91.0209 199.423C90.5998 199.048 90.2973 198.563 90.149 198.026C90.0132 197.492 89.9011 196.955 89.7755 196.418C89.5287 195.342 89.2796 194.255 89.0283 193.157C87.0247 184.383 84.8818 175.01 82.6268 165.146C80.3719 155.282 78.0082 144.927 75.5529 134.192L71.8173 117.818C71.1856 115.047 70.5483 112.255 69.9053 109.442C69.5861 108.037 69.2567 106.631 68.9443 105.209C68.8135 104.467 68.9809 103.704 69.4115 103.078C69.8422 102.453 70.5031 102.014 71.2569 101.852L105.302 94.4438L121.491 90.9371L129.339 89.2301L133.197 88.3915L135.112 87.954L136.063 87.7485C136.377 87.6691 136.7 87.6268 137.024 87.6226C137.687 87.6241 138.331 87.8409 138.853 88.2387C139.376 88.6366 139.748 89.193 139.911 89.8201C140.189 91.0398 140.468 92.2463 140.743 93.4495C141.298 95.8536 141.843 98.2202 142.38 100.549C143.442 105.223 144.475 109.752 145.48 114.139C147.481 122.912 149.342 131.083 151.043 138.543C154.439 153.459 157.19 165.54 159.092 173.886C159.564 175.971 159.985 177.827 160.352 179.431C160.532 180.237 160.691 180.976 160.854 181.655C160.929 181.987 161.014 182.318 161.065 182.627C161.116 182.923 161.116 183.225 161.065 183.521C160.987 184.015 160.779 184.48 160.46 184.871C160.228 185.151 159.947 185.388 159.628 185.57C159.433 185.677 159.225 185.763 159.01 185.825L158.796 185.895Z" fill="#263238"/>
<g opacity="0.3">
<path d="M96.975 196.783L156.31 183.545L154.436 172.196L151.07 165.835L94.3091 187.595L96.975 196.783Z" fill="black"/>
</g>
<g opacity="0.3">
<path d="M121.749 91.146L123.994 94.7621L124.428 96.6812L122.907 97.0127L121.749 91.146Z" fill="black"/>
</g>
<path d="M72.4185 105.869L93.0051 196.024L157.533 181.99L153.852 165.868L136.946 91.832L72.4185 105.869Z" fill="white"/>
<path d="M72.4179 105.869L136.942 91.7788H136.997V91.8352C142.722 116.89 149.864 148.155 157.594 181.99V182.06H157.526L93.0012 196.09H92.9401V196.027C80.8197 142.789 72.5402 106.409 72.4146 105.872C72.5402 106.422 80.874 142.793 93.0658 196.027L92.9877 195.981L157.512 181.937L157.458 182.02C149.739 148.192 142.604 116.926 136.888 91.865L136.956 91.9081L72.4179 105.869Z" fill="#263238"/>
<path d="M90.5885 95.1419L119.046 88.954C119.602 88.833 120.185 88.9327 120.666 89.2312C121.147 89.5297 121.487 90.0025 121.611 90.5456L123.255 97.7472L90.595 104.849L88.9526 97.654C88.8901 97.3841 88.8829 97.1049 88.9314 96.8323C88.9798 96.5598 89.0831 96.2993 89.2351 96.0658C89.3872 95.8323 89.585 95.6305 89.8173 95.4719C90.0496 95.3134 90.3117 95.2012 90.5885 95.1419Z" fill="#263238"/>
<path d="M108.182 87.6724L99.8716 89.4788L102.429 96.2205L108.688 94.8582L108.182 87.6724Z" fill="#263238"/>
<path d="M119.046 88.9486C119.046 88.9851 112.692 90.4004 104.837 92.1107C96.9817 93.821 90.6005 95.1832 90.5903 95.1468C90.5802 95.1103 96.9443 93.695 104.806 91.9847C112.668 90.2744 119.025 88.9221 119.046 88.9486Z" fill="#455A64"/>
<path d="M90.994 103.201C90.9566 103.201 90.6272 101.908 90.2604 100.297C89.8937 98.6862 89.622 97.3704 89.6627 97.3604C89.7035 97.3505 90.0295 98.6531 90.3963 100.267C90.7631 101.881 91.0313 103.201 90.994 103.201Z" fill="#455A64"/>
<path d="M121.698 95.7896C121.425 94.9176 121.198 94.0326 121.019 93.1379C120.794 92.2635 120.615 91.3785 120.482 90.4863C120.754 91.3528 120.981 92.2323 121.161 93.1214C121.387 94.0013 121.566 94.8918 121.698 95.7896Z" fill="#455A64"/>
<path d="M120.404 97.364C120.404 97.4004 113.88 98.8522 105.818 100.606C97.7557 102.359 91.215 103.754 91.198 103.715C91.1811 103.675 97.7184 102.226 105.801 100.473C113.883 98.7196 120.383 97.3275 120.404 97.364Z" fill="#455A64"/>
<path d="M103.217 123.588C103.217 123.628 98.8188 124.616 93.3682 125.802C87.9176 126.989 83.5197 127.914 83.4959 127.877C83.4722 127.841 87.9108 126.85 93.3444 125.666C98.778 124.483 103.206 123.552 103.217 123.588Z" fill="#263238"/>
<path d="M136.06 119.979C136.06 120.019 124.557 122.554 110.352 125.643C96.1462 128.733 84.6167 131.208 84.6099 131.172C84.6031 131.136 96.1088 128.597 110.321 125.508C124.533 122.418 136.053 119.942 136.06 119.979Z" fill="#263238"/>
<path d="M136.77 123.088C136.77 123.125 125.264 125.66 111.058 128.753C96.8527 131.845 85.3266 134.318 85.3164 134.278C85.3062 134.238 96.8187 131.706 111.028 128.617C125.237 125.528 136.759 123.042 136.77 123.088Z" fill="#263238"/>
<path d="M137.476 126.177C137.476 126.214 125.974 128.749 111.768 131.838C97.5624 134.927 86.0329 137.407 86.0227 137.367C86.0125 137.327 97.525 134.795 111.737 131.702C125.95 128.61 137.466 126.141 137.476 126.177Z" fill="#263238"/>
<path d="M138.182 129.276C138.182 129.313 126.68 131.848 112.475 134.937C98.269 138.026 86.7395 140.502 86.7327 140.466C86.7259 140.429 98.2316 137.894 112.444 134.801C126.656 131.709 138.176 129.236 138.182 129.276Z" fill="#263238"/>
<path d="M138.892 132.368C138.892 132.408 127.386 134.944 113.18 138.033C98.9748 141.122 87.4419 143.601 87.4419 143.565C87.4419 143.528 98.9442 140.993 113.153 137.9C127.362 134.808 138.881 132.335 138.892 132.368Z" fill="#263238"/>
<path d="M97.4162 154.181C97.4024 154.148 97.3921 154.114 97.3856 154.079L97.3109 153.784C97.2464 153.515 97.1547 153.141 97.0426 152.673C96.8151 151.715 96.4958 150.37 96.1155 148.759L96.1902 148.805L90.6207 150.025C90.6207 150.025 90.7226 149.869 90.6751 149.942V149.965V150.012L90.6954 150.104L90.7396 150.29L90.8211 150.658C90.8788 150.903 90.9332 151.145 90.9875 151.387C91.0962 151.864 91.2048 152.335 91.3067 152.793C91.5139 153.704 91.7074 154.566 91.8874 155.358L91.8127 155.312L95.837 154.466L96.9815 154.234L97.2871 154.178L97.3958 154.158C97.3958 154.158 97.3686 154.158 97.3007 154.188L97.012 154.258L95.8913 154.516L91.8569 155.454H91.7957V155.394L91.2048 152.832C91.0996 152.375 90.9909 151.904 90.8652 151.427C90.8109 151.185 90.7532 150.943 90.6988 150.698C90.6683 150.578 90.6411 150.452 90.6139 150.33L90.5698 150.144L90.5494 150.051V150.005V149.982V149.965C90.5019 150.041 90.6139 149.866 90.6037 149.882L96.1766 148.679H96.2377V148.739L97.1139 152.716C97.2124 153.18 97.2905 153.552 97.3482 153.817C97.372 153.936 97.389 154.029 97.406 154.105C97.4128 154.13 97.4162 154.156 97.4162 154.181Z" fill="#263238"/>
<path d="M138.814 140.781L99.9585 149.23L100.681 152.394L139.536 143.945L138.814 140.781Z" fill="#E0E0E0"/>
<path d="M99.5693 163.614C99.5565 163.58 99.5463 163.544 99.5387 163.508C99.5183 163.432 99.4946 163.333 99.464 163.213C99.3995 162.945 99.3078 162.574 99.1957 162.106C98.9682 161.145 98.649 159.786 98.2686 158.188L98.3433 158.235L92.7738 159.455C92.7738 159.475 92.8757 159.299 92.8282 159.375V159.392V159.415V159.461L92.8486 159.554L92.8927 159.74C92.9199 159.866 92.947 159.988 92.9776 160.111L93.1406 160.837C93.2493 161.317 93.358 161.785 93.4598 162.242C93.667 163.154 93.8606 164.015 94.0406 164.808L93.9658 164.761L97.9935 163.919L99.1346 163.687L99.4402 163.628C99.4757 163.618 99.5121 163.612 99.5489 163.611L99.4572 163.638L99.1652 163.707L98.0445 163.969L93.993 164.881H93.9319V164.821L93.341 162.259C93.2357 161.801 93.127 161.331 93.0014 160.853C92.947 160.615 92.8893 160.369 92.835 160.127C92.8078 160.005 92.7772 159.882 92.7501 159.756L92.7059 159.571L92.6855 159.478V159.431V159.392L92.7399 159.305L98.3094 158.119H98.3705V158.175C98.7305 159.809 99.0497 161.158 99.2467 162.153C99.3451 162.617 99.4233 162.988 99.481 163.253C99.5048 163.372 99.5217 163.465 99.5387 163.541C99.5521 163.564 99.5624 163.589 99.5693 163.614Z" fill="#263238"/>
<path d="M140.965 150.214L102.11 158.663L102.832 161.827L141.688 153.378L140.965 150.214Z" fill="#E0E0E0"/>
<path d="M101.722 173.044C101.722 173.044 101.722 173.005 101.692 172.938C101.661 172.872 101.647 172.763 101.617 172.643C101.552 172.375 101.461 172.004 101.349 171.536C101.121 170.578 100.802 169.216 100.421 167.618L100.496 167.665L94.9131 168.885C94.9131 168.905 95.015 168.729 94.9674 168.805V168.828V168.851V168.898L94.9878 168.991L95.032 169.176C95.0591 169.302 95.0863 169.425 95.1169 169.548L95.2799 170.273C95.3885 170.754 95.4972 171.221 95.5991 171.679L96.1798 174.244L96.1051 174.201L100.133 173.356L101.274 173.124L101.579 173.064C101.616 173.06 101.652 173.06 101.688 173.064L101.596 173.091L101.304 173.16L100.184 173.422L96.1323 174.334H96.0711V174.274C95.8911 173.485 95.6908 172.617 95.4802 171.712C95.375 171.255 95.2663 170.787 95.1406 170.307C95.0863 170.068 95.0286 169.826 94.9742 169.581C94.9471 169.458 94.9165 169.335 94.8893 169.213L94.8486 169.027L94.8248 168.934V168.885V168.828C94.7773 168.901 94.8893 168.726 94.8791 168.745L100.452 167.542H100.513V167.602L101.389 171.579C101.488 172.043 101.566 172.415 101.624 172.683C101.647 172.799 101.668 172.892 101.681 172.968C101.698 172.992 101.712 173.017 101.722 173.044Z" fill="#263238"/>
<path d="M143.121 159.647L104.265 168.096L104.988 171.26L143.843 162.811L143.121 159.647Z" fill="#E0E0E0"/>
<path d="M92.0637 152.236L92.6478 151.338L94.3832 152.279L96.6178 148.991L97.4804 149.574L94.6005 153.717L92.0637 152.236Z" fill="#E71D36"/>
<path d="M94.146 161.351L94.7301 160.452L96.4655 161.394L98.6967 158.106L99.5627 158.689L96.6794 162.829L94.146 161.351Z" fill="#E71D36"/>
<path d="M96.2817 170.694L96.8659 169.799L98.5978 170.741L100.832 167.453L101.695 168.033L98.8152 172.176L96.2817 170.694Z" fill="#E71D36"/>
<path d="M114.067 182.418C114.067 182.457 110.793 183.203 106.738 184.075C102.684 184.947 99.3894 185.639 99.3826 185.603C99.3758 185.566 102.653 184.821 106.708 183.946C110.763 183.071 114.057 182.385 114.067 182.418Z" fill="#263238"/>
<path d="M121.382 180.714C120.495 180.981 119.595 181.202 118.685 181.377C117.789 181.595 116.882 181.768 115.969 181.897C116.854 181.632 117.753 181.41 118.662 181.235C120.152 180.913 121.375 180.678 121.382 180.714Z" fill="#263238"/>
<path d="M145.609 173.273C145.609 173.309 142.665 173.986 139.018 174.778C135.37 175.57 132.402 176.183 132.395 176.147C132.388 176.11 135.336 175.437 138.987 174.642C142.638 173.846 145.602 173.237 145.609 173.273Z" fill="#263238"/>
<path d="M142.457 181.997C142.457 181.997 142.488 181.907 142.522 181.735C142.567 181.48 142.553 181.218 142.481 180.969C142.36 180.575 142.204 180.192 142.013 179.826C141.742 179.339 141.583 178.801 141.547 178.248C141.555 177.908 141.636 177.573 141.785 177.266C141.933 176.958 142.146 176.684 142.41 176.462C142.719 176.211 143.088 176.042 143.483 175.971C143.878 175.9 144.285 175.928 144.665 176.054C145.082 176.178 145.455 176.416 145.738 176.74C145.889 176.915 145.978 177.132 145.993 177.36C145.997 177.482 145.96 177.603 145.889 177.704C145.817 177.804 145.714 177.88 145.595 177.92C145.373 177.99 145.146 178.044 144.916 178.082L144.237 178.218C143.782 178.308 143.32 178.387 142.845 178.447C141.924 178.577 140.989 178.582 140.067 178.463C139.65 178.376 139.215 178.445 138.848 178.656C138.556 178.943 138.309 179.27 138.114 179.627C137.996 179.803 137.832 179.945 137.639 180.038C137.442 180.122 137.22 180.132 137.017 180.064C136.668 179.913 136.335 179.726 136.025 179.508C135.882 179.414 135.718 179.354 135.547 179.332C135.386 179.314 135.225 179.353 135.092 179.441C134.857 179.651 134.662 179.9 134.518 180.177C134.363 180.415 134.152 180.612 133.903 180.753C133.653 180.894 133.372 180.974 133.084 180.986C132.649 181.003 132.223 180.856 131.896 180.575C131.69 180.401 131.529 180.183 131.424 179.938C131.387 179.855 131.361 179.767 131.346 179.677C131.346 179.677 131.376 179.766 131.451 179.928C131.561 180.163 131.725 180.369 131.93 180.532C132.249 180.796 132.66 180.931 133.078 180.91C133.352 180.896 133.619 180.817 133.856 180.68C134.093 180.543 134.292 180.353 134.436 180.124C134.585 179.834 134.788 179.574 135.034 179.355C135.188 179.25 135.376 179.202 135.564 179.219C135.749 179.246 135.927 179.311 136.087 179.408C136.391 179.619 136.717 179.8 137.058 179.948C137.232 180.006 137.422 179.997 137.591 179.925C137.764 179.841 137.909 179.712 138.009 179.551C138.211 179.184 138.467 178.849 138.769 178.556C138.957 178.425 139.178 178.345 139.408 178.324C139.634 178.301 139.861 178.301 140.087 178.324C140.999 178.44 141.924 178.434 142.834 178.308C143.303 178.248 143.762 178.165 144.217 178.079L144.896 177.946C145.114 177.907 145.329 177.855 145.541 177.791C145.634 177.762 145.715 177.704 145.771 177.626C145.828 177.549 145.857 177.455 145.854 177.36C145.838 177.161 145.76 176.972 145.629 176.819C145.361 176.508 145.008 176.278 144.611 176.157C144.25 176.037 143.865 176.009 143.491 176.075C143.116 176.141 142.766 176.299 142.471 176.534C142.218 176.745 142.013 177.004 141.869 177.297C141.725 177.589 141.646 177.907 141.636 178.231C141.666 178.772 141.814 179.299 142.07 179.779C142.258 180.151 142.409 180.54 142.522 180.939C142.588 181.196 142.594 181.463 142.539 181.722C142.523 181.816 142.496 181.909 142.457 181.997Z" fill="#263238"/>
<path d="M149.477 177.754C149.42 177.777 149.361 177.795 149.301 177.807L148.784 177.927L146.889 178.354C145.293 178.719 143.086 179.229 140.658 179.829C138.23 180.429 136.039 181.009 134.46 181.433L132.585 181.937L132.073 182.07C132.014 182.088 131.954 182.101 131.893 182.11C131.947 182.08 132.005 182.058 132.066 182.043L132.568 181.887C133.006 181.752 133.642 181.556 134.429 181.341C136.009 180.89 138.192 180.297 140.624 179.683C143.055 179.07 145.263 178.586 146.869 178.251C147.67 178.082 148.323 177.95 148.774 177.864L149.294 177.768C149.354 177.758 149.416 177.753 149.477 177.754Z" fill="#263238"/>
<path d="M121.622 105.026L95.2466 110.762L96.3506 115.598L122.726 109.863L121.622 105.026Z" fill="#E0E0E0"/>
<path d="M146.573 183.515L155.094 227.452L162.881 213.409L177.64 221.864L161.974 179.08L146.573 183.515Z" fill="#E71D36"/>
<g opacity="0.3">
<path d="M149.44 198.291C150.251 198.44 151.087 198.395 151.876 198.159C152.666 197.923 153.384 197.503 153.97 196.936C154.748 196.153 155.264 195.086 156.242 194.562C157.122 194.092 158.205 194.158 159.173 194.42C160.141 194.682 161.051 195.116 162.019 195.361C162.974 195.599 163.968 195.648 164.943 195.507C165.917 195.366 166.854 195.037 167.697 194.539L165.238 187.877L153.828 186.485L148.394 192.865L149.44 198.291Z" fill="black"/>
</g>
<path d="M162.327 211.665C162.28 211.665 161.01 207.111 159.492 201.473C157.974 195.835 156.775 191.248 156.829 191.238C156.884 191.228 158.143 195.785 159.661 201.43C161.179 207.075 162.375 211.652 162.327 211.665Z" fill="#263238"/>
<path d="M147.82 185.799L139.299 229.736L131.512 215.696L116.753 224.148L132.419 181.364L147.82 185.799Z" fill="#E71D36"/>
<g opacity="0.3">
<path d="M127.733 194.161C127.733 194.161 130.157 196.107 133.047 195.212C135.937 194.317 137.734 194.125 139.3 195.212C140.865 196.299 145.1 199.836 145.1 199.836L146.081 194.768L140.393 187.144L134.457 188.314L130.232 188.715L128.66 191.622L127.733 194.161Z" fill="black"/>
</g>
<path d="M197.778 146.137C197.778 149.289 193.652 152.004 193.048 154.983C192.426 158.053 195.164 162.1 193.965 164.927C192.766 167.754 187.852 168.768 186.11 171.324C184.368 173.879 185.285 178.666 183.053 180.847C180.822 183.028 175.922 182.109 173.297 183.83C170.671 185.55 169.687 190.303 166.742 191.496C163.849 192.666 159.702 189.995 156.554 190.601C153.498 191.191 150.72 195.218 147.49 195.218C144.261 195.218 141.476 191.191 138.423 190.601C135.278 189.995 131.132 192.666 128.235 191.496C125.338 190.326 124.302 185.53 121.684 183.83C119.065 182.129 114.162 183.024 111.924 180.847C109.686 178.669 110.63 173.886 108.867 171.324C107.105 168.762 102.235 167.801 101.016 164.927C99.7964 162.053 102.554 158.056 101.933 154.983C101.328 152 97.1985 149.289 97.1985 146.137C97.1985 142.985 101.328 140.267 101.933 137.287C102.554 134.218 99.8134 130.171 101.016 127.344C102.218 124.516 107.128 123.502 108.867 120.95C110.606 118.398 109.692 113.608 111.924 111.424C114.155 109.24 119.055 110.161 121.684 108.441C124.312 106.721 125.29 101.968 128.235 100.778C131.179 99.5879 135.275 102.279 138.423 101.673C141.479 101.083 144.261 97.0522 147.49 97.0522C150.72 97.0522 153.501 101.083 156.554 101.673C159.699 102.279 163.845 99.6044 166.742 100.778C169.687 101.968 170.678 106.744 173.297 108.441C175.915 110.138 180.819 109.246 183.053 111.424C185.288 113.602 184.347 118.384 186.11 120.95C187.872 123.515 192.742 124.47 193.965 127.344C195.187 130.217 192.426 134.215 193.048 137.287C193.652 140.267 197.778 142.975 197.778 146.137Z" fill="#E71D36"/>
<path d="M135.723 118.623C135.723 118.623 135.686 118.58 135.632 118.487C135.577 118.395 135.492 118.245 135.401 118.083C135.2 117.732 134.925 117.215 134.599 116.572C133.944 115.286 133.095 113.476 132.276 111.434C131.458 109.392 130.83 107.496 130.419 106.131C130.215 105.438 130.059 104.878 129.96 104.474C129.916 104.295 129.879 104.142 129.852 104.023C129.834 103.972 129.825 103.918 129.824 103.864C129.851 103.912 129.871 103.963 129.886 104.016L130.025 104.457C130.157 104.865 130.33 105.415 130.538 106.081C130.979 107.45 131.628 109.329 132.439 111.384C133.251 113.439 134.086 115.233 134.711 116.532L135.462 118.066L135.662 118.484C135.687 118.529 135.707 118.575 135.723 118.623Z" fill="#263238"/>
<path d="M140.199 116.963C140.14 116.847 140.095 116.725 140.067 116.598C139.996 116.36 139.9 116.012 139.788 115.581C139.564 114.722 139.286 113.522 139.034 112.19C138.783 110.858 138.607 109.641 138.505 108.76C138.45 108.319 138.416 107.961 138.396 107.712C138.38 107.584 138.38 107.455 138.396 107.328C138.435 107.451 138.461 107.577 138.474 107.705L138.637 108.743C138.773 109.621 138.977 110.831 139.218 112.16C139.459 113.489 139.727 114.689 139.917 115.554C140.009 115.959 140.084 116.303 140.145 116.582C140.176 116.707 140.194 116.834 140.199 116.963Z" fill="#263238"/>
<path d="M148.095 116.197C148.044 116.197 147.918 112.478 147.813 107.894C147.708 103.31 147.66 99.5878 147.708 99.5845C147.755 99.5812 147.884 103.3 147.99 107.891C148.095 112.481 148.142 116.197 148.095 116.197Z" fill="#263238"/>
<path d="M156.042 108.557C156.089 108.557 155.539 110.43 154.816 112.71C154.092 114.991 153.457 116.824 153.423 116.81C153.389 116.797 153.926 114.938 154.649 112.657C155.373 110.377 155.991 108.544 156.042 108.557Z" fill="#263238"/>
<path d="M159.281 118.166C159.288 118.111 159.303 118.057 159.326 118.007L159.478 117.569C159.614 117.191 159.818 116.648 160.09 115.978C160.623 114.653 161.384 112.8 162.253 110.778C163.122 108.756 163.931 106.936 164.525 105.624C164.817 104.987 165.058 104.464 165.242 104.073L165.442 103.655C165.493 103.562 165.52 103.512 165.527 103.516C165.514 103.568 165.497 103.619 165.476 103.668L165.303 104.099L164.64 105.674C164.06 107.019 163.282 108.836 162.416 110.847C161.55 112.859 160.783 114.676 160.205 116.025L159.543 117.596L159.356 118.02C159.338 118.072 159.312 118.121 159.281 118.166Z" fill="#263238"/>
<path d="M163.513 120.327C163.565 120.21 163.629 120.099 163.707 119.996C163.842 119.783 164.046 119.482 164.297 119.114C164.807 118.381 165.54 117.38 166.393 116.313C167.245 115.246 168.064 114.324 168.668 113.661C168.97 113.33 169.222 113.068 169.398 112.889C169.483 112.79 169.58 112.701 169.687 112.624C169.621 112.737 169.541 112.842 169.449 112.936C169.266 113.154 169.035 113.423 168.77 113.741C168.189 114.424 167.391 115.368 166.539 116.436C165.686 117.503 164.943 118.487 164.406 119.203L163.771 120.049C163.695 120.15 163.609 120.243 163.513 120.327Z" fill="#263238"/>
<path d="M169.701 125.266C169.667 125.233 172.356 122.74 175.702 119.701C179.047 116.661 181.791 114.225 181.814 114.258C181.838 114.291 179.162 116.787 175.814 119.827C172.465 122.866 169.735 125.302 169.701 125.266Z" fill="#263238"/>
<path d="M180.493 126.296C180.166 126.499 179.826 126.68 179.474 126.84C178.836 127.171 177.97 127.632 177.012 128.166C176.055 128.699 175.172 129.144 174.516 129.442C174.177 129.591 173.925 129.707 173.735 129.773C173.642 129.821 173.543 129.854 173.44 129.873C173.767 129.671 174.107 129.489 174.459 129.329C175.097 128.998 175.963 128.537 176.921 128.003C177.878 127.47 178.761 127.009 179.417 126.727C179.756 126.578 180.008 126.462 180.198 126.396C180.29 126.347 180.39 126.314 180.493 126.296Z" fill="#263238"/>
<path d="M190.474 130.337C190.491 130.383 187.292 131.523 183.343 132.886C179.393 134.248 176.157 135.312 176.143 135.269C176.13 135.226 179.322 134.082 183.275 132.72C187.228 131.358 190.457 130.294 190.474 130.337Z" fill="#263238"/>
<path d="M193.652 148.059C193.652 148.106 190.172 147.824 185.889 147.426C181.607 147.029 178.136 146.667 178.143 146.618C178.15 146.568 181.62 146.856 185.906 147.254C190.192 147.652 193.656 148.013 193.652 148.059Z" fill="#263238"/>
<path d="M191.095 163.956C191.075 163.999 187.825 162.541 183.838 160.704C179.851 158.868 176.635 157.34 176.655 157.297C176.676 157.254 179.926 158.709 183.913 160.549C187.9 162.388 191.116 163.913 191.095 163.956Z" fill="#263238"/>
<path d="M180.405 179.08C180.367 179.11 178.027 176.455 175.171 173.154C172.315 169.853 170.033 167.145 170.077 167.115C170.121 167.085 172.455 169.737 175.311 173.041C178.167 176.346 180.442 179.047 180.405 179.08Z" fill="#263238"/>
<path d="M171.48 181.092C171.374 180.977 171.28 180.853 171.198 180.721C171.025 180.475 170.78 180.114 170.488 179.667C169.897 178.768 169.106 177.512 168.271 176.104C167.435 174.695 166.722 173.396 166.233 172.458C165.985 171.984 165.785 171.599 165.656 171.331C165.579 171.194 165.515 171.051 165.466 170.903C165.562 171.027 165.646 171.159 165.717 171.298C165.88 171.589 166.09 171.96 166.345 172.401C166.872 173.333 167.605 174.619 168.437 176.027C169.269 177.436 170.043 178.699 170.607 179.61C170.872 180.048 171.096 180.409 171.269 180.694C171.354 180.819 171.425 180.952 171.48 181.092Z" fill="#263238"/>
<path d="M165.938 188.682C165.938 188.682 165.904 188.639 165.849 188.546L165.629 188.142C165.435 187.787 165.173 187.27 164.861 186.627C164.236 185.338 163.431 183.528 162.667 181.48C161.903 179.431 161.326 177.542 160.969 176.177C160.782 175.487 160.63 174.924 160.555 174.536C160.518 174.357 160.487 174.204 160.46 174.085C160.446 174.033 160.438 173.98 160.436 173.926C160.464 173.973 160.483 174.025 160.494 174.078L160.623 174.519C160.742 174.93 160.898 175.477 161.088 176.143C161.489 177.512 162.083 179.395 162.847 181.447C163.611 183.498 164.392 185.298 164.99 186.601L165.703 188.135C165.778 188.301 165.842 188.44 165.897 188.553C165.916 188.594 165.93 188.638 165.938 188.682Z" fill="#263238"/>
<path d="M154.71 183.349C154.637 182.968 154.588 182.583 154.564 182.196C154.486 181.483 154.361 180.499 154.177 179.422C153.994 178.345 153.78 177.377 153.617 176.677C153.51 176.303 153.428 175.922 153.372 175.537C153.423 175.629 153.462 175.727 153.488 175.829C153.556 176.021 153.641 176.299 153.739 176.647C153.933 177.34 154.164 178.305 154.35 179.395C154.513 180.319 154.626 181.251 154.69 182.186C154.714 182.544 154.727 182.849 154.727 183.038C154.736 183.142 154.73 183.247 154.71 183.349Z" fill="#263238"/>
<path d="M147.365 192.892C147.357 192.836 147.357 192.779 147.365 192.723C147.365 192.59 147.365 192.428 147.365 192.235C147.365 191.811 147.365 191.198 147.365 190.442C147.392 188.928 147.463 186.839 147.585 184.536C147.708 182.232 147.86 180.144 147.986 178.636C148.047 177.88 148.105 177.27 148.149 176.849C148.173 176.657 148.19 176.495 148.203 176.366C148.207 176.308 148.219 176.251 148.237 176.197C148.245 176.254 148.245 176.312 148.237 176.369C148.237 176.498 148.237 176.661 148.214 176.856C148.186 177.304 148.152 177.907 148.108 178.643C148.017 180.177 147.894 182.252 147.769 184.542C147.643 186.833 147.555 188.934 147.497 190.446C147.47 191.181 147.446 191.771 147.429 192.235C147.429 192.431 147.409 192.59 147.402 192.723C147.398 192.781 147.385 192.838 147.365 192.892Z" fill="#263238"/>
<path d="M141.394 176.197C141.392 176.482 141.358 176.767 141.292 177.045C141.204 177.562 141.062 178.275 140.875 179.054C140.688 179.833 140.491 180.535 140.335 181.042C140.267 181.32 140.168 181.589 140.039 181.844C140.07 181.561 140.128 181.282 140.213 181.009L140.702 179.02C140.878 178.275 141.041 177.599 141.17 177.032C141.217 176.747 141.292 176.467 141.394 176.197Z" fill="#263238"/>
<path d="M130.599 171.148C130.154 171.866 129.658 172.553 129.114 173.203C128.616 173.888 128.073 174.54 127.488 175.156C127.932 174.437 128.428 173.75 128.972 173.101C129.468 172.415 130.011 171.762 130.599 171.148Z" fill="#263238"/>
<path d="M124.938 167.423C124.972 167.453 122.866 169.869 120.231 172.816C117.595 175.762 115.425 178.119 115.388 178.096C115.351 178.072 117.46 175.65 120.095 172.703C122.73 169.756 124.9 167.39 124.938 167.423Z" fill="#263238"/>
<path d="M122.102 163.31C121.269 164.094 120.395 164.835 119.483 165.53C118.006 166.717 116.784 167.652 116.767 167.615C117.6 166.833 118.474 166.093 119.385 165.398C120.254 164.658 121.161 163.961 122.102 163.31Z" fill="#263238"/>
<path d="M118.787 157.108C118.808 157.151 115.874 158.577 112.23 160.287C108.586 161.997 105.621 163.353 105.597 163.31C105.574 163.267 108.511 161.845 112.155 160.131C115.799 158.417 118.767 157.065 118.787 157.108Z" fill="#263238"/>
<path d="M117.456 154.016C117.359 154.058 117.256 154.087 117.151 154.102C116.95 154.148 116.662 154.208 116.305 154.271C115.589 154.404 114.59 154.55 113.483 154.659C112.376 154.768 111.367 154.815 110.637 154.825C110.274 154.825 109.978 154.825 109.775 154.825C109.668 154.831 109.562 154.821 109.459 154.795C109.848 154.743 110.241 154.713 110.634 154.705C111.361 154.662 112.362 154.596 113.466 154.487C114.57 154.377 115.565 154.251 116.285 154.155C116.671 154.082 117.063 154.035 117.456 154.016Z" fill="#263238"/>
<path d="M116.38 146.873C116.182 146.889 115.983 146.889 115.785 146.873L114.169 146.793C112.81 146.727 110.922 146.667 108.84 146.677C106.759 146.687 104.87 146.77 103.509 146.85L101.896 146.946C101.698 146.968 101.5 146.975 101.301 146.966C101.494 146.921 101.691 146.892 101.889 146.88C102.269 146.837 102.819 146.783 103.498 146.727C104.857 146.618 106.752 146.518 108.837 146.505C110.922 146.492 112.814 146.575 114.179 146.671C114.858 146.721 115.412 146.767 115.792 146.807C115.989 146.815 116.186 146.837 116.38 146.873Z" fill="#263238"/>
<path d="M117.045 140.602C117.045 140.648 114.834 140.088 112.134 139.352C109.434 138.617 107.257 137.987 107.271 137.94C107.285 137.894 109.482 138.451 112.182 139.187C114.882 139.923 117.058 140.556 117.045 140.602Z" fill="#263238"/>
<path d="M118.468 135.352C118.413 135.349 118.36 135.337 118.308 135.319L117.857 135.186C117.47 135.067 116.909 134.881 116.227 134.639C114.443 134 112.695 133.27 110.99 132.452C109.285 131.632 107.627 130.725 106.022 129.734C105.407 129.352 104.914 129.034 104.582 128.806L104.201 128.537C104.116 128.474 104.072 128.441 104.076 128.434C104.127 128.455 104.176 128.48 104.222 128.511L104.622 128.749C104.962 128.961 105.465 129.263 106.086 129.631C107.332 130.367 109.078 131.338 111.068 132.282C113.058 133.227 114.912 133.996 116.271 134.513C116.95 134.768 117.497 134.971 117.88 135.11L118.319 135.272C118.371 135.295 118.421 135.321 118.468 135.352Z" fill="#263238"/>
<path d="M121.663 130.049C121.636 130.085 119.918 128.951 117.826 127.513C115.734 126.074 114.06 124.878 114.09 124.838C114.121 124.798 115.836 125.935 117.931 127.374C120.027 128.812 121.691 130.019 121.663 130.049Z" fill="#263238"/>
<path d="M114.909 113.947C114.909 113.947 114.957 113.973 115.038 114.036L115.378 114.328L116.631 115.408L120.744 118.991L124.873 122.555L126.123 123.638L126.463 123.94C126.504 123.973 126.54 124.011 126.571 124.053C126.571 124.053 126.524 124.03 126.439 123.967L126.099 123.691C125.79 123.45 125.352 123.092 124.812 122.647C123.732 121.759 122.258 120.516 120.645 119.121C119.032 117.725 117.589 116.439 116.57 115.498C116.054 115.027 115.639 114.646 115.354 114.374L115.032 114.063C114.95 113.99 114.903 113.95 114.909 113.947Z" fill="#263238"/>
<path d="M125.501 114.248C125.501 114.248 125.593 114.321 125.732 114.477C125.872 114.633 126.072 114.861 126.306 115.14C126.778 115.716 127.407 116.532 128.059 117.46C128.711 118.388 129.257 119.256 129.634 119.896C129.825 120.227 129.974 120.476 130.069 120.658C130.128 120.749 130.174 120.847 130.205 120.95C129.956 120.634 129.729 120.302 129.526 119.956C129.122 119.333 128.558 118.481 127.909 117.553C127.261 116.625 126.649 115.806 126.211 115.213C125.955 114.905 125.718 114.583 125.501 114.248Z" fill="#263238"/>
<g opacity="0.2">
<path d="M111.927 111.427L126.703 124.052L130.374 121.185L121.803 108.365C121.803 108.365 121.144 108.835 119.425 109.313C117.785 109.773 112.912 109.896 111.927 111.427Z" fill="black"/>
</g>
<g opacity="0.2">
<path d="M128.374 100.748L135.587 118.372L140.199 116.963L138.661 101.676C138.661 101.676 137.87 101.859 136.107 101.64C134.399 101.428 130.259 99.8467 128.374 100.748Z" fill="black"/>
</g>
<g opacity="0.3">
<path d="M147.609 97.0589L148.095 116.197L152.415 116.399L156.789 101.709C155.88 101.533 155.016 101.184 154.245 100.682C152.751 99.747 149.701 96.9031 147.609 97.0589Z" fill="black"/>
</g>
<g opacity="0.2">
<path d="M166.45 100.675L159.281 118.318L163.173 120.138L173.039 108.252C172.297 107.641 171.665 106.914 171.168 106.101C170.237 104.633 168.634 101.262 166.45 100.675Z" fill="black"/>
</g>
<g opacity="0.2">
<path d="M183.288 111.683L169.935 125.272L172.91 129.187L185.957 120.688C185.528 119.916 185.237 119.077 185.098 118.209C184.786 116.552 184.741 113.542 183.288 111.683Z" fill="black"/>
</g>
<g opacity="0.2">
<path d="M193.829 127.016L175.847 134.238L177.338 138.722L192.983 137.065C192.983 137.065 192.885 136.595 193.092 134.874C193.289 133.207 195.096 129.482 193.829 127.016Z" fill="black"/>
</g>
<g opacity="0.2">
<path d="M197.813 146.137L178.208 146.8L178.045 151.019L192.987 155.289C193.087 154.681 193.286 154.093 193.578 153.548C194.692 151.52 197.813 148.656 197.813 146.137Z" fill="black"/>
</g>
<g opacity="0.2">
<path d="M194.196 164.228L176.146 157.363L174.322 161.205L186.606 170.694C187.251 170.091 187.966 169.561 188.735 169.117C190.229 168.185 193.781 166.677 194.196 164.228Z" fill="black"/>
</g>
<g opacity="0.2">
<path d="M167.649 163.956L163.18 167.602C163.519 167.933 169.473 177.824 173.144 183.929C173.191 183.889 173.241 183.852 173.293 183.817C175.708 182.239 180.007 182.872 182.432 181.311L167.649 163.956Z" fill="black"/>
<path d="M159.437 170.876L152.768 173.097L155.926 190.77C156.131 190.7 156.341 190.643 156.554 190.601C159.699 189.995 163.845 192.666 166.742 191.496C167.139 191.33 167.508 191.107 167.836 190.833L159.437 170.876Z" fill="black"/>
<path d="M147.259 195.212L148.322 172.123L142.549 170.694L138.26 190.581L138.416 190.608C141.404 191.175 144.124 195.013 147.259 195.212Z" fill="black"/>
<path d="M132.758 168.202C132.758 168.202 125.138 178.165 121.151 183.528C121.335 183.619 121.514 183.719 121.687 183.83C124.306 185.54 125.294 190.303 128.238 191.496C128.374 191.549 128.513 191.592 128.652 191.632L139.299 171.964L132.758 168.202Z" fill="black"/>
<path d="M124.938 160.181L108.684 171.082C108.745 171.162 108.813 171.238 108.868 171.321C110.634 173.893 109.693 178.662 111.924 180.843C112.13 181.041 112.358 181.215 112.603 181.364C118.346 175.046 128.656 163.704 129.03 163.31L124.938 160.181Z" fill="black"/>
<path d="M121.212 152.395L101.994 155.424C102.303 158.434 99.871 162.232 101.015 164.924C101.084 165.088 101.167 165.247 101.263 165.398C107.988 162.13 122.037 155.331 122.621 155.295L121.212 152.395Z" fill="black"/>
<path d="M120.162 141.948L101.997 136.833C101.98 136.986 101.959 137.138 101.932 137.287C101.328 140.27 97.1982 142.985 97.1982 146.137C97.1992 146.347 97.2173 146.556 97.2526 146.764H119.425L120.162 141.948Z" fill="black"/>
<path d="M101.09 127.208C107.882 130.758 121.151 137.94 121.151 137.94L124.418 131.885L109.074 120.615C109.006 120.731 108.942 120.851 108.867 120.947C107.139 123.462 102.408 124.444 101.09 127.208Z" fill="black"/>
</g>
<path d="M197.779 146.137L197.758 145.925C197.75 145.717 197.721 145.51 197.67 145.308C197.473 144.514 197.127 143.761 196.651 143.088C196.067 142.173 195.184 141.149 194.274 139.853C193.76 139.163 193.366 138.396 193.106 137.582C192.885 136.632 192.885 135.645 193.106 134.695C193.296 133.684 193.605 132.644 193.873 131.54C194.142 130.436 194.393 129.243 194.142 128.023C193.999 127.406 193.71 126.83 193.296 126.343C192.852 125.847 192.346 125.408 191.788 125.037C190.661 124.255 189.363 123.631 188.124 122.816C187.483 122.412 186.9 121.926 186.392 121.371C185.893 120.768 185.531 120.069 185.329 119.319C184.894 117.811 184.796 116.2 184.466 114.589C184.322 113.769 184.039 112.978 183.628 112.249C183.181 111.516 182.503 110.942 181.695 110.615C180.861 110.288 179.988 110.065 179.097 109.952C178.197 109.807 177.274 109.704 176.35 109.545C175.404 109.411 174.486 109.128 173.633 108.706C172.788 108.21 172.072 107.529 171.541 106.717C170.977 105.929 170.492 105.08 169.976 104.241C169.481 103.383 168.889 102.583 168.21 101.855C167.51 101.119 166.555 100.662 165.53 100.572C164.483 100.534 163.436 100.654 162.426 100.927C161.407 101.169 160.361 101.464 159.292 101.659C158.21 101.908 157.082 101.888 156.011 101.6C154.967 101.2 153.991 100.649 153.114 99.9657C152.208 99.3028 151.325 98.6399 150.357 98.0499C149.389 97.4599 148.292 97.0324 147.151 97.1583H146.937C146.866 97.1583 146.798 97.1882 146.73 97.2014C146.591 97.2346 146.448 97.2578 146.312 97.2975C146.039 97.3824 145.771 97.4843 145.511 97.6025C144.985 97.8463 144.481 98.1312 144.003 98.4543C143.038 99.1172 142.125 99.8398 141.133 100.496C140.64 100.833 140.117 101.128 139.571 101.378C139.012 101.622 138.413 101.769 137.802 101.812C136.576 101.82 135.357 101.651 134.182 101.311C132.998 100.982 131.792 100.739 130.572 100.586C129.962 100.527 129.347 100.567 128.751 100.705C128.158 100.866 127.61 101.159 127.152 101.56C126.214 102.359 125.562 103.433 124.91 104.487C124.295 105.59 123.575 106.636 122.761 107.609C122.33 108.091 121.812 108.492 121.233 108.792C120.641 109.065 120.02 109.272 119.382 109.409C118.105 109.684 116.801 109.8 115.514 110.025C114.227 110.251 112.912 110.605 111.982 111.487C111.533 111.954 111.186 112.505 110.963 113.108C110.738 113.715 110.573 114.342 110.471 114.98C110.233 116.26 110.131 117.572 109.791 118.862C109.645 119.516 109.402 120.146 109.068 120.731C108.716 121.311 108.255 121.82 107.71 122.233C106.636 123.075 105.417 123.698 104.249 124.394C103.664 124.737 103.102 125.118 102.568 125.534C102.037 125.948 101.59 126.457 101.25 127.032C100.927 127.618 100.763 128.276 100.775 128.941C100.787 129.61 100.868 130.277 101.016 130.93C101.301 132.256 101.733 133.558 101.963 134.907C102.1 135.6 102.128 136.308 102.045 137.009C101.949 137.707 101.718 138.382 101.366 138.997C100.656 140.207 99.7323 141.271 98.9139 142.398C98.4936 142.954 98.1274 143.546 97.8203 144.168C97.4839 144.775 97.3077 145.454 97.3077 146.144C97.3077 146.833 97.4839 147.512 97.8203 148.119C98.1269 148.741 98.4931 149.334 98.9139 149.889C99.7323 151.016 100.656 152.08 101.366 153.29C101.712 153.894 101.942 154.554 102.045 155.239C102.131 155.93 102.108 156.629 101.977 157.313C101.75 158.676 101.318 159.982 101.03 161.307C100.882 161.961 100.802 162.627 100.788 163.296C100.775 163.963 100.938 164.621 101.261 165.209C101.597 165.786 102.043 166.295 102.575 166.71C103.109 167.126 103.671 167.507 104.256 167.85C105.424 168.546 106.633 169.176 107.72 170.011C108.265 170.425 108.726 170.934 109.078 171.513C109.414 172.096 109.658 172.725 109.802 173.379C110.121 174.672 110.229 175.984 110.481 177.264C110.586 177.901 110.752 178.528 110.977 179.136C111.194 179.738 111.535 180.291 111.978 180.76C112.919 181.652 114.244 182.007 115.514 182.232C116.784 182.457 118.105 182.563 119.382 182.849C120.021 182.986 120.643 183.193 121.236 183.465C121.814 183.766 122.332 184.167 122.764 184.648C123.57 185.623 124.283 186.668 124.893 187.771C125.545 188.825 126.198 189.899 127.135 190.697C127.593 191.098 128.139 191.391 128.731 191.552C129.332 191.701 129.954 191.75 130.572 191.698C131.79 191.538 132.994 191.291 134.175 190.959C135.35 190.617 136.572 190.447 137.798 190.455C138.41 190.5 139.008 190.648 139.568 190.893C140.113 191.143 140.636 191.438 141.13 191.775C142.121 192.437 143.032 193.17 143.999 193.813C144.476 194.138 144.979 194.424 145.504 194.668C145.764 194.786 146.032 194.888 146.305 194.973C146.445 195.01 146.584 195.036 146.723 195.069L146.934 195.112H147.144C148.289 195.238 149.389 194.781 150.353 194.221C151.318 193.66 152.204 192.954 153.108 192.305C153.985 191.621 154.963 191.071 156.008 190.671C157.079 190.385 158.207 190.364 159.288 190.611C160.358 190.81 161.39 191.105 162.423 191.347C163.435 191.617 164.482 191.736 165.53 191.702C166.554 191.609 167.507 191.151 168.206 190.416C168.883 189.685 169.475 188.883 169.972 188.026C170.485 187.191 170.971 186.342 171.534 185.55C172.068 184.739 172.785 184.059 173.63 183.561C174.482 183.139 175.4 182.856 176.347 182.726C177.274 182.563 178.194 182.461 179.094 182.318C179.986 182.2 180.859 181.971 181.692 181.639C182.499 181.31 183.176 180.738 183.624 180.005C184.033 179.275 184.315 178.484 184.46 177.665C184.799 176.054 184.888 174.44 185.326 172.932C185.525 172.182 185.888 171.484 186.389 170.883C186.895 170.326 187.478 169.84 188.121 169.438C189.36 168.623 190.657 168 191.781 167.217C192.342 166.847 192.85 166.407 193.293 165.908C193.706 165.422 193.995 164.847 194.135 164.231C194.253 163.636 194.271 163.025 194.186 162.424C194.116 161.848 194.009 161.277 193.867 160.714C193.595 159.61 193.289 158.57 193.099 157.559C192.878 156.609 192.878 155.622 193.099 154.672C193.36 153.858 193.755 153.092 194.267 152.401C195.188 151.105 196.074 150.081 196.645 149.166C197.121 148.493 197.466 147.741 197.663 146.946C197.714 146.744 197.744 146.537 197.752 146.329L197.772 146.12C197.772 146.12 197.772 146.19 197.772 146.329C197.766 146.538 197.738 146.745 197.691 146.949C197.497 147.75 197.152 148.509 196.672 149.186C196.091 150.108 195.211 151.135 194.295 152.431C193.785 153.116 193.396 153.879 193.143 154.688C192.922 155.629 192.922 156.605 193.143 157.546C193.333 158.54 193.642 159.591 193.918 160.694C194.066 161.262 194.179 161.837 194.257 162.418C194.342 163.026 194.325 163.644 194.206 164.247C194.064 164.878 193.771 165.466 193.35 165.964C192.903 166.469 192.39 166.914 191.826 167.29C190.691 168.079 189.397 168.705 188.165 169.518C187.535 169.917 186.964 170.397 186.467 170.946C185.976 171.537 185.622 172.225 185.428 172.961C184.996 174.453 184.901 176.064 184.568 177.685C184.425 178.517 184.139 179.321 183.723 180.061C183.264 180.816 182.569 181.406 181.739 181.745C180.898 182.082 180.016 182.314 179.114 182.434C178.211 182.58 177.287 182.683 176.367 182.845C175.432 182.975 174.526 183.254 173.684 183.671C172.863 184.157 172.166 184.82 171.646 185.61C171.09 186.395 170.604 187.24 170.088 188.082C169.588 188.948 168.991 189.758 168.308 190.495C167.586 191.255 166.601 191.727 165.544 191.821C164.481 191.862 163.418 191.742 162.392 191.466C161.357 191.224 160.324 190.933 159.265 190.737C158.207 190.495 157.104 190.515 156.055 190.793C155.026 191.189 154.063 191.734 153.199 192.408C152.299 193.054 151.413 193.75 150.435 194.333C150.18 194.466 149.939 194.622 149.674 194.731C149.542 194.791 149.413 194.854 149.28 194.907L148.869 195.049C148.312 195.236 147.72 195.304 147.134 195.248L146.913 195.232C146.842 195.232 146.771 195.202 146.696 195.188C146.553 195.155 146.407 195.129 146.268 195.089C145.986 195.004 145.71 194.9 145.443 194.777C144.91 194.531 144.399 194.241 143.915 193.912C142.94 193.249 142.026 192.527 141.045 191.874C140.557 191.544 140.043 191.253 139.507 191.006C138.964 190.77 138.384 190.628 137.792 190.585C136.581 190.579 135.376 190.748 134.216 191.085C133.022 191.428 131.804 191.681 130.572 191.844C129.942 191.904 129.306 191.863 128.69 191.722C128.073 191.554 127.504 191.25 127.026 190.833C126.062 190.008 125.403 188.924 124.751 187.867C124.147 186.773 123.439 185.737 122.638 184.771C122.221 184.304 121.719 183.916 121.158 183.627C120.579 183.359 119.971 183.157 119.344 183.024C118.081 182.752 116.78 182.636 115.483 182.408C114.829 182.302 114.187 182.137 113.564 181.917C112.933 181.691 112.355 181.341 111.866 180.89C111.403 180.406 111.048 179.834 110.824 179.209C110.594 178.592 110.425 177.955 110.318 177.307C110.08 176.017 109.978 174.705 109.638 173.432C109.497 172.794 109.259 172.181 108.932 171.612C108.588 171.05 108.139 170.557 107.608 170.157C106.555 169.332 105.339 168.709 104.168 168.009C103.576 167.661 103.009 167.276 102.469 166.856C101.92 166.426 101.459 165.899 101.111 165.301C100.776 164.691 100.607 164.006 100.622 163.313C100.63 162.627 100.712 161.944 100.867 161.274C101.155 159.949 101.587 158.623 101.811 157.297C101.939 156.629 101.961 155.946 101.875 155.272C101.772 154.602 101.542 153.957 101.196 153.369C100.517 152.176 99.5795 151.119 98.7542 149.982C98.3242 149.415 97.9479 148.812 97.6302 148.179C97.2847 147.549 97.104 146.845 97.104 146.13C97.104 145.416 97.2847 144.712 97.6302 144.082C97.9436 143.451 98.3165 142.849 98.7441 142.285C99.5693 141.149 100.49 140.091 101.182 138.901C101.528 138.313 101.758 137.666 101.862 136.996C101.941 136.321 101.918 135.638 101.794 134.97C101.566 133.645 101.135 132.319 100.846 130.993C100.695 130.324 100.614 129.642 100.605 128.958C100.592 128.265 100.761 127.58 101.098 126.969C101.448 126.374 101.909 125.848 102.456 125.418C102.995 124.997 103.562 124.611 104.154 124.264C105.326 123.565 106.531 122.939 107.594 122.117C108.124 121.717 108.573 121.224 108.915 120.662C109.241 120.091 109.478 119.477 109.618 118.839C109.934 117.566 110.043 116.257 110.297 114.967C110.403 114.319 110.572 113.682 110.8 113.065C111.005 112.433 111.361 111.858 111.84 111.387C112.318 110.917 112.905 110.565 113.551 110.36C114.174 110.14 114.816 109.976 115.469 109.869C116.767 109.641 118.067 109.538 119.331 109.256C119.956 109.12 120.564 108.918 121.144 108.653C121.704 108.362 122.205 107.973 122.621 107.506C123.422 106.541 124.13 105.504 124.734 104.41C125.386 103.353 126.045 102.269 127.013 101.447C127.493 101.025 128.067 100.717 128.69 100.549C129.306 100.409 129.942 100.368 130.572 100.426C131.797 100.586 133.008 100.834 134.195 101.169C135.355 101.509 136.56 101.679 137.771 101.673C138.358 101.627 138.932 101.484 139.469 101.248C140.007 101.004 140.522 100.713 141.008 100.38C141.992 99.7171 142.906 98.9913 143.881 98.3449C144.364 98.0148 144.875 97.7254 145.409 97.4798C145.676 97.3584 145.95 97.2532 146.231 97.165C146.373 97.1252 146.519 97.102 146.662 97.0688L146.876 97.0224H147.097C147.683 96.9684 148.274 97.0362 148.832 97.2213L149.243 97.3638C149.375 97.4169 149.504 97.4798 149.637 97.5395C149.905 97.6522 150.146 97.8047 150.398 97.9372C151.379 98.5206 152.262 99.2166 153.165 99.863C154.029 100.536 154.99 101.081 156.018 101.477C157.066 101.757 158.169 101.777 159.227 101.533C160.287 101.341 161.319 101.05 162.355 100.808C163.381 100.532 164.443 100.412 165.506 100.45C166.564 100.544 167.548 101.016 168.271 101.775C168.955 102.514 169.553 103.325 170.054 104.192C170.57 105.03 171.052 105.879 171.609 106.661C172.127 107.452 172.824 108.116 173.647 108.603C174.488 109.021 175.395 109.3 176.33 109.429C177.25 109.591 178.174 109.694 179.077 109.84C179.978 109.962 180.86 110.193 181.702 110.529C182.531 110.868 183.227 111.457 183.689 112.21C184.104 112.951 184.389 113.754 184.534 114.586C184.874 116.207 184.962 117.818 185.39 119.309C185.587 120.045 185.941 120.732 186.429 121.324C186.926 121.875 187.497 122.357 188.127 122.756C189.36 123.568 190.657 124.195 191.788 124.984C192.353 125.359 192.866 125.805 193.313 126.31C193.734 126.806 194.029 127.394 194.172 128.023C194.291 128.627 194.308 129.246 194.223 129.856C194.145 130.436 194.032 131.01 193.884 131.576C193.612 132.683 193.299 133.721 193.109 134.728C192.888 135.669 192.888 136.645 193.109 137.585C193.362 138.395 193.751 139.158 194.261 139.843C195.174 141.142 196.054 142.163 196.638 143.088C197.117 143.765 197.462 144.524 197.657 145.325C197.704 145.528 197.732 145.736 197.738 145.945C197.779 146.064 197.779 146.137 197.779 146.137Z" fill="#263238"/>
<path d="M138.043 191.699C138.09 191.699 136.837 196.67 135.244 202.776C133.652 208.881 132.32 213.823 132.273 213.813C132.225 213.803 133.478 208.841 135.071 202.733C136.664 196.624 138.009 191.672 138.043 191.699Z" fill="#263238"/>
<path d="M147.49 176.226C164.517 176.226 178.319 162.755 178.319 146.137C178.319 129.519 164.517 116.048 147.49 116.048C130.464 116.048 116.661 129.519 116.661 146.137C116.661 162.755 130.464 176.226 147.49 176.226Z" fill="white"/>
<path d="M128.507 135.71C128.082 136.124 125.746 140.274 125.532 143.698C125.318 147.122 125.824 166.339 125.824 166.339L125.915 167.615C131.465 173.949 151.637 183.376 169.806 167.582L170.824 155.759L167.826 130.731L157.4 128.242L154.958 124.381L138.685 128.1L137.231 131.447L128.507 135.71Z" fill="#455A64"/>
<path d="M153.841 114.318C154.558 111.716 155.261 109.097 155.509 106.416C155.757 103.735 155.529 100.964 154.436 98.491C154.269 98.1164 152.894 95.614 152.48 95.6769C152.184 95.72 153.074 98.0733 152.938 98.3286C151.631 100.805 151.393 103.711 151.77 106.472C152.159 109.154 152.853 111.784 153.841 114.314" fill="#263238"/>
<path d="M153.57 104.043C153.441 97.2912 149.304 91.7394 142.393 92.0543L141.755 92.1206C138.664 92.4386 135.809 93.8806 133.757 96.1597C131.706 98.4388 130.609 101.388 130.684 104.421C130.833 110.271 131.071 116.734 131.448 119.843C132.226 126.277 138.919 126.601 138.919 126.601L139.228 130.834L142.064 133.84L155.21 125.886L153.57 104.043Z" fill="#FFBF9D"/>
<path d="M138.936 126.651C138.936 126.651 143.123 126.462 147.263 123.287C147.263 123.287 145.877 129.124 139.228 129.22L138.936 126.651Z" fill="#FF9A6C"/>
<path d="M134.484 109.668C134.507 109.91 134.627 110.133 134.818 110.289C135.008 110.445 135.255 110.522 135.503 110.503C135.624 110.5 135.743 110.473 135.853 110.425C135.963 110.376 136.062 110.307 136.145 110.22C136.227 110.134 136.29 110.032 136.332 109.921C136.373 109.81 136.392 109.693 136.386 109.575C136.362 109.333 136.241 109.11 136.051 108.954C135.86 108.798 135.615 108.721 135.367 108.74C135.246 108.742 135.127 108.768 135.016 108.817C134.906 108.865 134.806 108.934 134.724 109.021C134.642 109.108 134.578 109.209 134.537 109.321C134.495 109.432 134.478 109.55 134.484 109.668Z" fill="#263238"/>
<path d="M132.385 106.95C132.514 107.056 133.173 106.469 134.188 106.366C135.204 106.263 135.998 106.698 136.097 106.549C136.144 106.492 136.002 106.287 135.652 106.088C135.181 105.837 134.643 105.734 134.11 105.793C133.583 105.846 133.086 106.061 132.691 106.406C132.402 106.674 132.32 106.9 132.385 106.95Z" fill="#263238"/>
<path d="M143.446 108.925C143.469 109.167 143.589 109.39 143.78 109.547C143.97 109.703 144.217 109.78 144.465 109.761C144.586 109.758 144.705 109.731 144.815 109.683C144.925 109.634 145.024 109.564 145.106 109.478C145.189 109.392 145.252 109.29 145.294 109.179C145.335 109.068 145.354 108.95 145.348 108.832C145.324 108.59 145.205 108.367 145.014 108.21C144.823 108.053 144.577 107.975 144.329 107.994C144.208 107.997 144.089 108.024 143.979 108.073C143.868 108.122 143.769 108.192 143.687 108.279C143.605 108.365 143.541 108.467 143.5 108.578C143.458 108.689 143.44 108.807 143.446 108.925Z" fill="#263238"/>
<path d="M142.366 106.326C142.495 106.436 143.157 105.846 144.169 105.743C145.181 105.64 145.983 106.074 146.078 105.929C146.125 105.869 145.986 105.663 145.636 105.468C145.165 105.216 144.625 105.113 144.091 105.173C143.563 105.224 143.065 105.439 142.672 105.786C142.386 106.051 142.305 106.28 142.366 106.326Z" fill="#263238"/>
<path d="M139.547 114.311C139.547 114.255 138.906 114.212 137.87 114.188C137.608 114.188 137.357 114.165 137.296 113.996C137.245 113.738 137.277 113.47 137.388 113.231L137.944 111.242C138.712 108.391 139.238 106.058 139.123 106.028C139.007 105.998 138.284 108.285 137.517 111.139L136.994 113.144C136.866 113.463 136.856 113.814 136.966 114.139C137.013 114.225 137.079 114.3 137.16 114.357C137.24 114.415 137.333 114.453 137.432 114.47C137.579 114.488 137.729 114.488 137.877 114.47C138.912 114.427 139.551 114.367 139.547 114.311Z" fill="#263238"/>
<path d="M142.607 114.689C142.441 114.689 142.556 115.77 141.697 116.631C140.838 117.493 139.659 117.493 139.659 117.646C139.659 117.712 139.941 117.828 140.44 117.788C141.083 117.729 141.684 117.451 142.138 117.003C142.571 116.569 142.815 115.987 142.817 115.382C142.834 114.928 142.682 114.676 142.607 114.689Z" fill="#263238"/>
<path d="M141.989 102.302C142.118 102.561 143.116 102.329 144.322 102.349C145.527 102.369 146.526 102.584 146.655 102.326C146.713 102.203 146.519 101.968 146.101 101.746C145.547 101.483 144.939 101.347 144.324 101.347C143.708 101.347 143.1 101.483 142.546 101.746C142.118 101.944 141.931 102.18 141.989 102.302Z" fill="#263238"/>
<path d="M132.449 103.615C132.65 103.821 133.326 103.516 134.164 103.416C135.003 103.317 135.733 103.416 135.862 103.158C135.924 103.035 135.788 102.826 135.455 102.641C135.009 102.428 134.509 102.35 134.017 102.416C133.526 102.481 133.065 102.687 132.694 103.009C132.429 103.27 132.358 103.512 132.449 103.615Z" fill="#263238"/>
<path d="M153.546 108.872C153.654 108.812 157.94 107.095 158.273 111.523C158.606 115.952 154.004 115.348 153.974 115.222C153.943 115.096 153.546 108.872 153.546 108.872Z" fill="#FFBF9D"/>
<path d="M155.23 113.449C155.25 113.449 155.312 113.496 155.451 113.546C155.644 113.611 155.856 113.6 156.042 113.516C156.507 113.31 156.853 112.541 156.816 111.743C156.8 111.363 156.697 110.991 156.514 110.655C156.461 110.521 156.375 110.4 156.264 110.305C156.152 110.21 156.019 110.142 155.875 110.108C155.783 110.091 155.688 110.105 155.606 110.15C155.524 110.194 155.46 110.265 155.427 110.35C155.373 110.48 155.41 110.566 155.386 110.576C155.362 110.586 155.284 110.506 155.305 110.324C155.323 110.212 155.379 110.109 155.464 110.032C155.582 109.932 155.736 109.881 155.892 109.89C156.081 109.911 156.26 109.981 156.413 110.09C156.566 110.2 156.688 110.347 156.765 110.516C156.988 110.885 157.114 111.302 157.132 111.729C157.169 112.621 156.765 113.489 156.113 113.718C155.994 113.762 155.867 113.779 155.741 113.768C155.614 113.757 155.492 113.718 155.383 113.655C155.247 113.556 155.216 113.456 155.23 113.449Z" fill="#FF9A6C"/>
<path d="M133.132 96.9033C132.374 96.552 134.422 94.0959 136.188 93.1844C138.834 91.8089 142.943 90.8046 145.5 91.3415C148.58 92.0044 151.188 93.2971 152.883 95.889C154.578 98.481 155.355 101.573 155.471 104.646C155.505 105.584 155.471 106.565 155.009 107.387C154.442 108.405 153.267 109.097 153.409 110.443C153.443 110.686 153.427 110.933 153.362 111.17C153.296 111.407 153.183 111.628 153.029 111.822C152.255 112.737 151.188 111.991 150.669 111.209C149.558 109.551 149.31 107.48 149.093 105.498C148.937 104.092 148.784 102.654 149.093 101.275C149.263 100.523 149.575 99.8035 149.704 99.0445C149.833 98.2854 149.755 97.4402 149.239 96.8569C149.119 96.7345 148.987 96.6236 148.845 96.5254C148.177 96.0249 147.384 95.7076 146.548 95.6062C145.712 95.5048 144.864 95.6231 144.091 95.9487C141.595 96.9895 137.326 98.5804 136.13 97.8048C134.415 96.6912 133.967 95.9089 133.967 95.9089L133.132 96.9033Z" fill="#263238"/>
<path d="M128.507 135.71C128.245 136.064 124.533 137.268 123.124 139.558C121.714 141.848 120.322 152.13 120.322 152.13L119.426 158.885C121.191 161.609 123.562 165.219 126.075 167.764L128.507 135.71Z" fill="#455A64"/>
<g opacity="0.3">
<path d="M156.398 145.627C156.499 147.013 156.768 148.383 157.2 149.707C157.686 151.009 158.538 152.236 159.784 152.909C160.304 153.187 160.891 153.373 161.329 153.77C161.768 154.168 162.032 154.811 162.457 155.279C162.988 155.793 163.643 156.168 164.362 156.369C166.385 157.093 168.532 157.431 170.686 157.363C170.753 156.654 170.757 154.049 170.825 153.336L156.398 145.627Z" fill="black"/>
</g>
<path d="M167.826 130.731C167.826 130.731 172.506 132.084 173.878 134.029C175.25 135.975 177.678 143.519 178.177 144.917C178.676 146.316 178.238 149.558 177.304 151.878C176.371 154.198 174.747 156.217 171.946 156.518C169.144 156.82 164.715 155.242 163.717 154.198C162.719 153.154 162.308 150.844 162.308 150.844C163.552 150.631 164.779 150.331 165.979 149.945" fill="#455A64"/>
<path d="M165.978 149.969L165.92 149.992L165.744 150.055C165.588 150.108 165.353 150.184 165.044 150.274C164.151 150.534 163.244 150.747 162.327 150.91L162.365 150.86C162.479 151.43 162.639 151.99 162.844 152.534C162.955 152.843 163.091 153.143 163.248 153.432C163.409 153.742 163.621 154.023 163.876 154.264C164.164 154.505 164.481 154.71 164.82 154.874C165.179 155.058 165.547 155.223 165.924 155.368C166.732 155.684 167.563 155.941 168.41 156.137C169.324 156.356 170.26 156.473 171.201 156.485C171.446 156.487 171.691 156.476 171.935 156.452C172.181 156.424 172.424 156.382 172.665 156.326C173.158 156.218 173.632 156.038 174.071 155.792C174.984 155.277 175.751 154.546 176.302 153.668C176.884 152.755 177.33 151.766 177.627 150.731C177.868 149.935 178.049 149.123 178.167 148.302C178.293 147.506 178.334 146.699 178.289 145.895C178.262 145.508 178.181 145.127 178.048 144.762C177.919 144.39 177.793 144.022 177.671 143.658L176.941 141.527C176.458 140.141 175.983 138.832 175.507 137.616C175.09 136.484 174.587 135.383 174.003 134.324C173.733 133.874 173.373 133.482 172.943 133.171C172.569 132.88 172.172 132.62 171.755 132.392C171.085 132.019 170.392 131.687 169.68 131.397C169.096 131.162 168.634 130.996 168.321 130.887L167.965 130.764C167.923 130.753 167.882 130.738 167.843 130.718C167.886 130.723 167.928 130.733 167.968 130.748L168.332 130.854C168.651 130.953 169.12 131.109 169.71 131.335C170.429 131.611 171.128 131.931 171.806 132.292C172.23 132.52 172.636 132.781 173.018 133.071C173.46 133.388 173.832 133.788 174.112 134.248C174.709 135.313 175.222 136.421 175.647 137.562C176.132 138.776 176.611 140.088 177.097 141.474C177.338 142.166 177.582 142.879 177.834 143.605C177.959 143.966 178.085 144.334 178.211 144.705C178.35 145.083 178.436 145.478 178.465 145.879C178.514 146.695 178.474 147.513 178.347 148.321C178.226 149.152 178.044 149.973 177.8 150.777C177.496 151.83 177.039 152.835 176.441 153.761C175.875 154.663 175.086 155.411 174.146 155.938C173.693 156.19 173.204 156.374 172.696 156.485C172.448 156.543 172.198 156.586 171.945 156.614C171.694 156.614 171.442 156.657 171.198 156.647C170.244 156.631 169.295 156.508 168.369 156.283C167.515 156.083 166.677 155.82 165.863 155.497C165.484 155.348 165.113 155.178 164.752 154.99C164.403 154.819 164.077 154.607 163.781 154.357C163.518 154.103 163.3 153.809 163.136 153.485C162.978 153.192 162.843 152.887 162.732 152.574C162.533 152.02 162.377 151.451 162.266 150.874V150.831H162.311C163.506 150.628 164.423 150.4 165.044 150.234L165.751 150.038L165.931 149.989C165.958 149.969 165.978 149.965 165.978 149.969Z" fill="#263238"/>
<path d="M174.567 147.526C174.533 147.526 174.425 146.962 174.034 146.121C173.521 145.026 172.805 144.034 171.922 143.194C171.432 142.739 170.879 142.355 170.278 142.054L169.867 141.875C169.731 141.815 169.589 141.789 169.46 141.745C169.215 141.67 168.964 141.619 168.709 141.593L168.539 141.57H168.078C167.918 141.567 167.759 141.581 167.602 141.61C167.466 141.636 167.327 141.651 167.188 141.653C167.316 141.601 167.451 141.564 167.588 141.543C167.747 141.499 167.91 141.476 168.074 141.474H168.38H168.546L168.723 141.494C168.986 141.511 169.247 141.556 169.5 141.626C169.643 141.661 169.783 141.703 169.922 141.752L170.349 141.931C170.973 142.231 171.545 142.623 172.047 143.091C172.95 143.942 173.665 144.964 174.15 146.094C174.236 146.286 174.311 146.483 174.374 146.684C174.426 146.835 174.469 146.989 174.503 147.145C174.537 147.27 174.558 147.397 174.567 147.526Z" fill="#263238"/>
<path d="M177.121 143.426C176.928 142.943 176.691 142.479 176.414 142.037C175.711 140.989 174.657 140.21 173.433 139.833C171.996 139.405 170.6 139.538 169.626 139.627L168.461 139.763C168.32 139.788 168.176 139.8 168.033 139.8C168.167 139.748 168.308 139.714 168.451 139.697C168.722 139.644 169.13 139.574 169.612 139.508C170.899 139.288 172.22 139.343 173.484 139.667C174.176 139.87 174.818 140.208 175.372 140.661C175.825 141.037 176.213 141.483 176.52 141.981C176.73 142.307 176.897 142.658 177.019 143.025C177.069 143.154 177.103 143.289 177.121 143.426Z" fill="#263238"/>
<path d="M173.592 138.524C171.762 138.102 169.848 138.176 168.057 138.736C168.292 138.586 168.55 138.474 168.821 138.404C169.464 138.212 170.129 138.1 170.801 138.073C171.473 138.05 172.145 138.11 172.801 138.252C173.077 138.303 173.344 138.395 173.592 138.524Z" fill="#263238"/>
<path d="M166.02 131.872C166.047 131.872 165.979 132.339 165.924 133.088C165.782 135.007 165.952 136.935 166.427 138.802L166.305 138.842C166.166 138.461 166.057 138.149 165.986 137.931C165.941 137.824 165.909 137.713 165.891 137.599C165.96 137.702 166.015 137.813 166.054 137.931C166.145 138.139 166.271 138.444 166.427 138.822L166.305 138.859C166.036 137.941 165.857 137.001 165.772 136.051C165.683 135.068 165.692 134.079 165.799 133.098C165.843 132.723 165.894 132.435 165.935 132.213C165.946 132.096 165.975 131.981 166.02 131.872Z" fill="#263238"/>
<path d="M159.4 123.37C159.4 123.37 156.972 123.37 156.666 126.217C156.432 128.404 156.666 130.526 156.666 131.487C156.666 132.448 156.235 135.852 156.235 135.852C156.235 135.852 154.578 137.287 154.605 139.011C154.632 140.734 155.896 141.271 155.896 141.271C155.684 141.805 155.637 142.388 155.761 142.948C155.886 143.508 156.176 144.02 156.595 144.42C156.595 144.42 155.892 146.008 156.469 147.072C156.802 147.601 157.322 147.993 157.93 148.175C157.83 148.385 157.778 148.613 157.776 148.844C157.774 149.075 157.823 149.303 157.92 149.514C158.017 149.725 158.158 149.913 158.336 150.066C158.513 150.219 158.722 150.332 158.949 150.4C159.764 150.646 160.619 150.748 161.472 150.701L163.285 150.668L164.881 151.53C164.881 151.53 167.619 150.366 167.687 148.792L167.758 147.218C167.758 147.218 166.973 144.632 166.909 143.804C166.844 142.975 167.541 140.996 167.119 140.108C166.698 139.22 165.228 138.696 165.367 137.456C165.506 136.217 165.228 135.527 164.596 134.841C163.965 134.155 161.176 132.789 161.176 132.789C161.176 132.789 160.46 130.801 160.46 129.439C160.46 128.076 161.856 123.89 159.4 123.37Z" fill="#FFBF9D"/>
<path d="M161.038 133.307C160.829 133.473 160.601 133.616 160.359 133.731C159.931 133.976 159.34 134.301 158.661 134.652C157.981 135.004 157.39 135.315 156.963 135.531C156.731 135.667 156.485 135.778 156.229 135.862C156.437 135.694 156.665 135.55 156.908 135.435C157.336 135.189 157.927 134.864 158.606 134.513C159.285 134.162 159.876 133.85 160.304 133.635C160.535 133.498 160.781 133.388 161.038 133.307Z" fill="#FF9A6C"/>
<path d="M162.633 138.666C162.633 138.666 162.565 138.742 162.419 138.852C162.217 139.007 162.006 139.152 161.788 139.286C161.071 139.735 160.308 140.11 159.512 140.406C158.717 140.708 157.892 140.93 157.05 141.069C156.711 141.119 156.463 141.149 156.283 141.159C156.189 141.176 156.092 141.176 155.998 141.159C155.998 141.132 156.391 141.079 157.016 140.95C157.84 140.781 158.65 140.55 159.438 140.261C160.224 139.964 160.985 139.607 161.713 139.193C162.01 139.002 162.318 138.827 162.633 138.666Z" fill="#FF9A6C"/>
<path d="M164.719 136.959C164.763 136.976 164.671 137.291 164.379 137.533C164.087 137.775 163.775 137.847 163.764 137.804C163.754 137.761 164.006 137.635 164.26 137.403C164.515 137.171 164.671 136.939 164.719 136.959Z" fill="#FF9A6C"/>
<path d="M163.717 143.356C163.39 143.511 163.049 143.633 162.698 143.721C161.862 143.963 161.011 144.153 160.151 144.288C159.29 144.424 158.421 144.504 157.549 144.526C157.188 144.553 156.825 144.542 156.466 144.493C156.823 144.444 157.182 144.415 157.543 144.407C158.222 144.361 159.122 144.274 160.124 144.119C161.125 143.963 162.019 143.761 162.664 143.601C163.01 143.5 163.361 143.418 163.717 143.356Z" fill="#FF9A6C"/>
<path d="M165.937 142.975C165.989 142.802 166.051 142.633 166.124 142.468C166.259 142.063 166.304 141.635 166.257 141.212C166.203 140.789 166.054 140.383 165.822 140.022C165.712 139.878 165.611 139.727 165.52 139.571C165.52 139.554 165.713 139.677 165.927 139.952C166.202 140.316 166.375 140.743 166.43 141.191C166.485 141.64 166.419 142.095 166.24 142.511C166.1 142.813 165.954 142.975 165.937 142.975Z" fill="#FF9A6C"/>
<path d="M163.852 148.155C163.574 148.256 163.284 148.322 162.99 148.354C162.284 148.463 161.571 148.517 160.857 148.517C160.141 148.516 159.427 148.457 158.721 148.341C158.426 148.309 158.136 148.241 157.858 148.139C158.153 148.144 158.447 148.172 158.738 148.222C159.441 148.299 160.149 148.34 160.857 148.344C161.564 148.343 162.27 148.305 162.973 148.232C163.263 148.183 163.557 148.158 163.852 148.155Z" fill="#FF9A6C"/>
<path d="M159.533 129.472C159.533 129.492 159.421 129.581 159.194 129.661C158.894 129.758 158.576 129.79 158.262 129.753C157.949 129.717 157.647 129.612 157.38 129.448C157.176 129.319 157.081 129.207 157.095 129.19C157.47 129.374 157.87 129.506 158.283 129.581C158.703 129.603 159.124 129.566 159.533 129.472Z" fill="#FF9A6C"/>
<path d="M166.44 143.164C166.471 143.246 166.485 143.332 166.481 143.419C166.481 143.655 166.452 143.89 166.396 144.119C166.331 144.407 166.219 144.742 166.111 145.113C165.979 145.501 165.936 145.913 165.985 146.319C166.043 146.74 166.365 147.079 166.416 147.506C166.451 147.867 166.356 148.229 166.148 148.53C166.021 148.73 165.875 148.916 165.71 149.087C165.595 149.21 165.523 149.269 165.513 149.263C165.503 149.256 165.747 148.971 166.039 148.471C166.215 148.188 166.29 147.857 166.253 147.529C166.213 147.168 165.887 146.83 165.808 146.349C165.757 145.918 165.807 145.48 165.954 145.07C166.073 144.695 166.196 144.367 166.274 144.076C166.352 143.776 166.408 143.471 166.44 143.164Z" fill="#FF9A6C"/>
<path d="M167.354 145.246C167.409 145.343 167.448 145.448 167.469 145.557C167.53 145.759 167.612 146.058 167.687 146.429C167.779 146.866 167.833 147.309 167.85 147.755C167.879 148.312 167.774 148.868 167.544 149.379C167.277 149.868 166.923 150.307 166.498 150.675C166.16 150.975 165.8 151.251 165.421 151.5C165.099 151.716 164.827 151.875 164.637 151.977C164.543 152.039 164.442 152.088 164.335 152.123C164.318 152.1 164.725 151.848 165.354 151.401C165.718 151.142 166.065 150.861 166.393 150.559C166.796 150.199 167.134 149.774 167.391 149.303C167.609 148.815 167.712 148.286 167.693 147.755C167.685 147.316 167.645 146.878 167.571 146.445C167.439 145.706 167.327 145.252 167.354 145.246Z" fill="#263238"/>
<path d="M141.731 134.212C141.589 134.131 141.457 134.035 141.337 133.927L140.318 133.095L139.612 132.515C139.491 132.404 139.356 132.31 139.211 132.233C139.14 132.198 139.062 132.179 138.983 132.179C138.904 132.179 138.826 132.198 138.756 132.233C138.464 132.382 138.267 132.747 138.019 133.052C137.771 133.356 137.526 133.714 137.268 134.046C136.861 134.583 136.464 135.097 136.1 135.574L135.879 135.859L135.951 135.508C136.145 134.522 136.428 133.555 136.796 132.617C136.932 132.286 137.054 132.001 137.136 131.819C137.174 131.721 137.226 131.628 137.289 131.543C137.265 131.645 137.232 131.743 137.19 131.838C137.119 132.027 137.014 132.302 136.891 132.654C136.559 133.596 136.299 134.561 136.114 135.541L135.961 135.474L137.126 133.943L137.876 132.949L138.236 132.481C138.35 132.315 138.504 132.179 138.685 132.084C138.779 132.043 138.881 132.024 138.984 132.028C139.087 132.032 139.188 132.059 139.279 132.107C139.433 132.192 139.576 132.295 139.703 132.415L140.383 133.012L141.374 133.884C141.502 133.984 141.621 134.093 141.731 134.212Z" fill="#263238"/>
<path d="M156.069 131.411C156.029 131.454 155.985 131.493 155.936 131.527L155.535 131.832L154.038 132.929L149.042 136.518L148.968 136.572L148.917 136.495C148.876 136.436 148.835 136.369 148.791 136.306L146.285 132.442L146.376 132.471C145.411 132.846 144.479 133.299 143.592 133.827C143.272 134.016 143.025 134.159 142.855 134.281C142.772 134.342 142.683 134.394 142.59 134.437C142.662 134.364 142.742 134.298 142.828 134.241C142.991 134.125 143.232 133.956 143.548 133.754C144.424 133.198 145.351 132.723 146.319 132.336L146.376 132.312L146.41 132.362C147.147 133.479 148.013 134.802 148.94 136.214C148.985 136.277 149.025 136.343 149.066 136.402L148.937 136.379L153.967 132.833L155.495 131.775L155.916 131.497C156.014 131.434 156.065 131.404 156.069 131.411Z" fill="#263238"/>
<path d="M125.589 144.593C125.605 144.669 125.612 144.747 125.61 144.825C125.61 144.997 125.61 145.219 125.627 145.487C125.627 146.087 125.657 146.926 125.674 147.953C125.715 150.035 125.8 152.925 125.912 156.091C126.024 159.256 126.089 162.146 126.095 164.231C126.095 165.275 126.095 166.117 126.095 166.7C126.095 166.975 126.095 167.201 126.078 167.363C126.082 167.442 126.076 167.521 126.061 167.599C126.056 167.52 126.056 167.442 126.061 167.363C126.061 167.194 126.061 166.969 126.041 166.7C126.041 166.097 126.014 165.259 125.993 164.234C125.956 162.15 125.868 159.263 125.759 156.094C125.65 152.925 125.583 150.038 125.576 147.953C125.576 146.913 125.576 146.067 125.576 145.487C125.576 145.209 125.576 144.987 125.576 144.825C125.575 144.747 125.58 144.67 125.589 144.593Z" fill="#263238"/>
<path d="M141.843 174.529C141.832 174.499 141.825 174.468 141.823 174.436C141.823 174.363 141.823 174.271 141.792 174.155C141.765 173.893 141.727 173.532 141.683 173.071C141.588 172.13 141.48 170.751 141.371 169.077C141.262 167.403 141.171 165.375 141.113 163.141C141.055 160.907 141.048 158.444 141.113 155.849C141.177 153.253 141.296 150.811 141.452 148.58C141.609 146.349 141.792 144.341 141.975 142.66C142.159 140.98 142.315 139.617 142.464 138.683C142.532 138.222 142.583 137.864 142.621 137.605C142.641 137.489 142.655 137.397 142.668 137.324C142.67 137.292 142.677 137.261 142.689 137.231C142.694 137.263 142.694 137.295 142.689 137.327C142.689 137.4 142.672 137.493 142.661 137.609C142.631 137.867 142.59 138.229 142.536 138.689C142.42 139.631 142.271 140.99 142.104 142.667C141.938 144.344 141.765 146.356 141.619 148.586C141.473 150.817 141.361 153.273 141.3 155.852C141.238 158.431 141.255 160.887 141.3 163.121C141.344 165.355 141.429 167.363 141.524 169.05C141.619 170.737 141.704 172.106 141.778 173.048C141.809 173.508 141.836 173.873 141.853 174.135C141.853 174.251 141.853 174.344 141.87 174.417C141.864 174.455 141.855 174.492 141.843 174.529Z" fill="#263238"/>
<path d="M131.723 120.277L131.363 120.509L130.303 121.172C129.835 121.467 129.284 121.888 128.639 122.352C128.3 122.591 127.987 122.879 127.62 123.171L127.067 123.625C126.877 123.784 126.697 123.956 126.503 124.139C124.625 125.849 122.975 127.783 121.592 129.896L120.988 130.844C120.774 131.159 120.611 131.507 120.414 131.838C120.217 132.17 120.023 132.528 119.847 132.892C119.67 133.257 119.507 133.631 119.324 134.009C119.239 134.198 119.144 134.384 119.062 134.579C118.981 134.775 118.91 134.974 118.831 135.176C118.679 135.574 118.516 135.975 118.366 136.389C118.115 137.228 117.796 138.076 117.606 138.981C116.637 142.896 116.476 146.96 117.13 150.937C117.982 156.057 120.178 160.875 123.507 164.92C126.835 168.965 131.18 172.099 136.12 174.015C141.059 175.932 146.423 176.567 151.688 175.857C156.953 175.147 161.94 173.117 166.162 169.965C167.228 169.166 168.242 168.302 169.198 167.38L169.877 166.677C170.108 166.445 170.332 166.21 170.556 165.961L171.202 165.235C171.405 164.983 171.606 164.732 171.809 164.483C174.881 160.621 176.931 156.08 177.776 151.261C177.975 150.143 178.11 149.014 178.18 147.881C178.214 147.32 178.214 146.767 178.235 146.223C178.255 145.68 178.194 145.126 178.174 144.586C178.174 144.317 178.15 144.046 178.14 143.777C178.129 143.509 178.078 143.247 178.051 142.982C177.983 142.455 177.919 141.931 177.854 141.414C177.79 140.897 177.651 140.393 177.549 139.889C177.464 139.39 177.35 138.895 177.209 138.408L176.788 136.972C176.722 136.737 176.641 136.506 176.547 136.28C176.459 136.051 176.37 135.822 176.285 135.597C176.105 135.15 175.946 134.692 175.752 134.271C175.559 133.85 175.348 133.423 175.148 133.008C173.671 130.012 171.689 127.278 169.286 124.921C167.465 123.155 165.434 121.609 163.234 120.317L161.937 119.591C161.741 119.479 161.54 119.377 161.333 119.286L160.762 119.021L159.743 118.55C159.438 118.398 159.135 118.312 158.881 118.219L157.699 117.775L157.298 117.616L157.706 117.758L158.891 118.189C159.149 118.289 159.451 118.375 159.76 118.521L160.779 118.985L161.353 119.25C161.561 119.339 161.764 119.438 161.961 119.548L163.262 120.271C165.475 121.555 167.52 123.097 169.351 124.865C171.768 127.22 173.764 129.955 175.253 132.955C175.453 133.376 175.657 133.797 175.864 134.228C176.071 134.659 176.204 135.113 176.401 135.554L176.666 136.237C176.76 136.464 176.841 136.696 176.907 136.933C177.049 137.41 177.192 137.887 177.335 138.375C177.482 138.864 177.601 139.361 177.691 139.863C177.793 140.367 177.915 140.857 178.004 141.391C178.092 141.924 178.133 142.438 178.201 142.968C178.231 143.234 178.275 143.499 178.292 143.767C178.309 144.036 178.316 144.308 178.326 144.579C178.347 145.123 178.377 145.67 178.391 146.237C178.405 146.803 178.374 147.347 178.337 147.894C177.99 153.961 175.759 159.782 171.942 164.582L171.324 165.338L170.672 166.071C170.461 166.319 170.234 166.558 169.993 166.79L169.313 167.499C168.351 168.427 167.33 169.295 166.257 170.098C162.015 173.263 157.005 175.301 151.715 176.014C146.426 176.726 141.037 176.089 136.075 174.164C131.113 172.24 126.746 169.093 123.401 165.031C120.056 160.969 117.846 156.13 116.987 150.986C116.643 148.913 116.529 146.809 116.648 144.712C116.733 142.777 117.019 140.856 117.5 138.978C117.69 138.07 118.013 137.221 118.264 136.376C118.417 135.965 118.584 135.561 118.74 135.159C118.818 134.961 118.896 134.762 118.971 134.563C119.045 134.364 119.151 134.182 119.236 133.989C119.416 133.612 119.575 133.24 119.762 132.872C119.949 132.505 120.149 132.163 120.336 131.815C120.523 131.467 120.699 131.122 120.913 130.804L121.525 129.856C122.914 127.74 124.577 125.807 126.473 124.106C126.666 123.93 126.846 123.751 127.036 123.592L127.593 123.138C127.96 122.849 128.272 122.564 128.612 122.326C129.274 121.862 129.818 121.447 130.29 121.156L131.359 120.493C131.59 120.347 131.723 120.277 131.723 120.277Z" fill="#263238"/>
</svg>
