<svg width="253" height="213" viewBox="0 0 253 213" fill="none" xmlns="http://www.w3.org/2000/svg">
<g filter="url(#filter0_d_545_3658)">
<rect x="5.5" y="1.5" width="242" height="202" rx="10.5" stroke="#000DFF" stroke-width="3" shape-rendering="crispEdges"/>
<path d="M33.1853 53V50.7935H34.863V53H33.1853ZM41.2402 53V42.7332L38.213 44.7209L37.5201 43.5173L41.3678 40.9643H42.8449V53H41.2402Z" fill="#4F4B45"/>
<path d="M33.1853 149V146.793H34.863V149H33.1853ZM40.8025 149.164C40.3527 149.164 39.8725 149.134 39.3619 149.073C38.8634 149.012 38.3832 148.945 37.9212 148.872C37.4593 148.787 37.0763 148.708 36.7724 148.635L36.9365 147.359C37.2404 147.407 37.6052 147.468 38.0307 147.541C38.4683 147.602 38.9121 147.657 39.3619 147.705C39.8239 147.742 40.2494 147.76 40.6384 147.76C41.4408 147.76 42.073 147.535 42.5349 147.085C42.9969 146.635 43.2279 145.979 43.2279 145.116C43.2279 144.532 43.1246 144.076 42.9179 143.748C42.7234 143.408 42.4437 143.171 42.079 143.037C41.7265 142.891 41.307 142.818 40.8208 142.818C40.4682 142.818 40.1096 142.855 39.7448 142.927C39.3923 143 39.0701 143.092 38.7783 143.201C38.4866 143.298 38.2434 143.402 38.0489 143.511L36.973 143.31L37.3012 136.964H44.395V138.405H38.596L38.286 142.089C38.4926 141.991 38.7419 141.894 39.0336 141.797C39.3376 141.687 39.6597 141.596 40.0001 141.523C40.3405 141.438 40.6809 141.396 41.0213 141.396C41.8116 141.396 42.4924 141.517 43.0638 141.76C43.6352 141.991 44.0789 142.368 44.395 142.891C44.7111 143.414 44.8691 144.107 44.8691 144.97C44.8691 145.906 44.705 146.684 44.3768 147.304C44.0607 147.924 43.5987 148.392 42.9908 148.708C42.383 149.012 41.6535 149.164 40.8025 149.164Z" fill="#4F4B45"/>
<path d="M215.766 197.018V195.268L222.148 186.204V185.821H215.766V184.417H224.045V186.168L217.644 195.231V195.596H224.045V197.018H215.766Z" fill="#4F4B45"/>
<path d="M212.185 53V50.7935H213.863V53H212.185ZM219.693 53.1824C219.243 53.1824 218.769 53.152 218.271 53.0912C217.772 53.0426 217.304 52.9818 216.867 52.9088C216.429 52.8359 216.064 52.7629 215.772 52.69L215.9 51.3952C216.18 51.4439 216.52 51.4986 216.921 51.5594C217.335 51.6202 217.772 51.6749 218.234 51.7235C218.696 51.76 219.128 51.7782 219.529 51.7782C220.38 51.7782 221.006 51.5958 221.407 51.2311C221.821 50.8664 222.027 50.3193 222.027 49.5899C222.027 49.0671 221.924 48.6538 221.717 48.3498C221.511 48.0459 221.225 47.821 220.86 47.6751C220.508 47.5292 220.113 47.4502 219.675 47.4381H217.231V46.0886H219.657C219.961 46.0886 220.271 46.0096 220.587 45.8515C220.915 45.6813 221.188 45.4443 221.407 45.1403C221.638 44.8242 221.754 44.4474 221.754 44.0097C221.754 43.3532 221.571 42.8852 221.207 42.6055C220.842 42.3138 220.234 42.1679 219.383 42.1679C218.994 42.1679 218.587 42.1922 218.161 42.2408C217.748 42.2773 217.353 42.3259 216.976 42.3867C216.611 42.4353 216.307 42.4901 216.064 42.5508L215.937 41.2743C216.192 41.2014 216.508 41.1284 216.885 41.0555C217.274 40.9704 217.687 40.9035 218.125 40.8549C218.575 40.7941 219.018 40.7637 219.456 40.7637C220.429 40.7637 221.201 40.8792 221.772 41.1102C222.343 41.329 222.757 41.6694 223.012 42.1314C223.267 42.5934 223.395 43.1891 223.395 43.9185C223.395 44.3683 223.322 44.7574 223.176 45.0856C223.042 45.4017 222.872 45.6692 222.666 45.888C222.471 46.0947 222.277 46.2588 222.082 46.3804C221.9 46.5019 221.754 46.5931 221.644 46.6539C222.058 46.7998 222.416 46.9761 222.72 47.1828C223.024 47.3894 223.261 47.6751 223.431 48.0398C223.602 48.4046 223.687 48.903 223.687 49.5352C223.687 50.3619 223.547 51.0488 223.267 51.5958C222.988 52.1308 222.55 52.5319 221.954 52.7994C221.371 53.0547 220.617 53.1824 219.693 53.1824Z" fill="#4F4B45"/>
<path d="M206.185 149V146.793H207.863V149H206.185ZM209.845 144.715V143.292H215.371V144.715H209.845ZM220.671 149.182C220.306 149.182 219.917 149.164 219.504 149.128C219.09 149.091 218.689 149.049 218.3 149C217.923 148.939 217.595 148.885 217.315 148.836L217.48 147.559C217.723 147.584 218.021 147.614 218.373 147.651C218.738 147.687 219.121 147.717 219.522 147.742C219.923 147.766 220.306 147.778 220.671 147.778C221.716 147.778 222.501 147.456 223.023 146.812C223.546 146.155 223.814 145.158 223.826 143.821C223.534 143.918 223.212 144.022 222.859 144.131C222.507 144.24 222.154 144.332 221.802 144.405C221.449 144.465 221.127 144.496 220.835 144.496C219.559 144.496 218.58 144.198 217.899 143.602C217.23 142.994 216.896 142.052 216.896 140.776C216.896 139.949 217.066 139.238 217.407 138.642C217.747 138.046 218.233 137.59 218.866 137.274C219.498 136.946 220.239 136.782 221.09 136.782C222.112 136.782 222.944 137.037 223.589 137.548C224.233 138.046 224.707 138.764 225.011 139.7C225.315 140.624 225.467 141.73 225.467 143.019C225.467 144.186 225.358 145.164 225.139 145.955C224.92 146.745 224.604 147.377 224.19 147.851C223.789 148.325 223.291 148.666 222.695 148.872C222.099 149.079 221.425 149.182 220.671 149.182ZM220.981 143.092C221.273 143.092 221.595 143.055 221.947 142.982C222.3 142.909 222.646 142.824 222.987 142.727C223.327 142.63 223.613 142.538 223.844 142.453C223.844 141.614 223.753 140.879 223.57 140.247C223.388 139.602 223.096 139.098 222.695 138.733C222.294 138.368 221.759 138.186 221.09 138.186C220.288 138.186 219.656 138.423 219.194 138.897C218.732 139.359 218.501 139.985 218.501 140.776C218.501 141.578 218.714 142.168 219.139 142.544C219.565 142.909 220.179 143.092 220.981 143.092Z" fill="#4F4B45"/>
<path d="M122.401 197L125.793 184.417H129.13L132.522 197H130.917L130.042 193.9H124.863L123.988 197H122.401ZM125.173 192.514H129.732L127.908 185.767H126.997L125.173 192.514Z" fill="#4F4B45"/>
<path d="M120.185 96V93.7935H121.863V96H120.185ZM127.693 96.1824C127.243 96.1824 126.769 96.152 126.271 96.0912C125.772 96.0426 125.304 95.9818 124.867 95.9088C124.429 95.8359 124.064 95.7629 123.772 95.69L123.9 94.3952C124.18 94.4439 124.52 94.4986 124.921 94.5594C125.335 94.6202 125.772 94.6749 126.234 94.7235C126.696 94.76 127.128 94.7782 127.529 94.7782C128.38 94.7782 129.006 94.5958 129.407 94.2311C129.821 93.8664 130.027 93.3193 130.027 92.5899C130.027 92.0671 129.924 91.6538 129.717 91.3498C129.511 91.0459 129.225 90.821 128.86 90.6751C128.508 90.5292 128.113 90.4502 127.675 90.4381H125.231V89.0886H127.657C127.961 89.0886 128.271 89.0096 128.587 88.8515C128.915 88.6813 129.188 88.4443 129.407 88.1403C129.638 87.8242 129.754 87.4474 129.754 87.0097C129.754 86.3532 129.571 85.8852 129.207 85.6055C128.842 85.3138 128.234 85.1679 127.383 85.1679C126.994 85.1679 126.587 85.1922 126.161 85.2408C125.748 85.2773 125.353 85.3259 124.976 85.3867C124.611 85.4353 124.307 85.4901 124.064 85.5508L123.937 84.2743C124.192 84.2014 124.508 84.1284 124.885 84.0555C125.274 83.9704 125.687 83.9035 126.125 83.8549C126.575 83.7941 127.018 83.7637 127.456 83.7637C128.429 83.7637 129.201 83.8792 129.772 84.1102C130.343 84.329 130.757 84.6694 131.012 85.1314C131.267 85.5934 131.395 86.1891 131.395 86.9185C131.395 87.3683 131.322 87.7574 131.176 88.0856C131.042 88.4017 130.872 88.6692 130.666 88.888C130.471 89.0947 130.277 89.2588 130.082 89.3804C129.9 89.5019 129.754 89.5931 129.644 89.6539C130.058 89.7998 130.416 89.9761 130.72 90.1828C131.024 90.3894 131.261 90.6751 131.431 91.0398C131.602 91.4046 131.687 91.903 131.687 92.5352C131.687 93.3619 131.547 94.0488 131.267 94.5958C130.988 95.1308 130.55 95.5319 129.954 95.7994C129.371 96.0547 128.617 96.1824 127.693 96.1824Z" fill="#4F4B45"/>
<path d="M120.185 144V141.793H121.863V144H120.185ZM123.9 144V142.669L127.255 139.149C127.766 138.614 128.204 138.14 128.568 137.727C128.933 137.314 129.213 136.906 129.407 136.505C129.602 136.104 129.699 135.672 129.699 135.21C129.699 134.444 129.486 133.922 129.061 133.642C128.647 133.35 128.015 133.204 127.164 133.204C126.848 133.204 126.496 133.229 126.107 133.277C125.73 133.314 125.359 133.362 124.994 133.423C124.642 133.472 124.344 133.527 124.101 133.587L123.973 132.274C124.24 132.201 124.563 132.128 124.939 132.055C125.316 131.983 125.73 131.922 126.18 131.873C126.629 131.812 127.067 131.782 127.493 131.782C128.769 131.782 129.729 132.043 130.374 132.566C131.03 133.077 131.359 133.897 131.359 135.028C131.359 135.624 131.261 136.165 131.067 136.651C130.884 137.125 130.605 137.587 130.228 138.037C129.863 138.487 129.389 138.991 128.805 139.55L125.76 142.614H131.632V144H123.9Z" fill="#4F4B45"/>
<path d="M120.185 53V50.7935H121.863V53H120.185ZM129.116 53V50.7205H123.371V49.4805L126.69 40.9643H128.459L125.031 49.2981H129.116L129.134 45.6692H130.72V49.2981H132.179V50.7205H130.72V53H129.116Z" fill="#4F4B45"/>
<path d="M177.5 96.5C177.5 117.081 171.697 135.648 162.392 149.03C153.083 162.417 140.369 170.5 126.5 170.5C112.631 170.5 99.9174 162.417 90.6084 149.03C81.3032 135.648 75.5 117.081 75.5 96.5C75.5 75.9191 81.3032 57.3516 90.6084 43.9698C99.9174 30.5826 112.631 22.5 126.5 22.5C140.369 22.5 153.083 30.5826 162.392 43.9698C171.697 57.3516 177.5 75.9191 177.5 96.5Z" stroke="#000DFF" stroke-width="3"/>
</g>
<defs>
<filter id="filter0_d_545_3658" x="0" y="0" width="253" height="213" filterUnits="userSpaceOnUse" color-interpolation-filters="sRGB">
<feFlood flood-opacity="0" result="BackgroundImageFix"/>
<feColorMatrix in="SourceAlpha" type="matrix" values="0 0 0 0 0 0 0 0 0 0 0 0 0 0 0 0 0 0 127 0" result="hardAlpha"/>
<feOffset dy="4"/>
<feGaussianBlur stdDeviation="2"/>
<feComposite in2="hardAlpha" operator="out"/>
<feColorMatrix type="matrix" values="0 0 0 0 0 0 0 0 0 0.0509804 0 0 0 0 1 0 0 0 0.25 0"/>
<feBlend mode="normal" in2="BackgroundImageFix" result="effect1_dropShadow_545_3658"/>
<feBlend mode="normal" in="SourceGraphic" in2="effect1_dropShadow_545_3658" result="shape"/>
</filter>
</defs>
</svg>
