<svg width="253" height="213" viewBox="0 0 253 213" fill="none" xmlns="http://www.w3.org/2000/svg">
<g filter="url(#filter0_d_545_3669)">
<rect x="5.5" y="1.5" width="242" height="202" rx="10.5" stroke="#000DFF" stroke-width="3" shape-rendering="crispEdges"/>
<path d="M33.1853 53V50.7935H34.863V53H33.1853ZM41.2402 53V42.7332L38.213 44.7209L37.5201 43.5173L41.3678 40.9643H42.8449V53H41.2402Z" fill="#4F4B45"/>
<path d="M33.1853 149V146.793H34.863V149H33.1853ZM40.8025 149.164C40.3527 149.164 39.8725 149.134 39.3619 149.073C38.8634 149.012 38.3832 148.945 37.9212 148.872C37.4593 148.787 37.0763 148.708 36.7724 148.635L36.9365 147.359C37.2404 147.407 37.6052 147.468 38.0307 147.541C38.4683 147.602 38.9121 147.657 39.3619 147.705C39.8239 147.742 40.2494 147.76 40.6384 147.76C41.4408 147.76 42.073 147.535 42.5349 147.085C42.9969 146.635 43.2279 145.979 43.2279 145.116C43.2279 144.532 43.1246 144.076 42.9179 143.748C42.7234 143.408 42.4437 143.171 42.079 143.037C41.7265 142.891 41.307 142.818 40.8208 142.818C40.4682 142.818 40.1096 142.855 39.7448 142.927C39.3923 143 39.0701 143.092 38.7783 143.201C38.4866 143.298 38.2434 143.402 38.0489 143.511L36.973 143.31L37.3012 136.964H44.395V138.405H38.596L38.286 142.089C38.4926 141.991 38.7419 141.894 39.0336 141.797C39.3376 141.687 39.6597 141.596 40.0001 141.523C40.3405 141.438 40.6809 141.396 41.0213 141.396C41.8116 141.396 42.4924 141.517 43.0638 141.76C43.6352 141.991 44.0789 142.368 44.395 142.891C44.7111 143.414 44.8691 144.107 44.8691 144.97C44.8691 145.906 44.705 146.684 44.3768 147.304C44.0607 147.924 43.5987 148.392 42.9908 148.708C42.383 149.012 41.6535 149.164 40.8025 149.164Z" fill="#4F4B45"/>
<path d="M212.185 149V146.793H213.863V149H212.185ZM215.845 149V146.793H217.523V149H215.845ZM219.505 149V146.793H221.183V149H219.505Z" fill="#4F4B45"/>
<path d="M212.185 53V50.7935H213.863V53H212.185ZM219.693 53.1824C219.243 53.1824 218.769 53.152 218.271 53.0912C217.772 53.0426 217.304 52.9818 216.867 52.9088C216.429 52.8359 216.064 52.7629 215.772 52.69L215.9 51.3952C216.18 51.4439 216.52 51.4986 216.921 51.5594C217.335 51.6202 217.772 51.6749 218.234 51.7235C218.696 51.76 219.128 51.7782 219.529 51.7782C220.38 51.7782 221.006 51.5958 221.407 51.2311C221.821 50.8664 222.027 50.3193 222.027 49.5899C222.027 49.0671 221.924 48.6538 221.717 48.3498C221.511 48.0459 221.225 47.821 220.86 47.6751C220.508 47.5292 220.113 47.4502 219.675 47.4381H217.231V46.0886H219.657C219.961 46.0886 220.271 46.0096 220.587 45.8515C220.915 45.6813 221.188 45.4443 221.407 45.1403C221.638 44.8242 221.754 44.4474 221.754 44.0097C221.754 43.3532 221.571 42.8852 221.207 42.6055C220.842 42.3138 220.234 42.1679 219.383 42.1679C218.994 42.1679 218.587 42.1922 218.161 42.2408C217.748 42.2773 217.353 42.3259 216.976 42.3867C216.611 42.4353 216.307 42.4901 216.064 42.5508L215.937 41.2743C216.192 41.2014 216.508 41.1284 216.885 41.0555C217.274 40.9704 217.687 40.9035 218.125 40.8549C218.575 40.7941 219.018 40.7637 219.456 40.7637C220.429 40.7637 221.201 40.8792 221.772 41.1102C222.343 41.329 222.757 41.6694 223.012 42.1314C223.267 42.5934 223.395 43.1891 223.395 43.9185C223.395 44.3683 223.322 44.7574 223.176 45.0856C223.042 45.4017 222.872 45.6692 222.666 45.888C222.471 46.0947 222.277 46.2588 222.082 46.3804C221.9 46.5019 221.754 46.5931 221.644 46.6539C222.058 46.7998 222.416 46.9761 222.72 47.1828C223.024 47.3894 223.261 47.6751 223.431 48.0398C223.602 48.4046 223.687 48.903 223.687 49.5352C223.687 50.3619 223.547 51.0488 223.267 51.5958C222.988 52.1308 222.55 52.5319 221.954 52.7994C221.371 53.0547 220.617 53.1824 219.693 53.1824Z" fill="#4F4B45"/>
<path d="M122.401 195L125.793 182.417H129.13L132.522 195H130.917L130.042 191.9H124.863L123.988 195H122.401ZM125.173 190.514H129.732L127.908 183.767H126.997L125.173 190.514Z" fill="#4F4B45"/>
<path d="M120.185 101V98.7935H121.863V101H120.185ZM127.766 101.182C127.061 101.182 126.435 101.085 125.888 100.891C125.341 100.696 124.873 100.368 124.484 99.9058C124.107 99.4439 123.821 98.8239 123.627 98.0458C123.432 97.2677 123.335 96.3012 123.335 95.1463C123.335 93.9306 123.426 92.9093 123.608 92.0827C123.803 91.256 124.088 90.5995 124.465 90.1132C124.854 89.6269 125.322 89.2804 125.87 89.0737C126.417 88.8671 127.043 88.7637 127.748 88.7637C128.477 88.7637 129.116 88.8671 129.663 89.0737C130.21 89.2804 130.666 89.6269 131.03 90.1132C131.407 90.5995 131.693 91.256 131.887 92.0827C132.082 92.8972 132.179 93.9184 132.179 95.1463C132.179 96.6781 132.003 97.8817 131.65 98.757C131.298 99.6323 130.793 100.258 130.137 100.635C129.492 101 128.702 101.182 127.766 101.182ZM127.766 99.7782C128.216 99.7782 128.611 99.7113 128.951 99.5776C129.304 99.4317 129.596 99.1886 129.827 98.8482C130.058 98.4956 130.228 98.0215 130.337 97.4258C130.459 96.8179 130.52 96.0581 130.52 95.1463C130.52 94.1615 130.465 93.3531 130.356 92.7209C130.246 92.0766 130.076 91.566 129.845 91.1891C129.626 90.8122 129.34 90.5508 128.988 90.405C128.647 90.2469 128.24 90.1679 127.766 90.1679C127.292 90.1679 126.879 90.2469 126.526 90.405C126.186 90.5508 125.9 90.8122 125.669 91.1891C125.438 91.5538 125.262 92.0583 125.14 92.7027C125.031 93.347 124.976 94.1676 124.976 95.1645C124.976 96.0763 125.037 96.8361 125.158 97.444C125.28 98.0397 125.462 98.5078 125.705 98.8482C125.949 99.1886 126.24 99.4317 126.581 99.5776C126.921 99.7113 127.316 99.7782 127.766 99.7782Z" fill="#4F4B45"/>
<path d="M117.185 149V146.793H118.863V149H117.185ZM120.845 144.715V143.292H126.371V144.715H120.845ZM132.747 149V138.733L129.72 140.721L129.027 139.517L132.874 136.964H134.352V149H132.747Z" fill="#4F4B45"/>
<path d="M120.185 53V50.7935H121.863V53H120.185ZM128.24 53V42.7332L125.213 44.7209L124.52 43.5173L128.368 40.9643H129.845V53H128.24Z" fill="#4F4B45"/>
<path d="M177.5 96.5C177.5 117.081 171.697 135.648 162.392 149.03C153.083 162.417 140.369 170.5 126.5 170.5C112.631 170.5 99.9174 162.417 90.6084 149.03C81.3032 135.648 75.5 117.081 75.5 96.5C75.5 75.9191 81.3032 57.3516 90.6084 43.9698C99.9174 30.5826 112.631 22.5 126.5 22.5C140.369 22.5 153.083 30.5826 162.392 43.9698C171.697 57.3516 177.5 75.9191 177.5 96.5Z" stroke="#000DFF" stroke-width="3"/>
<path d="M217.048 191.638V191.427C215.583 189.669 214.851 187.855 214.851 185.986C214.851 184.451 215.29 183.215 216.169 182.277C217.048 181.334 218.193 180.862 219.605 180.862C221.07 180.862 222.189 181.29 222.963 182.146C223.742 182.995 224.132 184.188 224.132 185.723C224.132 187.732 223.37 189.648 221.847 191.471V191.638H222.646C223.209 191.638 223.581 191.573 223.763 191.444C223.95 191.315 224.094 191.005 224.193 190.513H225.055L224.791 193H220.722V191.734C221.817 189.83 222.365 187.902 222.365 185.951C222.365 183.074 221.384 181.636 219.421 181.636C218.542 181.636 217.854 182.008 217.355 182.752C216.863 183.49 216.617 184.542 216.617 185.907C216.617 187.905 217.162 189.848 218.252 191.734V193H214.2L213.937 190.521H214.798C214.903 191.02 215.035 191.33 215.193 191.453C215.352 191.576 215.715 191.638 216.283 191.638H217.048Z" fill="#4F4B45"/>
</g>
<defs>
<filter id="filter0_d_545_3669" x="0" y="0" width="253" height="213" filterUnits="userSpaceOnUse" color-interpolation-filters="sRGB">
<feFlood flood-opacity="0" result="BackgroundImageFix"/>
<feColorMatrix in="SourceAlpha" type="matrix" values="0 0 0 0 0 0 0 0 0 0 0 0 0 0 0 0 0 0 127 0" result="hardAlpha"/>
<feOffset dy="4"/>
<feGaussianBlur stdDeviation="2"/>
<feComposite in2="hardAlpha" operator="out"/>
<feColorMatrix type="matrix" values="0 0 0 0 0 0 0 0 0 0.0509804 0 0 0 0 1 0 0 0 0.25 0"/>
<feBlend mode="normal" in2="BackgroundImageFix" result="effect1_dropShadow_545_3669"/>
<feBlend mode="normal" in="SourceGraphic" in2="effect1_dropShadow_545_3669" result="shape"/>
</filter>
</defs>
</svg>
