<svg width="253" height="213" viewBox="0 0 253 213" fill="none" xmlns="http://www.w3.org/2000/svg">
<g filter="url(#filter0_d_545_3680)">
<rect x="5.5" y="1.5" width="242" height="202" rx="10.5" stroke="#000DFF" stroke-width="3" shape-rendering="crispEdges"/>
<path d="M33.1853 53V50.7935H34.863V53H33.1853ZM41.2402 53V42.7332L38.213 44.7209L37.5201 43.5173L41.3678 40.9643H42.8449V53H41.2402Z" fill="#4F4B45"/>
<path d="M33.1853 149V146.793H34.863V149H33.1853ZM40.8025 149.164C40.3527 149.164 39.8725 149.134 39.3619 149.073C38.8634 149.012 38.3832 148.945 37.9212 148.872C37.4593 148.787 37.0763 148.708 36.7724 148.635L36.9365 147.359C37.2404 147.407 37.6052 147.468 38.0307 147.541C38.4683 147.602 38.9121 147.657 39.3619 147.705C39.8239 147.742 40.2494 147.76 40.6384 147.76C41.4408 147.76 42.073 147.535 42.5349 147.085C42.9969 146.635 43.2279 145.979 43.2279 145.116C43.2279 144.532 43.1246 144.076 42.9179 143.748C42.7234 143.408 42.4437 143.171 42.079 143.037C41.7265 142.891 41.307 142.818 40.8208 142.818C40.4682 142.818 40.1096 142.855 39.7448 142.927C39.3923 143 39.0701 143.092 38.7783 143.201C38.4866 143.298 38.2434 143.402 38.0489 143.511L36.973 143.31L37.3012 136.964H44.395V138.405H38.596L38.286 142.089C38.4926 141.991 38.7419 141.894 39.0336 141.797C39.3376 141.687 39.6597 141.596 40.0001 141.523C40.3405 141.438 40.6809 141.396 41.0213 141.396C41.8116 141.396 42.4924 141.517 43.0638 141.76C43.6352 141.991 44.0789 142.368 44.395 142.891C44.7111 143.414 44.8691 144.107 44.8691 144.97C44.8691 145.906 44.705 146.684 44.3768 147.304C44.0607 147.924 43.5987 148.392 42.9908 148.708C42.383 149.012 41.6535 149.164 40.8025 149.164Z" fill="#4F4B45"/>
<path d="M208.185 103V100.793H209.863V103H208.185ZM215.164 103.182C214.8 103.182 214.411 103.164 213.997 103.128C213.584 103.091 213.183 103.049 212.794 103C212.417 102.939 212.088 102.885 211.809 102.836L211.973 101.559C212.216 101.584 212.514 101.614 212.867 101.651C213.231 101.687 213.614 101.717 214.015 101.742C214.417 101.766 214.8 101.778 215.164 101.778C216.21 101.778 216.994 101.456 217.517 100.812C218.039 100.155 218.307 99.1583 218.319 97.821C218.027 97.9183 217.705 98.0216 217.353 98.131C217 98.2404 216.647 98.3316 216.295 98.4046C215.942 98.4653 215.62 98.4957 215.328 98.4957C214.052 98.4957 213.073 98.1979 212.392 97.6022C211.724 96.9943 211.389 96.0521 211.389 94.7756C211.389 93.9489 211.56 93.2377 211.9 92.642C212.24 92.0463 212.727 91.5904 213.359 91.2743C213.991 90.9461 214.733 90.782 215.584 90.782C216.605 90.782 217.438 91.0373 218.082 91.5479C218.726 92.0463 219.2 92.7636 219.504 93.6997C219.808 94.6237 219.96 95.73 219.96 97.0186C219.96 98.1857 219.851 99.1644 219.632 99.9546C219.413 100.745 219.097 101.377 218.684 101.851C218.283 102.325 217.784 102.666 217.188 102.872C216.593 103.079 215.918 103.182 215.164 103.182ZM215.474 97.0916C215.766 97.0916 216.088 97.0551 216.441 96.9822C216.793 96.9092 217.14 96.8241 217.48 96.7269C217.821 96.6296 218.106 96.5384 218.337 96.4533C218.337 95.6145 218.246 94.879 218.064 94.2468C217.881 93.6024 217.59 93.0979 217.188 92.7332C216.787 92.3685 216.252 92.1861 215.584 92.1861C214.781 92.1861 214.149 92.4232 213.687 92.8973C213.225 93.3593 212.994 93.9854 212.994 94.7756C212.994 95.578 213.207 96.1676 213.632 96.5445C214.058 96.9092 214.672 97.0916 215.474 97.0916Z" fill="#4F4B45"/>
<path d="M122.401 193L125.793 180.417H129.13L132.522 193H130.917L130.042 189.9H124.863L123.988 193H122.401ZM125.173 188.514H129.732L127.908 181.767H126.997L125.173 188.514Z" fill="#4F4B45"/>
<path d="M120.185 99V96.7935H121.863V99H120.185ZM127.693 99.1824C127.243 99.1824 126.769 99.152 126.271 99.0912C125.772 99.0426 125.304 98.9818 124.867 98.9088C124.429 98.8359 124.064 98.7629 123.772 98.69L123.9 97.3952C124.18 97.4439 124.52 97.4986 124.921 97.5594C125.335 97.6202 125.772 97.6749 126.234 97.7235C126.696 97.76 127.128 97.7782 127.529 97.7782C128.38 97.7782 129.006 97.5958 129.407 97.2311C129.821 96.8664 130.027 96.3193 130.027 95.5899C130.027 95.0671 129.924 94.6538 129.717 94.3498C129.511 94.0459 129.225 93.821 128.86 93.6751C128.508 93.5292 128.113 93.4502 127.675 93.4381H125.231V92.0886H127.657C127.961 92.0886 128.271 92.0096 128.587 91.8515C128.915 91.6813 129.188 91.4443 129.407 91.1403C129.638 90.8242 129.754 90.4474 129.754 90.0097C129.754 89.3532 129.571 88.8852 129.207 88.6055C128.842 88.3138 128.234 88.1679 127.383 88.1679C126.994 88.1679 126.587 88.1922 126.161 88.2408C125.748 88.2773 125.353 88.3259 124.976 88.3867C124.611 88.4353 124.307 88.4901 124.064 88.5508L123.937 87.2743C124.192 87.2014 124.508 87.1284 124.885 87.0555C125.274 86.9704 125.687 86.9035 126.125 86.8549C126.575 86.7941 127.018 86.7637 127.456 86.7637C128.429 86.7637 129.201 86.8792 129.772 87.1102C130.343 87.329 130.757 87.6694 131.012 88.1314C131.267 88.5934 131.395 89.1891 131.395 89.9185C131.395 90.3683 131.322 90.7574 131.176 91.0856C131.042 91.4017 130.872 91.6692 130.666 91.888C130.471 92.0947 130.277 92.2588 130.082 92.3804C129.9 92.5019 129.754 92.5931 129.644 92.6539C130.058 92.7998 130.416 92.9761 130.72 93.1828C131.024 93.3894 131.261 93.6751 131.431 94.0398C131.602 94.4046 131.687 94.903 131.687 95.5352C131.687 96.3619 131.547 97.0488 131.267 97.5958C130.988 98.1308 130.55 98.5319 129.954 98.7994C129.371 99.0547 128.617 99.1824 127.693 99.1824Z" fill="#4F4B45"/>
<path d="M120.185 145V142.793H121.863V145H120.185ZM123.9 145V143.669L127.255 140.149C127.766 139.614 128.204 139.14 128.568 138.727C128.933 138.314 129.213 137.906 129.407 137.505C129.602 137.104 129.699 136.672 129.699 136.21C129.699 135.444 129.486 134.922 129.061 134.642C128.647 134.35 128.015 134.204 127.164 134.204C126.848 134.204 126.496 134.229 126.107 134.277C125.73 134.314 125.359 134.362 124.994 134.423C124.642 134.472 124.344 134.527 124.101 134.587L123.973 133.274C124.24 133.201 124.563 133.128 124.939 133.055C125.316 132.983 125.73 132.922 126.18 132.873C126.629 132.812 127.067 132.782 127.493 132.782C128.769 132.782 129.729 133.043 130.374 133.566C131.03 134.077 131.359 134.897 131.359 136.028C131.359 136.624 131.261 137.165 131.067 137.651C130.884 138.125 130.605 138.587 130.228 139.037C129.863 139.487 129.389 139.991 128.805 140.55L125.76 143.614H131.632V145H123.9Z" fill="#4F4B45"/>
<path d="M120.185 53V50.7935H121.863V53H120.185ZM129.116 53V50.7205H123.371V49.4805L126.69 40.9643H128.459L125.031 49.2981H129.116L129.134 45.6692H130.72V49.2981H132.179V50.7205H130.72V53H129.116Z" fill="#4F4B45"/>
<path d="M177.5 96.5C177.5 117.081 171.697 135.648 162.392 149.03C153.083 162.417 140.369 170.5 126.5 170.5C112.631 170.5 99.9174 162.417 90.6084 149.03C81.3032 135.648 75.5 117.081 75.5 96.5C75.5 75.9191 81.3032 57.3516 90.6084 43.9698C99.9174 30.5826 112.631 22.5 126.5 22.5C140.369 22.5 153.083 30.5826 162.392 43.9698C171.697 57.3516 177.5 75.9191 177.5 96.5Z" stroke="#000DFF" stroke-width="3"/>
<path d="M217.048 189.638V189.427C215.583 187.669 214.851 185.855 214.851 183.986C214.851 182.451 215.29 181.215 216.169 180.277C217.048 179.334 218.193 178.862 219.605 178.862C221.07 178.862 222.189 179.29 222.963 180.146C223.742 180.995 224.132 182.188 224.132 183.723C224.132 185.732 223.37 187.648 221.847 189.471V189.638H222.646C223.209 189.638 223.581 189.573 223.763 189.444C223.95 189.315 224.094 189.005 224.193 188.513H225.055L224.791 191H220.722V189.734C221.817 187.83 222.365 185.902 222.365 183.951C222.365 181.074 221.384 179.636 219.421 179.636C218.542 179.636 217.854 180.008 217.355 180.752C216.863 181.49 216.617 182.542 216.617 183.907C216.617 185.905 217.162 187.848 218.252 189.734V191H214.2L213.937 188.521H214.798C214.903 189.02 215.035 189.33 215.193 189.453C215.352 189.576 215.715 189.638 216.283 189.638H217.048Z" fill="#4F4B45"/>
</g>
<defs>
<filter id="filter0_d_545_3680" x="0" y="0" width="253" height="213" filterUnits="userSpaceOnUse" color-interpolation-filters="sRGB">
<feFlood flood-opacity="0" result="BackgroundImageFix"/>
<feColorMatrix in="SourceAlpha" type="matrix" values="0 0 0 0 0 0 0 0 0 0 0 0 0 0 0 0 0 0 127 0" result="hardAlpha"/>
<feOffset dy="4"/>
<feGaussianBlur stdDeviation="2"/>
<feComposite in2="hardAlpha" operator="out"/>
<feColorMatrix type="matrix" values="0 0 0 0 0 0 0 0 0 0.0509804 0 0 0 0 1 0 0 0 0.25 0"/>
<feBlend mode="normal" in2="BackgroundImageFix" result="effect1_dropShadow_545_3680"/>
<feBlend mode="normal" in="SourceGraphic" in2="effect1_dropShadow_545_3680" result="shape"/>
</filter>
</defs>
</svg>
