<svg width="253" height="213" viewBox="0 0 253 213" fill="none" xmlns="http://www.w3.org/2000/svg">
<g filter="url(#filter0_d_545_3690)">
<rect x="5.5" y="1.5" width="242" height="202" rx="10.5" stroke="#000DFF" stroke-width="3" shape-rendering="crispEdges"/>
<path d="M33.1853 53V50.7935H34.863V53H33.1853ZM41.2402 53V42.7332L38.213 44.7209L37.5201 43.5173L41.3678 40.9643H42.8449V53H41.2402Z" fill="#4F4B45"/>
<path d="M30.1853 149V146.793H31.863V149H30.1853ZM38.2402 149V138.733L35.213 140.721L34.5201 139.517L38.3678 136.964H39.8449V149H38.2402ZM47.6243 149.164C47.1744 149.164 46.6942 149.134 46.1836 149.073C45.6852 149.012 45.205 148.945 44.743 148.872C44.281 148.787 43.8981 148.708 43.5941 148.635L43.7582 147.359C44.0622 147.407 44.4269 147.468 44.8524 147.541C45.2901 147.602 45.7338 147.657 46.1836 147.705C46.6456 147.742 47.0711 147.76 47.4601 147.76C48.2625 147.76 48.8947 147.535 49.3567 147.085C49.8186 146.635 50.0496 145.979 50.0496 145.116C50.0496 144.532 49.9463 144.076 49.7396 143.748C49.5451 143.408 49.2655 143.171 48.9008 143.037C48.5482 142.891 48.1288 142.818 47.6425 142.818C47.2899 142.818 46.9313 142.855 46.5666 142.927C46.214 143 45.8918 143.092 45.6001 143.201C45.3083 143.298 45.0651 143.402 44.8706 143.511L43.7947 143.31L44.123 136.964H51.2167V138.405H45.4177L45.1077 142.089C45.3144 141.991 45.5636 141.894 45.8554 141.797C46.1593 141.687 46.4815 141.596 46.8219 141.523C47.1623 141.438 47.5027 141.396 47.8431 141.396C48.6333 141.396 49.3141 141.517 49.8855 141.76C50.4569 141.991 50.9006 142.368 51.2167 142.891C51.5328 143.414 51.6909 144.107 51.6909 144.97C51.6909 145.906 51.5267 146.684 51.1985 147.304C50.8824 147.924 50.4204 148.392 49.8126 148.708C49.2047 149.012 48.4753 149.164 47.6243 149.164Z" fill="#4F4B45"/>
<path d="M212.185 53V50.7935H213.863V53H212.185ZM219.693 53.1824C219.243 53.1824 218.769 53.152 218.271 53.0912C217.772 53.0426 217.304 52.9818 216.867 52.9088C216.429 52.8359 216.064 52.7629 215.772 52.69L215.9 51.3952C216.18 51.4439 216.52 51.4986 216.921 51.5594C217.335 51.6202 217.772 51.6749 218.234 51.7235C218.696 51.76 219.128 51.7782 219.529 51.7782C220.38 51.7782 221.006 51.5958 221.407 51.2311C221.821 50.8664 222.027 50.3193 222.027 49.5899C222.027 49.0671 221.924 48.6538 221.717 48.3498C221.511 48.0459 221.225 47.821 220.86 47.6751C220.508 47.5292 220.113 47.4502 219.675 47.4381H217.231V46.0886H219.657C219.961 46.0886 220.271 46.0096 220.587 45.8515C220.915 45.6813 221.188 45.4443 221.407 45.1403C221.638 44.8242 221.754 44.4474 221.754 44.0097C221.754 43.3532 221.571 42.8852 221.207 42.6055C220.842 42.3138 220.234 42.1679 219.383 42.1679C218.994 42.1679 218.587 42.1922 218.161 42.2408C217.748 42.2773 217.353 42.3259 216.976 42.3867C216.611 42.4353 216.307 42.4901 216.064 42.5508L215.937 41.2743C216.192 41.2014 216.508 41.1284 216.885 41.0555C217.274 40.9704 217.687 40.9035 218.125 40.8549C218.575 40.7941 219.018 40.7637 219.456 40.7637C220.429 40.7637 221.201 40.8792 221.772 41.1102C222.343 41.329 222.757 41.6694 223.012 42.1314C223.267 42.5934 223.395 43.1891 223.395 43.9185C223.395 44.3683 223.322 44.7574 223.176 45.0856C223.042 45.4017 222.872 45.6692 222.666 45.888C222.471 46.0947 222.277 46.2588 222.082 46.3804C221.9 46.5019 221.754 46.5931 221.644 46.6539C222.058 46.7998 222.416 46.9761 222.72 47.1828C223.024 47.3894 223.261 47.6751 223.431 48.0398C223.602 48.4046 223.687 48.903 223.687 49.5352C223.687 50.3619 223.547 51.0488 223.267 51.5958C222.988 52.1308 222.55 52.5319 221.954 52.7994C221.371 53.0547 220.617 53.1824 219.693 53.1824Z" fill="#4F4B45"/>
<path d="M216.185 149V146.793H217.863V149H216.185ZM219.845 149V146.793H221.523V149H219.845ZM223.505 149V146.793H225.183V149H223.505Z" fill="#4F4B45"/>
<path d="M122.401 193L125.793 180.417H129.13L132.522 193H130.917L130.042 189.9H124.863L123.988 193H122.401ZM125.173 188.514H129.732L127.908 181.767H126.997L125.173 188.514Z" fill="#4F4B45"/>
<path d="M120.185 99V96.7935H121.863V99H120.185ZM127.693 99.1824C127.243 99.1824 126.769 99.152 126.271 99.0912C125.772 99.0426 125.304 98.9818 124.867 98.9088C124.429 98.8359 124.064 98.7629 123.772 98.69L123.9 97.3952C124.18 97.4439 124.52 97.4986 124.921 97.5594C125.335 97.6202 125.772 97.6749 126.234 97.7235C126.696 97.76 127.128 97.7782 127.529 97.7782C128.38 97.7782 129.006 97.5958 129.407 97.2311C129.821 96.8664 130.027 96.3193 130.027 95.5899C130.027 95.0671 129.924 94.6538 129.717 94.3498C129.511 94.0459 129.225 93.821 128.86 93.6751C128.508 93.5292 128.113 93.4502 127.675 93.4381H125.231V92.0886H127.657C127.961 92.0886 128.271 92.0096 128.587 91.8515C128.915 91.6813 129.188 91.4443 129.407 91.1403C129.638 90.8242 129.754 90.4474 129.754 90.0097C129.754 89.3532 129.571 88.8852 129.207 88.6055C128.842 88.3138 128.234 88.1679 127.383 88.1679C126.994 88.1679 126.587 88.1922 126.161 88.2408C125.748 88.2773 125.353 88.3259 124.976 88.3867C124.611 88.4353 124.307 88.4901 124.064 88.5508L123.937 87.2743C124.192 87.2014 124.508 87.1284 124.885 87.0555C125.274 86.9704 125.687 86.9035 126.125 86.8549C126.575 86.7941 127.018 86.7637 127.456 86.7637C128.429 86.7637 129.201 86.8792 129.772 87.1102C130.343 87.329 130.757 87.6694 131.012 88.1314C131.267 88.5934 131.395 89.1891 131.395 89.9185C131.395 90.3683 131.322 90.7574 131.176 91.0856C131.042 91.4017 130.872 91.6692 130.666 91.888C130.471 92.0947 130.277 92.2588 130.082 92.3804C129.9 92.5019 129.754 92.5931 129.644 92.6539C130.058 92.7998 130.416 92.9761 130.72 93.1828C131.024 93.3894 131.261 93.6751 131.431 94.0398C131.602 94.4046 131.687 94.903 131.687 95.5352C131.687 96.3619 131.547 97.0488 131.267 97.5958C130.988 98.1308 130.55 98.5319 129.954 98.7994C129.371 99.0547 128.617 99.1824 127.693 99.1824Z" fill="#4F4B45"/>
<path d="M120.185 145V142.793H121.863V145H120.185ZM123.9 145V143.669L127.255 140.149C127.766 139.614 128.204 139.14 128.568 138.727C128.933 138.314 129.213 137.906 129.407 137.505C129.602 137.104 129.699 136.672 129.699 136.21C129.699 135.444 129.486 134.922 129.061 134.642C128.647 134.35 128.015 134.204 127.164 134.204C126.848 134.204 126.496 134.229 126.107 134.277C125.73 134.314 125.359 134.362 124.994 134.423C124.642 134.472 124.344 134.527 124.101 134.587L123.973 133.274C124.24 133.201 124.563 133.128 124.939 133.055C125.316 132.983 125.73 132.922 126.18 132.873C126.629 132.812 127.067 132.782 127.493 132.782C128.769 132.782 129.729 133.043 130.374 133.566C131.03 134.077 131.359 134.897 131.359 136.028C131.359 136.624 131.261 137.165 131.067 137.651C130.884 138.125 130.605 138.587 130.228 139.037C129.863 139.487 129.389 139.991 128.805 140.55L125.76 143.614H131.632V145H123.9Z" fill="#4F4B45"/>
<path d="M120.185 53V50.7935H121.863V53H120.185ZM129.116 53V50.7205H123.371V49.4805L126.69 40.9643H128.459L125.031 49.2981H129.116L129.134 45.6692H130.72V49.2981H132.179V50.7205H130.72V53H129.116Z" fill="#4F4B45"/>
<path d="M177.5 96.5C177.5 117.081 171.697 135.648 162.392 149.03C153.083 162.417 140.369 170.5 126.5 170.5C112.631 170.5 99.9174 162.417 90.6084 149.03C81.3032 135.648 75.5 117.081 75.5 96.5C75.5 75.9191 81.3032 57.3516 90.6084 43.9698C99.9174 30.5826 112.631 22.5 126.5 22.5C140.369 22.5 153.083 30.5826 162.392 43.9698C171.697 57.3516 177.5 75.9191 177.5 96.5Z" stroke="#000DFF" stroke-width="3"/>
<path d="M217.048 189.638V189.427C215.583 187.669 214.851 185.855 214.851 183.986C214.851 182.451 215.29 181.215 216.169 180.277C217.048 179.334 218.193 178.862 219.605 178.862C221.07 178.862 222.189 179.29 222.963 180.146C223.742 180.995 224.132 182.188 224.132 183.723C224.132 185.732 223.37 187.648 221.847 189.471V189.638H222.646C223.209 189.638 223.581 189.573 223.763 189.444C223.95 189.315 224.094 189.005 224.193 188.513H225.055L224.791 191H220.722V189.734C221.817 187.83 222.365 185.902 222.365 183.951C222.365 181.074 221.384 179.636 219.421 179.636C218.542 179.636 217.854 180.008 217.355 180.752C216.863 181.49 216.617 182.542 216.617 183.907C216.617 185.905 217.162 187.848 218.252 189.734V191H214.2L213.937 188.521H214.798C214.903 189.02 215.035 189.33 215.193 189.453C215.352 189.576 215.715 189.638 216.283 189.638H217.048Z" fill="#4F4B45"/>
</g>
<defs>
<filter id="filter0_d_545_3690" x="0" y="0" width="253" height="213" filterUnits="userSpaceOnUse" color-interpolation-filters="sRGB">
<feFlood flood-opacity="0" result="BackgroundImageFix"/>
<feColorMatrix in="SourceAlpha" type="matrix" values="0 0 0 0 0 0 0 0 0 0 0 0 0 0 0 0 0 0 127 0" result="hardAlpha"/>
<feOffset dy="4"/>
<feGaussianBlur stdDeviation="2"/>
<feComposite in2="hardAlpha" operator="out"/>
<feColorMatrix type="matrix" values="0 0 0 0 0 0 0 0 0 0.0509804 0 0 0 0 1 0 0 0 0.25 0"/>
<feBlend mode="normal" in2="BackgroundImageFix" result="effect1_dropShadow_545_3690"/>
<feBlend mode="normal" in="SourceGraphic" in2="effect1_dropShadow_545_3690" result="shape"/>
</filter>
</defs>
</svg>
