<svg width="565" height="389" viewBox="0 0 565 389" fill="none" xmlns="http://www.w3.org/2000/svg">
<path d="M501.63 276.142H297.427C295.672 276.139 293.99 275.518 292.748 274.415C291.507 273.312 290.809 271.817 290.806 270.258V5.8843C290.812 4.32623 291.512 2.83365 292.752 1.73286C293.993 0.632079 295.674 0.012655 297.427 0.0100098H501.63C503.383 0.012655 505.064 0.632079 506.305 1.73286C507.546 2.83365 508.246 4.32623 508.252 5.8843V270.258C508.249 271.817 507.55 273.312 506.309 274.415C505.068 275.518 503.385 276.139 501.63 276.142ZM297.427 0.261048C296.592 0.255754 295.764 0.39722 294.99 0.67732C294.217 0.95742 293.513 1.37063 292.92 1.89319C292.326 2.41576 291.855 3.03737 291.533 3.7223C291.211 4.40723 291.044 5.14198 291.043 5.8843V270.258C291.043 271.752 291.711 273.184 292.9 274.241C294.089 275.297 295.701 275.891 297.382 275.891H501.63C503.311 275.891 504.923 275.297 506.112 274.241C507.301 273.184 507.969 271.752 507.969 270.258V5.8843C507.969 4.39026 507.301 2.95741 506.112 1.90096C504.923 0.844514 503.311 0.251004 501.63 0.251004L297.427 0.261048Z" fill="#E0E0E0"/>
<path d="M266.104 276.142H61.8562C60.1009 276.139 58.4183 275.518 57.1772 274.415C55.936 273.312 55.2374 271.817 55.2344 270.258V5.88433C55.2374 4.32453 55.936 2.82937 57.1772 1.72642C58.4183 0.623464 60.1009 0.002655 61.8562 0H266.104C267.859 0.002655 269.542 0.623464 270.783 1.72642C272.024 2.82937 272.722 4.32453 272.725 5.88433V270.258C272.722 271.817 272.024 273.312 270.783 274.415C269.542 275.518 267.859 276.139 266.104 276.142ZM61.8562 0.261082C60.1768 0.261079 58.5661 0.853208 57.3776 1.90748C56.1891 2.96176 55.5199 4.39203 55.5169 5.88433V270.258C55.5169 271.752 56.1848 273.184 57.3736 274.241C58.5625 275.297 60.1749 275.891 61.8562 275.891H266.104C267.785 275.891 269.397 275.297 270.586 274.241C271.775 273.184 272.443 271.752 272.443 270.258V5.88433C272.443 4.39029 271.775 2.95744 270.586 1.901C269.397 0.844548 267.785 0.251038 266.104 0.251038L61.8562 0.261082Z" fill="#E0E0E0"/>
<path d="M565 337.466H0V337.717H565V337.466Z" fill="#E0E0E0"/>
<path d="M250.499 197.939V26.9314L171.918 26.9314V197.939H250.499Z" fill="#E0E0E0"/>
<path d="M246.182 30.7571H176.224V194.092H246.182V30.7571Z" fill="#F0F0F0"/>
<path d="M246.182 30.7571V39.0614L176.224 101.218V84.5897L236.814 30.7571H246.182Z" fill="#FAFAFA"/>
<path d="M246.182 81.999V106.34L176.224 168.497V144.166L246.182 81.999Z" fill="#FAFAFA"/>
<path d="M215.005 26.9214H209.796V197.929H215.005V26.9214Z" fill="#E0E0E0"/>
<path d="M386.901 197.929V26.9214L308.321 26.9214V197.929H386.901Z" fill="#E0E0E0"/>
<path d="M382.596 30.7571H312.637V194.092H382.596V30.7571Z" fill="#F0F0F0"/>
<path d="M382.596 30.7571V39.0614L312.637 101.218V84.5897L373.228 30.7571H382.596Z" fill="#FAFAFA"/>
<path d="M382.596 81.999V106.34L312.637 168.497V144.166L382.596 81.999Z" fill="#FAFAFA"/>
<path d="M351.408 26.9214H346.198V197.929H351.408V26.9214Z" fill="#E0E0E0"/>
<path d="M114.323 66.234C127.097 66.234 137.454 57.0312 137.454 45.679C137.454 34.3268 127.097 25.124 114.323 25.124C101.548 25.124 91.1914 34.3268 91.1914 45.679C91.1914 57.0312 101.548 66.234 114.323 66.234Z" fill="#E0E0E0"/>
<path d="M135.089 49.9587C137.749 39.7699 130.61 29.5943 119.144 27.2307C107.678 24.8672 96.2275 31.2109 93.5678 41.3997C90.9081 51.5885 98.0468 61.7641 109.513 64.1277C120.978 66.4912 132.429 60.1475 135.089 49.9587Z" fill="#FAFAFA"/>
<path d="M114.39 28.4578H113.587V32.4041H114.39V28.4578Z" fill="#E0E0E0"/>
<path d="M114.39 58.8433H113.587V62.7896H114.39V58.8433Z" fill="#E0E0E0"/>
<path d="M99.1011 45.2671H94.6602V45.98H99.1011V45.2671Z" fill="#E0E0E0"/>
<path d="M133.295 45.2671H128.854V45.98H133.295V45.2671Z" fill="#E0E0E0"/>
<path d="M127.361 33.2432L124.221 36.0337L124.788 36.5378L127.928 33.7474L127.361 33.2432Z" fill="#E0E0E0"/>
<path d="M103.189 54.7071L100.05 57.4985L100.618 58.0025L103.757 55.2111L103.189 54.7071Z" fill="#E0E0E0"/>
<path d="M100.606 33.2367L100.039 33.741L103.179 36.5309L103.747 36.0267L100.606 33.2367Z" fill="#E0E0E0"/>
<path d="M124.78 54.7369L124.212 55.241L127.352 58.0319L127.919 57.5279L124.78 54.7369Z" fill="#E0E0E0"/>
<path d="M113.827 45.1552L113.579 45.7158L121.117 48.3534L121.366 47.7928L113.827 45.1552Z" fill="#E0E0E0"/>
<path d="M114.322 45.9299H101.892V45.3174H113.644V36.752H114.322V45.9299Z" fill="#E0E0E0"/>
<path d="M404.788 50.0972L404.11 49.1433L443.649 27.0017L482.227 49.6353L481.527 50.5792L443.638 28.3473L404.788 50.0972Z" fill="#E6E6E6"/>
<path d="M483.075 49.1934H403.433V93.4564H483.075V49.1934Z" fill="#E0E0E0"/>
<path d="M480.86 91.5085V51.1616L405.636 51.1616V91.5085H480.86Z" fill="white"/>
<path d="M416.326 63.8037H411.524V68.0714H416.326V63.8037Z" fill="#F5F5F5"/>
<path d="M423.739 63.8037H418.936V68.0714H423.739V63.8037Z" fill="#F5F5F5"/>
<path d="M431.14 63.8037H426.338V68.0714H431.14V63.8037Z" fill="#F5F5F5"/>
<path d="M438.553 63.8037H433.75V68.0714H438.553V63.8037Z" fill="#F5F5F5"/>
<path d="M445.966 63.8037H441.164V68.0714H445.966V63.8037Z" fill="#F5F5F5"/>
<path d="M453.379 63.8037H448.576V68.0714H453.379V63.8037Z" fill="#F5F5F5"/>
<path d="M460.78 63.8037H455.978V68.0714H460.78V63.8037Z" fill="#F5F5F5"/>
<path d="M468.193 63.8037H463.391V68.0714H468.193V63.8037Z" fill="#F5F5F5"/>
<path d="M475.605 63.8037H470.803V68.0714H475.605V63.8037Z" fill="#F5F5F5"/>
<path d="M416.326 69.6882H411.524V73.9559H416.326V69.6882Z" fill="#F5F5F5"/>
<path d="M423.739 69.6882H418.936V73.9559H423.739V69.6882Z" fill="#F5F5F5"/>
<path d="M431.14 69.6882H426.338V73.9559H431.14V69.6882Z" fill="#F5F5F5"/>
<path d="M438.553 69.6882H433.75V73.9559H438.553V69.6882Z" fill="#F5F5F5"/>
<path d="M445.966 69.6882H441.164V73.9559H445.966V69.6882Z" fill="#F5F5F5"/>
<path d="M453.379 69.6882H448.576V73.9559H453.379V69.6882Z" fill="#F5F5F5"/>
<path d="M460.78 69.6882H455.978V73.9559H460.78V69.6882Z" fill="#F5F5F5"/>
<path d="M468.193 69.6882H463.391V73.9559H468.193V69.6882Z" fill="#F5F5F5"/>
<path d="M475.605 69.6882H470.803V73.9559H475.605V69.6882Z" fill="#F5F5F5"/>
<path d="M416.326 75.5625H411.524V79.8301H416.326V75.5625Z" fill="#F5F5F5"/>
<path d="M423.739 75.5625H418.936V79.8301H423.739V75.5625Z" fill="#F5F5F5"/>
<path d="M431.14 75.5625H426.338V79.8301H431.14V75.5625Z" fill="#F5F5F5"/>
<path d="M438.553 75.5625H433.75V79.8301H438.553V75.5625Z" fill="#F5F5F5"/>
<path d="M445.966 75.5625H441.164V79.8301H445.966V75.5625Z" fill="#F5F5F5"/>
<path d="M453.379 75.5625H448.576V79.8301H453.379V75.5625Z" fill="#F5F5F5"/>
<path d="M460.78 75.5625H455.978V79.8301H460.78V75.5625Z" fill="#F5F5F5"/>
<path d="M468.193 75.5625H463.391V79.8301H468.193V75.5625Z" fill="#F5F5F5"/>
<path d="M475.605 75.5625H470.803V79.8301H475.605V75.5625Z" fill="#F5F5F5"/>
<path d="M416.326 81.8887H411.524V86.1563H416.326V81.8887Z" fill="#F5F5F5"/>
<path d="M423.739 81.8887H418.936V86.1563H423.739V81.8887Z" fill="#F5F5F5"/>
<path d="M431.14 81.8887H426.338V86.1563H431.14V81.8887Z" fill="#F5F5F5"/>
<path d="M438.553 81.8887H433.75V86.1563H438.553V81.8887Z" fill="#F5F5F5"/>
<path d="M464.95 55.1079H422.19V58.8032H464.95V55.1079Z" fill="#E0E0E0"/>
<path d="M446.192 27.4033C446.192 27.8283 446.05 28.2438 445.784 28.5971C445.519 28.9505 445.141 29.2259 444.699 29.3886C444.257 29.5512 443.771 29.5938 443.302 29.5109C442.833 29.428 442.402 29.2233 442.064 28.9228C441.726 28.6222 441.495 28.2394 441.402 27.8225C441.309 27.4057 441.357 26.9736 441.54 26.5809C441.723 26.1883 442.033 25.8527 442.43 25.6165C442.828 25.3804 443.295 25.2544 443.774 25.2544C444.415 25.2544 445.03 25.4808 445.484 25.8838C445.937 26.2868 446.192 26.8334 446.192 27.4033Z" fill="#E0E0E0"/>
<path d="M523.71 381.879C523.71 385.273 418.032 388.035 287.687 388.035C157.341 388.035 51.6523 385.273 51.6523 381.879C51.6523 378.485 157.307 375.714 287.687 375.714C418.066 375.714 523.71 378.475 523.71 381.879Z" fill="#F5F5F5"/>
<path d="M82.4674 162.532L85.7557 161.689L83.6652 155.202L79.8571 156.206C78.7726 155.109 77.4089 154.259 75.8795 153.726V150.312H68.2859V153.726C67.0938 154.135 65.9979 154.737 65.0541 155.503L61.6641 154.057L58.3306 160.082L61.6641 161.528C61.6641 161.779 61.6641 162.02 61.6641 162.271C61.666 163.846 62.1211 165.395 62.9862 166.77L60.5002 169.561L66.4327 173.779L68.8622 171.067C69.9026 171.366 70.9892 171.519 72.0827 171.519C72.8815 171.521 73.6779 171.44 74.4557 171.278L76.6479 174.02L82.8403 170.113L80.7046 167.432C81.814 165.985 82.4264 164.283 82.4674 162.532ZM65.2462 162.291C65.2462 161.099 65.6438 159.935 66.3888 158.944C67.1338 157.953 68.1927 157.181 69.4316 156.725C70.6705 156.269 72.0337 156.149 73.3489 156.382C74.6641 156.614 75.8722 157.188 76.8204 158.031C77.7686 158.873 78.4143 159.947 78.6759 161.116C78.9375 162.284 78.8032 163.496 78.2901 164.597C77.7769 165.698 76.9079 166.639 75.7929 167.301C74.678 167.963 73.3671 168.316 72.0262 168.316C70.2393 168.3 68.53 167.665 67.2632 166.545C65.9965 165.425 65.2726 163.909 65.2462 162.321V162.291Z" fill="#407BFF"/>
<path opacity="0.6" d="M82.4674 162.532L85.7557 161.689L83.6652 155.202L79.8571 156.206C78.7726 155.109 77.4089 154.259 75.8795 153.726V150.312H68.2859V153.726C67.0938 154.135 65.9979 154.737 65.0541 155.503L61.6641 154.057L58.3306 160.082L61.6641 161.528C61.6641 161.779 61.6641 162.02 61.6641 162.271C61.666 163.846 62.1211 165.395 62.9862 166.77L60.5002 169.561L66.4327 173.779L68.8622 171.067C69.9026 171.366 70.9892 171.519 72.0827 171.519C72.8815 171.521 73.6779 171.44 74.4557 171.278L76.6479 174.02L82.8403 170.113L80.7046 167.432C81.814 165.985 82.4264 164.283 82.4674 162.532ZM65.2462 162.291C65.2462 161.099 65.6438 159.935 66.3888 158.944C67.1338 157.953 68.1927 157.181 69.4316 156.725C70.6705 156.269 72.0337 156.149 73.3489 156.382C74.6641 156.614 75.8722 157.188 76.8204 158.031C77.7686 158.873 78.4143 159.947 78.6759 161.116C78.9375 162.284 78.8032 163.496 78.2901 164.597C77.7769 165.698 76.9079 166.639 75.7929 167.301C74.678 167.963 73.3671 168.316 72.0262 168.316C70.2393 168.3 68.53 167.665 67.2632 166.545C65.9965 165.425 65.2726 163.909 65.2462 162.321V162.291Z" fill="white"/>
<path d="M518.365 56.5437L521.653 55.7003L519.563 49.2134L515.766 50.2176C514.673 49.1267 513.307 48.2804 511.777 47.7474V44.3333H504.217V47.7474C503.024 48.1595 501.928 48.7656 500.985 49.5348L497.618 48.0587L494.228 54.0836L497.618 55.5296C497.618 55.7806 497.618 56.0216 497.618 56.2726C497.62 57.8478 498.075 59.3964 498.94 60.7712L496.443 63.5527L502.375 67.7702L504.805 65.0589C505.845 65.3577 506.932 65.5102 508.025 65.5108C508.828 65.5129 509.628 65.432 510.41 65.2698L512.591 68.0112L518.783 64.095L516.647 61.444C517.741 59.9924 518.337 58.2903 518.365 56.5437ZM501.155 56.3028C501.155 55.1111 501.553 53.9463 502.298 52.9555C503.043 51.9647 504.101 51.1925 505.34 50.7365C506.579 50.2804 507.942 50.1611 509.258 50.3936C510.573 50.6261 511.781 51.1999 512.729 52.0425C513.677 52.8851 514.323 53.9586 514.585 55.1273C514.846 56.2961 514.712 57.5075 514.199 58.6084C513.686 59.7093 512.817 60.6503 511.702 61.3123C510.587 61.9743 509.276 62.3277 507.935 62.3277C506.137 62.3277 504.412 61.6929 503.141 60.563C501.869 59.4331 501.155 57.9007 501.155 56.3028Z" fill="#407BFF"/>
<path opacity="0.6" d="M518.365 56.5437L521.653 55.7003L519.563 49.2134L515.766 50.2176C514.673 49.1267 513.307 48.2804 511.777 47.7474V44.3333H504.217V47.7474C503.024 48.1595 501.928 48.7656 500.985 49.5348L497.618 48.0587L494.228 54.0836L497.618 55.5296C497.618 55.7806 497.618 56.0216 497.618 56.2726C497.62 57.8478 498.075 59.3964 498.94 60.7712L496.443 63.5527L502.375 67.7702L504.805 65.0589C505.845 65.3577 506.932 65.5102 508.025 65.5108C508.828 65.5129 509.628 65.432 510.41 65.2698L512.591 68.0112L518.783 64.095L516.647 61.444C517.741 59.9924 518.337 58.2903 518.365 56.5437ZM501.155 56.3028C501.155 55.1111 501.553 53.9463 502.298 52.9555C503.043 51.9647 504.101 51.1925 505.34 50.7365C506.579 50.2804 507.942 50.1611 509.258 50.3936C510.573 50.6261 511.781 51.1999 512.729 52.0425C513.677 52.8851 514.323 53.9586 514.585 55.1273C514.846 56.2961 514.712 57.5075 514.199 58.6084C513.686 59.7093 512.817 60.6503 511.702 61.3123C510.587 61.9743 509.276 62.3277 507.935 62.3277C506.137 62.3277 504.412 61.6929 503.141 60.563C501.869 59.4331 501.155 57.9007 501.155 56.3028Z" fill="white"/>
<path d="M109.474 127.447C107.501 127.448 105.537 127.198 103.644 126.704C103.59 126.692 103.54 126.669 103.496 126.639C103.453 126.609 103.417 126.571 103.39 126.527C103.364 126.484 103.348 126.436 103.343 126.387C103.338 126.338 103.344 126.289 103.361 126.242C103.375 126.194 103.4 126.15 103.434 126.111C103.468 126.072 103.511 126.039 103.559 126.015C103.608 125.99 103.661 125.975 103.716 125.969C103.772 125.963 103.827 125.967 103.881 125.981C105.694 126.454 107.574 126.694 109.463 126.694C109.58 126.694 109.693 126.733 109.779 126.804C109.865 126.875 109.918 126.972 109.926 127.076C109.931 127.122 109.925 127.169 109.908 127.213C109.892 127.258 109.865 127.298 109.83 127.333C109.795 127.368 109.753 127.396 109.705 127.416C109.658 127.435 109.606 127.446 109.553 127.447V127.076L109.474 127.447ZM115.249 126.704C115.157 126.703 115.068 126.677 114.995 126.628C114.922 126.579 114.868 126.511 114.842 126.433C114.825 126.386 114.818 126.337 114.823 126.288C114.828 126.239 114.845 126.191 114.871 126.148C114.898 126.105 114.934 126.067 114.977 126.036C115.021 126.006 115.071 125.984 115.124 125.971C116.935 125.488 118.658 124.778 120.243 123.862C120.338 123.809 120.453 123.79 120.562 123.811C120.672 123.832 120.769 123.89 120.831 123.973C120.891 124.057 120.912 124.159 120.889 124.256C120.865 124.354 120.8 124.44 120.707 124.495C119.056 125.448 117.26 126.185 115.373 126.684L115.249 126.704ZM98.5473 124.595C98.4669 124.596 98.3883 124.575 98.3213 124.535C96.6637 123.585 95.1649 122.432 93.8691 121.111C93.7911 121.04 93.7474 120.944 93.7474 120.845C93.7474 120.745 93.7911 120.65 93.8691 120.579C93.908 120.543 93.9546 120.515 94.006 120.496C94.0575 120.476 94.1127 120.467 94.1685 120.467C94.2244 120.467 94.2796 120.476 94.331 120.496C94.3825 120.515 94.429 120.543 94.468 120.579C95.7106 121.843 97.1442 122.948 98.7281 123.862C98.7761 123.887 98.8179 123.92 98.8509 123.96C98.884 123.999 98.9076 124.044 98.9203 124.092C98.933 124.14 98.9345 124.19 98.9248 124.239C98.915 124.287 98.8942 124.333 98.8637 124.374C98.8353 124.431 98.7916 124.481 98.7364 124.52C98.6813 124.558 98.6163 124.584 98.5473 124.595ZM124.842 121.181C124.739 121.182 124.639 121.15 124.56 121.091C124.482 121.02 124.438 120.924 124.438 120.825C124.438 120.725 124.482 120.63 124.56 120.559C125.796 119.29 126.82 117.87 127.6 116.341C127.653 116.259 127.738 116.197 127.839 116.168C127.941 116.138 128.051 116.144 128.148 116.182C128.246 116.221 128.323 116.291 128.366 116.378C128.409 116.465 128.413 116.563 128.379 116.653C127.561 118.245 126.492 119.726 125.204 121.051C125.16 121.102 125.1 121.141 125.032 121.164C124.965 121.187 124.891 121.193 124.82 121.181H124.842ZM91.0667 116.934C90.9854 116.934 90.9058 116.913 90.8376 116.874C90.7693 116.835 90.7154 116.779 90.6825 116.713C89.8576 115.12 89.2981 113.428 89.0214 111.692C89.0134 111.643 89.0165 111.593 89.0305 111.546C89.0444 111.498 89.069 111.453 89.1026 111.414C89.1363 111.374 89.1784 111.342 89.2266 111.317C89.2747 111.292 89.3279 111.276 89.383 111.27C89.4373 111.262 89.493 111.263 89.5468 111.274C89.6005 111.285 89.6511 111.306 89.6955 111.335C89.7399 111.365 89.7771 111.401 89.805 111.444C89.8329 111.486 89.8508 111.533 89.8576 111.582C90.1252 113.245 90.6619 114.865 91.4509 116.391C91.4755 116.436 91.4898 116.485 91.4929 116.534C91.496 116.584 91.4878 116.634 91.4688 116.681C91.4498 116.728 91.4205 116.771 91.3824 116.807C91.3444 116.844 91.2985 116.873 91.2475 116.894C91.1835 116.919 91.1143 116.933 91.0441 116.934H91.0667ZM129.554 111.913C129.442 111.898 129.341 111.844 129.273 111.763C129.206 111.682 129.177 111.581 129.193 111.481C129.465 109.816 129.465 108.125 129.193 106.46C129.185 106.412 129.188 106.362 129.202 106.314C129.216 106.266 129.24 106.221 129.274 106.182C129.308 106.143 129.35 106.11 129.398 106.085C129.446 106.061 129.499 106.045 129.554 106.039C129.664 106.024 129.775 106.049 129.864 106.107C129.953 106.166 130.012 106.253 130.029 106.35C130.315 108.085 130.315 109.847 130.029 111.582C130.028 111.636 130.014 111.69 129.988 111.74C129.961 111.789 129.923 111.833 129.876 111.868C129.829 111.904 129.774 111.929 129.714 111.944C129.655 111.959 129.593 111.962 129.532 111.953L129.554 111.913ZM89.4282 106.892C89.3182 106.877 89.2189 106.825 89.1515 106.746C89.084 106.668 89.0536 106.569 89.0666 106.47C89.3464 104.735 89.9058 103.044 90.7277 101.45C90.7498 101.405 90.7816 101.364 90.8215 101.33C90.8613 101.296 90.9083 101.269 90.9598 101.252C91.0113 101.234 91.0662 101.226 91.1214 101.227C91.1766 101.228 91.231 101.239 91.2814 101.259C91.3824 101.302 91.4609 101.379 91.5009 101.472C91.5408 101.565 91.5391 101.669 91.4961 101.761C90.7054 103.286 90.1723 104.907 89.9141 106.571C89.9074 106.623 89.8886 106.674 89.8588 106.719C89.8291 106.765 89.7891 106.804 89.7414 106.835C89.6936 106.866 89.6391 106.888 89.5813 106.9C89.5236 106.911 89.4637 106.912 89.4056 106.902L89.4282 106.892ZM127.848 101.922C127.768 101.92 127.689 101.898 127.621 101.859C127.554 101.82 127.499 101.765 127.464 101.701C126.675 100.173 125.639 98.7556 124.39 97.4933C124.312 97.4221 124.269 97.3266 124.269 97.2272C124.269 97.1278 124.312 97.0323 124.39 96.9611C124.429 96.9256 124.476 96.8974 124.527 96.8781C124.579 96.8588 124.634 96.8489 124.69 96.8489C124.746 96.8489 124.801 96.8588 124.852 96.8781C124.904 96.8974 124.95 96.9256 124.989 96.9611C126.286 98.2764 127.363 99.7509 128.187 101.339C128.234 101.43 128.239 101.533 128.201 101.627C128.163 101.721 128.085 101.798 127.984 101.841C127.969 101.873 127.95 101.903 127.927 101.932L127.848 101.922ZM94.1403 97.6841C94.0408 97.6828 93.945 97.6509 93.8691 97.5937C93.8291 97.5591 93.7973 97.5177 93.7756 97.472C93.7539 97.4263 93.7428 97.3772 93.7428 97.3276C93.7428 97.278 93.7539 97.2289 93.7756 97.1832C93.7973 97.1375 93.8291 97.0961 93.8691 97.0615C95.1579 95.7348 96.6533 94.5784 98.31 93.6273C98.4047 93.5738 98.5193 93.5554 98.6291 93.5761C98.739 93.5967 98.8353 93.6548 98.8976 93.7378C98.9284 93.7797 98.9493 93.8267 98.9592 93.8759C98.9691 93.9252 98.9676 93.9758 98.955 94.0245C98.9423 94.0733 98.9187 94.1193 98.8855 94.1597C98.8524 94.2002 98.8103 94.2343 98.762 94.2599C97.1765 95.1725 95.7458 96.2816 94.5132 97.5536C94.4683 97.6013 94.4106 97.6383 94.3455 97.6611C94.2803 97.6839 94.2098 97.6918 94.1403 97.6841ZM120.379 94.2499C120.296 94.2523 120.214 94.235 120.142 94.1997C118.555 93.2875 116.827 92.5872 115.011 92.1211C114.904 92.091 114.814 92.0247 114.762 91.9364C114.709 91.8482 114.697 91.745 114.729 91.6492C114.743 91.6016 114.768 91.5571 114.802 91.5183C114.836 91.4796 114.879 91.4476 114.928 91.4241C114.977 91.4005 115.03 91.3861 115.085 91.3817C115.14 91.3772 115.196 91.3828 115.249 91.3981C117.142 91.8847 118.946 92.6118 120.605 93.557C120.698 93.6124 120.764 93.698 120.787 93.7956C120.81 93.8932 120.789 93.995 120.729 94.0792C120.691 94.1314 120.64 94.1743 120.578 94.2041C120.517 94.234 120.449 94.2497 120.379 94.2499ZM103.723 92.1512C103.619 92.1552 103.517 92.1246 103.437 92.0652C103.357 92.0059 103.304 91.9222 103.29 91.8305C103.276 91.7387 103.301 91.6456 103.36 91.5694C103.419 91.4931 103.508 91.4392 103.61 91.4182C105.498 90.9156 107.458 90.6618 109.429 90.6651C109.53 90.6797 109.621 90.7256 109.687 90.7946C109.753 90.8636 109.789 90.9511 109.789 91.0416C109.789 91.1321 109.753 91.2197 109.687 91.2887C109.621 91.3577 109.53 91.4036 109.429 91.4182C107.539 91.4162 105.658 91.6598 103.847 92.1412L103.723 92.1512Z" fill="#407BFF"/>
<path d="M109.463 124.063C118.781 124.063 126.334 117.351 126.334 109.071C126.334 100.791 118.781 94.0791 109.463 94.0791C100.146 94.0791 92.5923 100.791 92.5923 109.071C92.5923 117.351 100.146 124.063 109.463 124.063Z" fill="#407BFF"/>
<path d="M106.537 115.578C106.385 115.574 106.235 115.542 106.097 115.485C105.96 115.428 105.836 115.347 105.734 115.247L100.649 110.226C100.469 110.026 100.381 109.773 100.404 109.518C100.427 109.263 100.558 109.025 100.772 108.853C100.986 108.681 101.265 108.588 101.553 108.593C101.841 108.598 102.116 108.701 102.322 108.88L106.627 113.118L117.509 103.799C117.614 103.705 117.739 103.631 117.877 103.58C118.014 103.529 118.162 103.502 118.311 103.502C118.46 103.502 118.608 103.529 118.746 103.58C118.883 103.631 119.008 103.705 119.114 103.799C119.324 103.988 119.442 104.242 119.442 104.507C119.442 104.773 119.324 105.027 119.114 105.215L107.316 115.337C107.1 115.502 106.821 115.588 106.537 115.578Z" fill="white"/>
<path d="M228.837 137.82C228.837 137.82 194.485 153.213 184.145 191.763C176.608 219.879 178.891 272.939 192.473 277.196C206.056 281.454 207.57 248.598 207.683 236.92C207.796 225.241 220.113 210.982 231.085 210.129C231.085 210.129 233.233 148.474 228.837 137.82Z" fill="#407BFF"/>
<path opacity="0.2" d="M233.978 145.462C225.854 148.213 219.175 153.495 213.763 159.399C208 165.897 203.259 173.063 199.672 180.697C195.693 188.853 192.792 197.392 191.027 206.142C189.378 215.361 188.573 224.683 188.62 234.018C188.439 245.435 188.123 257.324 193.14 268.089C193.332 268.52 194.135 268.33 193.931 267.898C189.592 258.519 189.332 248.277 189.411 238.285C189.502 228.856 189.66 219.387 191.163 210.039C193.852 193.43 200.666 176.63 211.751 162.954C217.503 155.865 224.882 149.328 234.216 146.164C234.713 145.994 234.498 145.291 234.001 145.462H233.978Z" fill="black"/>
<path d="M346.526 137.82C346.526 137.82 380.878 153.213 391.217 191.763C398.754 219.879 396.472 272.939 382.889 277.196C369.307 281.454 367.793 248.598 367.68 236.92C367.567 225.241 355.249 210.982 344.277 210.129C344.277 210.129 342.13 148.474 346.526 137.82Z" fill="#407BFF"/>
<path opacity="0.2" d="M341.17 146.154C349.34 148.926 356.018 154.308 361.397 160.323C367.02 166.773 371.642 173.866 375.138 181.41C379.056 189.526 381.903 198.017 383.624 206.715C385.421 215.873 385.783 225.181 385.884 234.46C386.054 245.676 386.325 257.314 381.432 267.888C381.24 268.32 382.031 268.51 382.223 268.079C386.619 258.579 386.845 248.176 386.743 238.054C386.653 228.505 386.461 218.915 384.901 209.446C383.394 200.431 380.678 191.609 376.81 183.167C373.449 175.542 369.002 168.33 363.578 161.709C357.849 154.81 350.538 148.564 341.385 145.462C340.888 145.291 340.673 145.994 341.17 146.164V146.154Z" fill="black"/>
<path d="M334.718 254.974H239.798C239.798 254.974 222.418 195.629 229.232 129.084C231.07 111.45 236.107 94.1963 244.148 77.9923C244.261 77.7413 244.385 77.4903 244.51 77.2493C246.499 73.2327 248.589 69.447 250.736 65.8421C259.168 51.6589 269.682 38.5337 282.003 26.8107C282.708 26.096 283.577 25.5233 284.552 25.1309C285.526 24.7386 286.583 24.5356 287.653 24.5356C288.723 24.5356 289.78 24.7386 290.755 25.1309C291.729 25.5233 292.598 26.096 293.303 26.8107C306.017 38.9092 316.807 52.4978 325.373 67.1977C327.52 70.8829 329.61 74.769 331.588 78.8459L331.938 79.5689C339.521 95.32 344.294 112.026 346.085 129.084C352.888 195.669 334.718 254.974 334.718 254.974Z" fill="#407BFF"/>
<g opacity="0.5">
<path d="M334.718 254.974H239.798C239.798 254.974 222.418 195.629 229.232 129.084C231.07 111.45 236.107 94.1963 244.148 77.9923C244.261 77.7413 244.385 77.4903 244.51 77.2493C246.499 73.2327 248.589 69.447 250.736 65.8421C259.168 51.6589 269.682 38.5337 282.003 26.8107C282.708 26.096 283.577 25.5233 284.552 25.1309C285.526 24.7386 286.583 24.5356 287.653 24.5356C288.723 24.5356 289.78 24.7386 290.755 25.1309C291.729 25.5233 292.598 26.096 293.303 26.8107C306.017 38.9092 316.807 52.4978 325.373 67.1977C327.52 70.8829 329.61 74.769 331.588 78.8459L331.938 79.5689C339.521 95.32 344.294 112.026 346.085 129.084C352.888 195.669 334.718 254.974 334.718 254.974Z" fill="white"/>
</g>
<path d="M324.22 246.519H253.042V247.483H324.22V246.519Z" fill="#407BFF"/>
<path d="M336.876 277.568H240.928C234.091 268.822 241.323 254.974 241.323 254.974H334.933C334.933 254.974 342.131 266.271 336.876 277.568Z" fill="#263238"/>
<path d="M312.638 285.501H264.658C261.268 281.122 264.861 274.204 264.861 274.204H311.666C311.666 274.204 315.259 279.847 312.638 285.501Z" fill="#263238"/>
<path d="M312.66 285.5H264.816C255.132 290.069 231.04 300.974 234.408 319.451H344.3C347.667 300.974 322.344 290.059 312.66 285.5Z" fill="#407BFF"/>
<path d="M347.611 315.545H230.283V323.588H347.611V315.545Z" fill="#263238"/>
<path d="M325.372 67.1978C316.717 72.7006 303.473 78.866 287.653 78.866C273.934 78.7964 260.749 74.1354 250.725 65.8121C251.629 64.2924 252.54 62.813 253.459 61.3737L253.9 60.7009C261.735 48.4547 271.164 37.0697 281.992 26.7807C282.697 26.0659 283.566 25.4933 284.54 25.1009C285.515 24.7086 286.572 24.5056 287.642 24.5056C288.711 24.5056 289.769 24.7086 290.743 25.1009C291.718 25.4933 292.586 26.0659 293.292 26.7807C304.153 37.0926 313.605 48.5086 321.451 60.7913L321.892 61.4842C323.075 63.3385 324.235 65.243 325.372 67.1978Z" fill="#407BFF"/>
<path opacity="0.2" d="M321.903 61.5142C319.125 63.286 316.18 64.8416 313.1 66.1634C302.248 70.8219 290.038 72.3794 278.149 70.6219C269.238 69.2569 260.794 66.1043 253.459 61.4037L253.9 60.731C256.879 62.6518 260.057 64.3162 263.392 65.7015C274.227 70.24 286.392 71.6448 298.173 69.7181C306.574 68.3035 314.523 65.2701 321.462 60.8314L321.903 61.5142Z" fill="black"/>
<path d="M333.147 139.708C328.797 100.666 325.395 85.0417 325 83.3246C326.638 82.5313 328.175 81.728 329.52 80.9448C330.345 80.4929 331.136 80.031 331.893 79.5691L331.543 78.8461C330.74 79.3281 329.915 79.8503 329.057 80.2921C320.017 85.3631 305.496 91.4181 288.004 91.4181C274.218 91.425 260.762 87.6673 249.459 80.6536C247.595 79.5089 245.934 78.3541 244.453 77.2495C244.329 77.4905 244.205 77.7415 244.092 77.9926C245.527 79.057 247.143 80.1615 248.928 81.2762C250.058 81.9791 251.335 82.7121 252.68 83.4351C252.194 85.604 248.838 101.359 244.566 139.668C241.176 169.591 244.273 199.364 247.414 219.076C249.279 231.173 251.852 243.175 255.121 255.035C255.143 255.113 255.194 255.181 255.266 255.231C255.338 255.28 255.426 255.306 255.516 255.306H255.618C255.721 255.28 255.81 255.22 255.864 255.137C255.919 255.055 255.936 254.957 255.912 254.864C252.65 243.028 250.085 231.049 248.228 218.976C245.086 199.314 242.047 169.611 245.38 139.758C249.516 102.665 252.793 86.7488 253.426 83.8066C263.904 89.3318 275.865 92.2455 288.049 92.2415C300.706 92.0996 313.127 89.1815 324.209 83.7464C324.774 86.2969 328.085 102.122 332.288 139.828C335.622 169.682 332.582 199.385 329.441 219.046C327.583 231.119 325.019 243.098 321.757 254.934C321.732 255.027 321.749 255.125 321.804 255.208C321.859 255.29 321.947 255.35 322.051 255.376H322.152C322.243 255.376 322.331 255.35 322.402 255.301C322.474 255.252 322.525 255.183 322.548 255.105C325.817 243.246 328.389 231.243 330.254 219.146C333.441 199.405 336.492 169.632 333.147 139.708Z" fill="#407BFF"/>
<path d="M288.049 181.149C281.828 181.151 275.746 179.513 270.573 176.443C265.399 173.374 261.367 169.009 258.985 163.902C256.604 158.796 255.98 153.176 257.193 147.754C258.406 142.332 261.401 137.352 265.8 133.443C270.199 129.534 275.804 126.872 281.905 125.794C288.006 124.716 294.33 125.271 300.077 127.387C305.824 129.503 310.735 133.087 314.19 137.684C317.645 142.281 319.487 147.685 319.485 153.213C319.476 160.62 316.161 167.721 310.268 172.958C304.374 178.195 296.383 181.141 288.049 181.149ZM288.049 126.001C281.992 126.001 276.071 127.597 271.035 130.587C265.999 133.577 262.074 137.827 259.757 142.8C257.439 147.772 256.832 153.244 258.014 158.522C259.196 163.801 262.112 168.65 266.395 172.456C270.678 176.261 276.134 178.853 282.074 179.903C288.015 180.953 294.172 180.414 299.767 178.355C305.363 176.295 310.146 172.807 313.511 168.332C316.876 163.857 318.672 158.596 318.672 153.213C318.663 145.999 315.433 139.082 309.692 133.98C303.951 128.878 296.168 126.009 288.049 126.001Z" fill="#407BFF"/>
<path d="M311.858 153.203C311.858 158.815 309.349 164.196 304.884 168.164C300.419 172.132 294.363 174.361 288.048 174.361H287.495C283.466 174.289 279.524 173.3 276.048 171.489C273.36 170.092 271.003 168.243 269.11 166.046C265.938 162.363 264.226 157.851 264.239 153.213C264.241 152.391 264.294 151.57 264.398 150.753C265.028 146.028 267.429 141.629 271.215 138.265C275.001 134.901 279.952 132.766 285.269 132.206C286.192 132.114 287.12 132.067 288.048 132.066C294.263 132.072 300.228 134.235 304.674 138.093C309.119 141.952 311.693 147.201 311.846 152.721C311.858 152.882 311.858 153.043 311.858 153.203Z" fill="#407BFF"/>
<path opacity="0.1" d="M302.479 136.424L269.11 166.077C265.938 162.393 264.226 157.882 264.239 153.244C264.241 152.422 264.294 151.6 264.398 150.783L285.269 132.237C286.192 132.144 287.12 132.097 288.048 132.096C293.263 132.091 298.334 133.612 302.479 136.424Z" fill="white"/>
<path opacity="0.1" d="M311.847 152.712L287.495 174.351C283.466 174.279 279.525 173.291 276.048 171.479L308.604 142.56C310.647 145.64 311.764 149.136 311.847 152.712Z" fill="white"/>
<path d="M282.353 338.7L278.183 344.414L267.72 358.763L263.267 364.859L251.368 381.166H246.724L258.815 358.763L263.267 350.509L266.07 345.308L269.641 338.7H282.353Z" fill="#407BFF"/>
<path opacity="0.2" d="M282.353 338.7L278.183 344.414L267.72 358.763L263.267 364.859L251.368 381.166H246.724L258.815 358.763L263.267 350.509L266.07 345.308L269.641 338.7H282.353Z" fill="black"/>
<path d="M332.107 338.7L330.763 340.548L317.474 358.763L313.022 364.859L301.123 381.166H296.49L308.569 358.763L313.022 350.509L317.892 341.492L319.395 338.7H332.107Z" fill="#407BFF"/>
<path opacity="0.2" d="M332.107 338.7L330.763 340.548L317.474 358.763L313.022 364.859L301.123 381.166H296.49L308.569 358.763L313.022 350.509L317.892 341.492L319.395 338.7H332.107Z" fill="black"/>
<path d="M336.899 323.588H238.363V338.701H336.899V323.588Z" fill="#407BFF"/>
<path opacity="0.2" d="M336.899 323.588H238.363V338.701H336.899V323.588Z" fill="white"/>
<path d="M279.811 381.166H275.167L263.268 364.859L258.816 358.763L249.877 346.503L244.182 338.7H256.895L260.68 345.699L263.268 350.509L267.72 358.763L279.811 381.166Z" fill="#407BFF"/>
<path d="M329.565 381.166H324.921L313.022 364.859L308.57 358.763L297.089 343.018L293.936 338.7H306.649L308.524 342.175L313.022 350.509L317.474 358.763L329.565 381.166Z" fill="#407BFF"/>
<path d="M443.864 135.28C440.129 142.048 435.874 148.581 431.129 154.83C430.248 155.945 429.366 157.029 428.462 158.054C423.852 163.326 419.015 167.181 415.185 166.268C393.862 161.187 380.392 145.181 380.392 145.181L384.392 141.164C384.392 141.164 410.111 150.071 412.122 149.9C414.134 149.729 426.812 121.533 426.812 121.533L443.864 135.28Z" fill="#407BFF"/>
<path opacity="0.2" d="M433.095 147.922L431.129 154.83C430.248 155.945 429.366 157.029 428.462 158.054C428.358 156.028 427.928 154.026 427.185 152.109C425.592 148.183 419.784 143.232 422.292 138.051C424.19 133.907 425.701 129.632 426.812 125.268L433.095 147.922Z" fill="black"/>
<path opacity="0.2" d="M422.372 163.466C420.512 162.177 418.168 161.569 415.82 161.769C413.472 161.969 411.3 162.961 409.75 164.54C409.388 164.892 408.812 164.37 409.162 164.018C410.841 162.323 413.18 161.256 415.709 161.032C418.238 160.809 420.768 161.445 422.79 162.813C423.208 163.095 422.79 163.727 422.372 163.446V163.466Z" fill="black"/>
<path d="M415.501 153.093L387.94 152.591C387.068 152.558 386.229 152.284 385.54 151.807C384.851 151.33 384.347 150.674 384.098 149.93L375.499 117.797C375.397 117.478 375.386 117.142 375.466 116.818C375.546 116.495 375.715 116.194 375.958 115.942C376.201 115.691 376.51 115.497 376.858 115.377C377.205 115.257 377.581 115.216 377.951 115.257L405.512 115.769C406.383 115.799 407.222 116.071 407.911 116.547C408.6 117.022 409.105 117.677 409.354 118.42L417.953 150.553C418.055 150.871 418.066 151.208 417.986 151.531C417.906 151.855 417.737 152.156 417.494 152.408C417.251 152.659 416.942 152.853 416.595 152.973C416.247 153.093 415.871 153.134 415.501 153.093Z" fill="#263238"/>
<path opacity="0.2" d="M415.501 153.093L387.94 152.591C387.068 152.558 386.229 152.284 385.54 151.807C384.851 151.33 384.347 150.674 384.098 149.93L375.499 117.797C375.397 117.478 375.386 117.142 375.466 116.818C375.546 116.495 375.715 116.194 375.958 115.942C376.201 115.691 376.51 115.497 376.858 115.377C377.205 115.257 377.581 115.216 377.951 115.257L405.512 115.769C406.383 115.799 407.222 116.071 407.911 116.547C408.6 117.022 409.105 117.677 409.354 118.42L417.953 150.553C418.055 150.871 418.066 151.208 417.986 151.531C417.906 151.855 417.737 152.156 417.494 152.408C417.251 152.659 416.942 152.853 416.595 152.973C416.247 153.093 415.871 153.134 415.501 153.093Z" fill="white"/>
<path d="M412.687 153.043L385.115 152.541C384.245 152.505 383.409 152.229 382.723 151.752C382.037 151.276 381.534 150.621 381.285 149.88L372.674 117.747C372.572 117.428 372.561 117.092 372.641 116.768C372.721 116.445 372.89 116.144 373.133 115.892C373.376 115.64 373.685 115.446 374.033 115.327C374.38 115.207 374.756 115.166 375.126 115.206L402.698 115.708C403.568 115.745 404.404 116.02 405.09 116.497C405.777 116.974 406.279 117.628 406.529 118.369L415.128 150.502C415.229 150.82 415.24 151.155 415.161 151.478C415.081 151.801 414.913 152.101 414.672 152.352C414.431 152.604 414.123 152.798 413.777 152.919C413.431 153.039 413.056 153.082 412.687 153.043Z" fill="#263238"/>
<path opacity="0.2" d="M388.788 134.998C389.084 135.936 389.703 136.768 390.558 137.376C391.414 137.985 392.462 138.34 393.556 138.392C394.024 138.435 394.495 138.374 394.93 138.215C395.365 138.057 395.749 137.806 396.048 137.484C396.347 137.162 396.553 136.78 396.647 136.371C396.74 135.962 396.719 135.539 396.585 135.139C396.293 134.2 395.677 133.367 394.823 132.756C393.97 132.145 392.922 131.788 391.827 131.735C391.359 131.695 390.888 131.758 390.453 131.918C390.019 132.078 389.635 132.329 389.335 132.651C389.035 132.973 388.829 133.355 388.733 133.764C388.638 134.174 388.657 134.597 388.788 134.998Z" fill="white"/>
<path d="M379.443 137.057C379.443 137.057 385.477 136.755 386.437 137.86C387.398 138.965 381.341 140.029 381.341 140.029C381.341 140.029 384.912 139.939 385.861 140.692C386.81 141.445 382.335 142.65 382.335 142.65C382.335 142.65 384.72 142.65 384.81 143.835C384.901 145.02 383.997 145.421 382.674 145.702C382.127 145.821 381.556 145.825 381.007 145.713C380.458 145.602 379.945 145.378 379.51 145.06C378.991 144.598 379.431 143.403 379.431 143.403C379.431 143.403 377.171 142.399 377.081 141.636C377.064 141.4 377.104 141.163 377.197 140.941C377.291 140.72 377.436 140.518 377.623 140.35C377.299 140.294 376.995 140.166 376.74 139.978C376.486 139.791 376.288 139.549 376.166 139.276C376.045 139.039 375.992 138.78 376.012 138.52C376.032 138.261 376.123 138.01 376.279 137.79C375.813 136.907 375.413 135.998 375.081 135.068C374.787 134.064 376.787 133.271 377.996 132.638C379.205 132.006 381.386 134.215 383.375 134.647C383.375 134.647 384.392 135.199 383.307 135.872C382.222 136.545 379.917 135.53 379.375 135.571C378.832 135.611 379.443 137.057 379.443 137.057Z" fill="#B55B52"/>
<path d="M430.767 74.4981C430.767 74.4981 423.275 77.139 425.117 82.451C426.959 87.763 422.1 87.2709 421.524 92.4222C420.948 97.5735 430.79 99.1601 428.112 103.769C425.434 108.378 421.332 109.714 424.021 114.202C426.711 118.691 430.304 123.832 430.304 127.156C430.304 135.028 447.254 115.628 460.306 118.821C473.357 122.015 476.781 110.638 471.447 108.007C466.114 105.376 459.198 101.51 461.221 94.6314C463.244 87.7529 464.701 84.5899 458.769 81.0151C452.836 77.4403 456.091 76.8478 452.667 73.5643C449.582 70.612 445.084 73.6546 440.237 72.3794C435.389 71.1041 430.767 74.4981 430.767 74.4981Z" fill="#263238"/>
<path d="M433.118 99.6923C433.182 100.177 433.406 100.635 433.762 101.007C434.119 101.378 434.591 101.648 435.12 101.781C435.649 101.915 436.21 101.906 436.733 101.755C437.256 101.605 437.717 101.321 438.058 100.938C438.399 100.554 438.605 100.09 438.649 99.6033C438.693 99.1165 438.574 98.6289 438.307 98.2023C438.039 97.7756 437.635 97.4291 437.146 97.2063C436.657 96.9836 436.104 96.8948 435.558 96.951C435.195 96.9884 434.844 97.089 434.525 97.247C434.206 97.4051 433.925 97.6175 433.698 97.8721C433.472 98.1267 433.304 98.4185 433.204 98.7308C433.104 99.0431 433.075 99.3699 433.118 99.6923Z" fill="white"/>
<path d="M427.626 361.093L424.609 372.149H418.055L417.75 361.093H427.626Z" fill="#B55B52"/>
<path d="M399.014 379.971C399.376 376.366 401.15 375.292 403.353 375.171C405.557 375.051 413.806 372.611 413.806 372.611C413.806 372.611 415.512 370.321 417.026 369.859C418.541 369.398 419.976 370.753 419.976 370.753L424.1 370.311C424.1 370.311 425.332 368.665 426.179 370.1C427.49 372.34 427.309 378.525 427.208 379.971H399.014Z" fill="#407BFF"/>
<path d="M399.557 379.027H404.664L427.027 378.927C427.31 378.927 427.253 378.535 426.971 378.545H425.456C425.456 378.545 425.456 378.545 425.456 378.495C425.146 378.068 424.939 377.589 424.847 377.087C424.755 376.585 424.782 376.072 424.924 375.58C425.066 375.088 425.321 374.627 425.673 374.227C426.026 373.826 426.467 373.495 426.971 373.254C427.208 373.143 426.971 372.802 426.711 372.922C426.174 373.183 425.702 373.539 425.324 373.967C424.946 374.395 424.67 374.887 424.512 375.413C424.355 375.939 424.319 376.488 424.408 377.026C424.496 377.565 424.707 378.081 425.027 378.545H421.874L399.512 378.646C399.207 378.646 399.263 379.037 399.557 379.027Z" fill="black"/>
<path d="M415.049 374.167C413.919 372.952 412.19 372.611 410.947 373.525C410.744 373.675 410.484 373.344 410.676 373.193C412.1 372.189 414.066 372.601 415.388 373.977C415.58 374.177 415.241 374.368 415.049 374.167Z" fill="white"/>
<path d="M412.687 374.82C411.557 373.605 409.829 373.254 408.586 374.177C408.393 374.318 408.122 373.987 408.326 373.846C409.738 372.792 411.716 373.244 413.038 374.619C413.23 374.82 412.88 375.011 412.687 374.82Z" fill="white"/>
<path d="M410.348 375.463C409.218 374.248 407.489 373.906 406.246 374.82C406.043 374.971 405.783 374.629 405.975 374.489C407.399 373.434 409.365 373.896 410.687 375.262C410.879 375.473 410.54 375.664 410.348 375.463Z" fill="white"/>
<path d="M454.746 216.194C452.811 231.039 449.906 245.771 446.045 260.317C444.666 265.712 443.099 271.463 441.344 277.568C446.169 312.974 427.287 364.126 427.287 364.126L417.173 363.925C417.173 363.925 415.908 306.759 417.094 276.835C419.038 227.802 425.761 181.099 425.761 181.099L453.311 180.999C453.311 180.999 458.068 188.369 454.746 216.194Z" fill="#263238"/>
<path opacity="0.2" d="M454.746 216.194C452.811 231.039 449.906 245.771 446.045 260.316C440.248 240.705 450.734 198.852 450.734 198.852L454.746 216.194Z" fill="black"/>
<path d="M416.01 366.044L415.693 362.188H429.186L428.417 366.044H416.01Z" fill="#263238"/>
<path d="M469.56 361.093L466.532 372.149H459.978L459.684 361.093H469.56Z" fill="#B55B52"/>
<path d="M457.695 366.044L457.379 362.188H470.871L470.103 366.044H457.695Z" fill="#263238"/>
<path d="M440.938 379.971C441.288 376.366 443.073 375.292 445.277 375.171C447.48 375.051 455.729 372.611 455.729 372.611C455.729 372.611 457.435 370.321 458.938 369.859C460.441 369.398 461.899 370.753 461.899 370.753L466.012 370.311C466.012 370.311 467.244 368.665 468.103 370.1C469.414 372.34 469.233 378.525 469.131 379.971H440.938Z" fill="#407BFF"/>
<path d="M441.48 379.027H446.599L468.962 378.927C469.244 378.927 469.188 378.535 468.894 378.545H467.391V378.495C467.083 378.067 466.877 377.587 466.787 377.085C466.698 376.584 466.725 376.071 466.868 375.579C467.011 375.087 467.267 374.627 467.62 374.226C467.972 373.826 468.413 373.495 468.916 373.254C469.154 373.143 468.916 372.802 468.657 372.922C468.118 373.182 467.645 373.537 467.266 373.965C466.887 374.393 466.61 374.885 466.452 375.411C466.293 375.937 466.256 376.486 466.344 377.025C466.432 377.563 466.642 378.081 466.962 378.545H463.809L441.457 378.646C441.141 378.646 441.198 379.037 441.48 379.027Z" fill="black"/>
<path d="M456.983 374.167C455.853 372.952 454.113 372.611 452.881 373.525C452.678 373.675 452.407 373.344 452.61 373.193C454.034 372.189 456 372.601 457.322 373.977C457.514 374.177 457.164 374.368 456.983 374.167Z" fill="white"/>
<path d="M454.667 374.82C453.537 373.605 451.808 373.254 450.565 374.177C450.373 374.318 450.102 373.987 450.294 373.846C451.718 372.792 453.684 373.244 455.006 374.619C455.209 374.82 454.859 375.011 454.667 374.82Z" fill="white"/>
<path d="M452.237 375.463C451.107 374.248 449.367 373.906 448.135 374.82C447.932 374.971 447.661 374.629 447.864 374.489C449.288 373.434 451.254 373.896 452.576 375.262C452.768 375.473 452.418 375.664 452.237 375.463Z" fill="white"/>
<path d="M445.265 182.977C445.265 182.977 450.407 250.667 452.045 277.568C453.977 308.305 458.305 360.692 458.882 364.116H469.334C468.136 365.12 482.759 318.136 476.86 279.847C482.386 243.236 489.109 216.425 480.442 181.942L445.265 182.977Z" fill="#263238"/>
<path d="M483.629 184.624C461.662 191.07 424.744 188.951 424.744 184.483C424.744 171.891 429.762 157.732 428.417 149.528C418.032 143.072 426.157 137.238 425.242 127.668C424.938 124.142 426.128 120.642 428.578 117.856C431.028 115.069 434.562 113.196 438.485 112.606C440.361 112.325 442.305 112.043 444.214 111.822L445.344 111.692C450.442 111.176 455.572 110.962 460.701 111.049C462.577 111.049 464.52 111.049 466.554 111.1C468.588 111.15 470.555 111.21 472.43 111.33C474.082 111.433 475.691 111.843 477.153 112.535C478.615 113.226 479.897 114.182 480.916 115.342C481.934 116.502 482.667 117.84 483.066 119.268C483.466 120.696 483.523 122.183 483.233 123.631C481.55 132.033 480.481 140.522 480.035 149.046C479.945 150.804 479.877 152.501 479.855 154.168C479.724 160.003 480.023 165.839 480.747 171.64C480.747 171.75 480.747 171.861 480.747 171.961C481.064 174.271 481.44 176.4 481.877 178.348C482.013 178.96 482.16 179.543 482.318 180.115C482.747 181.29 483.267 183.409 483.629 184.624Z" fill="#407BFF"/>
<path opacity="0.2" d="M443.728 127.808C443.728 127.934 443.687 128.056 443.609 128.16C443.53 128.264 443.419 128.345 443.289 128.393C443.159 128.441 443.016 128.453 442.878 128.429C442.74 128.404 442.613 128.344 442.513 128.256C442.414 128.167 442.346 128.055 442.318 127.932C442.291 127.809 442.305 127.682 442.359 127.566C442.413 127.451 442.504 127.352 442.621 127.282C442.738 127.213 442.876 127.176 443.017 127.176C443.205 127.176 443.386 127.242 443.52 127.361C443.653 127.48 443.728 127.641 443.728 127.808Z" fill="black"/>
<path opacity="0.2" d="M442.587 134.054C442.974 134.054 443.287 133.776 443.287 133.432C443.287 133.088 442.974 132.809 442.587 132.809C442.2 132.809 441.886 133.088 441.886 133.432C441.886 133.776 442.2 134.054 442.587 134.054Z" fill="black"/>
<path opacity="0.2" d="M442.587 139.778C442.974 139.778 443.287 139.499 443.287 139.156C443.287 138.812 442.974 138.533 442.587 138.533C442.2 138.533 441.886 138.812 441.886 139.156C441.886 139.499 442.2 139.778 442.587 139.778Z" fill="black"/>
<path d="M460.735 111.009C455.537 119.133 443.299 123.993 443.299 123.993C441.638 120.358 442.169 114.524 444.214 111.782L445.344 111.652C450.453 111.135 455.594 110.92 460.735 111.009Z" fill="#B55B52"/>
<path opacity="0.2" d="M481.979 178.307C460.339 176.189 439.479 158.054 439.479 158.054L480.092 170.104C480.27 170.739 480.516 171.357 480.826 171.951C481.143 174.241 481.527 176.359 481.979 178.307Z" fill="black"/>
<path opacity="0.2" d="M479.221 153.043C478.572 156.485 478.349 159.98 478.555 163.466C475.553 164.61 472.184 164.735 469.085 163.817C464.843 162.368 461.281 159.681 458.983 156.196C458.983 156.196 471.311 158.355 474.362 157.351C477.097 156.447 470.554 137.629 470.339 137.097L479.379 148.052C479.357 149.759 479.244 151.416 479.221 153.043Z" fill="black"/>
<path d="M444.079 114.202C444.032 114.332 443.967 114.457 443.887 114.574C442.113 117.054 444.034 119.313 447.085 119.123C447.377 119.101 447.667 119.064 447.955 119.012C449.051 118.819 450.052 118.323 450.814 117.596C453.154 115.364 455.685 113.296 458.385 111.411C453.865 109.232 452.147 101.49 451.718 96.6497L444.61 104.683L443.288 106.44C443.939 107.416 444.455 108.457 444.825 109.543C445.138 110.315 445.234 111.143 445.104 111.955C444.974 112.767 444.622 113.539 444.079 114.202Z" fill="#B55B52"/>
<path d="M457.696 111.009C460.193 110.46 462.803 110.46 465.3 111.009L458.396 121.543C454.769 119.193 450.599 122.246 443.299 123.993C449.346 120.919 454.326 116.427 457.696 111.009Z" fill="#407BFF"/>
<path opacity="0.2" d="M457.696 111.009C460.193 110.46 462.803 110.46 465.3 111.009L458.396 121.543C454.769 119.193 450.599 122.246 443.299 123.993C449.346 120.919 454.326 116.427 457.696 111.009Z" fill="white"/>
<path d="M445.141 111.491C445.141 111.491 440.926 110.798 438.485 112.565C437.6 115.284 436.939 118.056 436.508 120.86C436.508 120.86 440.565 119.062 443.288 123.993C443.299 123.993 441.921 116.13 445.141 111.491Z" fill="#407BFF"/>
<path opacity="0.2" d="M445.141 111.491C445.141 111.491 440.926 110.798 438.485 112.565C437.6 115.284 436.939 118.056 436.508 120.86C436.508 120.86 440.565 119.062 443.288 123.993C443.299 123.993 441.921 116.13 445.141 111.491Z" fill="white"/>
<g opacity="0.2">
<path d="M444.836 109.543C444.467 108.458 443.951 107.416 443.299 106.44L444.621 104.683L449.141 104.773C448.341 106.743 446.826 108.421 444.836 109.543Z" fill="black"/>
</g>
<path d="M453.028 88.024C453.74 95.9769 454.226 99.3207 450.475 103.91C444.825 110.818 433.909 109.824 430.587 102.223C427.603 95.3744 426.937 83.5254 434.948 79.3281C442.96 75.1307 452.317 80.0812 453.028 88.024Z" fill="#B55B52"/>
<path d="M435.841 77.8319C435.841 77.8319 433.965 84.6099 438.463 86.3069C442.96 88.004 449.096 85.6743 449.096 90.8357C449.096 93.7477 454.238 92.844 453.921 90.1629C453.605 87.4818 455.74 82.3606 449.401 79.5791C445.151 77.8908 440.456 77.2859 435.841 77.8319Z" fill="#263238"/>
<path d="M448.847 94.4606C448.361 94.4476 447.885 94.3341 447.457 94.1292C444.429 92.7937 444.011 85.9755 444 85.6843H444.576C444.576 85.7546 444.983 92.4925 447.717 93.7175C447.983 93.8658 448.285 93.9551 448.598 93.9778C448.91 94.0006 449.225 93.9561 449.514 93.8481C450.52 93.3862 450.791 91.9301 450.791 91.9201L451.356 92.0004C451.285 92.4588 451.109 92.8993 450.839 93.2948C450.568 93.6903 450.21 94.0324 449.785 94.3C449.491 94.4182 449.17 94.4732 448.847 94.4606Z" fill="#263238"/>
<path d="M436.282 80.0512C436.282 80.0512 431.321 87.0802 427.886 85.4234C424.451 83.7665 432.632 75.8739 435.796 77.832C438.96 79.7901 436.282 80.0512 436.282 80.0512Z" fill="#263238"/>
<path d="M434.316 100.275C434.316 100.275 438.666 98.5276 439.627 96.8406C439.627 96.8406 440.271 99.853 437.988 100.968C437.39 101.283 436.68 101.387 436 101.259C435.319 101.131 434.718 100.779 434.316 100.275Z" fill="white"/>
<path d="M437.785 91.5486C437.887 92.1913 437.582 92.7536 437.107 92.8139C436.632 92.8741 436.18 92.4022 436.079 91.8097C435.977 91.2173 436.271 90.6047 436.745 90.5445C437.22 90.4842 437.683 90.9562 437.785 91.5989" fill="#263238"/>
<path d="M430.53 92.633C430.631 93.2757 430.326 93.838 429.863 93.8983C429.4 93.9585 428.925 93.4866 428.823 92.8439C428.722 92.2013 429.015 91.6389 429.49 91.5787C429.965 91.5184 430.428 91.9904 430.53 92.5828" fill="#263238"/>
<path d="M429.705 91.5889L427.909 91.3579C427.909 91.3579 428.982 92.4524 429.705 91.5889Z" fill="#263238"/>
<path d="M433.671 92.5024C433.671 92.5024 432.699 94.3501 431.581 95.9969C431.5 96.1226 431.45 96.2624 431.436 96.4066C431.422 96.5509 431.443 96.6962 431.497 96.8326C431.552 96.969 431.639 97.0933 431.753 97.1969C431.867 97.3005 432.005 97.381 432.157 97.4328C432.921 97.6413 433.71 97.7727 434.507 97.8245L433.671 92.5024Z" fill="#A02724"/>
<path d="M457.04 93.095C456.817 93.7925 456.43 94.4399 455.904 94.9939C455.378 95.548 454.725 95.9961 453.989 96.3083C452.102 97.0413 450.813 95.2439 451.062 93.2255C451.288 91.408 452.531 88.8374 454.565 88.9679C456.599 89.0985 457.684 91.2574 457.04 93.095Z" fill="#B55B52"/>
<path d="M453.639 94.8423H453.266V98.5376H453.639V94.8423Z" fill="white"/>
<path d="M453.514 100.526C454.35 100.526 455.028 99.9234 455.028 99.1803C455.028 98.4371 454.35 97.8347 453.514 97.8347C452.678 97.8347 452 98.4371 452 99.1803C452 99.9234 452.678 100.526 453.514 100.526Z" fill="white"/>
<path d="M439.875 89.8716C439.816 89.865 439.759 89.8472 439.709 89.8195C439.658 89.7918 439.614 89.7548 439.581 89.7109C439.296 89.3063 438.906 88.9679 438.444 88.7234C437.982 88.479 437.462 88.3356 436.926 88.3051C436.814 88.3052 436.706 88.2664 436.626 88.197C436.546 88.1276 436.499 88.0331 436.496 87.9336C436.495 87.8835 436.504 87.8336 436.525 87.7868C436.545 87.74 436.575 87.6972 436.614 87.6608C436.653 87.6244 436.699 87.5952 436.751 87.5748C436.802 87.5545 436.858 87.5433 436.914 87.542C437.596 87.57 438.26 87.7434 438.85 88.0475C439.44 88.3516 439.939 88.7775 440.304 89.2892C440.336 89.3299 440.359 89.3758 440.37 89.4243C440.382 89.4728 440.382 89.5228 440.372 89.5714C440.361 89.6201 440.34 89.6664 440.309 89.7076C440.278 89.7488 440.238 89.7841 440.191 89.8114C440.148 89.8404 440.099 89.8609 440.046 89.8713C439.994 89.8817 439.939 89.8818 439.886 89.8716" fill="#263238"/>
<path d="M427.615 90.1528C427.56 90.1589 427.505 90.1549 427.453 90.1411C427.4 90.1273 427.352 90.1039 427.31 90.0725C427.222 90.0094 427.166 89.9183 427.153 89.8187C427.14 89.7191 427.172 89.6191 427.242 89.5403C427.656 89.0613 428.193 88.6774 428.809 88.4206C429.424 88.1638 430.1 88.0416 430.779 88.0642C430.84 88.062 430.901 88.0714 430.958 88.0919C431.014 88.1124 431.066 88.1434 431.108 88.1829C431.15 88.2223 431.182 88.2693 431.202 88.3207C431.222 88.3721 431.229 88.4267 431.224 88.4809C431.218 88.5351 431.199 88.5875 431.169 88.6347C431.139 88.682 431.097 88.7229 431.048 88.7547C430.998 88.7866 430.941 88.8087 430.881 88.8194C430.821 88.8302 430.759 88.8295 430.7 88.8173C430.162 88.8098 429.63 88.914 429.145 89.1214C428.661 89.3289 428.237 89.6339 427.909 90.0122C427.877 90.0555 427.833 90.0911 427.782 90.1156C427.73 90.1402 427.673 90.1529 427.615 90.1528Z" fill="#263238"/>
<path d="M436.96 90.5044L435.152 90.2734C435.152 90.2734 436.282 91.368 436.96 90.5044Z" fill="#263238"/>
<path d="M482.668 118.058C482.668 118.058 498.205 155.573 495.719 167.854C491.629 188.068 440.428 160.986 439.445 157.15L444.022 151.316C444.022 151.316 477.153 162.03 478.973 161.006C480.792 159.982 468.52 131.172 468.52 131.172C468.52 131.172 470.317 113.76 482.668 118.058Z" fill="#407BFF"/>
<path opacity="0.2" d="M495.562 164.771C493.261 165.413 491.276 166.733 489.934 168.513C488.592 170.293 487.974 172.427 488.183 174.562C488.183 175.034 487.403 175.134 487.358 174.662C487.128 172.365 487.786 170.066 489.224 168.146C490.662 166.225 492.794 164.798 495.268 164.099C495.765 163.948 496.093 164.631 495.584 164.771H495.562Z" fill="black"/>
<path d="M445.356 152.491C445.356 152.491 440.576 141.294 439.457 140.35C438.339 139.406 425.818 139.447 424.53 139.155C423.242 138.864 423.954 140.933 426.236 141.214C428.519 141.495 432.677 142.449 432.677 142.449C432.677 142.449 428.813 142.208 428.078 142.991C427.344 143.775 424.112 149.398 425.005 152.029C425.897 154.66 429.525 154.82 430.655 155.041C431.785 155.262 430.655 152.501 430.655 152.501C431.615 152.865 432.633 153.095 433.672 153.183C435.457 153.364 437.785 156.407 439.548 157.1C442.892 158.516 446.893 153.274 445.356 152.491Z" fill="#B55B52"/>
<path d="M435.796 142.851C434.811 142.675 433.804 142.615 432.801 142.67C432.428 142.67 432.361 142.178 432.733 142.158C433.792 142.092 434.857 142.153 435.897 142.339C435.968 142.356 436.029 142.396 436.069 142.451C436.108 142.506 436.123 142.572 436.11 142.636C436.097 142.7 436.058 142.758 436 142.798C435.942 142.837 435.869 142.856 435.796 142.851Z" fill="#994731"/>
<path d="M432.745 145.17C431.027 144.658 429.129 144.166 427.411 144.939C427.084 145.09 426.745 144.668 427.072 144.518C429.005 143.604 431.039 144.116 432.994 144.698C433.344 144.799 433.095 145.271 432.745 145.17Z" fill="#994731"/>
<path d="M431.129 147.47C430.359 147.137 429.509 146.977 428.654 147.005C427.799 147.033 426.964 147.248 426.225 147.631C425.908 147.801 425.569 147.379 425.897 147.209C426.717 146.773 427.647 146.526 428.601 146.489C429.556 146.453 430.506 146.627 431.366 146.998C431.426 147.031 431.47 147.083 431.491 147.143C431.511 147.203 431.507 147.268 431.478 147.325C431.449 147.383 431.398 147.429 431.334 147.455C431.27 147.482 431.197 147.487 431.129 147.47Z" fill="#994731"/>
<path d="M430.564 152.862C430.003 152.581 429.513 152.201 429.125 151.745C428.736 151.289 428.457 150.767 428.304 150.211C428.225 149.89 428.768 149.709 428.858 150.03C428.977 150.519 429.208 150.981 429.537 151.387C429.865 151.793 430.284 152.134 430.768 152.39C431.095 152.551 430.847 153.023 430.53 152.862H430.564Z" fill="#994731"/>
<path d="M428.925 151.627C428.628 151.534 428.307 151.523 428.003 151.595C427.698 151.666 427.425 151.818 427.219 152.029C426.97 152.28 426.53 151.948 426.778 151.697C427.068 151.401 427.452 151.19 427.881 151.093C428.309 150.996 428.76 151.018 429.174 151.155C429.524 151.276 429.275 151.748 428.925 151.627Z" fill="#994731"/>
<path d="M429.637 97.7845C429.253 97.7549 428.881 97.6494 428.548 97.4757C428.216 97.3019 427.932 97.0644 427.716 96.7804C427.009 95.982 426.55 95.0336 426.382 94.029C425.964 91.7697 426.868 89.7413 428.394 89.5204C429.919 89.2994 431.524 90.9463 431.942 93.2056C432.158 94.2117 432.072 95.2507 431.693 96.2181C431.577 96.588 431.353 96.9239 431.043 97.192C430.734 97.46 430.35 97.6506 429.931 97.7444L429.637 97.7845ZM428.688 89.7513H428.45C427.072 89.9521 426.269 91.84 426.665 93.9587C426.82 94.9223 427.256 95.8329 427.93 96.5996C428.145 96.8787 428.439 97.1026 428.782 97.2489C429.126 97.3952 429.506 97.4587 429.885 97.4331C430.254 97.3494 430.591 97.1795 430.861 96.9412C431.132 96.7028 431.325 96.4047 431.422 96.0775C431.78 95.1616 431.862 94.1784 431.66 93.2257C431.264 91.2977 429.965 89.8015 428.665 89.8015L428.688 89.7513Z" fill="white"/>
<path d="M437.411 96.6196C435.965 96.6196 434.541 95.033 434.146 92.9143C433.75 90.7955 434.632 88.6265 436.157 88.4056C437.683 88.1847 439.287 89.8315 439.705 92.0909C439.921 93.097 439.836 94.136 439.457 95.1033C439.338 95.4723 439.113 95.8073 438.804 96.075C438.495 96.3428 438.112 96.534 437.694 96.6296L437.411 96.6196ZM436.451 88.5864H436.214C434.835 88.7872 434.033 90.675 434.428 92.7938C434.824 94.9125 436.293 96.469 437.649 96.2681C438.018 96.1844 438.355 96.0146 438.625 95.7762C438.895 95.5379 439.089 95.2397 439.185 94.9125C439.549 93.9976 439.631 93.0132 439.423 92.0607C439.05 90.1328 437.75 88.6366 436.417 88.6366L436.451 88.5864Z" fill="white"/>
<path d="M426.597 94.1493L426.405 93.9586C427.004 93.5308 427.74 93.2813 428.507 93.2456V93.5067C427.812 93.5458 427.147 93.7697 426.597 94.1493Z" fill="white"/>
<path d="M431.705 92.8139L431.479 92.6632C431.797 92.2894 432.261 92.0347 432.78 91.9492C433.298 91.8638 433.834 91.9537 434.282 92.2013L434.135 92.4222C433.749 92.204 433.284 92.1232 432.834 92.1957C432.384 92.2683 431.981 92.489 431.705 92.8139Z" fill="white"/>
<path d="M439.536 91.7694L439.4 91.5385C439.457 91.5385 445.604 88.6164 452.022 89.6005V89.8616C445.661 88.8875 439.592 91.7393 439.536 91.7694Z" fill="white"/>
<path d="M219.457 361.937L205.75 362.851L180.19 310.896L167.714 283.271L199.829 270.228L203.716 289.608L203.829 289.929L219.457 361.937Z" fill="#263238"/>
<path d="M206.835 360.32L211.762 371.828H218.576L217.095 360.32H206.835Z" fill="#B55B52"/>
<path d="M221.582 365.773L221.005 359.898H202.756L204.462 365.773H221.582Z" fill="#263238"/>
<path d="M239.605 379.971C238.656 376.226 236.622 375.101 234.328 374.951C232.034 374.8 223.028 372.29 223.028 372.29C223.028 372.29 220.881 369.91 219.242 369.428C218.705 369.326 218.146 369.359 217.629 369.524C217.112 369.689 216.657 369.979 216.316 370.362L211.977 369.89C211.977 369.89 210.44 368.193 209.717 369.679C208.959 371.396 209.208 378.786 209.253 379.951L239.605 379.971Z" fill="#407BFF"/>
<path d="M238.893 378.997H233.582L210.35 378.897C210.29 378.897 210.232 378.876 210.19 378.838C210.147 378.8 210.124 378.749 210.124 378.696C210.124 378.643 210.147 378.592 210.19 378.554C210.232 378.516 210.29 378.495 210.35 378.495H211.932C211.925 378.479 211.925 378.461 211.932 378.445C213.062 376.276 211.739 374.087 209.502 372.992C209.242 372.872 209.502 372.52 209.728 372.651C210.923 373.143 211.862 374.021 212.356 375.107C212.849 376.192 212.859 377.403 212.384 378.495H215.661L238.893 378.606C238.943 378.616 238.988 378.641 239.02 378.676C239.052 378.712 239.069 378.756 239.069 378.801C239.069 378.847 239.052 378.891 239.02 378.927C238.988 378.962 238.943 378.987 238.893 378.997Z" fill="black"/>
<path d="M222.022 373.936C222.228 373.633 222.505 373.372 222.833 373.171C223.161 372.97 223.533 372.833 223.925 372.77C224.317 372.706 224.72 372.717 225.107 372.802C225.494 372.888 225.856 373.045 226.169 373.264C226.407 373.414 226.633 373.073 226.395 372.922C226.03 372.676 225.611 372.502 225.166 372.409C224.72 372.317 224.257 372.308 223.807 372.385C223.358 372.462 222.931 372.622 222.555 372.854C222.18 373.087 221.863 373.387 221.627 373.736C221.457 373.936 221.853 374.137 222.022 373.936Z" fill="white"/>
<path d="M224.52 374.609C224.727 374.306 225.004 374.045 225.333 373.843C225.663 373.642 226.036 373.505 226.429 373.442C226.822 373.378 227.225 373.389 227.613 373.475C228.001 373.56 228.364 373.717 228.678 373.936C228.904 374.087 229.13 373.745 228.904 373.595C228.54 373.349 228.122 373.173 227.676 373.08C227.231 372.987 226.768 372.977 226.319 373.053C225.869 373.129 225.442 373.288 225.066 373.52C224.69 373.751 224.373 374.051 224.136 374.398C223.966 374.609 224.362 374.81 224.52 374.609Z" fill="white"/>
<path d="M227.107 375.272C227.317 374.97 227.595 374.712 227.925 374.512C228.254 374.313 228.627 374.178 229.02 374.115C229.412 374.053 229.815 374.064 230.202 374.149C230.589 374.235 230.951 374.391 231.266 374.609C231.492 374.76 231.717 374.418 231.491 374.258C231.126 374.013 230.707 373.84 230.261 373.748C229.816 373.656 229.354 373.649 228.904 373.725C228.455 373.802 228.029 373.961 227.653 374.193C227.278 374.425 226.961 374.724 226.723 375.071C226.553 375.282 226.938 375.483 227.107 375.272Z" fill="white"/>
<path d="M176.427 318.567L178.743 332.384L179.557 337.365L186.45 379.138H182.314L172.404 337.365L171.229 332.384L167.952 318.567H176.427Z" fill="#407BFF"/>
<path d="M160.256 318.567L162.562 332.384L163.386 337.365L170.279 379.138H166.132L156.222 337.365L155.047 332.384L151.77 318.567H160.256Z" fill="#407BFF"/>
<g opacity="0.2">
<path d="M160.256 318.567L162.562 332.384L163.386 337.365L170.279 379.138H166.132L156.222 337.365L155.047 332.384L151.77 318.567H160.256Z" fill="black"/>
</g>
<path d="M83.2806 308.074L77.5176 332.384L76.3424 337.365L66.4323 379.138H62.2852L69.1895 337.365L70.0031 332.384L74.0711 308.074H83.2806Z" fill="#407BFF"/>
<path d="M99.4622 308.074L93.6992 332.384L92.5127 337.365L82.6139 379.138H78.4668L85.3598 337.365L86.1847 332.384L90.2527 308.074H99.4622Z" fill="#407BFF"/>
<g opacity="0.2">
<path d="M99.4622 308.074L93.6992 332.384L92.5127 337.365L82.6139 379.138H78.4668L85.3598 337.365L86.1847 332.384L90.2527 308.074H99.4622Z" fill="black"/>
</g>
<path d="M74.0036 318.758H176.664L174.619 311.599C171.229 299.599 161.533 291.516 150.663 291.516H66.1953L74.0036 318.758Z" fill="#407BFF"/>
<path d="M60.5453 272.607L70.2746 304.74L168.144 304.841L162.11 284.888C158.087 271.573 144.798 261.793 129.34 261.552H129.249C128.119 257.706 117.045 221.386 92.2192 222.048C66.0032 222.741 71.6871 261.552 71.6871 261.552H67.2575C62.3872 261.582 58.9181 267.225 60.5453 272.607Z" fill="#407BFF"/>
<g opacity="0.2">
<path d="M60.5453 272.607L70.2746 304.74L168.144 304.841L162.11 284.888C158.087 271.573 144.798 261.793 129.34 261.552H129.249C128.119 257.706 117.045 221.386 92.2192 222.048C66.0032 222.741 71.6871 261.552 71.6871 261.552H67.2575C62.3872 261.582 58.9181 267.225 60.5453 272.607Z" fill="black"/>
</g>
<path d="M108.412 219.407C108.412 219.407 111.192 250.426 115.622 260.347C125.792 283.111 143.521 255.185 143.521 255.185L131.781 240.233L128.391 217.238L108.412 219.407Z" fill="#FF8B7B"/>
<path d="M131.125 240.053L126.944 240.836C126.832 240.859 126.734 240.92 126.672 241.007C126.611 241.093 126.591 241.198 126.616 241.298C126.642 241.398 126.711 241.485 126.808 241.539C126.906 241.594 127.024 241.612 127.136 241.589L131.317 240.856C131.429 240.835 131.528 240.775 131.59 240.689C131.653 240.603 131.674 240.499 131.65 240.399C131.626 240.299 131.559 240.212 131.462 240.156C131.366 240.101 131.249 240.082 131.136 240.103L131.125 240.053Z" fill="#742823"/>
<path d="M157.522 212.88C157.522 212.88 168.98 242.603 173.048 250.034C177.116 257.465 160.968 261.873 151.149 259.443C141.329 257.013 142.877 220.281 142.877 220.281L157.522 212.88Z" fill="#FF8B7B"/>
<path d="M135.125 180.888C135.125 180.888 122.051 208.773 128.967 226.537L161.737 218.584C161.737 218.584 161.895 205.53 157.861 195.137C151.555 178.82 135.125 180.888 135.125 180.888Z" fill="#407BFF"/>
<path d="M84.0717 278.18C77.2917 274.164 77.1222 256.822 78.4217 241.027C78.4895 237.01 78.6816 232.441 79.0658 227.561C79.45 222.681 80.0489 217.52 80.9303 212.218C82.1683 204.394 84.1106 196.67 86.7385 189.122C88.49 184.202 97.5865 179.081 105.836 176.6C111.58 175.067 117.615 174.581 123.577 175.174C127.983 176.148 132.328 177.328 136.594 178.709C147.386 182.113 154.222 186.813 153.544 189.464C153.16 190.91 153.544 198.692 151.521 208.161C150.448 213.272 149.759 218.795 148.798 224.348C148.798 224.348 148.798 224.398 148.798 224.448C148.798 224.498 148.798 224.89 148.742 225.302C148.459 229.871 147.815 249.542 156.12 263.098C168.607 283.432 93.7671 284.035 84.0717 278.18Z" fill="#407BFF"/>
<g opacity="0.2">
<path d="M84.0717 278.18C77.2917 274.164 77.1222 256.822 78.4217 241.027C78.4895 237.01 78.6816 232.441 79.0658 227.561C79.45 222.681 80.0489 217.52 80.9303 212.218C82.1683 204.394 84.1106 196.67 86.7385 189.122C88.49 184.202 97.5865 179.081 105.836 176.6C111.58 175.067 117.615 174.581 123.577 175.174C127.983 176.148 132.328 177.328 136.594 178.709C147.386 182.113 154.222 186.813 153.544 189.464C153.16 190.91 153.544 198.692 151.521 208.161C150.448 213.272 149.759 218.795 148.798 224.348C148.798 224.348 148.798 224.398 148.798 224.448C148.798 224.498 148.798 224.89 148.742 225.302C148.459 229.871 147.815 249.542 156.12 263.098C168.607 283.432 93.7671 284.035 84.0717 278.18Z" fill="white"/>
</g>
<path d="M135.102 193.259C134.758 193.254 134.415 193.231 134.074 193.189C123.972 191.934 115.497 175.114 115.418 174.954C115.41 174.939 115.406 174.923 115.405 174.907C115.405 174.892 115.408 174.876 115.414 174.861C115.42 174.846 115.43 174.832 115.442 174.82C115.454 174.809 115.469 174.799 115.486 174.793C115.52 174.779 115.56 174.777 115.595 174.789C115.631 174.8 115.661 174.823 115.678 174.853C115.757 175.024 124.164 191.713 134.119 192.928C135.837 193.139 137.023 192.828 137.645 192.004C140.176 188.6 132.854 177.645 132.775 177.534C132.752 177.511 132.739 177.48 132.739 177.449C132.739 177.418 132.752 177.387 132.775 177.364C132.787 177.352 132.802 177.343 132.819 177.337C132.835 177.331 132.853 177.328 132.871 177.328C132.889 177.328 132.906 177.331 132.923 177.337C132.939 177.343 132.954 177.352 132.967 177.364C133.272 177.826 140.459 188.57 137.826 192.105C137.52 192.487 137.109 192.793 136.632 192.995C136.156 193.197 135.629 193.288 135.102 193.259Z" fill="white"/>
<path d="M154.482 363.011L141.193 362.358L160.855 299.569C160.855 299.569 158.2 300.031 153.94 300.643C139.521 302.652 106.672 306.357 95.6544 299.087C79.8344 288.603 80.9644 274.656 80.9644 274.656C80.9644 274.656 206.541 242.011 209.784 273.471C211.242 287.589 154.482 363.011 154.482 363.011Z" fill="#263238"/>
<path d="M142.843 360.722L141.487 371.828H148.29L153.092 360.722H142.843Z" fill="#B55B52"/>
<path d="M138.911 365.773L139.498 359.898H157.736L156.03 365.773H138.911Z" fill="#263238"/>
<path d="M170.663 379.971C169.714 376.226 167.691 375.101 165.386 374.951C163.081 374.8 154.086 372.29 154.086 372.29C154.086 372.29 151.951 369.91 150.312 369.428C149.775 369.326 149.216 369.359 148.699 369.524C148.182 369.689 147.727 369.979 147.385 370.362L143.035 369.89C143.035 369.89 141.509 368.193 140.843 369.679C140.074 371.396 140.334 378.786 140.379 379.951L170.663 379.971Z" fill="#407BFF"/>
<path d="M169.963 378.997H164.652L141.408 378.897C141.348 378.897 141.29 378.876 141.248 378.838C141.206 378.8 141.182 378.749 141.182 378.696C141.182 378.643 141.206 378.592 141.248 378.554C141.29 378.516 141.348 378.495 141.408 378.495H142.979C142.972 378.479 142.972 378.461 142.979 378.445C144.109 376.276 142.775 374.087 140.538 372.992C140.278 372.872 140.538 372.52 140.764 372.651C141.959 373.143 142.899 374.021 143.394 375.106C143.889 376.191 143.902 377.402 143.431 378.495H146.708L169.94 378.606C169.991 378.613 170.037 378.636 170.072 378.67C170.106 378.704 170.126 378.748 170.128 378.793C170.131 378.839 170.116 378.884 170.086 378.921C170.056 378.958 170.012 378.985 169.963 378.997Z" fill="black"/>
<path d="M153.081 373.936C153.288 373.633 153.566 373.372 153.895 373.171C154.224 372.97 154.597 372.833 154.99 372.769C155.383 372.705 155.787 372.717 156.175 372.802C156.562 372.887 156.925 373.044 157.24 373.263C157.466 373.414 157.692 373.073 157.466 372.922C157.101 372.675 156.682 372.499 156.236 372.405C155.79 372.312 155.327 372.303 154.876 372.38C154.426 372.457 153.999 372.617 153.624 372.851C153.248 373.084 152.932 373.386 152.697 373.735C152.528 373.936 152.912 374.137 153.081 373.936Z" fill="white"/>
<path d="M155.59 374.609C155.796 374.306 156.072 374.045 156.4 373.844C156.728 373.643 157.101 373.506 157.493 373.442C157.885 373.379 158.288 373.39 158.674 373.475C159.061 373.56 159.423 373.717 159.737 373.936C159.974 374.087 160.2 373.745 159.963 373.595C159.599 373.349 159.18 373.173 158.735 373.08C158.289 372.987 157.827 372.977 157.377 373.053C156.928 373.129 156.501 373.288 156.125 373.52C155.749 373.751 155.432 374.051 155.194 374.398C155.025 374.609 155.42 374.81 155.59 374.609Z" fill="white"/>
<path d="M158.178 375.272C158.385 374.969 158.662 374.71 158.99 374.509C159.319 374.309 159.691 374.173 160.083 374.111C160.475 374.048 160.878 374.06 161.264 374.146C161.651 374.232 162.012 374.39 162.325 374.609C162.562 374.76 162.777 374.418 162.551 374.258C162.185 374.013 161.766 373.84 161.321 373.748C160.875 373.656 160.413 373.649 159.964 373.725C159.514 373.802 159.088 373.961 158.713 374.193C158.337 374.425 158.02 374.724 157.782 375.071C157.613 375.282 158.008 375.483 158.178 375.272Z" fill="white"/>
<path opacity="0.2" d="M169.861 280.621L160.821 299.589C160.821 299.589 158.166 300.051 153.906 300.663C159.239 293.745 169.421 281.133 169.861 280.621Z" fill="black"/>
<path d="M106.321 209.948C106.321 209.948 102.072 242.081 104.434 246.52C106.796 250.958 153.917 253.739 153.917 253.739L156.177 256.079C156.177 256.079 106.875 268.37 89.2696 256.159C78.8849 248.97 81.0319 206.444 81.0319 206.444L106.321 209.948Z" fill="#FF8B7B"/>
<path d="M87.3148 188.008C81.3823 195.649 78.9076 208.723 77.8115 220.944L109.847 219.367C109.847 219.367 113.373 206.715 112.107 195.76C111.339 188.841 107.485 185.567 103.157 184.121C96.287 181.792 91.5297 182.615 87.3148 188.008Z" fill="#407BFF"/>
<path d="M125.271 263.028H205.829L208.123 256.169H127.565L125.271 263.028Z" fill="#407BFF"/>
<g opacity="0.5">
<path d="M125.271 263.028H205.829L208.123 256.169H127.565L125.271 263.028Z" fill="white"/>
</g>
<path d="M155.703 259.483H200.733C201.505 259.488 202.257 259.265 202.871 258.849C203.485 258.432 203.925 257.847 204.123 257.183L213.163 226.948C213.3 226.488 213.316 226.006 213.21 225.539C213.103 225.073 212.878 224.634 212.55 224.257C212.222 223.88 211.801 223.576 211.32 223.367C210.838 223.158 210.309 223.05 209.773 223.052H164.087C163.082 223.048 162.104 223.343 161.308 223.888C160.512 224.434 159.943 225.2 159.692 226.065L151.262 254.412C151.077 255.014 151.053 255.645 151.191 256.256C151.329 256.867 151.625 257.442 152.056 257.934C152.487 258.426 153.041 258.822 153.674 259.091C154.306 259.36 155.001 259.494 155.703 259.483Z" fill="#407BFF"/>
<g opacity="0.5">
<path d="M155.703 259.483H200.733C201.505 259.488 202.257 259.265 202.871 258.849C203.485 258.432 203.925 257.847 204.123 257.183L213.163 226.948C213.3 226.488 213.316 226.006 213.21 225.539C213.103 225.073 212.878 224.634 212.55 224.257C212.222 223.88 211.801 223.576 211.32 223.367C210.838 223.158 210.309 223.05 209.773 223.052H164.087C163.082 223.048 162.104 223.343 161.308 223.888C160.512 224.434 159.943 225.2 159.692 226.065L151.262 254.412C151.077 255.014 151.053 255.645 151.191 256.256C151.329 256.867 151.625 257.442 152.056 257.934C152.487 258.426 153.041 258.822 153.674 259.091C154.306 259.36 155.001 259.494 155.703 259.483Z" fill="white"/>
</g>
<path d="M159.409 259.483H204.439C205.212 259.488 205.964 259.265 206.577 258.849C207.191 258.432 207.631 257.847 207.829 257.183L216.869 226.948C217.006 226.488 217.022 226.006 216.916 225.539C216.81 225.073 216.584 224.634 216.256 224.257C215.928 223.88 215.507 223.576 215.026 223.367C214.544 223.158 214.015 223.05 213.479 223.052H167.839C166.833 223.048 165.855 223.343 165.059 223.888C164.263 224.434 163.694 225.2 163.443 226.065L155.047 254.412C154.865 255.008 154.839 255.633 154.973 256.239C155.107 256.845 155.396 257.415 155.818 257.906C156.239 258.396 156.783 258.794 157.406 259.067C158.029 259.341 158.714 259.483 159.409 259.483Z" fill="#407BFF"/>
<g opacity="0.8">
<path d="M159.409 259.483H204.439C205.212 259.488 205.964 259.265 206.577 258.849C207.191 258.432 207.631 257.847 207.829 257.183L216.869 226.948C217.006 226.488 217.022 226.006 216.916 225.539C216.81 225.073 216.584 224.634 216.256 224.257C215.928 223.88 215.507 223.576 215.026 223.367C214.544 223.158 214.015 223.05 213.479 223.052H167.839C166.833 223.048 165.855 223.343 165.059 223.888C164.263 224.434 163.694 225.2 163.443 226.065L155.047 254.412C154.865 255.008 154.839 255.633 154.973 256.239C155.107 256.845 155.396 257.415 155.818 257.906C156.239 258.396 156.783 258.794 157.406 259.067C158.029 259.341 158.714 259.483 159.409 259.483Z" fill="white"/>
</g>
<path d="M182.054 241.599C181.906 242.13 181.896 242.685 182.026 243.22C182.156 243.754 182.422 244.256 182.804 244.685C183.186 245.115 183.673 245.461 184.228 245.697C184.784 245.933 185.393 246.053 186.009 246.048C187.376 245.977 188.676 245.5 189.701 244.693C190.726 243.886 191.415 242.796 191.659 241.599C191.807 241.067 191.816 240.513 191.686 239.977C191.556 239.442 191.291 238.94 190.909 238.51C190.527 238.08 190.04 237.733 189.485 237.496C188.929 237.258 188.32 237.137 187.704 237.141C186.336 237.214 185.036 237.693 184.011 238.501C182.986 239.31 182.297 240.401 182.054 241.599Z" fill="#407BFF"/>
<g opacity="0.5">
<path d="M182.054 241.599C181.906 242.13 181.896 242.685 182.026 243.22C182.156 243.754 182.422 244.256 182.804 244.685C183.186 245.115 183.673 245.461 184.228 245.697C184.784 245.933 185.393 246.053 186.009 246.048C187.376 245.977 188.676 245.5 189.701 244.693C190.726 243.886 191.415 242.796 191.659 241.599C191.807 241.067 191.816 240.513 191.686 239.977C191.556 239.442 191.291 238.94 190.909 238.51C190.527 238.08 190.04 237.733 189.485 237.496C188.929 237.258 188.32 237.137 187.704 237.141C186.336 237.214 185.036 237.693 184.011 238.501C182.986 239.31 182.297 240.401 182.054 241.599Z" fill="white"/>
</g>
<path d="M154.663 149.087C154.223 150.191 152.403 150.442 152.403 150.442C152.403 150.442 154.121 152.36 153.262 153.003C152.403 153.645 150.539 153.003 150.539 153.003C150.748 153.299 150.886 153.63 150.942 153.976C150.999 154.322 150.973 154.675 150.866 155.011C150.471 156.126 149.962 155.704 149.962 155.704L122.436 151.778C122.922 149.874 122.922 147.897 122.436 145.994C121.566 143.353 120.379 139.738 121.814 139.095C123.249 138.453 123.939 139.095 123.939 139.095C123.939 139.095 123.826 136.384 125.306 136.163C125.695 136.092 126.096 136.093 126.485 136.166C126.874 136.238 127.242 136.381 127.566 136.585C127.566 136.585 127.747 134.677 129.091 134.506C129.479 134.474 129.867 134.562 130.188 134.757C130.51 134.951 130.746 135.239 130.854 135.571C130.854 135.571 132.402 133.693 133.928 133.663C135.453 133.633 135.657 135.179 135.657 135.179C135.657 135.179 138.097 133.412 139.227 134.105C139.939 134.622 140.485 135.298 140.809 136.063C140.809 136.063 143.182 133.894 144.199 135.059C144.839 135.85 145.194 136.795 145.216 137.77C145.216 137.77 148.279 135.761 149.092 137.017C149.574 137.884 149.728 138.867 149.533 139.818C149.533 139.818 152.155 138.543 152.923 140.16C153.129 140.662 153.186 141.204 153.087 141.732C152.988 142.26 152.737 142.756 152.358 143.172C152.358 143.172 154.799 143.433 154.708 144.708C154.618 145.984 152.448 147.108 152.448 147.108C152.448 147.108 155.047 147.972 154.663 149.087Z" fill="#263238"/>
<path d="M134.221 173.276V173.357L132.3 177.052C132.045 177.815 131.875 178.599 131.792 179.392C131.717 180.032 131.698 180.677 131.735 181.32C132.47 182.645 132.391 185.336 128.978 184.844C124.673 184.192 117.881 177.353 117.938 175.616C120.966 170.706 123.859 164.852 124.526 159.811L128.503 165.304L134.221 173.276Z" fill="#FF8B7B"/>
<g opacity="0.2">
<path d="M134.165 173.367L132.244 177.062C129.758 175.546 127.418 172.744 127.272 170.093C127.192 168.185 128.469 166.619 129.317 166.649L134.165 173.367Z" fill="black"/>
</g>
<path d="M125.43 150.362C125.934 148.51 126.959 146.803 128.409 145.4C129.86 143.997 131.688 142.945 133.722 142.343C135.756 141.74 137.928 141.607 140.036 141.956C142.143 142.305 144.116 143.124 145.77 144.337C153.318 149.86 150.437 160.946 145.295 169.37C140.775 176.791 129.068 175.024 124.492 167.091C121.452 161.829 123.158 158.415 125.373 150.412" fill="#FF8B7B"/>
<path d="M141.487 166.76C141.487 166.76 137.317 165.755 135.385 163.275C135.385 163.275 135.204 166.207 137.069 167.854C138.933 169.501 141.487 166.76 141.487 166.76Z" fill="white"/>
<path d="M125.182 151.105C125.182 151.105 127.905 151.647 127.611 153.756C127.317 155.865 127.012 156.106 127.012 156.106L130.142 157.22C130.142 157.22 130.809 149.097 133.159 149.559C135.51 150.02 133.645 146.044 135.171 145.743C138.764 145.04 147.929 146.385 150.494 151.828C150.494 151.828 150.494 146.807 146.686 143.584C142.877 140.36 134.256 138.402 129.95 141.666C125.645 144.929 125.182 151.105 125.182 151.105Z" fill="#263238"/>
<path d="M119.791 154.549C119.756 156.621 120.646 158.621 122.266 160.112C124.424 162.12 127.046 160.684 127.735 158.104C128.345 155.834 127.972 152.079 125.181 151.075C122.39 150.071 119.87 151.978 119.791 154.519" fill="#FF8B7B"/>
<path d="M137.352 157.953C137.126 158.596 137.352 159.219 137.792 159.349C138.233 159.48 138.821 159.068 139.047 158.435C139.273 157.803 139.047 157.17 138.606 157.04C138.165 156.909 137.566 157.321 137.352 157.953Z" fill="#263238"/>
<path d="M145.261 160.062C145.035 160.705 145.261 161.327 145.702 161.458C146.143 161.588 146.742 161.177 146.968 160.534C147.194 159.891 146.968 159.269 146.516 159.138C146.064 159.008 145.487 159.419 145.261 160.062Z" fill="black"/>
<path d="M149.013 157.983C148.952 157.962 148.898 157.928 148.855 157.884C148.812 157.84 148.781 157.788 148.765 157.732C148.726 157.504 148.636 157.285 148.5 157.088C148.364 156.892 148.185 156.721 147.974 156.587C147.517 156.371 146.99 156.3 146.482 156.387C146.386 156.405 146.286 156.391 146.202 156.346C146.118 156.301 146.056 156.229 146.03 156.146C146.018 156.104 146.016 156.061 146.023 156.019C146.031 155.976 146.047 155.936 146.073 155.899C146.098 155.863 146.131 155.831 146.17 155.806C146.21 155.781 146.254 155.763 146.301 155.754C147.006 155.623 147.74 155.723 148.369 156.035C148.669 156.213 148.924 156.444 149.119 156.713C149.313 156.983 149.443 157.285 149.499 157.602C149.511 157.643 149.512 157.687 149.504 157.729C149.496 157.771 149.478 157.811 149.452 157.847C149.425 157.883 149.39 157.914 149.35 157.937C149.31 157.96 149.264 157.976 149.216 157.983C149.15 158 149.08 158 149.013 157.983Z" fill="#263238"/>
<path d="M136.685 154.79C136.625 154.775 136.57 154.746 136.527 154.706C136.483 154.666 136.452 154.617 136.436 154.564C136.42 154.51 136.42 154.454 136.436 154.4C136.452 154.347 136.483 154.298 136.526 154.258C137.034 153.807 137.709 153.536 138.425 153.495C138.783 153.499 139.137 153.57 139.463 153.701C139.79 153.832 140.083 154.022 140.323 154.258C140.368 154.286 140.404 154.322 140.431 154.364C140.458 154.406 140.475 154.452 140.479 154.5C140.484 154.549 140.477 154.597 140.458 154.642C140.439 154.688 140.41 154.729 140.371 154.763C140.333 154.797 140.287 154.823 140.236 154.84C140.185 154.856 140.13 154.863 140.076 154.859C140.022 154.855 139.97 154.84 139.923 154.816C139.875 154.792 139.835 154.759 139.803 154.72C139.632 154.549 139.423 154.41 139.19 154.312C138.958 154.214 138.705 154.158 138.447 154.148C137.923 154.181 137.43 154.38 137.057 154.71C137.01 154.753 136.95 154.783 136.884 154.798C136.818 154.812 136.749 154.809 136.685 154.79Z" fill="#263238"/>
<path d="M142.753 158.285C142.678 159.693 143.071 161.09 143.883 162.301C145.205 164.159 141.227 164.36 141.227 164.36L142.753 158.285Z" fill="#BA4D3C"/>
</svg>
