<svg width="435" height="324" viewBox="0 0 435 324" fill="none" xmlns="http://www.w3.org/2000/svg">
<path d="M435 284.468H0.952148V284.685H435V284.468Z" fill="#EBEBEB"/>
<path d="M391.508 298.435H362.757V298.652H391.508V298.435Z" fill="#EBEBEB"/>
<path d="M288.483 300.797H280.939V301.014H288.483V300.797Z" fill="#EBEBEB"/>
<path d="M361.889 290.38H345.23V290.597H361.889V290.38Z" fill="#EBEBEB"/>
<path d="M83.9852 291.838H46.4922V292.055H83.9852V291.838Z" fill="#EBEBEB"/>
<path d="M97.2153 291.838H91.7202V292.055H97.2153V291.838Z" fill="#EBEBEB"/>
<path d="M196.404 295.501H115.081V295.718H196.404V295.501Z" fill="#EBEBEB"/>
<path d="M206.691 245.751H39.0702C37.7571 245.748 36.4985 245.225 35.5708 244.296C34.6431 243.366 34.1221 242.107 34.1221 240.794V5.16672C34.1335 3.86112 34.6596 2.61276 35.5861 1.69279C36.5125 0.772815 37.7646 0.255532 39.0702 0.253296H206.691C208.005 0.253296 209.266 0.775532 210.196 1.70512C211.125 2.6347 211.648 3.89549 211.648 5.21012V240.794C211.648 242.108 211.125 243.369 210.196 244.299C209.266 245.228 208.005 245.751 206.691 245.751ZM39.0702 0.426916C37.8146 0.429215 36.6113 0.929599 35.7243 1.81823C34.8373 2.70687 34.3391 3.91115 34.3391 5.16672V240.794C34.3391 242.049 34.8373 243.254 35.7243 244.142C36.6113 245.031 37.8146 245.531 39.0702 245.534H206.691C207.947 245.531 209.151 245.031 210.04 244.143C210.928 243.254 211.428 242.05 211.431 240.794V5.16672C211.428 3.91035 210.928 2.70609 210.04 1.8177C209.151 0.929317 207.947 0.42921 206.691 0.426916H39.0702Z" fill="#EBEBEB"/>
<path d="M394.468 245.751H226.839C225.525 245.748 224.266 245.225 223.337 244.296C222.408 243.367 221.885 242.108 221.882 240.794V5.16672C221.896 3.86033 222.424 2.61198 223.352 1.69224C224.28 0.772511 225.533 0.255508 226.839 0.253296H394.468C395.773 0.257814 397.022 0.776106 397.947 1.69583C398.872 2.61556 399.396 3.86262 399.408 5.16672V240.794C399.408 242.105 398.888 243.364 397.962 244.293C397.036 245.222 395.78 245.746 394.468 245.751ZM226.839 0.426916C225.583 0.42921 224.379 0.929317 223.49 1.8177C222.602 2.70609 222.102 3.91035 222.099 5.16672V240.794C222.102 242.05 222.602 243.254 223.49 244.143C224.379 245.031 225.583 245.531 226.839 245.534H394.468C395.725 245.531 396.929 245.031 397.817 244.143C398.706 243.254 399.206 242.05 399.208 240.794V5.16672C399.206 3.91035 398.706 2.70609 397.817 1.8177C396.929 0.929317 395.725 0.42921 394.468 0.426916H226.839Z" fill="#EBEBEB"/>
<path d="M336.154 190.883C349.006 178.031 349.006 157.194 336.154 144.342C323.302 131.49 302.465 131.49 289.613 144.342C276.761 157.194 276.761 178.031 289.613 190.883C302.465 203.735 323.302 203.735 336.154 190.883Z" fill="#F0F0F0"/>
<path d="M62.3265 109.633H152.444C152.444 109.633 151.141 102.498 134.465 102.906C137.773 92.4884 128.441 81.1163 107.389 80.6823C86.3381 80.2482 93.7342 97.1761 93.7342 97.1761C93.7342 97.1761 58.3507 91.0994 69.0543 103.704C51.5188 104.373 48.055 106.612 62.3265 109.633Z" fill="#F0F0F0"/>
<path d="M296.252 154.262C298.301 144.01 280.783 132.777 248.507 132.343C216.231 131.909 232.421 148.637 232.421 148.637C232.421 148.637 176.681 142.56 196.656 155.069C170.074 155.668 165.404 157.882 188.087 160.903H325.62C325.62 160.903 321.574 153.906 296.252 154.262Z" fill="#FAFAFA"/>
<path d="M278.369 77.453H371.742C371.742 77.453 392.576 65.4906 367.879 63.9454C372.124 53.7193 361.698 36.3747 325.247 35.9754C288.795 35.5761 307.694 59.5095 307.694 59.5095C307.694 59.5095 252.136 43.4931 271.624 68.963C263.117 68.963 232.846 77.453 278.369 77.453Z" fill="#F5F5F5"/>
<path d="M82.8224 201.33H124.777C124.777 201.33 134.144 195.957 123.041 195.254C124.951 190.661 120.263 182.866 103.882 182.684C87.5015 182.501 96.0001 193.257 96.0001 193.257C96.0001 193.257 71.0337 186.069 79.7841 197.511C75.9732 197.519 62.3614 201.33 82.8224 201.33Z" fill="#F5F5F5"/>
<path d="M80.9296 37.512C80.9296 37.512 69.0888 29.9249 60.8506 40.7153C67.613 34.0136 80.4695 40.7674 80.4695 40.7674C80.4695 40.7674 95.2272 34.083 100.089 40.7674C94.8539 29.9943 80.9296 37.512 80.9296 37.512Z" fill="#F0F0F0"/>
<path d="M144.405 137.412C144.405 137.412 137.286 132.846 132.321 139.34C136.401 135.303 144.136 139.34 144.136 139.34C144.136 139.34 152.99 135.312 155.95 139.34C152.79 132.916 144.405 137.412 144.405 137.412Z" fill="#F0F0F0"/>
<path d="M274.203 31.6263C274.203 31.6263 270.643 29.3432 268.126 32.5899C270.166 30.5672 274.038 32.5899 274.038 32.5899C274.038 32.5899 278.465 30.5846 279.941 32.5899C278.396 29.3606 274.203 31.6263 274.203 31.6263Z" fill="#F5F5F5"/>
<path d="M361.272 109.564C361.272 109.564 357.705 107.281 355.196 110.527C357.227 108.514 361.099 110.527 361.099 110.527C361.099 110.527 365.526 108.514 367.002 110.527C365.457 107.298 361.272 109.564 361.272 109.564Z" fill="#F5F5F5"/>
<path d="M217.976 323.671C310.934 323.671 386.291 319.271 386.291 313.844C386.291 308.417 310.934 304.017 217.976 304.017C125.018 304.017 49.6611 308.417 49.6611 313.844C49.6611 319.271 125.018 323.671 217.976 323.671Z" fill="#F5F5F5"/>
<path d="M160.994 262.218C163.955 279.355 150.135 287.793 136.688 283.539C127.529 280.631 118.458 282.862 112.312 285.796C112.069 285.904 111.797 285.928 111.54 285.863C111.282 285.797 111.054 285.647 110.893 285.437C110.731 285.226 110.645 284.967 110.649 284.701C110.653 284.436 110.746 284.179 110.914 283.973C111.948 282.733 113.053 281.554 114.221 280.44C114.413 280.259 114.538 280.018 114.575 279.756C114.611 279.495 114.558 279.229 114.424 279.002C114.29 278.775 114.082 278.6 113.836 278.507C113.589 278.413 113.318 278.406 113.067 278.487C107.719 280.119 99.8371 281.646 92.2326 279.858C92.0039 279.806 91.7964 279.685 91.6367 279.513C91.4771 279.342 91.3728 279.126 91.3373 278.894C91.3017 278.662 91.3366 278.425 91.4374 278.213C91.5382 278.001 91.7003 277.824 91.9027 277.705C99.4985 273.209 111.088 261.394 121.948 257.557C122.213 257.462 122.436 257.275 122.575 257.03C122.715 256.784 122.76 256.497 122.704 256.22C122.648 255.943 122.494 255.696 122.271 255.524C122.047 255.352 121.769 255.266 121.487 255.282C119.774 255.38 118.069 255.589 116.383 255.907C116.109 255.976 115.819 255.943 115.567 255.814C115.315 255.686 115.118 255.471 115.012 255.209C114.907 254.946 114.899 254.655 114.992 254.388C115.084 254.12 115.27 253.896 115.515 253.755C130.741 244.301 157.21 240.334 160.994 262.218Z" fill="#407BFF"/>
<path opacity="0.7" d="M160.994 262.218C163.955 279.355 150.135 287.793 136.688 283.539C127.529 280.631 118.458 282.862 112.312 285.796C112.069 285.904 111.797 285.928 111.54 285.863C111.282 285.797 111.054 285.647 110.893 285.437C110.731 285.226 110.645 284.967 110.649 284.701C110.653 284.436 110.746 284.179 110.914 283.973C111.948 282.733 113.053 281.554 114.221 280.44C114.413 280.259 114.538 280.018 114.575 279.756C114.611 279.495 114.558 279.229 114.424 279.002C114.29 278.775 114.082 278.6 113.836 278.507C113.589 278.413 113.318 278.406 113.067 278.487C107.719 280.119 99.8371 281.646 92.2326 279.858C92.0039 279.806 91.7964 279.685 91.6367 279.513C91.4771 279.342 91.3728 279.126 91.3373 278.894C91.3017 278.662 91.3366 278.425 91.4374 278.213C91.5382 278.001 91.7003 277.824 91.9027 277.705C99.4985 273.209 111.088 261.394 121.948 257.557C122.213 257.462 122.436 257.275 122.575 257.03C122.715 256.784 122.76 256.497 122.704 256.22C122.648 255.943 122.494 255.696 122.271 255.524C122.047 255.352 121.769 255.266 121.487 255.282C119.774 255.38 118.069 255.589 116.383 255.907C116.109 255.976 115.819 255.943 115.567 255.814C115.315 255.686 115.118 255.471 115.012 255.209C114.907 254.946 114.899 254.655 114.992 254.388C115.084 254.12 115.27 253.896 115.515 253.755C130.741 244.301 157.21 240.334 160.994 262.218Z" fill="white"/>
<path d="M142.313 287.228L136.497 242.452C136.467 242.211 136.491 241.967 136.566 241.737C136.641 241.506 136.766 241.295 136.931 241.118C137.097 240.941 137.299 240.802 137.524 240.711C137.749 240.621 137.991 240.581 138.233 240.594L166.446 242.608C166.826 242.635 167.184 242.792 167.461 243.053C167.738 243.315 167.916 243.663 167.965 244.041L172.306 277.714C172.345 278.087 172.257 278.462 172.055 278.777C171.853 279.093 171.549 279.33 171.195 279.45L144.431 288.591C144.202 288.661 143.96 288.681 143.723 288.648C143.485 288.615 143.258 288.531 143.056 288.401C142.854 288.271 142.683 288.099 142.555 287.897C142.427 287.694 142.344 287.466 142.313 287.228Z" fill="black"/>
<path d="M136.697 278.825L133.224 251.966C133.195 251.736 133.214 251.503 133.281 251.281C133.348 251.059 133.461 250.854 133.613 250.679C133.764 250.504 133.951 250.362 134.161 250.264C134.37 250.166 134.599 250.113 134.83 250.109L167.227 249.501C167.634 249.493 168.029 249.636 168.337 249.902C168.644 250.168 168.843 250.539 168.894 250.942L171.499 270.726C171.549 271.129 171.449 271.536 171.218 271.871C170.988 272.205 170.643 272.443 170.248 272.54L138.771 280.214C138.543 280.275 138.304 280.287 138.071 280.249C137.837 280.21 137.615 280.122 137.419 279.991C137.222 279.859 137.056 279.687 136.931 279.486C136.807 279.285 136.727 279.06 136.697 278.825Z" fill="#263238"/>
<path d="M277.949 274.016L261.023 276.803L261.167 277.677L278.092 274.89L277.949 274.016Z" fill="#407BFF"/>
<path d="M256.621 277.531L251.645 278.351L251.788 279.224L256.765 278.405L256.621 277.531Z" fill="#407BFF"/>
<path d="M328.077 240.36C328.077 240.36 304.734 218.493 271.295 222.824L165.969 232.781C164.037 232.963 162.163 233.532 160.456 234.455C158.75 235.377 157.246 236.633 156.036 238.149C154.826 239.665 153.933 241.409 153.411 243.277C152.89 245.146 152.749 247.1 152.999 249.023L156.576 276.629C156.825 278.553 157.459 280.407 158.44 282.08C159.421 283.754 160.729 285.212 162.286 286.369C163.844 287.526 165.618 288.358 167.503 288.814C169.389 289.27 171.347 289.342 173.261 289.025L277.649 271.794C311.079 267.462 328.077 240.36 328.077 240.36Z" fill="#407BFF"/>
<path opacity="0.3" d="M328.077 240.36C322.968 247.753 316.576 254.171 309.204 259.31C308.321 259.929 307.292 260.308 306.218 260.413C305.145 260.517 304.062 260.343 303.076 259.906C302.089 259.47 301.232 258.786 300.587 257.921C299.943 257.056 299.532 256.04 299.395 254.97L296.617 233.485C296.479 232.415 296.619 231.328 297.025 230.328C297.43 229.329 298.087 228.451 298.932 227.781C299.776 227.11 300.78 226.669 301.845 226.5C302.91 226.331 304.001 226.441 305.012 226.818C313.45 229.912 321.263 234.499 328.077 240.36Z" fill="white"/>
<path d="M272.262 250.731C272.705 240.835 265.042 232.455 255.147 232.013C245.251 231.57 236.871 239.233 236.429 249.128C235.986 259.024 243.649 267.404 253.544 267.846C263.44 268.289 271.82 260.626 272.262 250.731Z" fill="white"/>
<path opacity="0.3" d="M266.416 250.89C266.188 253.656 265.02 256.262 263.106 258.272C261.192 260.283 258.647 261.577 255.895 261.941C255.721 261.941 255.539 261.984 255.356 261.993C254.589 262.067 253.815 262.067 253.047 261.993C252.778 261.993 252.5 261.932 252.24 261.889L251.658 261.776C249.241 261.221 247.051 259.94 245.383 258.104C243.715 256.268 242.648 253.966 242.326 251.506C242.256 250.93 242.224 250.35 242.231 249.77C242.385 246.778 243.638 243.949 245.749 241.825C247.861 239.701 250.683 238.431 253.674 238.26C256.665 238.089 259.613 239.028 261.953 240.898C264.294 242.767 265.861 245.435 266.355 248.39C266.465 249.219 266.485 250.057 266.416 250.89Z" fill="#407BFF"/>
<path opacity="0.3" d="M266.416 250.89C266.188 253.656 265.02 256.262 263.106 258.272C261.192 260.283 258.647 261.577 255.895 261.941C255.721 261.941 255.539 261.984 255.356 261.993C254.588 262.062 253.815 262.062 253.047 261.993C252.778 261.993 252.5 261.932 252.24 261.889L251.658 261.776C249.241 261.221 247.051 259.939 245.383 258.104C243.715 256.268 242.648 253.966 242.326 251.506C242.256 250.93 242.224 250.35 242.231 249.77C242.509 247.101 243.705 244.611 245.614 242.726C247.523 240.84 250.028 239.676 252.7 239.431C259.341 238.641 265.426 243.042 266.312 249.258C266.385 249.799 266.42 250.344 266.416 250.89Z" fill="#407BFF"/>
<path d="M229.148 222.816L234.574 222.277L235.337 209.881L229.912 210.419L229.148 222.816Z" fill="#CF7A64"/>
<path d="M198.001 226.036L203.34 225.507L204.477 212.893L199.138 213.423L198.001 226.036Z" fill="#CF7A64"/>
<path d="M203.643 224.309L197.636 224.908C197.532 224.919 197.434 224.966 197.36 225.04C197.286 225.114 197.239 225.211 197.228 225.316L196.768 230.16C196.759 230.276 196.775 230.393 196.816 230.502C196.856 230.612 196.92 230.711 197.002 230.794C197.085 230.876 197.184 230.94 197.293 230.98C197.403 231.021 197.52 231.037 197.636 231.028C199.728 230.785 200.727 230.559 203.366 230.299C204.989 230.134 207.168 229.986 209.442 229.76C211.717 229.535 211.708 227.295 210.762 227.156C206.534 226.67 206.013 225.559 204.546 224.508C204.279 224.336 203.959 224.265 203.643 224.309Z" fill="#263238"/>
<path d="M234.73 221.158L228.896 221.748C228.791 221.756 228.692 221.801 228.617 221.876C228.542 221.951 228.496 222.05 228.488 222.156L228.028 227C228.018 227.116 228.033 227.234 228.073 227.344C228.112 227.454 228.176 227.554 228.259 227.637C228.342 227.72 228.442 227.784 228.552 227.824C228.662 227.863 228.78 227.879 228.896 227.868C230.997 227.625 234.018 227.191 236.666 226.93C239.765 226.618 239.782 226.783 243.411 226.418C245.598 226.192 245.928 223.918 244.991 223.814C240.694 223.319 239.947 223.302 236.049 221.444C235.642 221.234 235.187 221.135 234.73 221.158Z" fill="#263238"/>
<path d="M213.922 48.8145C215.276 48.9361 216.804 49.0836 218.262 49.1531C219.721 49.2225 221.179 49.2746 222.603 49.2746C223.975 49.2713 225.346 49.1902 226.709 49.0316C227.791 48.9193 228.85 48.6472 229.851 48.2242L228.254 50.6723C228.254 50.9587 228.315 50.9587 228.254 50.7851C228.181 50.5189 228.076 50.2625 227.942 50.0212C227.535 49.2807 227.055 48.5827 226.509 47.9378C225.259 46.4403 223.917 45.0225 222.49 43.6928C221.032 42.2951 219.495 40.9409 217.941 39.5954C216.387 38.2498 214.773 36.9129 213.21 35.6195L215.293 32.3728C217.229 33.3624 219.052 34.4389 220.893 35.5587C222.733 36.6786 224.504 37.8939 226.257 39.196C228.068 40.5127 229.777 41.9637 231.371 43.5365C232.255 44.4297 233.054 45.4033 233.758 46.4446C234.19 47.0866 234.546 47.7771 234.817 48.502C235.21 49.5181 235.347 50.6151 235.216 51.6966L235.025 53.2245L233.602 54.1707C231.887 55.2616 229.976 56.0076 227.976 56.367C226.26 56.7188 224.518 56.9336 222.768 57.0094C221.084 57.1048 219.426 57.0875 217.785 57.0094C216.144 56.9312 214.556 56.8097 212.819 56.5493L213.922 48.8145Z" fill="#CE7A63"/>
<path d="M217.108 34.109L213.913 30.1071L211.517 35.8452C211.517 35.8452 214.417 39.2568 217.49 37.5814L217.108 34.109Z" fill="#CF7A64"/>
<path d="M209.677 28.0062L209.139 34.5169L211.517 35.8017L213.905 30.0897L209.677 28.0062Z" fill="#CF7A64"/>
<path d="M205.762 28.8396L210.623 26.8256C210.702 26.7846 210.788 26.7611 210.877 26.7566C210.966 26.7522 211.054 26.767 211.137 26.7999C211.219 26.8329 211.293 26.8833 211.355 26.9477C211.416 27.012 211.462 27.0889 211.491 27.1729L214.625 37.1647C214.662 37.3404 214.637 37.5237 214.553 37.6825C214.469 37.8412 214.331 37.9653 214.165 38.0328L209.303 40.0467C209.225 40.0878 209.138 40.1113 209.049 40.1158C208.961 40.1202 208.872 40.1054 208.79 40.0724C208.707 40.0395 208.633 39.9891 208.572 39.9247C208.511 39.8603 208.464 39.7835 208.435 39.6995L205.301 29.7685C205.247 29.5842 205.265 29.3862 205.35 29.2141C205.435 29.0419 205.582 28.9082 205.762 28.8396Z" fill="#263238"/>
<path d="M208.626 58.3462C212.16 62.6172 226.639 58.6153 226.639 58.6153L225.415 48.8665C225.415 48.8665 221.761 47.7728 214.512 47.547C207.081 47.2779 204.755 53.6671 208.626 58.3462Z" fill="#407BFF"/>
<path opacity="0.2" d="M235.338 209.89L234.938 216.279L229.521 216.817L229.912 210.428L235.338 209.89Z" fill="black"/>
<path opacity="0.2" d="M199.129 213.431L204.477 212.893L203.887 219.395L198.548 219.933L199.129 213.431Z" fill="black"/>
<path d="M219.755 50.2295C221.856 55.6811 227.013 71.9319 225.216 96.4642L196.638 99.3376C195.891 94.9971 195.77 71.1332 188.929 50.9326C192.019 50.0108 195.165 49.2888 198.348 48.7711C202.372 48.1288 206.43 47.7201 210.501 47.547C212.581 47.5441 214.66 47.663 216.726 47.903C217.395 47.9764 218.032 48.2322 218.566 48.6424C219.1 49.0527 219.511 49.6016 219.755 50.2295Z" fill="#407BFF"/>
<path opacity="0.2" d="M208.774 54.6829L207.654 54.8305C207.767 64.3795 207.906 66.9838 199.286 75.9078C197.729 77.4918 196.317 79.2116 195.067 81.0469C195.18 82.1755 195.293 83.2693 195.397 84.3283C197.628 82.2883 200.605 79.6146 202.828 77.7569C212.854 69.3884 209.061 54.5613 208.774 54.6829Z" fill="black"/>
<path opacity="0.2" d="M195.778 55.4034C196.646 58.7456 196.646 66.9751 194.563 76.6804C193.602 68.639 191.937 60.6974 189.589 52.9467C191.438 52.5213 194.928 52.2696 195.778 55.4034Z" fill="black"/>
<path d="M198.513 37.2776C199.772 41.0972 200.761 45.8891 198.348 48.7712C198.348 48.7712 200.414 52.5647 207.68 51.8355C214.312 51.1671 210.501 47.5472 210.501 47.5472C206.005 46.9482 205.562 41.5486 205.944 38.4408L198.513 37.2776Z" fill="#CF7A64"/>
<path d="M207.993 51.4709L209.729 53.0508C209.789 53.1058 209.835 53.1754 209.86 53.2529C209.886 53.3304 209.892 53.4133 209.876 53.4935L209.52 55.0822C209.503 55.1697 209.458 55.2495 209.393 55.3103C209.327 55.3711 209.245 55.4097 209.156 55.4207L207.463 55.6725C207.385 55.6845 207.305 55.6765 207.23 55.6491C207.156 55.6218 207.09 55.5761 207.038 55.5162L205.874 54.1272C205.812 54.0465 205.778 53.9473 205.778 53.8451C205.778 53.743 205.812 53.6437 205.874 53.563L207.324 51.5316C207.363 51.4821 207.411 51.4409 207.467 51.4108C207.522 51.3807 207.583 51.3622 207.645 51.3565C207.708 51.3508 207.771 51.358 207.831 51.3777C207.891 51.3974 207.946 51.4291 207.993 51.4709Z" fill="#263238"/>
<path d="M207.454 51.4189C206.726 53.3147 205.767 55.1136 204.598 56.775C204.598 56.775 197.541 53.5631 197.115 48.9622C197.108 48.8783 197.121 48.7938 197.154 48.7164C197.188 48.6391 197.24 48.5714 197.306 48.5194C197.576 48.3111 198.062 47.9291 198.522 47.5472C198.575 47.4984 198.639 47.4622 198.708 47.4412C198.777 47.4202 198.85 47.4149 198.922 47.4257C198.993 47.4366 199.062 47.4632 199.122 47.5037C199.181 47.5443 199.232 47.5977 199.268 47.66C199.833 48.6583 201.656 50.6029 207.454 51.4189Z" fill="white"/>
<path d="M207.706 51.3668C209.181 52.4802 210.413 53.8834 211.326 55.4902C212 54.3147 212.406 53.0046 212.514 51.6538C212.622 50.303 212.43 48.9451 211.951 47.6774C211.92 47.6025 211.873 47.5356 211.813 47.4815C211.753 47.4274 211.681 47.3875 211.604 47.3648C211.3 47.2867 210.736 47.1478 210.154 47.035C210.077 47.0223 209.998 47.0278 209.924 47.0508C209.849 47.0738 209.781 47.1139 209.725 47.1677C209.668 47.2216 209.625 47.2878 209.599 47.3612C209.572 47.4346 209.563 47.5131 209.572 47.5906C209.718 48.3375 209.614 49.1117 209.277 49.794C208.94 50.4763 208.388 51.0289 207.706 51.3668Z" fill="white"/>
<path d="M208.722 54.622C209 54.5005 211.812 67.7824 202.107 75.847C198.148 79.1371 191.785 85.0141 191.794 85.0054C192.384 82.6702 194.242 79.0676 198.904 74.3452C207.333 65.8118 207.324 63.494 207.671 54.813L208.722 54.622Z" fill="#263238"/>
<path opacity="0.2" d="M205.944 38.4494C205.634 40.6213 205.934 42.8366 206.812 44.8473C206.122 44.8156 205.44 44.681 204.79 44.448C202.185 43.5799 200.753 41.8437 199.147 39.2394C198.965 38.5536 198.765 37.8939 198.557 37.2515L205.944 38.4494Z" fill="black"/>
<path d="M203.019 25.4281C204.052 17.2593 210.059 25.9055 208.392 29.9682C207.368 32.451 202.767 27.3986 203.019 25.4281Z" fill="#263238"/>
<path d="M194.754 32.8415C196.812 37.807 197.767 40.8193 201.204 42.5902C206.369 45.2727 211.76 40.9322 211.205 35.4805C210.71 30.5758 207.429 23.2751 201.821 22.8584C200.59 22.7563 199.354 22.9769 198.234 23.4985C197.115 24.02 196.151 24.8246 195.437 25.8326C194.724 26.8406 194.286 28.0173 194.166 29.2464C194.046 30.4756 194.249 31.7147 194.754 32.8415Z" fill="#CF7A64"/>
<path d="M197.072 37.6421C197.728 37.5273 198.336 37.2265 198.826 36.7755C199.315 36.3246 199.665 35.7425 199.833 35.0986C198.352 34.5038 197.067 33.5053 196.126 32.2165C196.126 32.2165 198.331 29.048 198.096 27.2163C200.926 27.2163 207.559 24.4818 206.057 21.4608C204.555 18.4398 198.6 16.938 195.128 19.0736C192.939 20.5652 190.345 21.3499 187.697 21.3219C188.486 21.7899 189.344 22.1298 190.24 22.3289C189.262 23.2849 188.496 24.4358 187.992 25.7071C187.488 26.9783 187.257 28.3414 187.315 29.7077C187.48 33.5881 185.37 35.1507 185.37 35.1507C185.37 35.1507 187.974 35.5413 188.773 34.3954C188.417 35.6629 190.561 40.1075 195.275 40.7239C200.553 41.4097 197.072 37.6421 197.072 37.6421Z" fill="#263238"/>
<path d="M194.911 40.0208C196.864 40.8888 198.383 41.184 199.39 40.5937C200.397 40.0034 200.111 37.9894 198.826 36.8348C197.671 35.8192 195.397 34.8556 194.077 35.9667C192.758 37.0779 192.897 39.1006 194.911 40.0208Z" fill="#CF7A64"/>
<path d="M225.216 96.4642C225.216 96.4642 237.508 136.883 238.376 152.17C239.331 168.898 236.918 213.353 236.918 213.353L227.256 214.334C227.256 214.334 225.45 172.006 223.002 155.634C220.346 137.864 207.003 98.3393 207.003 98.3393L225.216 96.4642Z" fill="#263238"/>
<path opacity="0.2" d="M216.752 115.519L215.232 124.391C217.359 131.57 219.486 139.218 221.04 145.859C221.504 135.567 220.05 125.279 216.752 115.519Z" fill="black"/>
<path d="M226.457 211.921L226.77 215.489L237.577 214.404L237.89 210.367L226.457 211.921Z" fill="#407BFF"/>
<path d="M215.076 97.48C215.076 97.48 219.078 133.619 217.681 149.218C216.127 166.294 206.239 217.373 206.239 217.373L196.456 218.354C196.456 218.354 201.838 169.098 201.838 152.378C201.838 134.192 196.629 99.3724 196.629 99.3724L215.076 97.48Z" fill="#263238"/>
<path d="M196.117 215.228L195.978 218.588L206.734 217.503L207.828 213.701L196.117 215.228Z" fill="#407BFF"/>
<path d="M202.853 31.7825C202.992 32.1991 203.331 32.4596 203.591 32.3728C203.852 32.2859 203.965 31.8779 203.817 31.5047C203.669 31.1314 203.348 30.8275 203.079 30.9144C202.81 31.0012 202.706 31.3658 202.853 31.7825Z" fill="#263238"/>
<path d="M207.472 30.2806C207.611 30.6973 207.95 30.9577 208.21 30.8709C208.47 30.7841 208.583 30.3761 208.436 30.0028C208.288 29.6295 207.967 29.3257 207.698 29.4125C207.429 29.4993 207.333 29.8726 207.472 30.2806Z" fill="#263238"/>
<path d="M206.074 30.9664C206.998 32.0663 208.063 33.0384 209.243 33.8572C209.033 34.1505 208.761 34.3932 208.445 34.5675C208.13 34.7417 207.78 34.8431 207.42 34.8642L206.074 30.9664Z" fill="#BA4D3C"/>
<path d="M206.395 36.5571C206.426 36.5436 206.45 36.5191 206.463 36.4884C206.476 36.4577 206.477 36.4233 206.465 36.3921C206.452 36.3614 206.427 36.3365 206.397 36.3222C206.367 36.3078 206.332 36.3049 206.3 36.314C205.795 36.5041 205.253 36.5741 204.717 36.5183C204.18 36.4626 203.664 36.2826 203.21 35.9928C203.185 35.9689 203.152 35.9556 203.118 35.9556C203.084 35.9556 203.052 35.9689 203.027 35.9928C203.005 36.0181 202.993 36.0504 202.993 36.0839C202.993 36.1174 203.005 36.1498 203.027 36.1751C203.516 36.5067 204.078 36.7148 204.664 36.7813C205.251 36.8478 205.845 36.7709 206.395 36.5571Z" fill="#263238"/>
<path d="M200.944 30.732C200.98 30.7196 201.013 30.6991 201.04 30.672C201.067 30.6449 201.087 30.612 201.1 30.5758C201.186 30.2723 201.345 29.9943 201.563 29.7659C201.781 29.5376 202.051 29.3656 202.35 29.265C202.383 29.2571 202.413 29.2425 202.44 29.2221C202.467 29.2018 202.489 29.1761 202.505 29.1468C202.522 29.1174 202.532 29.085 202.535 29.0515C202.538 29.0181 202.534 28.9843 202.524 28.9524C202.505 28.8875 202.462 28.8322 202.404 28.7982C202.346 28.7642 202.277 28.7541 202.211 28.7701C201.832 28.8912 201.488 29.1032 201.21 29.3877C200.931 29.6722 200.727 30.0205 200.614 30.4022C200.598 30.4481 200.596 30.4975 200.607 30.5447C200.618 30.5919 200.642 30.6351 200.676 30.6694C200.711 30.7037 200.754 30.7277 200.801 30.7388C200.848 30.7498 200.898 30.7475 200.944 30.732Z" fill="#263238"/>
<path d="M208.974 27.9542C209.011 27.9392 209.044 27.9154 209.069 27.8847C209.114 27.8365 209.14 27.7728 209.14 27.7067C209.14 27.6407 209.114 27.577 209.069 27.5288C208.774 27.2506 208.417 27.0453 208.029 26.9292C207.64 26.8132 207.229 26.7896 206.83 26.8604C206.798 26.8694 206.768 26.8846 206.742 26.9052C206.716 26.9258 206.694 26.9514 206.678 26.9804C206.662 27.0095 206.651 27.0415 206.648 27.0745C206.644 27.1075 206.647 27.141 206.656 27.1729C206.664 27.2057 206.679 27.2365 206.699 27.2635C206.719 27.2905 206.744 27.3132 206.774 27.3302C206.803 27.3473 206.835 27.3582 206.869 27.3625C206.902 27.3668 206.936 27.3643 206.968 27.3552C207.28 27.307 207.599 27.3313 207.9 27.4262C208.201 27.521 208.477 27.6838 208.705 27.9021C208.74 27.9349 208.784 27.9572 208.832 27.9664C208.879 27.9756 208.929 27.9714 208.974 27.9542Z" fill="#263238"/>
<path d="M185.526 59.7438L192.801 62.6866C192.801 62.6866 186.811 80.4999 188.105 82.9132C189.841 86.1946 194.537 91.4293 197.324 94.9103C197.068 96.2211 196.469 97.4404 195.588 98.4435C189.737 95.6656 180.518 86.9412 180.04 83.599C178.99 75.9772 185.526 59.7438 185.526 59.7438Z" fill="#CF7A64"/>
<path d="M188.929 50.9327C182.983 52.8598 182.149 66.0809 182.149 66.0809L191.351 70.8034C193.997 67.6542 195.896 63.9476 196.907 59.9609C198.513 53.2505 194.155 49.2399 188.929 50.9327Z" fill="#407BFF"/>
<path d="M205.527 225.09C205.891 225.085 206.241 224.953 206.517 224.717C206.603 224.626 206.665 224.514 206.697 224.393C206.729 224.271 206.73 224.144 206.699 224.022C206.689 223.949 206.659 223.88 206.614 223.822C206.568 223.764 206.508 223.719 206.439 223.692C205.814 223.449 204.217 224.673 204.034 224.812C204.022 224.833 204.016 224.857 204.016 224.882C204.016 224.906 204.022 224.93 204.034 224.951C204.04 224.975 204.053 224.996 204.072 225.012C204.091 225.028 204.114 225.037 204.138 225.038C204.598 225.111 205.064 225.128 205.527 225.09ZM206.178 223.909C206.236 223.896 206.295 223.896 206.352 223.909C206.379 223.922 206.402 223.941 206.419 223.966C206.436 223.99 206.446 224.019 206.448 224.048C206.469 224.131 206.471 224.218 206.451 224.301C206.431 224.384 206.391 224.462 206.335 224.526C205.765 224.856 205.092 224.958 204.451 224.812C204.96 224.389 205.547 224.071 206.178 223.875V223.909Z" fill="#407BFF"/>
<path d="M204.129 225.012C204.129 225.012 204.129 225.012 204.19 225.012C204.711 224.656 205.631 223.38 205.44 222.798C205.409 222.708 205.349 222.63 205.269 222.578C205.188 222.526 205.093 222.503 204.998 222.512C204.9 222.508 204.803 222.526 204.713 222.563C204.624 222.601 204.543 222.657 204.477 222.729C203.921 223.293 203.991 224.847 203.991 224.908C203.989 224.931 203.995 224.955 204.007 224.975C204.019 224.996 204.038 225.011 204.06 225.021L204.129 225.012ZM204.937 222.737H204.998C205.163 222.737 205.189 222.816 205.197 222.842C205.31 223.189 204.737 224.144 204.242 224.578C204.202 223.969 204.35 223.363 204.668 222.842C204.747 222.773 204.849 222.736 204.954 222.737H204.937Z" fill="#407BFF"/>
<path d="M237.074 221.869C237.532 221.868 237.975 221.705 238.324 221.409C238.404 221.327 238.461 221.225 238.49 221.114C238.518 221.003 238.518 220.886 238.489 220.776C238.476 220.706 238.446 220.64 238.402 220.584C238.359 220.528 238.302 220.484 238.237 220.454C237.543 220.159 235.529 221.461 235.303 221.609C235.283 221.625 235.268 221.647 235.258 221.671C235.249 221.696 235.247 221.722 235.251 221.748C235.258 221.773 235.273 221.796 235.293 221.813C235.313 221.83 235.338 221.841 235.364 221.843C235.932 221.905 236.504 221.914 237.074 221.869ZM237.899 220.663C237.979 220.643 238.062 220.643 238.142 220.663C238.168 220.674 238.191 220.692 238.208 220.714C238.225 220.737 238.235 220.765 238.237 220.793C238.257 220.865 238.257 220.942 238.239 221.015C238.221 221.088 238.184 221.155 238.133 221.21C237.847 221.539 236.97 221.67 235.763 221.6C236.43 221.165 237.167 220.848 237.942 220.663H237.899Z" fill="#407BFF"/>
<path d="M235.39 221.843H235.442C236.049 221.496 237.178 220.211 237.013 219.621C236.97 219.482 236.848 219.317 236.492 219.317C236.367 219.314 236.242 219.338 236.127 219.387C236.011 219.436 235.908 219.51 235.824 219.604C235.405 220.234 235.204 220.984 235.251 221.739C235.251 221.76 235.257 221.781 235.267 221.799C235.278 221.818 235.293 221.833 235.312 221.843C235.324 221.849 235.337 221.853 235.351 221.853C235.364 221.853 235.378 221.849 235.39 221.843ZM236.423 219.552H236.501C236.735 219.552 236.761 219.638 236.77 219.664C236.874 220.02 236.119 221.019 235.503 221.479C235.485 220.862 235.661 220.255 236.006 219.743C236.119 219.633 236.266 219.566 236.423 219.552Z" fill="#407BFF"/>
<path d="M196.013 94.1638L201.126 94.3374L198.01 99.6676C198.01 99.6676 193.539 99.3637 193.087 95.874L196.013 94.1638Z" fill="#CF7A64"/>
<path d="M203.522 96.117L200.423 100.805L197.966 99.6675L201.126 94.3374L203.522 96.117Z" fill="#CF7A64"/>
</svg>
