<svg width="433" height="335" viewBox="0 0 433 335" fill="none" xmlns="http://www.w3.org/2000/svg">
<path d="M383.963 237.873H227.66C226.316 237.871 225.028 237.336 224.078 236.386C223.128 235.436 222.594 234.148 222.591 232.805V5.08429C222.596 3.74224 223.132 2.45658 224.081 1.50841C225.031 0.56024 226.318 0.0266926 227.66 0.0244141H383.963C385.305 0.0266926 386.591 0.56024 387.541 1.50841C388.491 2.45658 389.027 3.74224 389.031 5.08429V232.805C389.029 234.148 388.494 235.436 387.544 236.386C386.594 237.336 385.306 237.871 383.963 237.873ZM227.66 0.240648C227.02 0.236088 226.386 0.357941 225.794 0.599208C225.202 0.840476 224.664 1.1964 224.209 1.64651C223.755 2.09663 223.395 2.63206 223.148 3.22203C222.902 3.812 222.774 4.44489 222.773 5.08429V232.805C222.773 234.092 223.284 235.326 224.194 236.236C225.104 237.146 226.338 237.657 227.625 237.657H383.963C385.249 237.657 386.484 237.146 387.394 236.236C388.304 235.326 388.815 234.092 388.815 232.805V5.08429C388.815 3.79738 388.304 2.56319 387.394 1.65321C386.484 0.743223 385.249 0.231997 383.963 0.231997L227.66 0.240648Z" fill="#E0E0E0"/>
<path d="M203.684 237.873H47.3469C46.0033 237.871 44.7154 237.336 43.7654 236.386C42.8153 235.436 42.2806 234.148 42.2783 232.805V5.08428C42.2806 3.74072 42.8153 2.45285 43.7654 1.50281C44.7154 0.552774 46.0033 0.018034 47.3469 0.0157471H203.684C205.028 0.018034 206.316 0.552774 207.266 1.50281C208.216 2.45285 208.75 3.74072 208.753 5.08428V232.805C208.75 234.148 208.216 235.436 207.266 236.386C206.316 237.336 205.028 237.871 203.684 237.873ZM47.3469 0.240632C46.0614 0.24063 44.8285 0.750667 43.9188 1.65878C43.0091 2.56689 42.4968 3.79887 42.4946 5.08428V232.805C42.4946 234.092 43.0058 235.326 43.9158 236.236C44.8257 237.146 46.0599 237.657 47.3469 237.657H203.684C204.971 237.657 206.205 237.146 207.115 236.236C208.025 235.326 208.536 234.092 208.536 232.805V5.08428C208.536 3.79737 208.025 2.56317 207.115 1.65319C206.205 0.743207 204.971 0.231981 203.684 0.231981L47.3469 0.240632Z" fill="#E0E0E0"/>
<path d="M432.468 290.695H0V290.911H432.468V290.695Z" fill="#E0E0E0"/>
<path d="M191.739 170.512V23.2134L131.592 23.2134V170.512H191.739Z" fill="#E0E0E0"/>
<path d="M188.435 26.5088H134.887V167.199H188.435V26.5088Z" fill="#F0F0F0"/>
<path d="M188.435 26.5088V33.6618L134.887 87.2014V72.8781L181.265 26.5088H188.435Z" fill="#FAFAFA"/>
<path d="M188.435 70.6465V91.6125L134.887 145.152V124.195L188.435 70.6465Z" fill="#FAFAFA"/>
<path d="M164.571 23.2048H160.584V170.504H164.571V23.2048Z" fill="#E0E0E0"/>
<path d="M296.146 170.504V23.2048L235.998 23.2048V170.504H296.146Z" fill="#E0E0E0"/>
<path d="M292.85 26.5088H239.302V167.199H292.85V26.5088Z" fill="#F0F0F0"/>
<path d="M292.85 26.5088V33.6618L239.302 87.2014V72.8781L285.68 26.5088H292.85Z" fill="#FAFAFA"/>
<path d="M292.85 70.6465V91.6125L239.302 145.152V124.195L292.85 70.6465Z" fill="#FAFAFA"/>
<path d="M268.978 23.2048H264.991V170.504H268.978V23.2048Z" fill="#E0E0E0"/>
<path d="M87.5056 57.067C97.2839 57.067 105.211 49.1401 105.211 39.3617C105.211 29.5834 97.2839 21.6565 87.5056 21.6565C77.7272 21.6565 69.8003 29.5834 69.8003 39.3617C69.8003 49.1401 77.7272 57.067 87.5056 57.067Z" fill="#E0E0E0"/>
<path d="M103.401 43.0482C105.437 34.2719 99.973 25.507 91.1968 23.4712C82.4205 21.4354 73.6556 26.8995 71.6198 35.6758C69.584 44.452 75.0481 53.2169 83.8244 55.2527C92.6006 57.2886 101.365 51.8244 103.401 43.0482Z" fill="#FAFAFA"/>
<path d="M87.5575 24.5281H86.9434V27.9273H87.5575V24.5281Z" fill="#E0E0E0"/>
<path d="M87.5575 50.7012H86.9434V54.1004H87.5575V50.7012Z" fill="#E0E0E0"/>
<path d="M75.8548 39.0072H72.4556V39.6213H75.8548V39.0072Z" fill="#E0E0E0"/>
<path d="M102.028 39.0072H98.6289V39.6213H102.028V39.0072Z" fill="#E0E0E0"/>
<path d="M97.4861 28.6502L95.0825 31.0538L95.5168 31.4881L97.9204 29.0845L97.4861 28.6502Z" fill="#E0E0E0"/>
<path d="M78.9843 47.1383L76.5815 49.5427L77.0159 49.9768L79.4187 47.5724L78.9843 47.1383Z" fill="#E0E0E0"/>
<path d="M77.0069 28.6447L76.5728 29.079L78.9768 31.4822L79.4109 31.0478L77.0069 28.6447Z" fill="#E0E0E0"/>
<path d="M95.5105 47.1641L95.0762 47.5983L97.4794 50.0023L97.9137 49.5681L95.5105 47.1641Z" fill="#E0E0E0"/>
<path d="M87.1266 38.9107L86.9365 39.3936L92.707 41.6654L92.8971 41.1826L87.1266 38.9107Z" fill="#E0E0E0"/>
<path d="M87.5055 39.578H77.9912V39.0504H86.9866V31.6725H87.5055V39.578Z" fill="#E0E0E0"/>
<path d="M309.838 43.1675L309.319 42.3458L339.583 23.2739L369.112 42.7696L368.576 43.5826L339.574 24.4329L309.838 43.1675Z" fill="#E6E6E6"/>
<path d="M369.761 42.389H308.8V80.5155H369.761V42.389Z" fill="#E0E0E0"/>
<path d="M368.065 78.8374V44.0842H310.487V78.8374H368.065Z" fill="white"/>
<path d="M318.669 54.9739H314.993V58.6499H318.669V54.9739Z" fill="#F5F5F5"/>
<path d="M324.342 54.9739H320.667V58.6499H324.342V54.9739Z" fill="#F5F5F5"/>
<path d="M330.008 54.9739H326.332V58.6499H330.008V54.9739Z" fill="#F5F5F5"/>
<path d="M335.682 54.9739H332.006V58.6499H335.682V54.9739Z" fill="#F5F5F5"/>
<path d="M341.356 54.9739H337.68V58.6499H341.356V54.9739Z" fill="#F5F5F5"/>
<path d="M347.03 54.9739H343.354V58.6499H347.03V54.9739Z" fill="#F5F5F5"/>
<path d="M352.696 54.9739H349.02V58.6499H352.696V54.9739Z" fill="#F5F5F5"/>
<path d="M358.369 54.9739H354.693V58.6499H358.369V54.9739Z" fill="#F5F5F5"/>
<path d="M364.043 54.9739H360.367V58.6499H364.043V54.9739Z" fill="#F5F5F5"/>
<path d="M318.669 60.0424H314.993V63.7183H318.669V60.0424Z" fill="#F5F5F5"/>
<path d="M324.342 60.0424H320.667V63.7183H324.342V60.0424Z" fill="#F5F5F5"/>
<path d="M330.008 60.0424H326.332V63.7183H330.008V60.0424Z" fill="#F5F5F5"/>
<path d="M335.682 60.0424H332.006V63.7183H335.682V60.0424Z" fill="#F5F5F5"/>
<path d="M341.356 60.0424H337.68V63.7183H341.356V60.0424Z" fill="#F5F5F5"/>
<path d="M347.03 60.0424H343.354V63.7183H347.03V60.0424Z" fill="#F5F5F5"/>
<path d="M352.696 60.0424H349.02V63.7183H352.696V60.0424Z" fill="#F5F5F5"/>
<path d="M358.369 60.0424H354.693V63.7183H358.369V60.0424Z" fill="#F5F5F5"/>
<path d="M364.043 60.0424H360.367V63.7183H364.043V60.0424Z" fill="#F5F5F5"/>
<path d="M318.669 65.1023H314.993V68.7783H318.669V65.1023Z" fill="#F5F5F5"/>
<path d="M324.342 65.1023H320.667V68.7783H324.342V65.1023Z" fill="#F5F5F5"/>
<path d="M330.008 65.1023H326.332V68.7783H330.008V65.1023Z" fill="#F5F5F5"/>
<path d="M335.682 65.1023H332.006V68.7783H335.682V65.1023Z" fill="#F5F5F5"/>
<path d="M341.356 65.1023H337.68V68.7783H341.356V65.1023Z" fill="#F5F5F5"/>
<path d="M347.03 65.1023H343.354V68.7783H347.03V65.1023Z" fill="#F5F5F5"/>
<path d="M352.696 65.1023H349.02V68.7783H352.696V65.1023Z" fill="#F5F5F5"/>
<path d="M358.369 65.1023H354.693V68.7783H358.369V65.1023Z" fill="#F5F5F5"/>
<path d="M364.043 65.1023H360.367V68.7783H364.043V65.1023Z" fill="#F5F5F5"/>
<path d="M318.669 70.5514H314.993V74.2274H318.669V70.5514Z" fill="#F5F5F5"/>
<path d="M324.342 70.5514H320.667V74.2274H324.342V70.5514Z" fill="#F5F5F5"/>
<path d="M330.008 70.5514H326.332V74.2274H330.008V70.5514Z" fill="#F5F5F5"/>
<path d="M335.682 70.5514H332.006V74.2274H335.682V70.5514Z" fill="#F5F5F5"/>
<path d="M355.887 47.4835H323.158V50.6665H355.887V47.4835Z" fill="#E0E0E0"/>
<path d="M341.529 23.6199C341.529 23.986 341.421 24.3438 341.217 24.6482C341.014 24.9526 340.725 25.1899 340.386 25.33C340.048 25.4701 339.676 25.5067 339.317 25.4353C338.958 25.3639 338.628 25.1876 338.369 24.9287C338.11 24.6699 337.934 24.34 337.863 23.981C337.791 23.6219 337.828 23.2498 337.968 22.9116C338.108 22.5733 338.345 22.2843 338.65 22.0809C338.954 21.8775 339.312 21.7689 339.678 21.7689C340.169 21.7689 340.64 21.9639 340.987 22.3111C341.334 22.6582 341.529 23.129 341.529 23.6199Z" fill="#E0E0E0"/>
<path d="M400.863 328.951C400.863 331.875 319.975 334.253 220.204 334.253C120.434 334.253 39.5361 331.875 39.5361 328.951C39.5361 326.028 120.408 323.641 220.204 323.641C320.001 323.641 400.863 326.019 400.863 328.951Z" fill="#F5F5F5"/>
<path d="M63.123 140.014L65.64 139.288L64.0398 133.7L61.125 134.565C60.2949 133.621 59.2511 132.888 58.0804 132.429V129.488H52.268V132.429C51.3556 132.781 50.5167 133.3 49.7943 133.96L47.1995 132.714L44.6479 137.904L47.1995 139.149C47.1995 139.366 47.1995 139.573 47.1995 139.789C47.201 141.146 47.5493 142.48 48.2115 143.664L46.3086 146.069L50.8495 149.702L52.7092 147.366C53.5056 147.624 54.3373 147.755 55.1742 147.755C55.7857 147.757 56.3953 147.688 56.9906 147.548L58.6686 149.909L63.4084 146.545L61.7737 144.235C62.6229 142.989 63.0916 141.522 63.123 140.014ZM49.9414 139.807C49.9414 138.78 50.2457 137.777 50.816 136.924C51.3862 136.07 52.1967 135.405 53.145 135.012C54.0933 134.619 55.1367 134.517 56.1434 134.717C57.1501 134.917 58.0748 135.411 58.8006 136.137C59.5264 136.863 60.0206 137.788 60.2209 138.794C60.4211 139.801 60.3184 140.844 59.9256 141.793C59.5328 142.741 58.8676 143.552 58.0142 144.122C57.1608 144.692 56.1574 144.996 55.131 144.996C53.7632 144.983 52.4549 144.435 51.4853 143.471C50.5157 142.506 49.9616 141.2 49.9414 139.833V139.807Z" fill="#407BFF"/>
<path opacity="0.6" d="M63.123 140.014L65.64 139.288L64.0398 133.7L61.125 134.565C60.2949 133.621 59.2511 132.888 58.0804 132.429V129.488H52.268V132.429C51.3556 132.781 50.5167 133.3 49.7943 133.96L47.1995 132.714L44.6479 137.904L47.1995 139.149C47.1995 139.366 47.1995 139.573 47.1995 139.789C47.201 141.146 47.5493 142.48 48.2115 143.664L46.3086 146.069L50.8495 149.702L52.7092 147.366C53.5056 147.624 54.3373 147.755 55.1742 147.755C55.7857 147.757 56.3953 147.688 56.9906 147.548L58.6686 149.909L63.4084 146.545L61.7737 144.235C62.6229 142.989 63.0916 141.522 63.123 140.014ZM49.9414 139.807C49.9414 138.78 50.2457 137.777 50.816 136.924C51.3862 136.07 52.1967 135.405 53.145 135.012C54.0933 134.619 55.1367 134.517 56.1434 134.717C57.1501 134.917 58.0748 135.411 58.8006 136.137C59.5264 136.863 60.0206 137.788 60.2209 138.794C60.4211 139.801 60.3184 140.844 59.9256 141.793C59.5328 142.741 58.8676 143.552 58.0142 144.122C57.1608 144.692 56.1574 144.996 55.131 144.996C53.7632 144.983 52.4549 144.435 51.4853 143.471C50.5157 142.506 49.9616 141.2 49.9414 139.833V139.807Z" fill="white"/>
<path d="M396.772 48.7203L399.289 47.9937L397.689 42.4062L394.783 43.2712C393.947 42.3315 392.901 41.6025 391.73 41.1434V38.2026H385.943V41.1434C385.03 41.4984 384.191 42.0205 383.47 42.683L380.892 41.4116L378.297 46.6012L380.892 47.8467C380.892 48.0629 380.892 48.2705 380.892 48.4867C380.894 49.8435 381.242 51.1774 381.904 52.3617L379.993 54.7575L384.534 58.3903L386.393 56.0549C387.19 56.3123 388.021 56.4436 388.858 56.4442C389.473 56.446 390.085 56.3763 390.683 56.2366L392.353 58.5978L397.092 55.2246L395.458 52.9412C396.295 51.6908 396.751 50.2247 396.772 48.7203ZM383.599 48.5127C383.599 47.4863 383.904 46.4829 384.474 45.6295C385.044 44.7761 385.855 44.1109 386.803 43.7181C387.751 43.3253 388.795 43.2225 389.801 43.4228C390.808 43.623 391.733 44.1173 392.459 44.8431C393.184 45.5688 393.679 46.4936 393.879 47.5002C394.079 48.5069 393.976 49.5504 393.584 50.4987C393.191 51.4469 392.526 52.2575 391.672 52.8277C390.819 53.3979 389.815 53.7023 388.789 53.7023C387.413 53.7023 386.093 53.1555 385.119 52.1823C384.146 51.2091 383.599 49.8891 383.599 48.5127Z" fill="#407BFF"/>
<path opacity="0.6" d="M396.772 48.7203L399.289 47.9937L397.689 42.4062L394.783 43.2712C393.947 42.3315 392.901 41.6025 391.73 41.1434V38.2026H385.943V41.1434C385.03 41.4984 384.191 42.0205 383.47 42.683L380.892 41.4116L378.297 46.6012L380.892 47.8467C380.892 48.0629 380.892 48.2705 380.892 48.4867C380.894 49.8435 381.242 51.1774 381.904 52.3617L379.993 54.7575L384.534 58.3903L386.393 56.0549C387.19 56.3123 388.021 56.4436 388.858 56.4442C389.473 56.446 390.085 56.3763 390.683 56.2366L392.353 58.5978L397.092 55.2246L395.458 52.9412C396.295 51.6908 396.751 50.2247 396.772 48.7203ZM383.599 48.5127C383.599 47.4863 383.904 46.4829 384.474 45.6295C385.044 44.7761 385.855 44.1109 386.803 43.7181C387.751 43.3253 388.795 43.2225 389.801 43.4228C390.808 43.623 391.733 44.1173 392.459 44.8431C393.184 45.5688 393.679 46.4936 393.879 47.5002C394.079 48.5069 393.976 49.5504 393.584 50.4987C393.191 51.4469 392.526 52.2575 391.672 52.8277C390.819 53.3979 389.815 53.7023 388.789 53.7023C387.413 53.7023 386.093 53.1555 385.119 52.1823C384.146 51.2091 383.599 49.8891 383.599 48.5127Z" fill="white"/>
<path d="M83.7949 109.794C82.2843 109.794 80.7813 109.579 79.3318 109.153C79.2908 109.143 79.2525 109.123 79.2191 109.097C79.1858 109.071 79.1582 109.038 79.1379 109.001C79.1177 108.964 79.1052 108.923 79.1014 108.881C79.0976 108.838 79.1024 108.796 79.1156 108.756C79.1266 108.714 79.1456 108.676 79.1717 108.642C79.1977 108.609 79.2302 108.581 79.2673 108.56C79.3043 108.539 79.3452 108.525 79.3874 108.52C79.4297 108.515 79.4725 108.519 79.5134 108.531C80.9011 108.938 82.3399 109.145 83.7862 109.145C83.876 109.145 83.9624 109.178 84.0282 109.239C84.094 109.3 84.1343 109.384 84.1408 109.473C84.1444 109.514 84.1397 109.554 84.1271 109.592C84.1145 109.63 84.0941 109.665 84.0674 109.695C84.0406 109.725 84.008 109.749 83.9716 109.766C83.9351 109.783 83.8956 109.792 83.8554 109.794V109.473L83.7949 109.794ZM88.2147 109.153C88.1447 109.153 88.0767 109.13 88.0207 109.088C87.9647 109.046 87.9236 108.987 87.9033 108.92C87.8901 108.88 87.8853 108.837 87.8892 108.795C87.893 108.753 87.9054 108.712 87.9257 108.674C87.9459 108.637 87.9736 108.604 88.0069 108.578C88.0402 108.552 88.0786 108.533 88.1196 108.522C89.5053 108.106 90.8246 107.494 92.0377 106.706C92.1102 106.66 92.1979 106.644 92.282 106.662C92.3661 106.679 92.4398 106.729 92.4875 106.801C92.5336 106.873 92.5494 106.961 92.5316 107.045C92.5138 107.129 92.4639 107.203 92.3923 107.251C91.1287 108.071 89.7539 108.706 88.3098 109.136L88.2147 109.153ZM75.4309 107.337C75.3694 107.337 75.3092 107.319 75.2579 107.285C73.9892 106.467 72.8419 105.474 71.8501 104.336C71.7904 104.274 71.757 104.192 71.757 104.107C71.757 104.021 71.7904 103.939 71.8501 103.877C71.8799 103.847 71.9156 103.822 71.9549 103.806C71.9943 103.789 72.0366 103.781 72.0793 103.781C72.122 103.781 72.1643 103.789 72.2037 103.806C72.2431 103.822 72.2787 103.847 72.3085 103.877C73.2596 104.966 74.357 105.918 75.5693 106.706C75.6061 106.727 75.638 106.755 75.6633 106.79C75.6886 106.824 75.7067 106.863 75.7164 106.904C75.7261 106.945 75.7273 106.988 75.7199 107.03C75.7124 107.072 75.6965 107.111 75.6731 107.147C75.6514 107.196 75.6179 107.239 75.5757 107.272C75.5335 107.305 75.4838 107.328 75.4309 107.337ZM95.558 104.396C95.4789 104.397 95.4021 104.37 95.3418 104.318C95.2821 104.257 95.2487 104.175 95.2487 104.089C95.2487 104.004 95.2821 103.921 95.3418 103.86C96.2882 102.767 97.0718 101.544 97.6685 100.227C97.709 100.156 97.7744 100.103 97.8521 100.078C97.9298 100.053 98.014 100.057 98.0885 100.091C98.163 100.124 98.2224 100.184 98.2551 100.259C98.2877 100.334 98.2914 100.418 98.2653 100.495C97.639 101.867 96.8206 103.143 95.8348 104.284C95.8008 104.328 95.7554 104.361 95.7035 104.381C95.6517 104.401 95.5953 104.406 95.5407 104.396H95.558ZM69.7051 100.738C69.6428 100.738 69.5819 100.72 69.5297 100.686C69.4774 100.652 69.4362 100.604 69.411 100.547C68.7796 99.1751 68.3513 97.7183 68.1395 96.2226C68.1334 96.1806 68.1358 96.1377 68.1465 96.0965C68.1572 96.0554 68.1759 96.0168 68.2017 95.9829C68.2275 95.9491 68.2597 95.9208 68.2966 95.8996C68.3334 95.8783 68.3741 95.8647 68.4163 95.8594C68.4579 95.852 68.5005 95.8532 68.5417 95.8628C68.5828 95.8725 68.6215 95.8904 68.6555 95.9155C68.6895 95.9405 68.718 95.9723 68.7393 96.0087C68.7607 96.0452 68.7743 96.0856 68.7796 96.1275C68.9844 97.56 69.3952 98.9555 69.9991 100.271C70.018 100.309 70.0289 100.351 70.0313 100.394C70.0336 100.437 70.0274 100.479 70.0129 100.52C69.9983 100.56 69.9759 100.597 69.9468 100.629C69.9176 100.66 69.8825 100.685 69.8434 100.703C69.7945 100.725 69.7415 100.737 69.6878 100.738H69.7051ZM99.1648 96.4129C99.0789 96.4001 99.0015 96.3538 98.9497 96.2841C98.8978 96.2144 98.8756 96.127 98.888 96.041C99.0963 94.607 99.0963 93.1504 98.888 91.7163C98.8819 91.6742 98.8843 91.6314 98.895 91.5902C98.9057 91.5491 98.9244 91.5105 98.9502 91.4766C98.976 91.4428 99.0082 91.4145 99.0451 91.3932C99.0819 91.372 99.1226 91.3584 99.1648 91.3531C99.2485 91.3407 99.3337 91.3619 99.4018 91.4121C99.4699 91.4624 99.5153 91.5375 99.5281 91.6212C99.7466 93.1153 99.7466 94.6333 99.5281 96.1275C99.5274 96.1747 99.5166 96.2212 99.4964 96.2638C99.4762 96.3064 99.4471 96.3442 99.411 96.3745C99.3749 96.4049 99.3326 96.4271 99.2872 96.4397C99.2417 96.4523 99.1941 96.455 99.1475 96.4475L99.1648 96.4129ZM68.4509 92.0882C68.3667 92.0754 68.2907 92.0303 68.2391 91.9625C68.1875 91.8948 68.1642 91.8096 68.1741 91.725C68.3883 90.2299 68.8165 88.7734 69.4456 87.4003C69.4625 87.3616 69.4869 87.3265 69.5174 87.2973C69.5478 87.268 69.5838 87.2451 69.6232 87.2298C69.6626 87.2145 69.7047 87.2072 69.7469 87.2083C69.7892 87.2093 69.8308 87.2187 69.8694 87.236C69.9467 87.2735 70.0068 87.3392 70.0374 87.4196C70.0679 87.5 70.0666 87.589 70.0337 87.6684C69.4285 88.9823 69.0205 90.3784 68.8228 91.8115C68.8177 91.8565 68.8033 91.9 68.7805 91.9392C68.7578 91.9784 68.7272 92.0125 68.6906 92.0393C68.6541 92.0661 68.6124 92.0851 68.5681 92.095C68.5239 92.1049 68.4781 92.1055 68.4336 92.0969L68.4509 92.0882ZM97.8587 87.8068C97.797 87.8051 97.7369 87.7864 97.6851 87.7528C97.6332 87.7193 97.5916 87.6721 97.5647 87.6165C96.9607 86.3006 96.1681 85.0798 95.212 83.9924C95.1523 83.9311 95.1189 83.8488 95.1189 83.7632C95.1189 83.6776 95.1523 83.5954 95.212 83.534C95.2419 83.5034 95.2775 83.4791 95.3169 83.4625C95.3562 83.4459 95.3985 83.4373 95.4412 83.4373C95.484 83.4373 95.5263 83.4459 95.5656 83.4625C95.605 83.4791 95.6406 83.5034 95.6705 83.534C96.6633 84.667 97.4877 85.9371 98.1182 87.3051C98.1539 87.3833 98.1576 87.4723 98.1286 87.5531C98.0995 87.634 98.0399 87.7002 97.9625 87.7376C97.951 87.7651 97.9365 87.7912 97.9193 87.8155L97.8587 87.8068ZM72.0577 84.1568C71.9816 84.1557 71.9082 84.1281 71.8501 84.0789C71.8195 84.0491 71.7952 84.0135 71.7786 83.9741C71.762 83.9347 71.7534 83.8925 71.7534 83.8497C71.7534 83.807 71.762 83.7647 71.7786 83.7253C71.7952 83.686 71.8195 83.6503 71.8501 83.6205C72.8366 82.4778 73.9812 81.4817 75.2493 80.6624C75.3218 80.6164 75.4095 80.6005 75.4936 80.6183C75.5777 80.6361 75.6514 80.6861 75.6991 80.7576C75.7226 80.7937 75.7387 80.8341 75.7462 80.8766C75.7538 80.919 75.7527 80.9626 75.743 81.0046C75.7333 81.0466 75.7152 81.0862 75.6898 81.121C75.6644 81.1559 75.6323 81.1852 75.5953 81.2073C74.3817 81.9934 73.2866 82.9487 72.3431 84.0443C72.3088 84.0855 72.2646 84.1173 72.2147 84.137C72.1649 84.1566 72.1109 84.1634 72.0577 84.1568ZM92.1415 81.1987C92.0782 81.2008 92.0155 81.1858 91.9599 81.1554C90.7456 80.3697 89.4225 79.7665 88.0331 79.365C87.951 79.3391 87.8823 79.282 87.8419 79.206C87.8014 79.1299 87.7924 79.0411 87.8168 78.9585C87.8277 78.9175 87.8468 78.8792 87.873 78.8458C87.8992 78.8125 87.9319 78.7849 87.9691 78.7646C88.0064 78.7444 88.0474 78.7319 88.0896 78.7281C88.1318 78.7243 88.1744 78.7291 88.2147 78.7423C89.6638 79.1614 91.0446 79.7877 92.3145 80.6019C92.386 80.6495 92.436 80.7233 92.4538 80.8074C92.4716 80.8914 92.4557 80.9791 92.4096 81.0517C92.3808 81.0966 92.3411 81.1336 92.2943 81.1593C92.2474 81.185 92.1949 81.1985 92.1415 81.1987ZM79.3923 79.391C79.3127 79.3944 79.2346 79.368 79.1734 79.3169C79.1122 79.2658 79.0722 79.1937 79.0614 79.1147C79.0506 79.0357 79.0696 78.9555 79.1149 78.8898C79.1601 78.8241 79.2282 78.7777 79.3059 78.7596C80.7509 78.3266 82.2517 78.1081 83.7603 78.1109C83.8372 78.1235 83.9072 78.163 83.9576 78.2224C84.0081 78.2818 84.0358 78.3573 84.0358 78.4352C84.0358 78.5132 84.0081 78.5886 83.9576 78.648C83.9072 78.7074 83.8372 78.747 83.7603 78.7596C82.3133 78.7579 80.8738 78.9677 79.4875 79.3823L79.3923 79.391Z" fill="#407BFF"/>
<path d="M83.7861 106.879C90.918 106.879 96.6996 101.097 96.6996 93.9651C96.6996 86.8332 90.918 81.0516 83.7861 81.0516C76.6541 81.0516 70.8726 86.8332 70.8726 93.9651C70.8726 101.097 76.6541 106.879 83.7861 106.879Z" fill="#407BFF"/>
<path d="M81.546 99.57C81.4297 99.5662 81.3153 99.5389 81.2098 99.4899C81.1043 99.4408 81.0098 99.371 80.9319 99.2846L77.0397 94.9599C76.9016 94.7879 76.8344 94.5697 76.8518 94.3499C76.8693 94.13 76.97 93.9252 77.1335 93.7771C77.297 93.6291 77.5109 93.5491 77.7314 93.5536C77.9519 93.558 78.1623 93.6464 78.3198 93.8009L81.6152 97.4509L89.9445 89.4243C90.0249 89.3432 90.1206 89.2789 90.226 89.235C90.3314 89.1911 90.4444 89.1685 90.5586 89.1685C90.6728 89.1685 90.7859 89.1911 90.8913 89.235C90.9967 89.2789 91.0923 89.3432 91.1727 89.4243C91.3338 89.5864 91.4242 89.8056 91.4242 90.0341C91.4242 90.2626 91.3338 90.4818 91.1727 90.6439L82.1428 99.3624C81.9772 99.5044 81.764 99.5786 81.546 99.57Z" fill="white"/>
<path d="M175.158 118.728C175.158 118.728 148.864 131.988 140.95 165.193C135.181 189.411 136.928 235.114 147.325 238.782C157.721 242.449 158.88 214.148 158.967 204.089C159.053 194.03 168.481 181.748 176.88 181.012C176.88 181.012 178.523 127.905 175.158 118.728Z" fill="#407BFF"/>
<path opacity="0.2" d="M179.094 125.31C172.875 127.68 167.763 132.23 163.62 137.316C159.209 142.913 155.58 149.085 152.834 155.661C149.789 162.686 147.568 170.041 146.217 177.579C144.955 185.519 144.339 193.549 144.375 201.589C144.237 211.424 143.995 221.664 147.835 230.937C147.982 231.308 148.596 231.144 148.44 230.772C145.119 222.694 144.92 213.871 144.981 205.265C145.05 197.143 145.171 188.987 146.321 180.935C148.38 166.628 153.595 152.158 162.08 140.378C166.483 134.271 172.131 128.64 179.275 125.916C179.656 125.769 179.492 125.163 179.111 125.31H179.094Z" fill="black"/>
<path d="M265.242 118.728C265.242 118.728 291.536 131.988 299.45 165.193C305.219 189.411 303.472 235.114 293.075 238.782C282.679 242.449 281.52 214.148 281.433 204.089C281.347 194.03 271.919 181.748 263.52 181.012C263.52 181.012 261.877 127.905 265.242 118.728Z" fill="#407BFF"/>
<path opacity="0.2" d="M261.141 125.907C267.395 128.294 272.507 132.931 276.624 138.112C280.928 143.667 284.466 149.777 287.141 156.275C290.14 163.266 292.32 170.58 293.637 178.072C295.012 185.96 295.289 193.978 295.367 201.97C295.497 211.631 295.704 221.656 291.959 230.764C291.812 231.135 292.418 231.3 292.565 230.928C295.929 222.746 296.102 213.785 296.024 205.066C295.955 196.841 295.808 188.581 294.615 180.424C293.461 172.659 291.382 165.06 288.422 157.789C285.849 151.22 282.445 145.009 278.293 139.305C273.908 133.363 268.312 127.983 261.306 125.31C260.925 125.163 260.761 125.769 261.141 125.916V125.907Z" fill="black"/>
<path d="M256.203 219.64H183.548C183.548 219.64 170.246 168.523 175.461 111.203C176.868 96.0141 180.724 81.1527 186.878 67.1953C186.965 66.979 187.06 66.7628 187.155 66.5552C188.677 63.0955 190.278 59.8346 191.921 56.7295C198.375 44.5127 206.423 33.2071 215.854 23.1094C216.394 22.4938 217.059 22.0005 217.805 21.6625C218.55 21.3246 219.36 21.1498 220.178 21.1498C220.997 21.1498 221.807 21.3246 222.552 21.6625C223.298 22.0005 223.963 22.4938 224.503 23.1094C234.235 33.5306 242.494 45.2352 249.05 57.8972C250.693 61.0715 252.294 64.4188 253.807 67.9305L254.075 68.5532C259.88 82.1206 263.533 96.5101 264.904 111.203C270.111 168.557 256.203 219.64 256.203 219.64Z" fill="#407BFF"/>
<g opacity="0.5">
<path d="M256.203 219.64H183.548C183.548 219.64 170.246 168.523 175.461 111.203C176.868 96.0141 180.724 81.1527 186.878 67.1953C186.965 66.979 187.06 66.7628 187.155 66.5552C188.677 63.0955 190.278 59.8346 191.921 56.7295C198.375 44.5127 206.423 33.2071 215.854 23.1094C216.394 22.4938 217.059 22.0005 217.805 21.6625C218.55 21.3246 219.36 21.1498 220.178 21.1498C220.997 21.1498 221.807 21.3246 222.552 21.6625C223.298 22.0005 223.963 22.4938 224.503 23.1094C234.235 33.5306 242.494 45.2352 249.05 57.8972C250.693 61.0715 252.294 64.4188 253.807 67.9305L254.075 68.5532C259.88 82.1206 263.533 96.5101 264.904 111.203C270.111 168.557 256.203 219.64 256.203 219.64Z" fill="white"/>
</g>
<path d="M248.167 212.358H193.685V213.188H248.167V212.358Z" fill="#407BFF"/>
<path d="M257.855 239.101H184.413C179.18 231.568 184.716 219.64 184.716 219.64H256.367C256.367 219.64 261.877 229.371 257.855 239.101Z" fill="#263238"/>
<path d="M239.302 245.935H202.577C199.982 242.163 202.732 236.204 202.732 236.204H238.558C238.558 236.204 241.308 241.065 239.302 245.935Z" fill="#263238"/>
<path d="M239.319 245.934H202.698C195.285 249.87 176.845 259.263 179.422 275.178H263.537C266.115 259.263 246.732 249.861 239.319 245.934Z" fill="#407BFF"/>
<path d="M266.072 271.813H176.266V278.742H266.072V271.813Z" fill="#263238"/>
<path d="M249.05 57.8972C242.424 62.6371 232.287 67.9478 220.178 67.9478C209.677 67.8878 199.585 63.873 191.912 56.7036C192.604 55.3947 193.302 54.1204 194.005 52.8806L194.343 52.3011C200.34 41.7527 207.557 31.9461 215.845 23.0835C216.385 22.4679 217.05 21.9746 217.796 21.6367C218.541 21.2987 219.351 21.1239 220.17 21.1239C220.988 21.1239 221.798 21.2987 222.544 21.6367C223.289 21.9746 223.954 22.4679 224.494 23.0835C232.808 31.9658 240.042 41.7991 246.049 52.3789L246.386 52.9758C247.291 54.573 248.179 56.2135 249.05 57.8972Z" fill="#407BFF"/>
<path opacity="0.2" d="M246.395 53.0017C244.268 54.5279 242.014 55.8677 239.657 57.0063C231.35 61.019 222.004 62.3605 212.904 60.8467C206.083 59.6709 199.62 56.9554 194.005 52.9065L194.343 52.327C196.623 53.9816 199.056 55.4152 201.608 56.6085C209.902 60.5177 219.213 61.7277 228.231 60.0682C234.661 58.8497 240.746 56.2369 246.057 52.4135L246.395 53.0017Z" fill="black"/>
<path d="M255 120.354C251.67 86.7256 249.067 73.2672 248.764 71.7882C250.018 71.1049 251.195 70.4129 252.224 69.7383C252.855 69.349 253.461 68.9512 254.04 68.5533L253.772 67.9305C253.158 68.3457 252.527 68.7955 251.869 69.1761C244.95 73.544 233.835 78.7595 220.446 78.7595C209.894 78.7655 199.595 75.5287 190.943 69.4874C189.516 68.5014 188.245 67.5067 187.112 66.5553C187.016 66.7629 186.921 66.9791 186.835 67.1953C187.933 68.1122 189.17 69.0636 190.537 70.0237C191.402 70.6291 192.379 71.2605 193.408 71.8833C193.036 73.7516 190.468 87.3224 187.198 120.32C184.603 146.095 186.973 171.74 189.378 188.719C190.805 199.139 192.774 209.477 195.277 219.692C195.294 219.759 195.333 219.819 195.388 219.861C195.443 219.903 195.51 219.926 195.579 219.926H195.657C195.736 219.904 195.804 219.852 195.846 219.781C195.888 219.71 195.901 219.626 195.882 219.545C193.385 209.35 191.422 199.032 190 188.632C187.596 171.697 185.269 146.112 187.821 120.398C190.986 88.4468 193.495 74.7376 193.979 72.2033C202 76.9625 211.155 79.4723 220.481 79.4688C230.169 79.3466 239.676 76.833 248.159 72.1514C248.591 74.3484 251.126 87.9798 254.343 120.458C256.895 146.173 254.568 171.758 252.163 188.693C250.742 199.093 248.779 209.411 246.282 219.606C246.263 219.686 246.276 219.77 246.318 219.841C246.36 219.912 246.428 219.964 246.507 219.986H246.585C246.654 219.987 246.721 219.964 246.776 219.922C246.831 219.879 246.87 219.82 246.887 219.753C249.39 209.538 251.359 199.199 252.786 188.78C255.225 171.775 257.561 146.129 255 120.354Z" fill="#407BFF"/>
<path d="M220.481 156.05C215.72 156.052 211.065 154.642 207.105 151.997C203.145 149.353 200.058 145.594 198.235 141.195C196.412 136.796 195.935 131.955 196.863 127.285C197.792 122.615 200.085 118.325 203.452 114.958C206.819 111.591 211.108 109.299 215.779 108.37C220.449 107.442 225.289 107.919 229.688 109.742C234.087 111.565 237.846 114.652 240.491 118.611C243.135 122.571 244.545 127.226 244.544 131.988C244.537 138.367 242 144.484 237.488 148.995C232.977 153.506 226.861 156.043 220.481 156.05ZM220.481 108.548C215.845 108.548 211.313 109.923 207.459 112.498C203.604 115.074 200.6 118.735 198.826 123.018C197.052 127.301 196.587 132.014 197.492 136.561C198.396 141.108 200.629 145.284 203.907 148.562C207.185 151.84 211.361 154.073 215.908 154.977C220.455 155.882 225.168 155.417 229.451 153.643C233.734 151.869 237.395 148.865 239.971 145.01C242.546 141.156 243.921 136.624 243.921 131.988C243.914 125.773 241.442 119.815 237.048 115.421C232.654 111.027 226.696 108.555 220.481 108.548Z" fill="#407BFF"/>
<path d="M238.705 131.979C238.705 136.813 236.785 141.448 233.368 144.866C229.95 148.283 225.314 150.203 220.481 150.203H220.057C216.973 150.142 213.956 149.29 211.295 147.73C209.238 146.526 207.434 144.934 205.985 143.042C203.557 139.869 202.246 135.983 202.257 131.988C202.258 131.28 202.299 130.572 202.378 129.869C202.86 125.799 204.699 122.01 207.596 119.112C210.494 116.214 214.284 114.376 218.353 113.893C219.06 113.814 219.77 113.773 220.481 113.772C225.238 113.778 229.804 115.641 233.207 118.964C236.609 122.288 238.579 126.809 238.697 131.564C238.705 131.702 238.705 131.841 238.705 131.979Z" fill="#407BFF"/>
<path opacity="0.1" d="M231.526 117.526L205.985 143.068C203.557 139.895 202.246 136.009 202.257 132.014C202.258 131.306 202.299 130.598 202.378 129.895L218.353 113.919C219.06 113.84 219.77 113.799 220.481 113.798C224.472 113.793 228.354 115.104 231.526 117.526Z" fill="white"/>
<path opacity="0.1" d="M238.697 131.555L220.057 150.195C216.973 150.133 213.956 149.281 211.295 147.721L236.214 122.811C237.778 125.464 238.633 128.476 238.697 131.555Z" fill="white"/>
<path d="M216.122 291.759L212.93 296.68L204.921 309.04L201.513 314.29L192.405 328.337H188.85L198.105 309.04L201.513 301.93L203.658 297.45L206.391 291.759H216.122Z" fill="#407BFF"/>
<path opacity="0.2" d="M216.122 291.759L212.93 296.68L204.921 309.04L201.513 314.29L192.405 328.337H188.85L198.105 309.04L201.513 301.93L203.658 297.45L206.391 291.759H216.122Z" fill="black"/>
<path d="M254.205 291.759L253.175 293.35L243.004 309.04L239.596 314.29L230.488 328.337H226.942L236.188 309.04L239.596 301.93L243.324 294.163L244.474 291.759H254.205Z" fill="#407BFF"/>
<path opacity="0.2" d="M254.205 291.759L253.175 293.35L243.004 309.04L239.596 314.29L230.488 328.337H226.942L236.188 309.04L239.596 301.93L243.324 294.163L244.474 291.759H254.205Z" fill="black"/>
<path d="M257.872 278.742H182.45V291.759H257.872V278.742Z" fill="#407BFF"/>
<path opacity="0.2" d="M257.872 278.742H182.45V291.759H257.872V278.742Z" fill="white"/>
<path d="M214.176 328.337H210.621L201.513 314.29L198.105 309.04L191.264 298.479L186.904 291.759H196.635L199.532 297.787L201.513 301.93L204.921 309.04L214.176 328.337Z" fill="#407BFF"/>
<path d="M252.259 328.337H248.704L239.596 314.29L236.188 309.04L227.4 295.478L224.987 291.759H234.718L236.154 294.751L239.596 301.93L243.004 309.04L252.259 328.337Z" fill="#407BFF"/>
<path d="M339.748 116.54C336.888 122.37 333.631 127.997 330 133.38C329.325 134.34 328.65 135.275 327.958 136.157C324.43 140.698 320.728 144.019 317.795 143.232C301.474 138.855 291.164 125.068 291.164 125.068L294.226 121.609C294.226 121.609 313.912 129.281 315.451 129.134C316.991 128.987 326.696 104.699 326.696 104.699L339.748 116.54Z" fill="#407BFF"/>
<path opacity="0.2" d="M331.505 127.43L330 133.38C329.325 134.34 328.65 135.275 327.958 136.157C327.879 134.412 327.55 132.688 326.981 131.036C325.761 127.654 321.316 123.39 323.236 118.927C324.688 115.358 325.845 111.675 326.696 107.917L331.505 127.43Z" fill="black"/>
<path opacity="0.2" d="M323.296 140.819C321.873 139.708 320.078 139.185 318.281 139.357C316.484 139.53 314.822 140.384 313.635 141.744C313.358 142.047 312.917 141.597 313.185 141.295C314.47 139.834 316.261 138.915 318.197 138.723C320.132 138.53 322.069 139.078 323.616 140.257C323.937 140.499 323.616 141.044 323.296 140.802V140.819Z" fill="black"/>
<path d="M318.037 131.884L296.941 131.451C296.274 131.423 295.631 131.187 295.104 130.776C294.577 130.365 294.191 129.8 294.001 129.159L287.419 101.481C287.341 101.207 287.332 100.917 287.393 100.638C287.455 100.36 287.584 100.1 287.77 99.8837C287.956 99.667 288.192 99.4997 288.458 99.3967C288.725 99.2936 289.012 99.2581 289.295 99.2931L310.391 99.7343C311.058 99.7606 311.701 99.9948 312.228 100.404C312.755 100.814 313.141 101.378 313.332 102.018L319.914 129.696C319.992 129.97 320.001 130.26 319.939 130.539C319.878 130.817 319.749 131.077 319.563 131.293C319.377 131.51 319.141 131.677 318.874 131.78C318.608 131.883 318.321 131.919 318.037 131.884Z" fill="#263238"/>
<path opacity="0.2" d="M318.037 131.884L296.941 131.451C296.274 131.423 295.631 131.187 295.104 130.776C294.577 130.365 294.191 129.8 294.001 129.159L287.419 101.481C287.341 101.207 287.332 100.917 287.393 100.638C287.455 100.36 287.584 100.1 287.77 99.8837C287.956 99.667 288.192 99.4997 288.458 99.3967C288.725 99.2936 289.012 99.2581 289.295 99.2931L310.391 99.7343C311.058 99.7606 311.701 99.9948 312.228 100.404C312.755 100.814 313.141 101.378 313.332 102.018L319.914 129.696C319.992 129.97 320.001 130.26 319.939 130.539C319.878 130.817 319.749 131.077 319.563 131.293C319.377 131.51 319.141 131.677 318.874 131.78C318.608 131.883 318.321 131.919 318.037 131.884Z" fill="white"/>
<path d="M315.884 131.841L294.779 131.408C294.113 131.377 293.474 131.14 292.948 130.729C292.423 130.319 292.038 129.755 291.847 129.116L285.256 101.438C285.179 101.164 285.17 100.874 285.231 100.595C285.293 100.316 285.422 100.057 285.608 99.8405C285.794 99.6238 286.03 99.4565 286.296 99.3535C286.562 99.2504 286.85 99.2149 287.133 99.2499L308.238 99.6824C308.904 99.7136 309.544 99.9509 310.069 100.361C310.594 100.772 310.979 101.336 311.17 101.974L317.752 129.652C317.829 129.926 317.838 130.215 317.777 130.493C317.716 130.771 317.588 131.03 317.403 131.246C317.218 131.463 316.983 131.63 316.718 131.734C316.453 131.837 316.166 131.874 315.884 131.841Z" fill="#263238"/>
<path opacity="0.2" d="M297.591 116.298C297.817 117.105 298.291 117.822 298.946 118.346C299.6 118.87 300.403 119.176 301.241 119.221C301.598 119.258 301.959 119.205 302.292 119.069C302.625 118.932 302.919 118.716 303.148 118.439C303.377 118.162 303.534 117.833 303.606 117.48C303.678 117.128 303.661 116.763 303.559 116.419C303.335 115.61 302.864 114.892 302.21 114.366C301.557 113.84 300.755 113.532 299.917 113.487C299.559 113.453 299.198 113.507 298.865 113.644C298.533 113.782 298.239 113.999 298.009 114.276C297.78 114.553 297.622 114.882 297.549 115.235C297.476 115.587 297.49 115.952 297.591 116.298Z" fill="white"/>
<path d="M290.438 118.071C290.438 118.071 295.056 117.811 295.792 118.763C296.527 119.714 291.891 120.631 291.891 120.631C291.891 120.631 294.624 120.553 295.35 121.202C296.077 121.851 292.652 122.889 292.652 122.889C292.652 122.889 294.477 122.889 294.546 123.909C294.615 124.93 293.923 125.276 292.911 125.518C292.492 125.62 292.055 125.623 291.635 125.527C291.215 125.431 290.822 125.239 290.489 124.965C290.092 124.567 290.429 123.537 290.429 123.537C290.429 123.537 288.699 122.672 288.63 122.015C288.617 121.812 288.647 121.608 288.719 121.417C288.791 121.226 288.902 121.053 289.045 120.908C288.796 120.859 288.564 120.749 288.369 120.587C288.174 120.426 288.023 120.218 287.929 119.982C287.837 119.778 287.797 119.555 287.812 119.332C287.827 119.108 287.897 118.892 288.016 118.702C287.659 117.942 287.353 117.159 287.099 116.358C286.874 115.493 288.405 114.81 289.33 114.265C290.256 113.72 291.925 115.623 293.448 115.995C293.448 115.995 294.226 116.471 293.396 117.05C292.565 117.63 290.801 116.756 290.386 116.791C289.971 116.825 290.438 118.071 290.438 118.071Z" fill="#B55B52"/>
<path d="M329.723 64.1854C329.723 64.1854 323.988 66.4602 325.398 71.0357C326.808 75.6112 323.089 75.1874 322.648 79.6245C322.206 84.0616 329.74 85.4282 327.69 89.3983C325.64 93.3684 322.501 94.5187 324.559 98.385C326.618 102.251 329.368 106.68 329.368 109.543C329.368 116.324 342.342 99.6132 352.332 102.364C362.322 105.114 364.943 95.3145 360.86 93.0483C356.778 90.7822 351.485 87.4522 353.033 81.5274C354.581 75.6026 355.697 72.878 351.156 69.7988C346.615 66.7197 349.106 66.2093 346.485 63.381C344.124 60.8381 340.682 63.4589 336.971 62.3604C333.26 61.2619 329.723 64.1854 329.723 64.1854Z" fill="#263238"/>
<path d="M331.522 85.8867C331.571 86.3045 331.743 86.6985 332.015 87.0187C332.288 87.339 332.65 87.5712 333.055 87.686C333.459 87.8008 333.889 87.793 334.289 87.6636C334.69 87.5343 335.043 87.2891 335.304 86.9592C335.565 86.6293 335.722 86.2294 335.756 85.81C335.79 85.3907 335.698 84.9707 335.494 84.6032C335.289 84.2357 334.98 83.9372 334.605 83.7453C334.231 83.5535 333.808 83.4769 333.39 83.5254C333.112 83.5576 332.844 83.6442 332.599 83.7804C332.355 83.9165 332.14 84.0994 331.966 84.3188C331.793 84.5381 331.664 84.7894 331.588 85.0584C331.512 85.3275 331.489 85.6089 331.522 85.8867Z" fill="white"/>
<path d="M327.318 311.047L325.009 320.57H319.992L319.759 311.047H327.318Z" fill="#B55B52"/>
<path d="M305.418 327.308C305.695 324.203 307.053 323.277 308.739 323.174C310.426 323.07 316.74 320.968 316.74 320.968C316.74 320.968 318.046 318.996 319.205 318.598C320.364 318.2 321.463 319.368 321.463 319.368L324.62 318.987C324.62 318.987 325.562 317.569 326.211 318.806C327.214 320.734 327.076 326.062 326.998 327.308H305.418Z" fill="#407BFF"/>
<path d="M305.833 326.495H309.743L326.86 326.408C327.076 326.408 327.033 326.071 326.816 326.08H325.657C325.657 326.08 325.657 326.08 325.657 326.036C325.42 325.669 325.261 325.256 325.191 324.824C325.121 324.391 325.141 323.95 325.25 323.525C325.358 323.101 325.554 322.705 325.823 322.36C326.093 322.015 326.431 321.729 326.816 321.521C326.998 321.426 326.816 321.132 326.617 321.236C326.206 321.461 325.845 321.767 325.556 322.136C325.267 322.505 325.055 322.929 324.935 323.382C324.814 323.835 324.787 324.307 324.855 324.771C324.922 325.235 325.084 325.68 325.329 326.08H322.916L305.798 326.166C305.565 326.166 305.608 326.503 305.833 326.495Z" fill="black"/>
<path d="M317.692 322.309C316.827 321.262 315.503 320.968 314.552 321.755C314.396 321.885 314.197 321.599 314.344 321.47C315.434 320.605 316.939 320.959 317.951 322.144C318.098 322.317 317.839 322.482 317.692 322.309Z" fill="white"/>
<path d="M315.884 322.871C315.019 321.824 313.695 321.521 312.744 322.317C312.597 322.438 312.389 322.153 312.545 322.032C313.626 321.124 315.14 321.513 316.152 322.698C316.299 322.871 316.031 323.035 315.884 322.871Z" fill="white"/>
<path d="M314.094 323.424C313.229 322.378 311.905 322.084 310.954 322.871C310.798 323 310.599 322.706 310.746 322.585C311.836 321.677 313.341 322.075 314.353 323.251C314.5 323.433 314.241 323.597 314.094 323.424Z" fill="white"/>
<path d="M348.077 186.237C346.596 199.023 344.372 211.713 341.417 224.242C340.362 228.889 339.162 233.843 337.819 239.102C341.512 269.599 327.059 313.659 327.059 313.659L319.318 313.486C319.318 313.486 318.349 264.245 319.257 238.47C320.745 196.235 325.891 156.007 325.891 156.007L346.978 155.921C346.978 155.921 350.62 162.269 348.077 186.237Z" fill="#263238"/>
<path opacity="0.2" d="M348.077 186.237C346.596 199.024 344.372 211.713 341.417 224.242C336.98 207.35 345.006 171.299 345.006 171.299L348.077 186.237Z" fill="black"/>
<path d="M318.427 315.311L318.185 311.99H328.512L327.924 315.311H318.427Z" fill="#263238"/>
<path d="M359.416 311.047L357.098 320.57H352.081L351.856 311.047H359.416Z" fill="#B55B52"/>
<path d="M350.334 315.311L350.092 311.99H360.42L359.831 315.311H350.334Z" fill="#263238"/>
<path d="M337.507 327.308C337.775 324.203 339.142 323.277 340.829 323.174C342.515 323.07 348.829 320.968 348.829 320.968C348.829 320.968 350.135 318.996 351.286 318.598C352.436 318.2 353.552 319.368 353.552 319.368L356.7 318.987C356.7 318.987 357.643 317.569 358.3 318.806C359.304 320.734 359.165 326.062 359.088 327.308H337.507Z" fill="#407BFF"/>
<path d="M337.923 326.495H341.841L358.958 326.408C359.174 326.408 359.131 326.071 358.906 326.08H357.756V326.036C357.52 325.668 357.362 325.254 357.294 324.822C357.225 324.39 357.246 323.948 357.355 323.524C357.465 323.101 357.661 322.704 357.93 322.359C358.2 322.015 358.538 321.73 358.923 321.521C359.105 321.426 358.923 321.132 358.724 321.236C358.312 321.46 357.95 321.766 357.66 322.134C357.37 322.503 357.158 322.926 357.036 323.38C356.915 323.833 356.887 324.305 356.954 324.77C357.021 325.234 357.182 325.68 357.427 326.08H355.014L337.905 326.166C337.663 326.166 337.706 326.503 337.923 326.495Z" fill="black"/>
<path d="M349.789 322.309C348.924 321.262 347.592 320.968 346.649 321.755C346.494 321.885 346.286 321.599 346.442 321.47C347.532 320.605 349.037 320.959 350.049 322.144C350.196 322.317 349.928 322.482 349.789 322.309Z" fill="white"/>
<path d="M348.016 322.871C347.151 321.824 345.828 321.521 344.877 322.317C344.73 322.438 344.522 322.153 344.669 322.032C345.759 321.124 347.264 321.513 348.276 322.698C348.431 322.871 348.163 323.035 348.016 322.871Z" fill="white"/>
<path d="M346.157 323.424C345.292 322.378 343.96 322.084 343.017 322.871C342.861 323 342.654 322.706 342.81 322.585C343.899 321.677 345.404 322.075 346.416 323.251C346.563 323.433 346.295 323.597 346.157 323.424Z" fill="white"/>
<path d="M340.82 157.625C340.82 157.625 344.755 215.93 346.009 239.102C347.488 265.577 350.801 310.701 351.242 313.65H359.243C358.326 314.515 369.518 274.045 365.003 241.065C369.233 209.529 374.379 186.436 367.745 156.734L340.82 157.625Z" fill="#263238"/>
<path d="M370.184 159.043C353.37 164.596 325.113 162.771 325.113 158.922C325.113 148.076 328.953 135.88 327.924 128.813C319.975 123.252 326.194 118.227 325.493 109.984C325.26 106.947 326.171 103.932 328.047 101.532C329.922 99.1314 332.627 97.5186 335.63 97.0097C337.066 96.7676 338.554 96.5254 340.015 96.3351L340.88 96.2226C344.782 95.7786 348.709 95.5937 352.635 95.6691C354.071 95.6691 355.558 95.6691 357.115 95.7123C358.672 95.7556 360.177 95.8075 361.613 95.9113C362.877 95.9997 364.109 96.3531 365.228 96.9485C366.347 97.5438 367.328 98.3678 368.108 99.367C368.887 100.366 369.448 101.518 369.754 102.748C370.06 103.978 370.103 105.259 369.882 106.507C368.593 113.743 367.775 121.056 367.434 128.398C367.365 129.912 367.313 131.374 367.296 132.809C367.196 137.836 367.424 142.863 367.979 147.859C367.979 147.955 367.979 148.05 367.979 148.136C368.221 150.126 368.509 151.959 368.844 153.637C368.948 154.165 369.06 154.666 369.181 155.159C369.51 156.171 369.908 157.996 370.184 159.043Z" fill="#407BFF"/>
<path opacity="0.2" d="M339.644 110.105C339.644 110.213 339.612 110.318 339.552 110.408C339.492 110.497 339.407 110.567 339.307 110.608C339.208 110.65 339.098 110.66 338.992 110.639C338.887 110.618 338.79 110.566 338.713 110.49C338.637 110.414 338.585 110.317 338.564 110.211C338.543 110.105 338.554 109.996 338.595 109.896C338.636 109.797 338.706 109.712 338.796 109.652C338.885 109.592 338.991 109.56 339.099 109.56C339.243 109.56 339.382 109.617 339.484 109.72C339.586 109.822 339.644 109.96 339.644 110.105Z" fill="black"/>
<path opacity="0.2" d="M338.77 115.485C339.066 115.485 339.306 115.245 339.306 114.949C339.306 114.652 339.066 114.412 338.77 114.412C338.474 114.412 338.234 114.652 338.234 114.949C338.234 115.245 338.474 115.485 338.77 115.485Z" fill="black"/>
<path opacity="0.2" d="M338.77 120.415C339.066 120.415 339.306 120.175 339.306 119.879C339.306 119.582 339.066 119.342 338.77 119.342C338.474 119.342 338.234 119.582 338.234 119.879C338.234 120.175 338.474 120.415 338.77 120.415Z" fill="black"/>
<path d="M352.661 95.6345C348.682 102.632 339.315 106.818 339.315 106.818C338.044 103.687 338.45 98.6618 340.016 96.3005L340.881 96.188C344.791 95.7429 348.726 95.5579 352.661 95.6345Z" fill="#B55B52"/>
<path opacity="0.2" d="M368.922 153.603C352.358 151.778 336.392 136.157 336.392 136.157L367.477 146.536C367.614 147.083 367.802 147.616 368.04 148.128C368.282 150.1 368.576 151.925 368.922 153.603Z" fill="black"/>
<path opacity="0.2" d="M366.811 131.841C366.315 134.806 366.144 137.816 366.301 140.819C364.004 141.804 361.424 141.912 359.053 141.122C355.806 139.873 353.079 137.558 351.32 134.557C351.32 134.557 360.757 136.416 363.092 135.551C365.185 134.773 360.177 118.564 360.013 118.106L366.932 127.542C366.915 129.012 366.829 130.44 366.811 131.841Z" fill="black"/>
<path d="M339.912 98.385C339.876 98.4971 339.826 98.6045 339.765 98.705C338.407 100.841 339.877 102.787 342.213 102.623C342.436 102.605 342.659 102.573 342.879 102.528C343.718 102.361 344.484 101.935 345.067 101.308C346.858 99.3856 348.796 97.6042 350.862 95.9804C347.402 94.1035 346.088 87.4349 345.759 83.2659L340.318 90.1854L339.306 91.699C339.805 92.5392 340.2 93.4366 340.483 94.3717C340.723 95.0363 340.796 95.7497 340.697 96.4493C340.597 97.149 340.328 97.8136 339.912 98.385Z" fill="#B55B52"/>
<path d="M350.334 95.6345C352.246 95.1612 354.244 95.1612 356.155 95.6345L350.871 104.708C348.094 102.684 344.902 105.313 339.315 106.818C343.943 104.17 347.755 100.302 350.334 95.6345Z" fill="#407BFF"/>
<path opacity="0.2" d="M350.334 95.6345C352.246 95.1612 354.244 95.1612 356.155 95.6345L350.871 104.708C348.094 102.684 344.902 105.313 339.315 106.818C343.943 104.17 347.755 100.302 350.334 95.6345Z" fill="white"/>
<path d="M340.725 96.0496C340.725 96.0496 337.499 95.4528 335.63 96.9751C334.953 99.3166 334.447 101.704 334.117 104.119C334.117 104.119 337.222 102.571 339.306 106.818C339.315 106.818 338.26 100.046 340.725 96.0496Z" fill="#407BFF"/>
<path opacity="0.2" d="M340.725 96.0496C340.725 96.0496 337.499 95.4528 335.63 96.9751C334.953 99.3166 334.447 101.704 334.117 104.119C334.117 104.119 337.222 102.571 339.306 106.818C339.315 106.818 338.26 100.046 340.725 96.0496Z" fill="white"/>
<g opacity="0.2">
<path d="M340.491 94.3717C340.208 93.4366 339.813 92.5392 339.315 91.6991L340.327 90.1854L343.787 90.2633C343.174 91.9601 342.015 93.4053 340.491 94.3717Z" fill="black"/>
</g>
<path d="M346.762 75.836C347.307 82.6863 347.679 85.5666 344.807 89.5193C340.482 95.4701 332.127 94.6138 329.584 88.0663C327.301 82.1674 326.79 71.9611 332.923 68.3457C339.055 64.7303 346.217 68.9944 346.762 75.836Z" fill="#B55B52"/>
<path d="M333.607 67.057C333.607 67.057 332.171 72.8954 335.613 74.3571C339.056 75.8188 343.752 73.8122 343.752 78.258C343.752 80.7663 347.688 79.9878 347.446 77.6784C347.203 75.3691 348.838 70.9579 343.986 68.562C340.732 67.1078 337.139 66.5867 333.607 67.057Z" fill="#263238"/>
<path d="M343.562 81.3804C343.19 81.3691 342.825 81.2714 342.498 81.0949C340.18 79.9446 339.86 74.0716 339.851 73.8208H340.292C340.292 73.8813 340.604 79.6851 342.697 80.7403C342.9 80.868 343.131 80.9449 343.371 80.9645C343.61 80.9841 343.851 80.9457 344.072 80.8527C344.842 80.4549 345.049 79.2007 345.049 79.1921L345.482 79.2612C345.427 79.6561 345.293 80.0355 345.086 80.3762C344.879 80.7169 344.605 81.0115 344.28 81.242C344.054 81.3438 343.809 81.3912 343.562 81.3804Z" fill="#263238"/>
<path d="M333.943 68.9686C333.943 68.9686 330.146 75.0232 327.517 73.596C324.888 72.1689 331.15 65.3705 333.572 67.0571C335.993 68.7437 333.943 68.9686 333.943 68.9686Z" fill="#263238"/>
<path d="M332.439 86.3884C332.439 86.3884 335.769 84.8834 336.504 83.4303C336.504 83.4303 336.997 86.0251 335.25 86.9852C334.792 87.2571 334.249 87.3467 333.728 87.2361C333.207 87.1255 332.747 86.8228 332.439 86.3884Z" fill="white"/>
<path d="M335.094 78.8721C335.172 79.4256 334.938 79.91 334.575 79.9619C334.212 80.0138 333.866 79.6073 333.788 79.097C333.71 78.5867 333.935 78.059 334.298 78.0071C334.661 77.9553 335.016 78.3618 335.094 78.9153" fill="#263238"/>
<path d="M329.541 79.8061C329.619 80.3597 329.385 80.844 329.031 80.8959C328.676 80.9478 328.313 80.5413 328.235 79.9877C328.157 79.4342 328.382 78.9498 328.745 78.8979C329.109 78.846 329.463 79.2525 329.541 79.7628" fill="#263238"/>
<path d="M328.91 78.9066L327.535 78.7076C327.535 78.7076 328.356 79.6504 328.91 78.9066Z" fill="#263238"/>
<path d="M331.946 79.6937C331.946 79.6937 331.202 81.2852 330.346 82.7037C330.284 82.812 330.246 82.9324 330.235 83.0567C330.224 83.1809 330.24 83.3061 330.282 83.4236C330.324 83.541 330.39 83.6481 330.478 83.7373C330.565 83.8266 330.67 83.8959 330.787 83.9406C331.372 84.1202 331.975 84.2333 332.586 84.2779L331.946 79.6937Z" fill="#A02724"/>
<path d="M349.832 80.204C349.662 80.8048 349.366 81.3624 348.963 81.8397C348.56 82.317 348.061 82.7029 347.497 82.9718C346.053 83.6032 345.067 82.055 345.257 80.3165C345.43 78.7509 346.381 76.5367 347.938 76.6491C349.495 76.7616 350.325 78.6212 349.832 80.204Z" fill="#B55B52"/>
<path d="M347.229 81.709H346.944V84.892H347.229V81.709Z" fill="white"/>
<path d="M347.134 86.6045C347.774 86.6045 348.293 86.0856 348.293 85.4455C348.293 84.8054 347.774 84.2865 347.134 84.2865C346.494 84.2865 345.975 84.8054 345.975 85.4455C345.975 86.0856 346.494 86.6045 347.134 86.6045Z" fill="white"/>
<path d="M336.694 77.4275C336.649 77.4218 336.606 77.4065 336.567 77.3826C336.528 77.3588 336.495 77.3269 336.469 77.2892C336.251 76.9406 335.952 76.6491 335.599 76.4385C335.246 76.228 334.847 76.1045 334.437 76.0782C334.351 76.0783 334.269 76.0448 334.207 75.9851C334.146 75.9253 334.11 75.8439 334.108 75.7582C334.107 75.7151 334.114 75.6721 334.13 75.6318C334.145 75.5914 334.168 75.5546 334.198 75.5232C334.228 75.4919 334.263 75.4668 334.303 75.4492C334.342 75.4316 334.385 75.422 334.428 75.4209C334.95 75.445 335.458 75.5944 335.909 75.8563C336.361 76.1183 336.743 76.4852 337.023 76.9259C337.047 76.9609 337.064 77.0005 337.073 77.0422C337.082 77.084 337.082 77.1271 337.074 77.169C337.066 77.2109 337.05 77.2508 337.026 77.2863C337.003 77.3218 336.972 77.3521 336.936 77.3757C336.904 77.4007 336.866 77.4183 336.825 77.4272C336.785 77.4362 336.743 77.4363 336.703 77.4275" fill="#263238"/>
<path d="M327.31 77.6698C327.268 77.675 327.226 77.6716 327.186 77.6597C327.145 77.6478 327.108 77.6276 327.076 77.6006C327.009 77.5463 326.966 77.4678 326.956 77.382C326.946 77.2962 326.971 77.2101 327.024 77.1421C327.341 76.7296 327.752 76.3989 328.223 76.1777C328.694 75.9565 329.211 75.8512 329.731 75.8707C329.778 75.8688 329.825 75.877 329.868 75.8946C329.912 75.9122 329.951 75.9389 329.983 75.9729C330.015 76.0069 330.04 76.0474 330.055 76.0917C330.071 76.1359 330.076 76.183 330.072 76.2296C330.068 76.2763 330.053 76.3215 330.03 76.3621C330.007 76.4028 329.975 76.4381 329.937 76.4655C329.899 76.493 329.856 76.512 329.81 76.5212C329.764 76.5305 329.717 76.5299 329.671 76.5194C329.259 76.513 328.852 76.6027 328.481 76.7814C328.11 76.96 327.786 77.2228 327.534 77.5487C327.51 77.586 327.477 77.6166 327.437 77.6377C327.398 77.6589 327.354 77.6699 327.31 77.6698Z" fill="#263238"/>
<path d="M334.463 77.9725L333.079 77.7736C333.079 77.7736 333.944 78.7164 334.463 77.9725Z" fill="#263238"/>
<path d="M369.45 101.706C369.45 101.706 381.342 134.02 379.44 144.599C376.309 162.01 337.118 138.682 336.366 135.378L339.869 130.353C339.869 130.353 365.229 139.582 366.621 138.7C368.014 137.817 358.621 113.002 358.621 113.002C358.621 113.002 359.996 98.0044 369.45 101.706Z" fill="#407BFF"/>
<path opacity="0.2" d="M379.318 141.943C377.557 142.496 376.038 143.633 375.011 145.166C373.984 146.7 373.511 148.538 373.67 150.376C373.67 150.783 373.073 150.869 373.039 150.463C372.863 148.484 373.367 146.504 374.467 144.85C375.568 143.195 377.2 141.966 379.093 141.364C379.474 141.234 379.725 141.822 379.335 141.943H379.318Z" fill="black"/>
<path d="M340.889 131.365C340.889 131.365 337.23 121.721 336.374 120.908C335.518 120.095 325.934 120.129 324.948 119.879C323.962 119.628 324.507 121.41 326.254 121.652C328.002 121.894 331.185 122.716 331.185 122.716C331.185 122.716 328.226 122.508 327.664 123.183C327.102 123.857 324.628 128.701 325.312 130.967C325.995 133.233 328.771 133.372 329.636 133.562C330.501 133.752 329.636 131.374 329.636 131.374C330.371 131.687 331.15 131.885 331.946 131.962C333.312 132.117 335.094 134.738 336.443 135.335C339.004 136.555 342.065 132.04 340.889 131.365Z" fill="#B55B52"/>
<path d="M333.572 123.062C332.818 122.911 332.047 122.858 331.28 122.906C330.994 122.906 330.943 122.482 331.228 122.465C332.039 122.408 332.853 122.461 333.65 122.62C333.704 122.635 333.751 122.67 333.781 122.717C333.811 122.764 333.822 122.821 333.812 122.877C333.803 122.932 333.773 122.982 333.728 123.016C333.684 123.05 333.628 123.066 333.572 123.062Z" fill="#994731"/>
<path d="M331.237 125.06C329.922 124.618 328.469 124.195 327.154 124.861C326.903 124.99 326.644 124.627 326.895 124.497C328.374 123.71 329.931 124.151 331.427 124.653C331.695 124.74 331.505 125.146 331.237 125.06Z" fill="#994731"/>
<path d="M330 127.04C329.411 126.753 328.76 126.616 328.105 126.64C327.451 126.664 326.812 126.849 326.246 127.179C326.004 127.326 325.744 126.962 325.995 126.815C326.623 126.44 327.334 126.228 328.065 126.196C328.796 126.164 329.523 126.315 330.181 126.634C330.227 126.663 330.261 126.707 330.277 126.759C330.292 126.811 330.289 126.866 330.267 126.916C330.245 126.965 330.205 127.005 330.156 127.028C330.107 127.051 330.052 127.055 330 127.04Z" fill="#994731"/>
<path d="M329.567 131.685C329.138 131.443 328.763 131.116 328.465 130.723C328.167 130.33 327.954 129.88 327.837 129.402C327.777 129.125 328.192 128.969 328.261 129.246C328.352 129.667 328.529 130.065 328.78 130.414C329.032 130.764 329.353 131.058 329.723 131.279C329.973 131.417 329.783 131.823 329.541 131.685H329.567Z" fill="#994731"/>
<path d="M328.313 130.621C328.086 130.541 327.84 130.532 327.607 130.593C327.374 130.655 327.165 130.785 327.007 130.967C326.817 131.183 326.479 130.898 326.67 130.682C326.891 130.426 327.186 130.245 327.513 130.161C327.841 130.078 328.186 130.097 328.503 130.215C328.771 130.318 328.581 130.725 328.313 130.621Z" fill="#994731"/>
<path d="M328.858 84.2433C328.564 84.2178 328.279 84.1269 328.025 83.9773C327.77 83.8276 327.553 83.623 327.387 83.3784C326.847 82.6907 326.495 81.8738 326.367 81.0085C326.047 79.0624 326.739 77.3152 327.906 77.1249C329.074 76.9346 330.302 78.3531 330.622 80.2992C330.788 81.1659 330.722 82.0608 330.432 82.894C330.343 83.2127 330.171 83.5021 329.934 83.7329C329.697 83.9638 329.403 84.128 329.083 84.2087L328.858 84.2433ZM328.131 77.3238H327.95C326.894 77.4968 326.28 79.1229 326.583 80.9479C326.701 81.7779 327.035 82.5622 327.552 83.2227C327.716 83.4631 327.941 83.656 328.204 83.782C328.466 83.908 328.758 83.9627 329.048 83.9406C329.33 83.8685 329.588 83.7222 329.795 83.5169C330.002 83.3116 330.15 83.0548 330.224 82.7729C330.498 81.984 330.561 81.1371 330.406 80.3165C330.103 78.6558 329.109 77.3671 328.114 77.3671L328.131 77.3238Z" fill="white"/>
<path d="M334.809 83.2399C333.702 83.2399 332.612 81.8733 332.309 80.0483C332.006 78.2232 332.681 76.355 333.849 76.1647C335.016 75.9744 336.245 77.3929 336.565 79.339C336.73 80.2057 336.664 81.1006 336.374 81.9338C336.284 82.2516 336.111 82.5402 335.875 82.7708C335.638 83.0015 335.345 83.1661 335.025 83.2485L334.809 83.2399ZM334.074 76.3204H333.892C332.837 76.4934 332.223 78.1195 332.525 79.9445C332.828 81.7695 333.952 83.1101 334.99 82.9371C335.273 82.865 335.531 82.7188 335.737 82.5135C335.944 82.3082 336.092 82.0513 336.167 81.7695C336.445 80.9814 336.507 80.1335 336.348 79.3131C336.063 77.6524 335.068 76.3636 334.048 76.3636L334.074 76.3204Z" fill="white"/>
<path d="M326.531 81.1123L326.384 80.948C326.843 80.5795 327.406 80.3646 327.993 80.3339V80.5587C327.461 80.5924 326.952 80.7853 326.531 81.1123Z" fill="white"/>
<path d="M330.441 79.9619L330.268 79.8321C330.511 79.5101 330.866 79.2907 331.263 79.2171C331.66 79.1435 332.07 79.2209 332.413 79.4342L332.3 79.6245C332.005 79.4366 331.649 79.3669 331.304 79.4294C330.96 79.4919 330.651 79.682 330.441 79.9619Z" fill="white"/>
<path d="M336.435 79.0622L336.331 78.8633C336.374 78.8633 341.08 76.3463 345.992 77.194V77.4189C341.123 76.5799 336.478 79.0363 336.435 79.0622Z" fill="white"/>
<path d="M167.979 311.774L157.487 312.561L137.922 267.809L128.374 244.014L152.955 232.779L155.93 249.472L156.017 249.749L167.979 311.774Z" fill="#263238"/>
<path d="M158.318 310.381L162.089 320.293H167.305L166.171 310.381H158.318Z" fill="#B55B52"/>
<path d="M169.605 315.078L169.164 310.018H155.195L156.501 315.078H169.605Z" fill="#263238"/>
<path d="M183.401 327.308C182.674 324.082 181.118 323.113 179.362 322.983C177.606 322.853 170.712 320.691 170.712 320.691C170.712 320.691 169.069 318.641 167.815 318.226C167.404 318.138 166.976 318.167 166.58 318.309C166.184 318.451 165.836 318.701 165.575 319.03L162.253 318.624C162.253 318.624 161.077 317.162 160.523 318.442C159.944 319.921 160.134 326.287 160.169 327.291L183.401 327.308Z" fill="#407BFF"/>
<path d="M182.856 326.469H178.791L161.008 326.382C160.962 326.382 160.918 326.364 160.885 326.332C160.853 326.299 160.835 326.255 160.835 326.209C160.835 326.163 160.853 326.119 160.885 326.087C160.918 326.055 160.962 326.036 161.008 326.036H162.219C162.213 326.022 162.213 326.007 162.219 325.993C163.083 324.125 162.072 322.239 160.359 321.297C160.16 321.193 160.359 320.89 160.532 321.002C161.447 321.427 162.166 322.183 162.543 323.118C162.921 324.053 162.928 325.096 162.565 326.036H165.073L182.856 326.132C182.894 326.14 182.928 326.162 182.953 326.192C182.977 326.223 182.991 326.261 182.991 326.3C182.991 326.339 182.977 326.377 182.953 326.408C182.928 326.439 182.894 326.46 182.856 326.469Z" fill="black"/>
<path d="M169.943 322.11C170.101 321.849 170.312 321.624 170.563 321.451C170.814 321.277 171.099 321.159 171.399 321.105C171.699 321.05 172.008 321.059 172.304 321.133C172.6 321.206 172.877 321.342 173.117 321.53C173.299 321.66 173.472 321.366 173.29 321.236C173.011 321.024 172.69 320.874 172.349 320.794C172.007 320.714 171.653 320.707 171.309 320.773C170.965 320.839 170.638 320.977 170.351 321.178C170.063 321.378 169.821 321.637 169.64 321.937C169.51 322.11 169.813 322.283 169.943 322.11Z" fill="white"/>
<path d="M171.854 322.689C172.013 322.428 172.225 322.203 172.477 322.03C172.729 321.856 173.014 321.738 173.315 321.684C173.616 321.629 173.925 321.638 174.222 321.712C174.519 321.785 174.796 321.921 175.037 322.11C175.21 322.239 175.383 321.945 175.21 321.815C174.931 321.603 174.611 321.452 174.27 321.372C173.929 321.291 173.575 321.284 173.231 321.349C172.887 321.414 172.56 321.551 172.272 321.751C171.985 321.95 171.742 322.208 171.56 322.507C171.43 322.689 171.733 322.862 171.854 322.689Z" fill="white"/>
<path d="M173.835 323.26C173.995 323 174.208 322.777 174.461 322.606C174.713 322.434 174.998 322.317 175.299 322.264C175.599 322.21 175.907 322.22 176.204 322.293C176.5 322.366 176.777 322.501 177.018 322.689C177.191 322.819 177.364 322.525 177.191 322.386C176.911 322.176 176.59 322.026 176.249 321.947C175.908 321.868 175.554 321.862 175.21 321.928C174.867 321.994 174.54 322.131 174.253 322.331C173.965 322.53 173.723 322.788 173.541 323.087C173.411 323.269 173.705 323.442 173.835 323.26Z" fill="white"/>
<path d="M135.042 274.417L136.815 286.319L137.438 290.609L142.714 326.59H139.549L131.963 290.609L131.064 286.319L128.555 274.417H135.042Z" fill="#407BFF"/>
<path d="M122.665 274.417L124.43 286.319L125.061 290.609L130.337 326.59H127.163L119.577 290.609L118.678 286.319L116.169 274.417H122.665Z" fill="#407BFF"/>
<g opacity="0.2">
<path d="M122.665 274.417L124.43 286.319L125.061 290.609L130.337 326.59H127.163L119.577 290.609L118.678 286.319L116.169 274.417H122.665Z" fill="black"/>
</g>
<path d="M63.7458 265.378L59.3346 286.319L58.4351 290.609L50.8496 326.59H47.6753L52.9601 290.609L53.5828 286.319L56.6966 265.378H63.7458Z" fill="#407BFF"/>
<path d="M76.1316 265.378L71.7204 286.319L70.8122 290.609L63.2354 326.59H60.061L65.3371 290.609L65.9685 286.319L69.0823 265.378H76.1316Z" fill="#407BFF"/>
<g opacity="0.2">
<path d="M76.1316 265.378L71.7204 286.319L70.8122 290.609L63.2354 326.59H60.061L65.3371 290.609L65.9685 286.319L69.0823 265.378H76.1316Z" fill="black"/>
</g>
<path d="M56.6447 274.581H135.224L133.659 268.414C131.064 258.078 123.643 251.116 115.322 251.116H50.668L56.6447 274.581Z" fill="#407BFF"/>
<path d="M46.3431 234.829L53.7902 262.507L128.702 262.593L124.084 245.407C121.004 233.938 110.833 225.513 99.0005 225.306H98.9313C98.0663 221.993 89.59 190.708 70.5873 191.279C50.5208 191.876 54.8714 225.306 54.8714 225.306H51.4809C47.753 225.332 45.0976 230.193 46.3431 234.829Z" fill="#407BFF"/>
<g opacity="0.2">
<path d="M46.3431 234.829L53.7902 262.507L128.702 262.593L124.084 245.407C121.004 233.938 110.833 225.513 99.0005 225.306H98.9313C98.0663 221.993 89.59 190.708 70.5873 191.279C50.5208 191.876 54.8714 225.306 54.8714 225.306H51.4809C47.753 225.332 45.0976 230.193 46.3431 234.829Z" fill="black"/>
</g>
<path d="M82.9819 189.004C82.9819 189.004 85.1097 215.722 88.5002 224.268C96.2847 243.876 109.856 219.822 109.856 219.822L100.869 206.943L98.274 187.136L82.9819 189.004Z" fill="#FF8B7B"/>
<path d="M100.367 206.788L97.1668 207.462C97.0808 207.482 97.006 207.535 96.959 207.609C96.9119 207.684 96.8964 207.774 96.9159 207.86C96.9354 207.946 96.9883 208.021 97.0629 208.068C97.1375 208.115 97.2278 208.13 97.3138 208.111L100.514 207.48C100.6 207.461 100.675 207.409 100.723 207.336C100.771 207.262 100.788 207.172 100.769 207.086C100.751 207 100.699 206.925 100.625 206.877C100.552 206.829 100.462 206.812 100.376 206.831L100.367 206.788Z" fill="#742823"/>
<path d="M120.572 183.382C120.572 183.382 129.343 208.984 132.456 215.385C135.57 221.786 123.21 225.583 115.694 223.489C108.178 221.396 109.363 189.757 109.363 189.757L120.572 183.382Z" fill="#FF8B7B"/>
<path d="M103.429 155.825C103.429 155.825 93.4215 179.845 98.7149 195.145L123.798 188.295C123.798 188.295 123.919 177.051 120.831 168.099C116.005 154.044 103.429 155.825 103.429 155.825Z" fill="#407BFF"/>
<path d="M64.351 239.629C59.1613 236.169 59.0316 221.232 60.0263 207.627C60.0782 204.167 60.2252 200.231 60.5193 196.028C60.8134 191.824 61.2718 187.378 61.9464 182.812C62.8941 176.072 64.3808 169.42 66.3922 162.918C67.7329 158.68 74.6956 154.269 81.0096 152.132C85.407 150.811 90.0261 150.393 94.5891 150.904C97.9618 151.743 101.288 152.759 104.553 153.949C112.813 156.881 118.046 160.929 117.527 163.212C117.233 164.458 117.527 171.161 115.979 179.317C115.157 183.72 114.63 188.477 113.895 193.26C113.895 193.26 113.895 193.303 113.895 193.346C113.895 193.39 113.895 193.727 113.851 194.082C113.635 198.017 113.142 214.961 119.499 226.638C129.057 244.153 71.7721 244.672 64.351 239.629Z" fill="#407BFF"/>
<g opacity="0.2">
<path d="M64.351 239.629C59.1613 236.169 59.0316 221.232 60.0263 207.627C60.0782 204.167 60.2252 200.231 60.5193 196.028C60.8134 191.824 61.2718 187.378 61.9464 182.812C62.8941 176.072 64.3808 169.42 66.3922 162.918C67.7329 158.68 74.6956 154.269 81.0096 152.132C85.407 150.811 90.0261 150.393 94.5891 150.904C97.9618 151.743 101.288 152.759 104.553 153.949C112.813 156.881 118.046 160.929 117.527 163.212C117.233 164.458 117.527 171.161 115.979 179.317C115.157 183.72 114.63 188.477 113.895 193.26C113.895 193.26 113.895 193.303 113.895 193.346C113.895 193.39 113.895 193.727 113.851 194.082C113.635 198.017 113.142 214.961 119.499 226.638C129.057 244.153 71.7721 244.672 64.351 239.629Z" fill="white"/>
</g>
<path d="M103.412 166.481C103.148 166.477 102.886 166.457 102.625 166.421C94.8921 165.34 88.4051 150.852 88.3446 150.714C88.3388 150.701 88.3355 150.688 88.335 150.674C88.3345 150.66 88.3367 150.646 88.3416 150.634C88.3464 150.621 88.3537 150.609 88.3632 150.599C88.3726 150.589 88.3839 150.581 88.3965 150.575C88.4229 150.563 88.453 150.562 88.4804 150.572C88.5078 150.581 88.5305 150.601 88.5435 150.627C88.604 150.774 95.0392 165.149 102.659 166.196C103.974 166.378 104.882 166.11 105.358 165.4C107.295 162.468 101.691 153.032 101.63 152.937C101.612 152.916 101.603 152.89 101.603 152.863C101.603 152.836 101.612 152.81 101.63 152.79C101.64 152.78 101.651 152.772 101.664 152.767C101.676 152.762 101.69 152.759 101.704 152.759C101.717 152.759 101.731 152.762 101.743 152.767C101.756 152.772 101.767 152.78 101.777 152.79C102.011 153.187 107.512 162.442 105.496 165.487C105.262 165.816 104.948 166.08 104.583 166.254C104.218 166.428 103.815 166.506 103.412 166.481Z" fill="white"/>
<path d="M118.245 312.699L108.074 312.137L123.124 258.052C123.124 258.052 121.091 258.45 117.83 258.978C106.794 260.708 81.6498 263.899 73.2167 257.637C61.1076 248.607 61.9725 236.593 61.9725 236.593C61.9725 236.593 158.093 208.474 160.575 235.573C161.691 247.734 118.245 312.699 118.245 312.699Z" fill="#263238"/>
<path d="M109.336 310.727L108.298 320.293H113.505L117.181 310.727H109.336Z" fill="#B55B52"/>
<path d="M106.327 315.078L106.776 310.018H120.737L119.43 315.078H106.327Z" fill="#263238"/>
<path d="M130.631 327.308C129.905 324.082 128.356 323.113 126.592 322.983C124.827 322.853 117.942 320.691 117.942 320.691C117.942 320.691 116.308 318.641 115.054 318.226C114.642 318.138 114.215 318.167 113.819 318.309C113.423 318.451 113.075 318.701 112.813 319.03L109.483 318.624C109.483 318.624 108.316 317.162 107.805 318.442C107.217 319.921 107.416 326.287 107.451 327.291L130.631 327.308Z" fill="#407BFF"/>
<path d="M130.095 326.469H126.03L108.238 326.382C108.192 326.382 108.148 326.364 108.116 326.332C108.083 326.299 108.065 326.255 108.065 326.209C108.065 326.163 108.083 326.119 108.116 326.087C108.148 326.055 108.192 326.036 108.238 326.036H109.44C109.435 326.022 109.435 326.007 109.44 325.993C110.305 324.125 109.284 322.239 107.572 321.297C107.373 321.193 107.572 320.89 107.745 321.002C108.66 321.427 109.379 322.182 109.758 323.117C110.137 324.051 110.147 325.095 109.786 326.036H112.294L130.077 326.132C130.116 326.138 130.152 326.158 130.178 326.187C130.204 326.216 130.219 326.254 130.221 326.293C130.224 326.333 130.212 326.371 130.189 326.403C130.166 326.435 130.133 326.458 130.095 326.469Z" fill="black"/>
<path d="M117.173 322.11C117.331 321.848 117.543 321.623 117.795 321.45C118.047 321.277 118.333 321.159 118.634 321.104C118.935 321.049 119.244 321.059 119.54 321.132C119.837 321.206 120.115 321.341 120.356 321.53C120.529 321.66 120.702 321.366 120.529 321.236C120.25 321.023 119.929 320.871 119.588 320.791C119.246 320.71 118.891 320.703 118.547 320.769C118.202 320.835 117.875 320.973 117.588 321.175C117.3 321.376 117.059 321.635 116.879 321.937C116.749 322.11 117.043 322.283 117.173 322.11Z" fill="white"/>
<path d="M119.093 322.689C119.251 322.428 119.462 322.203 119.713 322.03C119.965 321.857 120.25 321.739 120.55 321.684C120.85 321.629 121.158 321.639 121.454 321.712C121.75 321.786 122.028 321.921 122.267 322.11C122.449 322.239 122.622 321.945 122.44 321.815C122.162 321.603 121.841 321.452 121.501 321.372C121.16 321.291 120.806 321.284 120.461 321.349C120.117 321.414 119.791 321.551 119.503 321.751C119.215 321.95 118.972 322.208 118.79 322.507C118.661 322.689 118.963 322.862 119.093 322.689Z" fill="white"/>
<path d="M121.074 323.26C121.232 322.999 121.444 322.776 121.696 322.603C121.947 322.431 122.232 322.314 122.532 322.26C122.832 322.206 123.14 322.216 123.436 322.29C123.732 322.364 124.009 322.5 124.248 322.689C124.43 322.819 124.594 322.525 124.421 322.386C124.141 322.176 123.82 322.026 123.479 321.947C123.138 321.868 122.784 321.862 122.441 321.928C122.097 321.994 121.771 322.131 121.483 322.331C121.196 322.53 120.953 322.788 120.771 323.087C120.641 323.269 120.944 323.442 121.074 323.26Z" fill="white"/>
<path opacity="0.2" d="M130.017 241.731L123.098 258.07C123.098 258.07 121.065 258.467 117.804 258.995C121.887 253.036 129.68 242.172 130.017 241.731Z" fill="black"/>
<path d="M81.3817 180.857C81.3817 180.857 78.1295 208.535 79.9373 212.358C81.745 216.181 117.813 218.577 117.813 218.577L119.543 220.592C119.543 220.592 81.8055 231.179 68.3298 220.661C60.381 214.468 62.0244 177.838 62.0244 177.838L81.3817 180.857Z" fill="#FF8B7B"/>
<path d="M66.8337 161.958C62.2928 168.54 60.3986 179.802 59.5596 190.328L84.0805 188.97C84.0805 188.97 86.7791 178.072 85.8104 168.635C85.2222 162.676 82.2728 159.856 78.9601 158.611C73.7013 156.604 70.0599 157.313 66.8337 161.958Z" fill="#407BFF"/>
<path d="M95.8867 226.577H157.548L159.304 220.67H97.6425L95.8867 226.577Z" fill="#407BFF"/>
<g opacity="0.5">
<path d="M95.8867 226.577H157.548L159.304 220.67H97.6425L95.8867 226.577Z" fill="white"/>
</g>
<path d="M119.179 223.524H153.647C154.238 223.529 154.814 223.336 155.283 222.978C155.753 222.619 156.09 222.115 156.242 221.543L163.161 195.5C163.266 195.104 163.278 194.688 163.197 194.286C163.116 193.884 162.943 193.506 162.692 193.182C162.441 192.858 162.119 192.595 161.75 192.415C161.382 192.235 160.977 192.143 160.567 192.144H125.597C124.828 192.141 124.079 192.394 123.47 192.864C122.86 193.334 122.425 193.994 122.233 194.739L115.78 219.156C115.639 219.674 115.621 220.218 115.726 220.745C115.832 221.271 116.058 221.766 116.388 222.19C116.718 222.614 117.142 222.955 117.626 223.186C118.111 223.418 118.642 223.534 119.179 223.524Z" fill="#407BFF"/>
<g opacity="0.5">
<path d="M119.179 223.524H153.647C154.238 223.529 154.814 223.336 155.283 222.978C155.753 222.619 156.09 222.115 156.242 221.543L163.161 195.5C163.266 195.104 163.278 194.688 163.197 194.286C163.116 193.884 162.943 193.506 162.692 193.182C162.441 192.858 162.119 192.595 161.75 192.415C161.382 192.235 160.977 192.143 160.567 192.144H125.597C124.828 192.141 124.079 192.394 123.47 192.864C122.86 193.334 122.425 193.994 122.233 194.739L115.78 219.156C115.639 219.674 115.621 220.218 115.726 220.745C115.832 221.271 116.058 221.766 116.388 222.19C116.718 222.614 117.142 222.955 117.626 223.186C118.111 223.418 118.642 223.534 119.179 223.524Z" fill="white"/>
</g>
<path d="M122.017 223.524H156.484C157.075 223.529 157.651 223.336 158.121 222.978C158.59 222.619 158.928 222.115 159.079 221.543L165.999 195.5C166.104 195.104 166.116 194.688 166.034 194.286C165.953 193.884 165.78 193.506 165.529 193.182C165.278 192.858 164.956 192.595 164.588 192.415C164.219 192.235 163.814 192.143 163.404 192.144H128.469C127.7 192.141 126.951 192.394 126.341 192.864C125.732 193.334 125.297 193.994 125.104 194.739L118.678 219.156C118.538 219.669 118.519 220.208 118.621 220.73C118.723 221.252 118.945 221.743 119.268 222.165C119.591 222.588 120.007 222.93 120.483 223.166C120.96 223.402 121.485 223.524 122.017 223.524Z" fill="#407BFF"/>
<g opacity="0.8">
<path d="M122.017 223.524H156.484C157.075 223.529 157.651 223.336 158.121 222.978C158.59 222.619 158.928 222.115 159.079 221.543L165.999 195.5C166.104 195.104 166.116 194.688 166.034 194.286C165.953 193.884 165.78 193.506 165.529 193.182C165.278 192.858 164.956 192.595 164.588 192.415C164.219 192.235 163.814 192.143 163.404 192.144H128.469C127.7 192.141 126.951 192.394 126.341 192.864C125.732 193.334 125.297 193.994 125.104 194.739L118.678 219.156C118.538 219.669 118.519 220.208 118.621 220.73C118.723 221.252 118.945 221.743 119.268 222.165C119.591 222.588 120.007 222.93 120.483 223.166C120.96 223.402 121.485 223.524 122.017 223.524Z" fill="white"/>
</g>
<path d="M139.35 208.119C139.236 208.577 139.229 209.054 139.328 209.515C139.428 209.976 139.632 210.408 139.924 210.778C140.216 211.148 140.589 211.446 141.014 211.649C141.439 211.852 141.906 211.956 142.377 211.951C143.423 211.89 144.419 211.479 145.203 210.784C145.987 210.089 146.515 209.151 146.702 208.119C146.815 207.662 146.822 207.184 146.723 206.723C146.623 206.261 146.42 205.829 146.128 205.459C145.836 205.088 145.463 204.789 145.038 204.585C144.612 204.38 144.146 204.276 143.674 204.279C142.627 204.342 141.632 204.755 140.848 205.451C140.063 206.148 139.536 207.087 139.35 208.119Z" fill="#407BFF"/>
<g opacity="0.5">
<path d="M139.35 208.119C139.236 208.577 139.229 209.054 139.328 209.515C139.428 209.976 139.632 210.408 139.924 210.778C140.216 211.148 140.589 211.446 141.014 211.649C141.439 211.852 141.906 211.956 142.377 211.951C143.423 211.89 144.419 211.479 145.203 210.784C145.987 210.089 146.515 209.151 146.702 208.119C146.815 207.662 146.822 207.184 146.723 206.723C146.623 206.261 146.42 205.829 146.128 205.459C145.836 205.088 145.463 204.789 145.038 204.585C144.612 204.38 144.146 204.276 143.674 204.279C142.627 204.342 141.632 204.755 140.848 205.451C140.063 206.148 139.536 207.087 139.35 208.119Z" fill="white"/>
</g>
<path d="M118.384 128.433C118.046 129.384 116.654 129.601 116.654 129.601C116.654 129.601 117.969 131.253 117.311 131.806C116.654 132.36 115.227 131.806 115.227 131.806C115.387 132.061 115.492 132.347 115.535 132.645C115.579 132.942 115.559 133.246 115.478 133.536C115.175 134.496 114.786 134.133 114.786 134.133L93.7157 130.751C94.0882 129.111 94.0882 127.409 93.7157 125.769C93.0497 123.494 92.1415 120.38 93.24 119.827C94.3385 119.273 94.8661 119.827 94.8661 119.827C94.8661 119.827 94.7796 117.491 95.9127 117.301C96.2105 117.24 96.5177 117.241 96.8152 117.303C97.1128 117.366 97.3944 117.489 97.6425 117.664C97.6425 117.664 97.7809 116.021 98.8102 115.874C99.1066 115.846 99.4035 115.922 99.6498 116.09C99.8961 116.257 100.076 116.505 100.159 116.791C100.159 116.791 101.344 115.173 102.512 115.147C103.68 115.122 103.835 116.454 103.835 116.454C103.835 116.454 105.704 114.931 106.569 115.528C107.114 115.974 107.531 116.556 107.78 117.215C107.78 117.215 109.596 115.346 110.374 116.35C110.864 117.032 111.135 117.846 111.153 118.685C111.153 118.685 113.497 116.955 114.12 118.036C114.488 118.784 114.606 119.63 114.457 120.45C114.457 120.45 116.464 119.351 117.052 120.744C117.209 121.177 117.253 121.643 117.177 122.098C117.101 122.553 116.909 122.98 116.619 123.338C116.619 123.338 118.487 123.563 118.418 124.662C118.349 125.76 116.688 126.729 116.688 126.729C116.688 126.729 118.678 127.473 118.384 128.433Z" fill="#263238"/>
<path d="M102.737 149.269V149.339L101.267 152.522C101.071 153.179 100.941 153.854 100.877 154.537C100.82 155.088 100.806 155.644 100.834 156.197C101.396 157.339 101.336 159.657 98.7236 159.233C95.4282 158.671 90.23 152.781 90.2732 151.285C92.5912 147.055 94.8055 142.013 95.3158 137.671L98.3604 142.402L102.737 149.269Z" fill="#FF8B7B"/>
<g opacity="0.2">
<path d="M102.694 149.347L101.223 152.53C99.3206 151.224 97.5302 148.811 97.4177 146.527C97.3572 144.884 98.3346 143.535 98.9833 143.561L102.694 149.347Z" fill="black"/>
</g>
<path d="M96.0077 129.531C96.3933 127.936 97.1781 126.466 98.2884 125.257C99.3986 124.049 100.798 123.143 102.355 122.624C103.911 122.105 105.574 121.99 107.188 122.291C108.801 122.591 110.311 123.297 111.577 124.342C117.354 129.099 115.149 138.648 111.213 145.905C107.754 152.296 98.7928 150.774 95.2898 143.941C92.9631 139.409 94.2691 136.468 95.9644 129.575" fill="#FF8B7B"/>
<path d="M108.298 143.656C108.298 143.656 105.107 142.791 103.628 140.655C103.628 140.655 103.489 143.18 104.916 144.599C106.344 146.017 108.298 143.656 108.298 143.656Z" fill="white"/>
<path d="M95.8174 130.172C95.8174 130.172 97.9019 130.639 97.677 132.455C97.4521 134.271 97.2186 134.479 97.2186 134.479L99.6145 135.439C99.6145 135.439 100.125 128.442 101.924 128.84C103.723 129.237 102.296 125.812 103.463 125.553C106.214 124.947 113.229 126.106 115.192 130.794C115.192 130.794 115.192 126.47 112.277 123.693C109.362 120.917 102.763 119.23 99.4674 122.041C96.172 124.852 95.8174 130.172 95.8174 130.172Z" fill="#263238"/>
<path d="M91.6917 133.138C91.6652 134.923 92.3462 136.646 93.5859 137.93C95.2379 139.66 97.2446 138.423 97.7722 136.2C98.2392 134.245 97.9538 131.01 95.8174 130.145C93.681 129.281 91.7522 130.924 91.6917 133.112" fill="#FF8B7B"/>
<path d="M105.133 136.07C104.96 136.624 105.133 137.16 105.47 137.272C105.808 137.385 106.257 137.03 106.43 136.485C106.603 135.94 106.43 135.396 106.093 135.283C105.756 135.171 105.297 135.525 105.133 136.07Z" fill="#263238"/>
<path d="M111.188 137.887C111.015 138.44 111.188 138.977 111.525 139.089C111.862 139.201 112.321 138.847 112.494 138.293C112.667 137.74 112.494 137.203 112.148 137.091C111.802 136.979 111.361 137.333 111.188 137.887Z" fill="black"/>
<path d="M114.059 136.096C114.012 136.078 113.971 136.048 113.938 136.011C113.905 135.973 113.881 135.928 113.869 135.88C113.839 135.683 113.77 135.495 113.666 135.325C113.562 135.156 113.425 135.009 113.263 134.894C112.914 134.707 112.511 134.646 112.121 134.721C112.048 134.737 111.971 134.725 111.907 134.686C111.843 134.647 111.796 134.586 111.775 134.513C111.766 134.478 111.765 134.44 111.77 134.404C111.776 134.368 111.789 134.333 111.808 134.301C111.827 134.27 111.853 134.242 111.883 134.221C111.913 134.2 111.947 134.184 111.983 134.176C112.523 134.063 113.085 134.149 113.566 134.418C113.795 134.571 113.991 134.77 114.14 135.002C114.288 135.235 114.388 135.495 114.431 135.768C114.44 135.804 114.441 135.841 114.435 135.877C114.428 135.914 114.415 135.948 114.394 135.979C114.374 136.01 114.348 136.036 114.317 136.057C114.286 136.077 114.251 136.09 114.215 136.096C114.164 136.111 114.11 136.111 114.059 136.096Z" fill="#263238"/>
<path d="M104.623 133.346C104.577 133.332 104.535 133.307 104.502 133.273C104.469 133.239 104.445 133.197 104.433 133.151C104.42 133.105 104.42 133.056 104.432 133.01C104.444 132.964 104.468 132.922 104.501 132.887C104.89 132.499 105.406 132.265 105.955 132.23C106.229 132.234 106.5 132.294 106.75 132.407C107 132.52 107.224 132.684 107.408 132.887C107.442 132.911 107.47 132.942 107.49 132.979C107.511 133.015 107.524 133.055 107.527 133.096C107.531 133.138 107.525 133.179 107.511 133.218C107.497 133.257 107.474 133.293 107.445 133.322C107.415 133.352 107.38 133.374 107.341 133.388C107.302 133.403 107.26 133.408 107.219 133.405C107.177 133.401 107.137 133.389 107.101 133.368C107.065 133.347 107.034 133.319 107.01 133.285C106.878 133.138 106.719 133.018 106.541 132.934C106.362 132.849 106.169 132.801 105.972 132.792C105.571 132.821 105.193 132.993 104.908 133.277C104.872 133.314 104.826 133.34 104.775 133.352C104.725 133.364 104.672 133.362 104.623 133.346Z" fill="#263238"/>
<path d="M109.267 136.356C109.21 137.569 109.511 138.772 110.132 139.815C111.144 141.416 108.1 141.589 108.1 141.589L109.267 136.356Z" fill="#BA4D3C"/>
</svg>
