<svg width="196" height="60" viewBox="0 0 196 60" fill="none" xmlns="http://www.w3.org/2000/svg">
<g clip-path="url(#clip0_342_2607)">
<path d="M36.2325 34.0795C34.9122 35.4282 33.5107 36.6933 32.0362 37.8676C32.2391 37.753 32.3897 37.5629 32.4558 37.3378C32.4558 36.914 32.1935 36.5961 31.8264 35.7484L31.5903 35.0067L31.9837 34.6358L32.3509 34.2649C32.9279 33.6557 33.4524 33.0729 33.9245 32.4636C34.1173 32.8677 34.3999 33.2213 34.7501 33.497C35.1004 33.7727 35.509 33.9629 35.944 34.053L36.2325 34.0795Z" fill="#BA1818"/>
<path d="M43.1828 23.4041V26.0531L40.2454 27.0862L36.5212 28.5166L29.9121 31.1656L26.9747 32.2782C26.8831 32.1126 26.7502 31.9741 26.5891 31.8765C26.4281 31.7789 26.2445 31.7256 26.0568 31.7219C25.8037 31.7622 25.5732 31.8924 25.4068 32.0891C25.2403 32.2858 25.1489 32.536 25.1489 32.7948C25.1489 33.0535 25.2403 33.3038 25.4068 33.5005C25.5732 33.6971 25.8037 33.8273 26.0568 33.8676C26.2351 33.865 26.4099 33.8176 26.5656 33.7297C26.7212 33.6419 26.8528 33.5163 26.9485 33.3643L29.7547 34.4239L31.5906 35.1127C30.9087 35.7749 32.7708 37.4173 31.9578 38.0531L29.3351 37.0464L22.5161 34.3974L21.5195 34.0266V31.51L22.4637 31.1392L35.0001 26.159H21.5195V23.51H43.1828V23.4041Z" fill="white"/>
<path d="M42.868 39.2451V41.8941H21.4932V39.2451H35.3147L31.9576 37.9736C32.7707 37.3378 33.5575 36.702 34.2656 36.0398L42.868 39.2451Z" fill="white"/>
<path d="M36.2325 33.2584C37.1305 33.2584 37.8586 32.5231 37.8586 31.616C37.8586 30.709 37.1305 29.9736 36.2325 29.9736C35.3345 29.9736 34.6064 30.709 34.6064 31.616C34.6064 32.5231 35.3345 33.2584 36.2325 33.2584Z" fill="#BA1818"/>
<path d="M23.093 42.9272C24.6666 44.4107 27.1843 44.2782 32.2461 44.0663C35.0828 43.937 37.9058 43.5916 40.6911 43.0332V46.3709H26.3713C25.4247 45.7611 24.5455 45.0506 23.7486 44.2517L23.3814 43.8544C22.9079 43.3283 22.4698 42.7708 22.0701 42.1855C21.4397 41.2439 20.9038 40.2411 20.4703 39.1921C18.9324 35.1325 18.9324 30.6424 20.4703 26.5829C21.6148 23.6208 23.6872 21.1183 26.3713 19.457H40.6911V22.8213C37.5892 22.345 34.4633 22.0443 31.3282 21.9206C24.9288 21.6292 23.7748 22.2915 23.093 22.9272C22.4111 23.563 21.7554 24.6226 21.7292 31.9868C21.6767 38.3709 21.7029 41.6027 23.093 42.9272Z" fill="#29235C"/>
<path d="M31.9577 37.9469L30.2005 39.2185H26.0566C27.2368 38.4767 28.3384 37.682 29.335 36.9138L31.9577 37.9469Z" fill="#BA1818"/>
<path d="M44.3105 32.6754H49.7394V48.7549C47.7273 50.5066 45.392 51.839 42.868 52.6754C40.2453 53.5527 37.5004 53.9999 34.7377 53.9999C31.8582 54.0285 29.0001 53.4979 26.3189 52.437C23.8127 51.4417 21.5361 49.9358 19.6311 48.0132C18.9729 47.3567 18.3677 46.648 17.8215 45.894C17.3833 45.362 16.9886 44.795 16.6413 44.1986C16.0981 43.2918 15.6246 42.3442 15.225 41.3642C14.1345 38.694 13.5903 35.8285 13.6252 32.9403C13.5844 30.0516 14.1288 27.1849 15.225 24.5165C16.2357 21.9935 17.7455 19.7055 19.6621 17.7924C21.5787 15.8794 23.8617 14.3815 26.3714 13.3906C29.066 12.3126 31.9446 11.7815 34.8426 11.8277C37.7849 11.7904 40.7063 12.3301 43.445 13.4171C46.0047 14.4436 48.281 16.0794 50.0803 18.1853L46.566 21.841C45.0876 20.2746 43.3008 19.0384 41.3206 18.2118C39.3076 17.419 37.1603 17.0321 35 17.0728C32.8383 17.0446 30.6917 17.4404 28.6793 18.2383C27.851 18.5754 27.0526 18.983 26.2927 19.4569C23.6281 21.1269 21.575 23.6285 20.4441 26.5827C19.4083 29.1133 19.0121 31.8645 19.2914 34.5883C19.5707 37.3121 20.5166 39.9229 22.044 42.1853C22.4436 42.7706 22.8817 43.3282 23.3553 43.8542L23.7225 44.2516C24.5193 45.0505 25.3986 45.7609 26.3451 46.3708C27.0935 46.8415 27.8837 47.2406 28.7056 47.5628C30.7065 48.3717 32.8449 48.7766 35 48.7549C37.0713 48.7597 39.1286 48.4104 41.0846 47.7218C42.2181 47.3191 43.294 46.7668 44.2842 46.0794L44.3105 32.6754Z" fill="#4CB2DE"/>
<path opacity="0.25" fill-rule="evenodd" clip-rule="evenodd" d="M22.1491 23.8279C20.817 26.6418 20.1098 29.7157 20.0771 32.8345C20.4429 36.1805 21.1369 39.4815 22.1491 42.6888C20.512 36.5106 20.512 30.0061 22.1491 23.8279Z" fill="url(#paint0_radial_342_2607)"/>
<path d="M40.8225 45.8411C41.4019 45.8411 41.8716 45.3667 41.8716 44.7815C41.8716 44.1963 41.4019 43.7219 40.8225 43.7219C40.2431 43.7219 39.7734 44.1963 39.7734 44.7815C39.7734 45.3667 40.2431 45.8411 40.8225 45.8411Z" fill="#29235C"/>
<path d="M40.8225 22.106C41.4019 22.106 41.8716 21.6316 41.8716 21.0464C41.8716 20.4612 41.4019 19.9868 40.8225 19.9868C40.2431 19.9868 39.7734 20.4612 39.7734 21.0464C39.7734 21.6316 40.2431 22.106 40.8225 22.106Z" fill="#29235C"/>
<path d="M43.4451 25.7615C44.0244 25.7615 44.4941 25.2871 44.4941 24.7019C44.4941 24.1167 44.0244 23.6423 43.4451 23.6423C42.8657 23.6423 42.396 24.1167 42.396 24.7019C42.396 25.2871 42.8657 25.7615 43.4451 25.7615Z" fill="white"/>
<path d="M48.533 21.0198C49.1123 21.0198 49.582 20.5454 49.582 19.9602C49.582 19.375 49.1123 18.9006 48.533 18.9006C47.9536 18.9006 47.4839 19.375 47.4839 19.9602C47.4839 20.5454 47.9536 21.0198 48.533 21.0198Z" fill="#4CB2DE"/>
<path d="M47.0906 33.5233C47.67 33.5233 48.1396 33.0489 48.1396 32.4637C48.1396 31.8785 47.67 31.4041 47.0906 31.4041C46.5112 31.4041 46.0415 31.8785 46.0415 32.4637C46.0415 33.0489 46.5112 33.5233 47.0906 33.5233Z" fill="#4CB2DE"/>
<path d="M34.633 33.8411L34.4757 33.6821V33.9205V33.7086L34.633 33.8676V33.8411Z" fill="white"/>
<path d="M33.4789 35.086H33.1904V34.7946L34.2657 33.9469H34.292H34.2657L34.292 33.9204L34.3969 33.7085H34.4755L34.6329 33.8674L34.6067 33.9734L34.3969 34.0529H34.3706L33.4789 35.086Z" fill="white"/>
<path d="M42.3695 25.0198V24.7019H42.2384L41.8975 24.8608L42.2122 24.7284H42.3433V25.0463H42.2122L41.8975 24.9138L42.2384 25.0728L42.3695 25.0198Z" fill="#29235C"/>
<path d="M39.9042 25.1787L39.6157 24.8608L39.9042 24.543L41.8974 24.7549H41.9237L42.2384 24.6224L42.3695 24.7019V25.0198L42.2384 25.0993L41.9237 24.9933V24.9668H41.8974L39.9042 25.1787Z" fill="#29235C"/>
<path d="M47.1955 33.7615L47.4053 35.7747L47.0906 36.0661L46.7759 35.7747L46.9857 33.7615L46.7759 35.8012L47.0906 36.0926L47.4053 35.8012L47.1955 33.7615Z" fill="white"/>
<path d="M47.2479 33.2583H46.9332V33.4172L47.0905 33.7351L46.8545 33.4172V33.2848H47.1692V33.4172L47.0381 33.7351L47.1954 33.3908L47.2479 33.2583Z" fill="white"/>
<path d="M47.4053 35.7747L47.0906 36.0661L46.7759 35.7747L46.9857 33.7615V33.735L46.8546 33.4171L46.9332 33.2847H47.248L47.3266 33.4171L47.1955 33.735V33.7615L47.4053 35.7747Z" fill="white"/>
<path d="M40.0617 44.9404V44.6226L39.7207 44.755H40.0354V45.0729L39.7207 44.9404L40.0617 45.0994V44.9404Z" fill="white"/>
<path d="M37.5966 45.0994L37.3081 44.7815L37.5966 44.4636L39.5898 44.6755H39.6161L39.9308 44.5431L40.0619 44.6226V44.9404L39.9308 45.0199L39.6161 44.8875H39.5898L37.5966 45.0994Z" fill="white"/>
<path d="M47.2477 19.1391L47.4837 18.9006V18.7417H47.1428L47.4313 18.9006L47.1952 19.1391H47.0379L46.9067 18.8212L47.0379 19.1655L47.2477 19.1391Z" fill="white"/>
<path d="M45.4385 17.4436V17.0198H45.8843L47.117 18.6092H47.1432L47.4579 18.7681L47.4842 18.9006L47.2481 19.139L47.0908 19.1125L46.9859 18.7681H46.9596H46.9859L46.9596 18.7416L45.4385 17.4436Z" fill="white"/>
<path opacity="0.25" fill-rule="evenodd" clip-rule="evenodd" d="M49.7393 32.6755C49.7393 32.6755 47.6149 40.3577 44.3628 42.5828C46.0003 41.5094 47.3486 40.0424 48.2869 38.3134C49.2252 36.5843 49.7242 34.6472 49.7393 32.6755Z" fill="url(#paint1_radial_342_2607)"/>
<path opacity="0.25" fill-rule="evenodd" clip-rule="evenodd" d="M43.8647 13.6555C43.8647 13.6555 43.5238 19.139 46.4874 21.6025C46.4611 21.7085 41.3994 17.682 43.8647 13.6555Z" fill="url(#paint2_radial_342_2607)"/>
<path d="M40.2451 21.2053V20.8875H39.9042H40.2189V21.2053H39.8779L40.2189 21.3643L40.2451 21.2053Z" fill="white"/>
<path d="M37.8324 21.3643L37.5439 21.0464L37.8324 20.7285L39.8257 20.9404H39.8519L40.1666 20.808L40.2978 20.8875V21.2053L40.1666 21.2848L39.8519 21.1524H39.8257L37.8324 21.3643Z" fill="white"/>
<path opacity="0.25" fill-rule="evenodd" clip-rule="evenodd" d="M43.1828 25.9735C43.1828 25.9735 37.1244 25.9735 37.0195 23.3245C37.0195 23.3774 36.5736 27.3245 43.1828 25.9735Z" fill="url(#paint3_radial_342_2607)"/>
<path opacity="0.25" fill-rule="evenodd" clip-rule="evenodd" d="M36.2325 34.0796C36.2325 34.0796 33.6098 35.9339 31.5903 35.0067C31.5903 35.0067 33.0328 36.7551 36.2325 34.0796Z" fill="url(#paint4_radial_342_2607)"/>
<path opacity="0.25" fill-rule="evenodd" clip-rule="evenodd" d="M35.8657 44.0132C37.2422 45.1685 38.9162 45.9036 40.6914 46.1324C39.7735 46.2398 38.8439 46.1003 37.9964 45.7282C37.149 45.3561 36.414 44.7644 35.8657 44.0132Z" fill="url(#paint5_radial_342_2607)"/>
<path opacity="0.25" fill-rule="evenodd" clip-rule="evenodd" d="M35.8657 21.6026C37.2489 20.4584 38.9196 19.7247 40.6914 19.4834C39.7735 19.376 38.8439 19.5155 37.9964 19.8876C37.149 20.2597 36.414 20.8514 35.8657 21.6026Z" fill="url(#paint6_radial_342_2607)"/>
<path opacity="0.25" fill-rule="evenodd" clip-rule="evenodd" d="M21.2311 19.457C21.2311 19.457 7.35713 33.8146 22.5162 47.3511C19.4257 43.4284 17.638 38.6216 17.4073 33.614C17.1766 28.6063 18.5146 23.6526 21.2311 19.457Z" fill="url(#paint7_radial_342_2607)"/>
<path opacity="0.25" d="M43.2876 23.6424C43.4502 23.627 43.6141 23.6475 43.768 23.7024C43.922 23.7573 44.0623 23.8453 44.1793 23.9603C44.3464 24.145 44.4559 24.3753 44.494 24.6225C44.502 24.7844 44.4757 24.946 44.4169 25.0968C44.3582 25.2475 44.2682 25.3839 44.1531 25.4967C43.9095 25.695 43.5992 25.79 43.2876 25.7616C43.4348 25.7517 43.5785 25.712 43.7102 25.6449C43.8419 25.5778 43.959 25.4846 44.0544 25.371C44.1498 25.2573 44.2216 25.1255 44.2656 24.9833C44.3096 24.8411 44.3248 24.6914 44.3104 24.5431C44.256 24.3031 44.1277 24.0866 43.9439 23.9248C43.7602 23.763 43.5304 23.6642 43.2876 23.6424Z" fill="url(#paint8_radial_342_2607)"/>
<path opacity="0.25" d="M40.6914 19.9867C40.8406 19.9571 40.9942 19.9583 41.1429 19.9901C41.2916 20.022 41.4325 20.0839 41.5569 20.1721C41.652 20.2601 41.7289 20.3663 41.7829 20.4845C41.8369 20.6028 41.8671 20.7307 41.8716 20.8609C41.8779 21.0225 41.8509 21.1837 41.7922 21.3342C41.7335 21.4847 41.6444 21.6212 41.5307 21.7351C41.4155 21.8337 41.2818 21.908 41.1376 21.9535C40.9935 21.999 40.8417 22.0148 40.6914 22C40.9813 21.9665 41.2472 21.8209 41.433 21.5937C41.6189 21.3664 41.7103 21.0753 41.688 20.7814C41.6307 20.5571 41.5023 20.358 41.3223 20.2145C41.1423 20.071 40.9207 19.9909 40.6914 19.9867Z" fill="url(#paint9_radial_342_2607)"/>
<path opacity="0.25" d="M49.1622 19.1125C49.2925 19.2072 49.4001 19.33 49.4773 19.4721C49.5544 19.6142 49.5991 19.7719 49.608 19.9337C49.6091 20.1963 49.5159 20.4504 49.3458 20.649C49.2441 20.7724 49.1152 20.8702 48.9696 20.9346C48.8239 20.999 48.6653 21.0282 48.5065 21.0198C48.354 21.0188 48.2038 20.9825 48.0674 20.9136C47.931 20.8447 47.812 20.7451 47.7197 20.6225C47.946 20.8082 48.2359 20.8958 48.5259 20.866C48.816 20.8362 49.0825 20.6915 49.2671 20.4635C49.4086 20.2614 49.4756 20.0157 49.4564 19.7689C49.4373 19.5221 49.3332 19.2899 49.1622 19.1125Z" fill="url(#paint10_radial_342_2607)"/>
<path opacity="0.25" d="M46.0413 32.5961C46.0264 32.436 46.0469 32.2745 46.1014 32.1233C46.1558 31.9721 46.2428 31.835 46.3561 31.722C46.5314 31.5423 46.7633 31.4299 47.0117 31.4041C47.1677 31.3909 47.3246 31.4132 47.471 31.4692C47.6174 31.5252 47.7494 31.6137 47.8576 31.728C47.9657 31.8423 48.0472 31.9796 48.0959 32.1298C48.1447 32.28 48.1596 32.4393 48.1395 32.5961C48.1263 32.4498 48.0846 32.3075 48.0168 32.1775C47.9489 32.0475 47.8562 31.9324 47.744 31.8388C47.6318 31.7452 47.5024 31.675 47.3632 31.6322C47.224 31.5894 47.0778 31.5749 46.9331 31.5895C46.6957 31.6353 46.4798 31.7586 46.3187 31.9405C46.1575 32.1224 46.0601 32.3528 46.0413 32.5961Z" fill="url(#paint11_radial_342_2607)"/>
<path opacity="0.25" d="M35.2886 30.2914C35.48 30.1537 35.6984 30.0588 35.9291 30.0131C36.1597 29.9674 36.3974 29.972 36.6261 30.0265C37.0372 30.133 37.3908 30.3977 37.6113 30.764C37.8318 31.1302 37.9018 31.569 37.8063 31.9867C37.6776 32.4455 37.3764 32.8352 36.9671 33.0728C37.3057 32.7925 37.5246 32.3912 37.5783 31.9523C37.632 31.5134 37.5165 31.0704 37.2556 30.7152C37.0196 30.4358 36.6989 30.2428 36.3433 30.1662C35.9877 30.0895 35.6169 30.1335 35.2886 30.2914Z" fill="url(#paint12_radial_342_2607)"/>
<path opacity="0.25" d="M40.6914 43.7219C40.8482 43.6995 41.0079 43.7141 41.1581 43.7647C41.3083 43.8152 41.4448 43.9003 41.5569 44.0132C41.6532 44.1002 41.7308 44.2062 41.785 44.3246C41.8391 44.4431 41.8686 44.5715 41.8716 44.702C41.8793 44.8598 41.8527 45.0174 41.7938 45.1639C41.7349 45.3103 41.6451 45.4419 41.5307 45.5497C41.4239 45.6612 41.2911 45.7439 41.1445 45.7902C40.9979 45.8365 40.8421 45.8449 40.6914 45.8146C40.8352 45.8046 40.9755 45.7656 41.104 45.6999C41.2326 45.6341 41.3467 45.5429 41.4397 45.4317C41.5326 45.3205 41.6025 45.1916 41.6452 45.0526C41.6878 44.9136 41.7024 44.7673 41.688 44.6225C41.6516 44.3787 41.5321 44.1554 41.3502 43.991C41.1683 43.8266 40.9353 43.7314 40.6914 43.7219Z" fill="url(#paint13_radial_342_2607)"/>
<path d="M10.1634 51.9603C10.0509 51.9675 9.9388 51.9412 9.84092 51.8847C9.74304 51.8282 9.66369 51.744 9.61267 51.6424C7.7997 48.366 6.62457 44.7692 6.15074 41.0464C6.13538 40.8788 6.18376 40.7116 6.28607 40.5788C6.38837 40.4459 6.53691 40.3574 6.70151 40.3312C6.86743 40.3157 7.03297 40.3645 7.1645 40.4679C7.29603 40.5712 7.38368 40.7212 7.40963 40.8875C7.85927 44.4181 8.98144 47.8274 10.7142 50.9272C10.7887 51.0751 10.8029 51.2466 10.7539 51.405C10.7049 51.5634 10.5965 51.6961 10.4519 51.7749C10.379 51.8675 10.2774 51.9328 10.1634 51.9603Z" fill="#3ABFF0"/>
<path d="M6.57025 36.7549C6.48179 36.7596 6.39339 36.7445 6.31134 36.7108C6.22929 36.6771 6.1556 36.6255 6.09552 36.5597C6.03543 36.494 5.99042 36.4157 5.96368 36.3304C5.93694 36.2451 5.92913 36.1549 5.94081 36.0662C5.99071 34.904 6.10453 33.7454 6.28176 32.596C7.25297 26.448 10.1482 20.7757 14.5432 16.4106C14.5997 16.3479 14.6686 16.2979 14.7453 16.2636C14.8221 16.2294 14.9051 16.2117 14.989 16.2117C15.073 16.2117 15.156 16.2294 15.2327 16.2636C15.3095 16.2979 15.3784 16.3479 15.4349 16.4106C15.4936 16.4696 15.5401 16.5398 15.5719 16.6171C15.6037 16.6944 15.62 16.7772 15.62 16.8609C15.62 16.9446 15.6037 17.0274 15.5719 17.1047C15.5401 17.182 15.4936 17.2522 15.4349 17.3112C11.2325 21.4999 8.47421 26.9419 7.56687 32.8344C7.369 33.9015 7.2463 34.9815 7.19969 36.0662C7.20321 36.1532 7.18971 36.24 7.15996 36.3217C7.13022 36.4034 7.08482 36.4784 7.02636 36.5424C6.96789 36.6063 6.89752 36.658 6.81925 36.6945C6.74099 36.731 6.65638 36.7515 6.57025 36.7549Z" fill="#3ABFF0"/>
<path d="M20.6802 13.0728C20.5692 13.0712 20.4605 13.0412 20.3642 12.9856C20.2679 12.93 20.1871 12.8506 20.1294 12.7549C20.0574 12.605 20.0417 12.4338 20.0851 12.2731C20.1285 12.1124 20.2281 11.973 20.3654 11.8807C24.8127 9.27924 29.8607 7.90863 35 7.90723C39.1016 7.92713 43.1519 8.83021 46.8807 10.5562C46.9568 10.5906 47.0255 10.6398 47.0826 10.7012C47.1398 10.7625 47.1843 10.8347 47.2136 10.9136C47.2428 10.9925 47.2563 11.0764 47.2532 11.1606C47.2501 11.2448 47.2304 11.3275 47.1954 11.4039C47.1641 11.4799 47.118 11.5487 47.0596 11.6062C47.0013 11.6636 46.9321 11.7086 46.8561 11.7383C46.7801 11.768 46.699 11.7819 46.6176 11.779C46.5361 11.7762 46.4561 11.7567 46.3824 11.7218C42.3446 9.90623 37.9379 9.08441 33.5245 9.32388C29.111 9.56334 24.8169 10.8573 20.9949 13.0993C20.8893 13.1145 20.7818 13.1054 20.6802 13.0728Z" fill="#3ABFF0"/>
<path d="M63.2722 34.6094C63.1196 34.6052 62.9732 34.5473 62.8583 34.4457C62.7433 34.3442 62.6671 34.2053 62.6428 34.0531C62.147 29.794 60.6966 25.7052 58.4016 22.0973C56.1066 18.4894 53.0275 15.4575 49.3983 13.2319C49.3016 13.2062 49.2124 13.1577 49.138 13.0904C49.0636 13.023 49.0062 12.9387 48.9704 12.8445C48.9346 12.7503 48.9216 12.6488 48.9324 12.5485C48.9431 12.4481 48.9774 12.3518 49.0323 12.2675C49.0872 12.1832 49.1612 12.1133 49.2482 12.0636C49.3351 12.0139 49.4325 11.9859 49.5324 11.9817C49.6322 11.9776 49.7316 11.9975 49.8223 12.0399C49.913 12.0822 49.9924 12.1458 50.0539 12.2252C53.8283 14.5456 57.0314 17.7019 59.4212 21.4557C61.811 25.2095 63.3251 29.4627 63.8492 33.8941C63.8646 34.0617 63.8162 34.2289 63.7139 34.3618C63.6116 34.4946 63.463 34.5831 63.2984 34.6094H63.2722Z" fill="#3ABFF0"/>
<path d="M59.8369 51.9602C59.7426 51.9874 59.6427 51.9874 59.5484 51.9602C59.4038 51.8814 59.2954 51.7486 59.2464 51.5903C59.1974 51.4319 59.2117 51.2604 59.2861 51.1125C61.6158 46.9225 62.8353 42.1961 62.8267 37.3906C62.8267 37.222 62.8931 37.0603 63.0111 36.9411C63.1291 36.8219 63.2892 36.7549 63.4562 36.7549C63.6231 36.7549 63.7832 36.8219 63.9013 36.9411C64.0193 37.0603 64.0856 37.222 64.0856 37.3906C64.0861 42.4084 62.8129 47.3425 60.3877 51.7218C60.3263 51.8086 60.2424 51.8768 60.1453 51.9188C60.0482 51.9609 59.9415 51.9752 59.8369 51.9602Z" fill="#3ABFF0"/>
<path d="M7.77662 51.7748C7.69377 51.7695 7.61379 51.7422 7.54472 51.6957C7.47565 51.6492 7.41994 51.5851 7.38322 51.5099C5.45755 47.6902 4.32681 43.5126 4.06068 39.2346C3.79456 34.9566 4.39869 30.6689 5.83584 26.6357C5.85023 26.5746 5.87713 26.5172 5.91481 26.4672C5.95249 26.4172 6.00011 26.3757 6.05462 26.3454C6.10913 26.3151 6.16931 26.2966 6.2313 26.2912C6.29328 26.2858 6.3557 26.2936 6.41454 26.314C6.47338 26.3344 6.52734 26.3671 6.57294 26.4098C6.61854 26.4526 6.65477 26.5045 6.67931 26.5623C6.70385 26.62 6.71616 26.6823 6.71543 26.7451C6.7147 26.808 6.70096 26.87 6.67509 26.9271C5.49238 30.2496 4.88897 33.754 4.89168 37.2847C4.87721 42.0921 6.00126 46.8332 8.17002 51.1126C8.21915 51.2191 8.22758 51.3402 8.1937 51.4527C8.15981 51.5651 8.086 51.661 7.98643 51.7218L7.77662 51.7748Z" fill="white"/>
<path d="M7.72416 23.7748C7.66496 23.7972 7.59977 23.7972 7.54057 23.7748C7.48666 23.7494 7.43834 23.7132 7.39848 23.6686C7.35861 23.6239 7.32799 23.5717 7.30844 23.5149C7.28888 23.4581 7.28078 23.398 7.28462 23.338C7.28845 23.278 7.30414 23.2193 7.33076 23.1656C9.81679 18.228 13.5531 14.0435 18.1598 11.0377C22.7665 8.03192 28.0792 6.31203 33.5575 6.05299C33.6741 6.05226 33.7869 6.09516 33.8741 6.17342C33.9612 6.25168 34.0166 6.35976 34.0296 6.47683C34.0298 6.59883 33.9836 6.71626 33.9007 6.80496C33.8178 6.89366 33.7043 6.94687 33.5837 6.95365C28.2704 7.19934 23.1166 8.86354 18.6476 11.7766C14.1786 14.6897 10.5542 18.7475 8.14379 23.5364C8.10377 23.6126 8.04296 23.6755 7.96857 23.7178C7.89419 23.76 7.80936 23.7798 7.72416 23.7748Z" fill="white"/>
<path d="M59.522 19.3245C59.455 19.3214 59.3896 19.3032 59.3305 19.2711C59.2715 19.239 59.2204 19.1939 59.181 19.139C56.5378 15.5578 53.1472 12.6074 49.2494 10.4971C45.3517 8.3867 41.0421 7.16794 36.626 6.92712C36.5662 6.92759 36.507 6.91515 36.4524 6.89062C36.3977 6.86608 36.3489 6.83003 36.3091 6.78488C36.2694 6.73972 36.2397 6.68651 36.2219 6.62881C36.2042 6.5711 36.1989 6.51024 36.2064 6.4503C36.2098 6.39113 36.2246 6.3332 36.2502 6.27985C36.2757 6.22649 36.3115 6.17876 36.3553 6.13938C36.3992 6.10001 36.4503 6.06976 36.5058 6.05038C36.5612 6.03101 36.6199 6.02288 36.6785 6.02646C41.2281 6.27127 45.668 7.52854 49.6805 9.70835C53.693 11.8882 57.179 14.9366 59.8892 18.6357C59.9296 18.6753 59.9618 18.7226 59.9837 18.7749C60.0057 18.8273 60.017 18.8835 60.017 18.9404C60.017 18.9972 60.0057 19.0535 59.9837 19.1058C59.9618 19.1581 59.9296 19.2055 59.8892 19.245C59.8424 19.2931 59.7826 19.3263 59.7174 19.3404C59.6521 19.3545 59.5842 19.349 59.522 19.3245Z" fill="white"/>
<path d="M62.2232 51.7748H62.0134C61.9138 51.714 61.84 51.6182 61.8061 51.5057C61.7722 51.3933 61.7807 51.2721 61.8298 51.1656C64.2235 46.4109 65.3403 41.1051 65.0688 35.7781C64.7973 30.4511 63.1469 25.2892 60.2824 20.808C60.2207 20.7049 60.2 20.582 60.2243 20.464C60.2486 20.3461 60.3162 20.2418 60.4136 20.1722C60.5001 20.094 60.6122 20.0508 60.7283 20.0508C60.8444 20.0508 60.9565 20.094 61.043 20.1722C64.2891 25.2473 66.0107 31.1633 65.9999 37.2053C66.0203 42.1528 64.8598 47.0323 62.6166 51.4305C62.5917 51.5205 62.5411 51.6012 62.4712 51.6624C62.4012 51.7236 62.315 51.7627 62.2232 51.7748Z" fill="white"/>
</g>
<path d="M74.032 23.136H79.232V25.504H74.032V23.136ZM74.256 27.552H80.112V30H71.12V18.8H79.904V21.248H74.256V27.552ZM87.374 21.184C88.046 21.184 88.654 21.3227 89.198 21.6C89.742 21.8667 90.1687 22.2827 90.478 22.848C90.798 23.4133 90.958 24.144 90.958 25.04V30H87.918V25.536C87.918 24.9173 87.79 24.4693 87.534 24.192C87.2887 23.904 86.942 23.76 86.494 23.76C86.174 23.76 85.8807 23.8347 85.614 23.984C85.3473 24.1227 85.1393 24.3413 84.99 24.64C84.8407 24.9387 84.766 25.328 84.766 25.808V30H81.726V21.328H84.622V23.792L84.062 23.072C84.3927 22.4427 84.846 21.9733 85.422 21.664C85.998 21.344 86.6487 21.184 87.374 21.184ZM92.8666 30V21.328H95.9066V30H92.8666ZM94.3866 20.368C93.832 20.368 93.384 20.2133 93.0426 19.904C92.7013 19.5947 92.5306 19.2107 92.5306 18.752C92.5306 18.2933 92.7013 17.9093 93.0426 17.6C93.384 17.2907 93.832 17.136 94.3866 17.136C94.9413 17.136 95.3893 17.2853 95.7306 17.584C96.072 17.872 96.2426 18.2453 96.2426 18.704C96.2426 19.184 96.072 19.584 95.7306 19.904C95.4 20.2133 94.952 20.368 94.3866 20.368ZM102.122 33.248C101.29 33.248 100.496 33.152 99.7383 32.96C98.9916 32.768 98.3516 32.4853 97.8183 32.112L98.9223 29.984C99.2849 30.272 99.7329 30.496 100.266 30.656C100.81 30.8267 101.338 30.912 101.85 30.912C102.672 30.912 103.264 30.7307 103.626 30.368C103.989 30.016 104.17 29.4987 104.17 28.816V27.792L104.33 25.36L104.314 22.912V21.328H107.21V28.416C107.21 30.0587 106.768 31.2747 105.882 32.064C104.997 32.8533 103.744 33.248 102.122 33.248ZM101.594 29.552C100.826 29.552 100.117 29.3813 99.4663 29.04C98.8263 28.688 98.3089 28.2027 97.9143 27.584C97.5303 26.9547 97.3383 26.2133 97.3383 25.36C97.3383 24.5067 97.5303 23.7707 97.9143 23.152C98.3089 22.5227 98.8263 22.0373 99.4663 21.696C100.117 21.3547 100.826 21.184 101.594 21.184C102.33 21.184 102.96 21.3333 103.482 21.632C104.005 21.92 104.4 22.3733 104.666 22.992C104.944 23.6107 105.082 24.4 105.082 25.36C105.082 26.32 104.944 27.1093 104.666 27.728C104.4 28.3467 104.005 28.8053 103.482 29.104C102.96 29.4027 102.33 29.552 101.594 29.552ZM102.314 27.136C102.677 27.136 102.997 27.0613 103.274 26.912C103.562 26.7627 103.786 26.5547 103.946 26.288C104.117 26.0213 104.202 25.712 104.202 25.36C104.202 25.008 104.117 24.6987 103.946 24.432C103.786 24.1653 103.562 23.9627 103.274 23.824C102.997 23.6747 102.677 23.6 102.314 23.6C101.952 23.6 101.626 23.6747 101.338 23.824C101.05 23.9627 100.821 24.1653 100.65 24.432C100.49 24.6987 100.41 25.008 100.41 25.36C100.41 25.712 100.49 26.0213 100.65 26.288C100.821 26.5547 101.05 26.7627 101.338 26.912C101.626 27.0613 101.952 27.136 102.314 27.136ZM120.46 21.184C121.132 21.184 121.729 21.3227 122.252 21.6C122.785 21.8667 123.201 22.2827 123.5 22.848C123.809 23.4133 123.964 24.144 123.964 25.04V30H120.924V25.536C120.924 24.9173 120.806 24.4693 120.572 24.192C120.337 23.904 120.017 23.76 119.612 23.76C119.324 23.76 119.062 23.8293 118.828 23.968C118.593 24.1067 118.412 24.32 118.284 24.608C118.156 24.8853 118.092 25.248 118.092 25.696V30H115.052V25.536C115.052 24.9173 114.934 24.4693 114.7 24.192C114.476 23.904 114.156 23.76 113.74 23.76C113.441 23.76 113.174 23.8293 112.94 23.968C112.716 24.1067 112.534 24.32 112.396 24.608C112.268 24.8853 112.204 25.248 112.204 25.696V30H109.164V21.328H112.06V23.744L111.484 23.056C111.804 22.4373 112.241 21.9733 112.796 21.664C113.35 21.344 113.969 21.184 114.652 21.184C115.43 21.184 116.113 21.3867 116.7 21.792C117.297 22.1867 117.697 22.8053 117.9 23.648L116.908 23.44C117.217 22.736 117.681 22.1867 118.3 21.792C118.929 21.3867 119.649 21.184 120.46 21.184ZM131.178 30V28.384L130.97 27.984V25.008C130.97 24.528 130.821 24.16 130.522 23.904C130.234 23.6373 129.77 23.504 129.13 23.504C128.714 23.504 128.293 23.5733 127.866 23.712C127.44 23.84 127.077 24.0213 126.778 24.256L125.754 22.192C126.245 21.872 126.832 21.6267 127.514 21.456C128.208 21.2747 128.896 21.184 129.578 21.184C130.986 21.184 132.074 21.5093 132.842 22.16C133.621 22.8 134.01 23.808 134.01 25.184V30H131.178ZM128.618 30.144C127.925 30.144 127.338 30.0267 126.858 29.792C126.378 29.5573 126.01 29.2373 125.754 28.832C125.509 28.4267 125.386 27.9733 125.386 27.472C125.386 26.9387 125.52 26.48 125.786 26.096C126.064 25.7013 126.485 25.4027 127.05 25.2C127.616 24.9867 128.346 24.88 129.242 24.88H131.29V26.464H129.658C129.168 26.464 128.821 26.544 128.618 26.704C128.426 26.864 128.33 27.0773 128.33 27.344C128.33 27.6107 128.432 27.824 128.634 27.984C128.837 28.144 129.114 28.224 129.466 28.224C129.797 28.224 130.096 28.144 130.362 27.984C130.64 27.8133 130.842 27.5573 130.97 27.216L131.386 28.336C131.226 28.9333 130.912 29.3867 130.442 29.696C129.984 29.9947 129.376 30.144 128.618 30.144Z" fill="white"/>
<path d="M73.57 39.1H74.83V42.67C74.83 43.16 74.718 43.517 74.494 43.741C74.2747 43.9603 73.92 44.07 73.43 44.07H71.82C71.33 44.07 70.973 43.9603 70.749 43.741C70.5297 43.517 70.42 43.16 70.42 42.67V39.1H71.68V42.67C71.68 42.95 71.82 43.09 72.1 43.09H73.15C73.43 43.09 73.57 42.95 73.57 42.67V39.1ZM77.665 41.235C77.4177 41.235 77.1377 41.2817 76.825 41.375V44H75.6V40.29H76.685L76.755 40.64C76.9743 40.4953 77.1983 40.3903 77.427 40.325C77.6603 40.255 77.8563 40.22 78.015 40.22H78.33C78.6473 40.22 78.9017 40.3157 79.093 40.507C79.2843 40.6983 79.38 40.9527 79.38 41.27V44H78.155V41.48C78.155 41.41 78.1317 41.3517 78.085 41.305C78.0383 41.2583 77.98 41.235 77.91 41.235H77.665ZM81.8992 44C81.5865 44.0467 81.2878 44.07 81.0032 44.07C80.7232 44.07 80.4875 43.9743 80.2962 43.783C80.1048 43.5917 80.0092 43.3373 80.0092 43.02V39.1H81.2342V42.845C81.2342 42.915 81.2575 42.9733 81.3042 43.02C81.3508 43.0667 81.4092 43.09 81.4792 43.09H81.8992V44ZM83.8231 41.095C83.6364 41.095 83.5431 41.1883 83.5431 41.375V41.76H84.7331V41.375C84.7331 41.1883 84.6398 41.095 84.4531 41.095H83.8231ZM85.8181 43.93C84.9174 44.0233 84.1008 44.07 83.3681 44.07C83.0508 44.07 82.7964 43.9743 82.6051 43.783C82.4138 43.5917 82.3181 43.3373 82.3181 43.02V41.34C82.3181 40.99 82.4161 40.717 82.6121 40.521C82.8128 40.3203 83.0881 40.22 83.4381 40.22H84.8381C85.1881 40.22 85.4611 40.3203 85.6571 40.521C85.8578 40.717 85.9581 40.99 85.9581 41.34V42.635H83.5431V42.915C83.5431 42.985 83.5664 43.0433 83.6131 43.09C83.6598 43.1367 83.7181 43.16 83.7881 43.16C84.2501 43.16 84.9268 43.125 85.8181 43.055V43.93ZM88.0554 43.09C88.3027 43.09 88.5827 43.0433 88.8954 42.95V42.53H87.8804C87.8104 42.53 87.752 42.5533 87.7054 42.6C87.6587 42.6467 87.6354 42.705 87.6354 42.775V42.845C87.6354 42.915 87.6587 42.9733 87.7054 43.02C87.752 43.0667 87.8104 43.09 87.8804 43.09H88.0554ZM86.7604 40.36C87.6144 40.2667 88.3844 40.22 89.0704 40.22C89.3877 40.22 89.642 40.3157 89.8334 40.507C90.0247 40.6983 90.1204 40.9527 90.1204 41.27V44H89.0354L88.9654 43.65C88.746 43.7947 88.5197 43.902 88.2864 43.972C88.0577 44.0373 87.864 44.07 87.7054 44.07H87.4604C87.143 44.07 86.8887 43.9743 86.6974 43.783C86.506 43.5917 86.4104 43.3373 86.4104 43.02V42.705C86.4104 42.3877 86.506 42.1333 86.6974 41.942C86.8887 41.7507 87.143 41.655 87.4604 41.655H88.8954V41.375C88.8954 41.305 88.872 41.2467 88.8254 41.2C88.7787 41.1533 88.7204 41.13 88.6504 41.13C88.347 41.13 88.011 41.144 87.6424 41.172C87.2784 41.2 86.9844 41.221 86.7604 41.235V40.36ZM90.6084 43.02C91.5558 43.09 92.3024 43.125 92.8484 43.125C92.9184 43.125 92.9768 43.1017 93.0234 43.055C93.0701 43.0083 93.0934 42.95 93.0934 42.88V42.635H91.5884C91.2711 42.635 91.0168 42.5393 90.8254 42.348C90.6341 42.1567 90.5384 41.9023 90.5384 41.585V41.34C90.5384 41.0227 90.6341 40.7683 90.8254 40.577C91.0168 40.3857 91.2711 40.29 91.5884 40.29H93.9684V41.2H92.0084C91.9384 41.2 91.8801 41.2233 91.8334 41.27C91.7868 41.3167 91.7634 41.375 91.7634 41.445C91.7634 41.515 91.7868 41.5733 91.8334 41.62C91.8801 41.6667 91.9384 41.69 92.0084 41.69H93.2684C93.5858 41.69 93.8401 41.7857 94.0314 41.977C94.2228 42.1683 94.3184 42.4227 94.3184 42.74V43.02C94.3184 43.3373 94.2228 43.5917 94.0314 43.783C93.8401 43.9743 93.5858 44.07 93.2684 44.07C92.4424 44.07 91.5558 44.0233 90.6084 43.93V43.02ZM96.034 40.36C96.4867 40.2667 96.8833 40.22 97.224 40.22H97.539C97.8563 40.22 98.1107 40.3157 98.302 40.507C98.4933 40.6983 98.589 40.9527 98.589 41.27V44H97.364V41.41C97.364 41.34 97.3407 41.2817 97.294 41.235C97.2473 41.1883 97.189 41.165 97.119 41.165H96.874C96.6967 41.165 96.5333 41.1743 96.384 41.193C96.2393 41.2117 96.1227 41.2257 96.034 41.235V44H94.809V39.1H96.034V40.36ZM101.387 39.1H104.327C104.817 39.1 105.171 39.212 105.391 39.436C105.615 39.6553 105.727 40.01 105.727 40.5V41.2C105.727 41.69 105.615 42.047 105.391 42.271C105.171 42.4903 104.817 42.6 104.327 42.6H102.647V44H101.387V39.1ZM104.467 40.5C104.467 40.22 104.327 40.08 104.047 40.08H102.647V41.62H104.047C104.327 41.62 104.467 41.48 104.467 41.2V40.5ZM108.422 41.305C108.128 41.305 107.824 41.375 107.512 41.515V44H106.287V40.29H107.372L107.442 40.745C107.843 40.395 108.263 40.22 108.702 40.22H109.017V41.305H108.422ZM113.15 42.95C113.15 43.3 113.049 43.5753 112.849 43.776C112.653 43.972 112.38 44.07 112.03 44.07H110.42C110.07 44.07 109.794 43.972 109.594 43.776C109.398 43.5753 109.3 43.3 109.3 42.95V41.34C109.3 40.99 109.398 40.717 109.594 40.521C109.794 40.3203 110.07 40.22 110.42 40.22H112.03C112.38 40.22 112.653 40.3203 112.849 40.521C113.049 40.717 113.15 40.99 113.15 41.34V42.95ZM111.925 41.445C111.925 41.2583 111.831 41.165 111.645 41.165H110.805C110.618 41.165 110.525 41.2583 110.525 41.445V42.845C110.525 43.0317 110.618 43.125 110.805 43.125H111.645C111.831 43.125 111.925 43.0317 111.925 42.845V41.445ZM116.264 41.41C116.264 41.34 116.24 41.2817 116.194 41.235C116.147 41.1883 116.089 41.165 116.019 41.165H115.844C115.648 41.165 115.477 41.1743 115.333 41.193C115.193 41.2117 115.083 41.2257 115.004 41.235V43.055H115.984C116.17 43.055 116.264 42.9617 116.264 42.775V41.41ZM115.004 40.36C115.456 40.2667 115.853 40.22 116.194 40.22H116.439C116.756 40.22 117.01 40.3157 117.202 40.507C117.393 40.6983 117.489 40.9527 117.489 41.27V42.88C117.489 43.23 117.388 43.5053 117.188 43.706C116.992 43.902 116.719 44 116.369 44H113.779V39.1H115.004V40.36ZM119.59 43.09C119.837 43.09 120.117 43.0433 120.43 42.95V42.53H119.415C119.345 42.53 119.286 42.5533 119.24 42.6C119.193 42.6467 119.17 42.705 119.17 42.775V42.845C119.17 42.915 119.193 42.9733 119.24 43.02C119.286 43.0667 119.345 43.09 119.415 43.09H119.59ZM118.295 40.36C119.149 40.2667 119.919 40.22 120.605 40.22C120.922 40.22 121.176 40.3157 121.368 40.507C121.559 40.6983 121.655 40.9527 121.655 41.27V44H120.57L120.5 43.65C120.28 43.7947 120.054 43.902 119.821 43.972C119.592 44.0373 119.398 44.07 119.24 44.07H118.995C118.677 44.07 118.423 43.9743 118.232 43.783C118.04 43.5917 117.945 43.3373 117.945 43.02V42.705C117.945 42.3877 118.04 42.1333 118.232 41.942C118.423 41.7507 118.677 41.655 118.995 41.655H120.43V41.375C120.43 41.305 120.406 41.2467 120.36 41.2C120.313 41.1533 120.255 41.13 120.185 41.13C119.881 41.13 119.545 41.144 119.177 41.172C118.813 41.2 118.519 41.221 118.295 41.235V40.36ZM124.768 41.41C124.768 41.34 124.744 41.2817 124.698 41.235C124.651 41.1883 124.593 41.165 124.523 41.165H124.348C124.152 41.165 123.981 41.1743 123.837 41.193C123.697 41.2117 123.587 41.2257 123.508 41.235V43.055H124.488C124.674 43.055 124.768 42.9617 124.768 42.775V41.41ZM123.508 40.36C123.96 40.2667 124.357 40.22 124.698 40.22H124.943C125.26 40.22 125.514 40.3157 125.706 40.507C125.897 40.6983 125.993 40.9527 125.993 41.27V42.88C125.993 43.23 125.892 43.5053 125.692 43.706C125.496 43.902 125.223 44 124.873 44H122.283V39.1H123.508V40.36ZM128.163 40.43V44H126.938V41.375H126.413V40.43H128.163ZM126.938 39.03H128.163V40.01H126.938V39.03ZM130.756 44C130.443 44.0467 130.144 44.07 129.86 44.07C129.58 44.07 129.344 43.9743 129.153 43.783C128.961 43.5917 128.866 43.3373 128.866 43.02V39.1H130.091V42.845C130.091 42.915 130.114 42.9733 130.161 43.02C130.207 43.0667 130.266 43.09 130.336 43.09H130.756V44ZM132.785 40.43V44H131.56V41.375H131.035V40.43H132.785ZM131.56 39.03H132.785V40.01H131.56V39.03ZM136.077 44C135.624 44.0467 135.181 44.07 134.747 44.07C134.429 44.07 134.175 43.9743 133.984 43.783C133.792 43.5917 133.697 43.3373 133.697 43.02V41.235H133.277V40.29H133.697L133.837 39.45H134.922V40.29H135.797V41.235H134.922V42.845C134.922 42.915 134.945 42.9733 134.992 43.02C135.038 43.0667 135.097 43.09 135.167 43.09H136.077V44ZM137.973 40.43V44H136.748V41.375H136.223V40.43H137.973ZM136.748 39.03H137.973V40.01H136.748V39.03ZM140.11 41.095C139.924 41.095 139.83 41.1883 139.83 41.375V41.76H141.02V41.375C141.02 41.1883 140.927 41.095 140.74 41.095H140.11ZM142.105 43.93C141.205 44.0233 140.388 44.07 139.655 44.07C139.338 44.07 139.084 43.9743 138.892 43.783C138.701 43.5917 138.605 43.3373 138.605 43.02V41.34C138.605 40.99 138.703 40.717 138.899 40.521C139.1 40.3203 139.375 40.22 139.725 40.22H141.125C141.475 40.22 141.748 40.3203 141.944 40.521C142.145 40.717 142.245 40.99 142.245 41.34V42.635H139.83V42.915C139.83 42.985 139.854 43.0433 139.9 43.09C139.947 43.1367 140.005 43.16 140.075 43.16C140.537 43.16 141.214 43.125 142.105 43.055V43.93ZM142.732 43.02C143.68 43.09 144.426 43.125 144.972 43.125C145.042 43.125 145.101 43.1017 145.147 43.055C145.194 43.0083 145.217 42.95 145.217 42.88V42.635H143.712C143.395 42.635 143.141 42.5393 142.949 42.348C142.758 42.1567 142.662 41.9023 142.662 41.585V41.34C142.662 41.0227 142.758 40.7683 142.949 40.577C143.141 40.3857 143.395 40.29 143.712 40.29H146.092V41.2H144.132C144.062 41.2 144.004 41.2233 143.957 41.27C143.911 41.3167 143.887 41.375 143.887 41.445C143.887 41.515 143.911 41.5733 143.957 41.62C144.004 41.6667 144.062 41.69 144.132 41.69H145.392C145.71 41.69 145.964 41.7857 146.155 41.977C146.347 42.1683 146.442 42.4227 146.442 42.74V43.02C146.442 43.3373 146.347 43.5917 146.155 43.783C145.964 43.9743 145.71 44.07 145.392 44.07C144.566 44.07 143.68 44.0233 142.732 43.93V43.02ZM152.952 42.53L153.582 40.29H154.912L153.757 44H152.462L151.762 41.76L151.062 44H149.767L148.612 40.29H149.942L150.572 42.53L151.202 40.29H152.322L152.952 42.53ZM156.731 40.43V44H155.506V41.375H154.981V40.43H156.731ZM155.506 39.03H156.731V40.01H155.506V39.03ZM160.023 44C159.57 44.0467 159.127 44.07 158.693 44.07C158.376 44.07 158.121 43.9743 157.93 43.783C157.739 43.5917 157.643 43.3373 157.643 43.02V41.235H157.223V40.29H157.643L157.783 39.45H158.868V40.29H159.743V41.235H158.868V42.845C158.868 42.915 158.891 42.9733 158.938 43.02C158.985 43.0667 159.043 43.09 159.113 43.09H160.023V44ZM161.741 40.36C162.194 40.2667 162.59 40.22 162.931 40.22H163.246C163.563 40.22 163.818 40.3157 164.009 40.507C164.2 40.6983 164.296 40.9527 164.296 41.27V44H163.071V41.41C163.071 41.34 163.048 41.2817 163.001 41.235C162.954 41.1883 162.896 41.165 162.826 41.165H162.581C162.404 41.165 162.24 41.1743 162.091 41.193C161.946 41.2117 161.83 41.2257 161.741 41.235V44H160.516V39.1H161.741V40.36ZM170.979 44H167.094V39.1H170.979V40.08H168.354V41.025H170.419V42.005H168.354V43.02H170.979V44ZM173.532 41.235C173.285 41.235 173.005 41.2817 172.692 41.375V44H171.467V40.29H172.552L172.622 40.64C172.842 40.4953 173.066 40.3903 173.294 40.325C173.528 40.255 173.724 40.22 173.882 40.22H174.197C174.515 40.22 174.769 40.3157 174.96 40.507C175.152 40.6983 175.247 40.9527 175.247 41.27V44H174.022V41.48C174.022 41.41 173.999 41.3517 173.952 41.305C173.906 41.2583 173.847 41.235 173.777 41.235H173.532ZM177.416 40.43V44H176.191V41.375H175.666V40.43H177.416ZM176.191 39.03H177.416V40.01H176.191V39.03ZM180.534 43.72C180.081 43.8133 179.684 43.86 179.344 43.86H179.099C178.781 43.86 178.527 43.7643 178.336 43.573C178.144 43.3817 178.049 43.1273 178.049 42.81V41.41C178.049 41.06 178.147 40.787 178.343 40.591C178.543 40.3903 178.819 40.29 179.169 40.29H181.759V44.21C181.759 44.5273 181.663 44.7817 181.472 44.973C181.28 45.1643 181.026 45.26 180.709 45.26C179.976 45.26 179.159 45.2133 178.259 45.12V44.21C179.15 44.28 179.827 44.315 180.289 44.315C180.359 44.315 180.417 44.2917 180.464 44.245C180.51 44.1983 180.534 44.14 180.534 44.07V43.72ZM179.694 42.915C179.988 42.915 180.268 42.8917 180.534 42.845V41.235H179.554C179.367 41.235 179.274 41.3283 179.274 41.515V42.67C179.274 42.74 179.297 42.7983 179.344 42.845C179.39 42.8917 179.449 42.915 179.519 42.915H179.694ZM184.944 40.22C185.322 40.22 185.614 40.36 185.819 40.64C186.034 40.4953 186.265 40.3903 186.512 40.325C186.764 40.255 186.988 40.22 187.184 40.22H187.254C187.572 40.22 187.826 40.3157 188.017 40.507C188.209 40.6983 188.304 40.9527 188.304 41.27V44H187.079V41.48C187.079 41.41 187.056 41.3517 187.009 41.305C186.963 41.2583 186.904 41.235 186.834 41.235H186.799C186.589 41.235 186.321 41.2817 185.994 41.375V44H184.769V41.48C184.769 41.41 184.746 41.3517 184.699 41.305C184.653 41.2583 184.594 41.235 184.524 41.235H184.489C184.279 41.235 184.011 41.2817 183.684 41.375V44H182.459V40.29H183.544L183.614 40.64C183.834 40.4953 184.058 40.3903 184.286 40.325C184.52 40.255 184.716 40.22 184.874 40.22H184.944ZM190.403 43.09C190.65 43.09 190.93 43.0433 191.243 42.95V42.53H190.228C190.158 42.53 190.1 42.5533 190.053 42.6C190.006 42.6467 189.983 42.705 189.983 42.775V42.845C189.983 42.915 190.006 42.9733 190.053 43.02C190.1 43.0667 190.158 43.09 190.228 43.09H190.403ZM189.108 40.36C189.962 40.2667 190.732 40.22 191.418 40.22C191.735 40.22 191.99 40.3157 192.181 40.507C192.372 40.6983 192.468 40.9527 192.468 41.27V44H191.383L191.313 43.65C191.094 43.7947 190.867 43.902 190.634 43.972C190.405 44.0373 190.212 44.07 190.053 44.07H189.808C189.491 44.07 189.236 43.9743 189.045 43.783C188.854 43.5917 188.758 43.3373 188.758 43.02V42.705C188.758 42.3877 188.854 42.1333 189.045 41.942C189.236 41.7507 189.491 41.655 189.808 41.655H191.243V41.375C191.243 41.305 191.22 41.2467 191.173 41.2C191.126 41.1533 191.068 41.13 190.998 41.13C190.695 41.13 190.359 41.144 189.99 41.172C189.626 41.2 189.332 41.221 189.108 41.235V40.36Z" fill="white"/>
<defs>
<radialGradient id="paint0_radial_342_2607" cx="0" cy="0" r="1" gradientUnits="userSpaceOnUse" gradientTransform="translate(21.1 33.2583) scale(6.63536 6.70199)">
<stop stop-color="#29235C"/>
<stop offset="0.01" stop-color="#29245D"/>
<stop offset="0.3" stop-color="#174282"/>
<stop offset="0.57" stop-color="#0A589D"/>
<stop offset="0.81" stop-color="#0365AD"/>
<stop offset="1" stop-color="#006AB3"/>
</radialGradient>
<radialGradient id="paint1_radial_342_2607" cx="0" cy="0" r="1" gradientUnits="userSpaceOnUse" gradientTransform="translate(47.0379 37.6292) scale(3.96024 4)">
<stop stop-color="#29235C"/>
<stop offset="0.04" stop-color="#2B2C64"/>
<stop offset="0.27" stop-color="#375C8F"/>
<stop offset="0.49" stop-color="#4081B1"/>
<stop offset="0.69" stop-color="#479CCA"/>
<stop offset="0.86" stop-color="#4BACD9"/>
<stop offset="1" stop-color="#4CB2DE"/>
</radialGradient>
<radialGradient id="paint2_radial_342_2607" cx="0" cy="0" r="1" gradientUnits="userSpaceOnUse" gradientTransform="translate(44.8089 17.682) scale(3.0423 3.07285)">
<stop stop-color="#29235C"/>
<stop offset="0.04" stop-color="#2B2C64"/>
<stop offset="0.27" stop-color="#375C8F"/>
<stop offset="0.49" stop-color="#4081B1"/>
<stop offset="0.69" stop-color="#479CCA"/>
<stop offset="0.86" stop-color="#4BACD9"/>
<stop offset="1" stop-color="#4CB2DE"/>
</radialGradient>
<radialGradient id="paint3_radial_342_2607" cx="0" cy="0" r="1" gradientUnits="userSpaceOnUse" gradientTransform="translate(40.088 24.8079) scale(2.41286 2.43709)">
<stop stop-color="white"/>
<stop offset="0.09" stop-color="#F2F2F2"/>
<stop offset="0.51" stop-color="#B9B9B9"/>
<stop offset="0.83" stop-color="#959595"/>
<stop offset="1" stop-color="#878787"/>
</radialGradient>
<radialGradient id="paint4_radial_342_2607" cx="0" cy="0" r="1" gradientUnits="userSpaceOnUse" gradientTransform="translate(33.8983 34.8213) scale(1.73096 1.74834)">
<stop stop-color="#BA1818"/>
<stop offset="0.27" stop-color="#C52727"/>
<stop offset="0.6" stop-color="#CD3231"/>
<stop offset="0.98" stop-color="#CF3534"/>
</radialGradient>
<radialGradient id="paint5_radial_342_2607" cx="0" cy="0" r="1" gradientUnits="userSpaceOnUse" gradientTransform="translate(38.2786 45.1523) scale(1.8621 1.8808)">
<stop stop-color="#29235C"/>
<stop offset="0.01" stop-color="#29245D"/>
<stop offset="0.3" stop-color="#174282"/>
<stop offset="0.57" stop-color="#0A589D"/>
<stop offset="0.81" stop-color="#0365AD"/>
<stop offset="1" stop-color="#006AB3"/>
</radialGradient>
<radialGradient id="paint6_radial_342_2607" cx="0" cy="0" r="1" gradientUnits="userSpaceOnUse" gradientTransform="translate(38.2786 20.5165) scale(1.8621 1.88079)">
<stop stop-color="#29235C"/>
<stop offset="0.01" stop-color="#29245D"/>
<stop offset="0.3" stop-color="#174282"/>
<stop offset="0.57" stop-color="#0A589D"/>
<stop offset="0.81" stop-color="#0365AD"/>
<stop offset="1" stop-color="#006AB3"/>
</radialGradient>
<radialGradient id="paint7_radial_342_2607" cx="0" cy="0" r="1" gradientUnits="userSpaceOnUse" gradientTransform="translate(18.9756 33.3908) scale(10.0711 10.1722)">
<stop stop-color="#29235C"/>
<stop offset="0.04" stop-color="#2B2C64"/>
<stop offset="0.27" stop-color="#375C8F"/>
<stop offset="0.49" stop-color="#4081B1"/>
<stop offset="0.69" stop-color="#479CCA"/>
<stop offset="0.86" stop-color="#4BACD9"/>
<stop offset="1" stop-color="#4CB2DE"/>
</radialGradient>
<radialGradient id="paint8_radial_342_2607" cx="0" cy="0" r="1" gradientUnits="userSpaceOnUse" gradientTransform="translate(43.8908 24.702) scale(0.865482 0.874172)">
<stop stop-color="white"/>
<stop offset="0.09" stop-color="#F2F2F2"/>
<stop offset="0.51" stop-color="#B9B9B9"/>
<stop offset="0.83" stop-color="#959595"/>
<stop offset="1" stop-color="#878787"/>
</radialGradient>
<radialGradient id="paint9_radial_342_2607" cx="0" cy="0" r="1" gradientUnits="userSpaceOnUse" gradientTransform="translate(41.2946 21.0463) scale(0.865482 0.874172)">
<stop stop-color="#29235C"/>
<stop offset="0.01" stop-color="#29245D"/>
<stop offset="0.3" stop-color="#174282"/>
<stop offset="0.57" stop-color="#0A589D"/>
<stop offset="0.81" stop-color="#0365AD"/>
<stop offset="1" stop-color="#006AB3"/>
</radialGradient>
<radialGradient id="paint10_radial_342_2607" cx="0" cy="0" r="1" gradientUnits="userSpaceOnUse" gradientTransform="translate(48.6639 20.0662) scale(0.944162 0.953643)">
<stop stop-color="#29235C"/>
<stop offset="0.04" stop-color="#2B2C64"/>
<stop offset="0.27" stop-color="#375C8F"/>
<stop offset="0.49" stop-color="#4081B1"/>
<stop offset="0.69" stop-color="#479CCA"/>
<stop offset="0.86" stop-color="#4BACD9"/>
<stop offset="1" stop-color="#4CB2DE"/>
</radialGradient>
<radialGradient id="paint11_radial_342_2607" cx="0" cy="0" r="1" gradientUnits="userSpaceOnUse" gradientTransform="translate(47.0904 32.0133) scale(0.865483 0.874172)">
<stop stop-color="#29235C"/>
<stop offset="0.04" stop-color="#2B2C64"/>
<stop offset="0.27" stop-color="#375C8F"/>
<stop offset="0.49" stop-color="#4081B1"/>
<stop offset="0.69" stop-color="#479CCA"/>
<stop offset="0.86" stop-color="#4BACD9"/>
<stop offset="1" stop-color="#4CB2DE"/>
</radialGradient>
<radialGradient id="paint12_radial_342_2607" cx="0" cy="0" r="1" gradientUnits="userSpaceOnUse" gradientTransform="translate(36.5475 31.5364) scale(1.41624 1.43046)">
<stop stop-color="#BA1818"/>
<stop offset="0.27" stop-color="#C52727"/>
<stop offset="0.6" stop-color="#CD3231"/>
<stop offset="0.98" stop-color="#CF3534"/>
</radialGradient>
<radialGradient id="paint13_radial_342_2607" cx="0" cy="0" r="1" gradientUnits="userSpaceOnUse" gradientTransform="translate(41.2946 44.7815) scale(0.865482 0.874172)">
<stop stop-color="#29235C"/>
<stop offset="0.01" stop-color="#29245D"/>
<stop offset="0.3" stop-color="#174282"/>
<stop offset="0.57" stop-color="#0A589D"/>
<stop offset="0.81" stop-color="#0365AD"/>
<stop offset="1" stop-color="#006AB3"/>
</radialGradient>
<clipPath id="clip0_342_2607">
<rect width="62" height="48" fill="white" transform="translate(4 6)"/>
</clipPath>
</defs>
</svg>
